G75*
%MOIN*%
%OFA0B0*%
%FSLAX25Y25*%
%IPPOS*%
%LPD*%
%AMOC8*
5,1,8,0,0,1.08239X$1,22.5*
%
%ADD10R,0.06600X0.06600*%
%ADD11OC8,0.06600*%
%ADD12C,0.05000*%
%ADD13C,0.06600*%
%ADD14C,0.11811*%
%ADD15C,0.01200*%
%ADD16C,0.03150*%
%ADD17C,0.02362*%
%ADD18C,0.01181*%
%ADD19C,0.03937*%
D10*
X0161155Y0058146D03*
D11*
X0151155Y0058146D03*
X0141155Y0058146D03*
X0131155Y0058146D03*
X0121155Y0058146D03*
D12*
X0187809Y0114591D03*
X0187809Y0133591D03*
D13*
X0067100Y0038205D03*
X0057100Y0043205D03*
X0067100Y0048205D03*
X0057100Y0053205D03*
X0067100Y0058205D03*
X0057100Y0063205D03*
X0067100Y0068205D03*
X0057100Y0073205D03*
X0067100Y0098205D03*
X0057100Y0103205D03*
X0067100Y0108205D03*
X0057100Y0113205D03*
X0067100Y0118205D03*
X0057100Y0123205D03*
X0067100Y0128205D03*
X0057100Y0133205D03*
D14*
X0323045Y0095547D03*
X0323045Y0075862D03*
D15*
X0261234Y0071925D02*
X0261234Y0023313D01*
X0137218Y0023313D01*
X0137218Y0050272D01*
X0133856Y0053634D01*
X0136255Y0056033D01*
X0136255Y0060258D01*
X0133268Y0063246D01*
X0129043Y0063246D01*
X0126643Y0060846D01*
X0119502Y0067988D01*
X0078163Y0067988D01*
X0078163Y0148097D01*
X0219895Y0148097D01*
X0219895Y0089642D01*
X0233675Y0075862D01*
X0257297Y0075862D01*
X0261234Y0071925D01*
X0260879Y0072280D02*
X0220317Y0072280D01*
X0220317Y0071082D02*
X0261234Y0071082D01*
X0261234Y0069883D02*
X0220317Y0069883D01*
X0220317Y0068685D02*
X0261234Y0068685D01*
X0261234Y0067486D02*
X0220317Y0067486D01*
X0220317Y0066288D02*
X0261234Y0066288D01*
X0261234Y0065089D02*
X0220317Y0065089D01*
X0220317Y0063891D02*
X0261234Y0063891D01*
X0261234Y0062692D02*
X0220317Y0062692D01*
X0220317Y0061493D02*
X0261234Y0061493D01*
X0261234Y0060295D02*
X0220317Y0060295D01*
X0220317Y0059096D02*
X0261234Y0059096D01*
X0261234Y0057898D02*
X0220317Y0057898D01*
X0220317Y0056699D02*
X0261234Y0056699D01*
X0261234Y0055501D02*
X0220317Y0055501D01*
X0220317Y0054302D02*
X0261234Y0054302D01*
X0261234Y0053104D02*
X0220317Y0053104D01*
X0220317Y0051905D02*
X0261234Y0051905D01*
X0261234Y0050707D02*
X0220317Y0050707D01*
X0220317Y0049508D02*
X0261234Y0049508D01*
X0261234Y0048310D02*
X0220317Y0048310D01*
X0220317Y0047111D02*
X0261234Y0047111D01*
X0261234Y0045913D02*
X0220317Y0045913D01*
X0220317Y0044714D02*
X0261234Y0044714D01*
X0261234Y0043516D02*
X0220317Y0043516D01*
X0220317Y0042317D02*
X0261234Y0042317D01*
X0261234Y0041119D02*
X0220317Y0041119D01*
X0220317Y0039920D02*
X0261234Y0039920D01*
X0261234Y0038722D02*
X0220317Y0038722D01*
X0220317Y0037523D02*
X0261234Y0037523D01*
X0261234Y0036325D02*
X0220317Y0036325D01*
X0220317Y0035126D02*
X0261234Y0035126D01*
X0261234Y0033928D02*
X0220317Y0033928D01*
X0220317Y0032729D02*
X0261234Y0032729D01*
X0261234Y0031531D02*
X0220090Y0031531D01*
X0219953Y0031201D02*
X0220317Y0032080D01*
X0220317Y0080275D01*
X0219953Y0081153D01*
X0219281Y0081826D01*
X0205501Y0095605D01*
X0204623Y0095969D01*
X0198655Y0095969D01*
X0198185Y0096440D01*
X0196945Y0096954D01*
X0195602Y0096954D01*
X0194362Y0096440D01*
X0193412Y0095490D01*
X0192898Y0094250D01*
X0192898Y0092907D01*
X0193412Y0091667D01*
X0194362Y0090718D01*
X0195602Y0090204D01*
X0196945Y0090204D01*
X0198185Y0090718D01*
X0198655Y0091188D01*
X0203157Y0091188D01*
X0215536Y0078809D01*
X0215536Y0033545D01*
X0215080Y0033089D01*
X0215396Y0033852D01*
X0215396Y0035195D01*
X0214882Y0036435D01*
X0214412Y0036906D01*
X0214412Y0076338D01*
X0214048Y0077216D01*
X0211459Y0079805D01*
X0211459Y0080470D01*
X0210945Y0081711D01*
X0209996Y0082660D01*
X0208756Y0083174D01*
X0207413Y0083174D01*
X0206173Y0082660D01*
X0205223Y0081711D01*
X0204709Y0080470D01*
X0204709Y0079128D01*
X0205223Y0077888D01*
X0206173Y0076938D01*
X0207413Y0076424D01*
X0208078Y0076424D01*
X0209631Y0074872D01*
X0209631Y0037505D01*
X0169949Y0037505D01*
X0154136Y0053317D01*
X0154136Y0053914D01*
X0156055Y0055833D01*
X0156055Y0054100D01*
X0157110Y0053046D01*
X0165201Y0053046D01*
X0166255Y0054100D01*
X0166255Y0059865D01*
X0166804Y0060414D01*
X0167168Y0061292D01*
X0167168Y0071512D01*
X0167638Y0071982D01*
X0168152Y0073222D01*
X0168152Y0074565D01*
X0167638Y0075805D01*
X0166689Y0076755D01*
X0165448Y0077268D01*
X0164106Y0077268D01*
X0162865Y0076755D01*
X0161916Y0075805D01*
X0161402Y0074565D01*
X0161402Y0073222D01*
X0161916Y0071982D01*
X0162387Y0071512D01*
X0162387Y0063246D01*
X0157110Y0063246D01*
X0156055Y0062191D01*
X0156055Y0060458D01*
X0153268Y0063246D01*
X0150271Y0063246D01*
X0108703Y0104814D01*
X0108703Y0107705D01*
X0109097Y0108655D01*
X0109097Y0109998D01*
X0108583Y0111238D01*
X0107634Y0112188D01*
X0106393Y0112702D01*
X0105051Y0112702D01*
X0103810Y0112188D01*
X0102861Y0111238D01*
X0102347Y0109998D01*
X0102347Y0108655D01*
X0102741Y0107705D01*
X0102741Y0102986D01*
X0103195Y0101890D01*
X0142252Y0062833D01*
X0141441Y0062833D01*
X0141441Y0058432D01*
X0140869Y0058432D01*
X0140869Y0062833D01*
X0139214Y0062833D01*
X0136468Y0060087D01*
X0136468Y0058431D01*
X0140869Y0058431D01*
X0140869Y0057860D01*
X0136468Y0057860D01*
X0136468Y0056204D01*
X0139214Y0053458D01*
X0140869Y0053458D01*
X0140869Y0057860D01*
X0141441Y0057860D01*
X0141441Y0058431D01*
X0145843Y0058431D01*
X0145843Y0059242D01*
X0146055Y0059030D01*
X0146055Y0056033D01*
X0148174Y0053914D01*
X0148174Y0051490D01*
X0148628Y0050394D01*
X0167026Y0031996D01*
X0167538Y0031784D01*
X0166802Y0031479D01*
X0165853Y0030530D01*
X0165339Y0029289D01*
X0165339Y0027947D01*
X0165853Y0026706D01*
X0166802Y0025757D01*
X0168043Y0025243D01*
X0169385Y0025243D01*
X0170626Y0025757D01*
X0171096Y0026228D01*
X0214465Y0026228D01*
X0215344Y0026591D01*
X0216016Y0027264D01*
X0219953Y0031201D01*
X0219085Y0030332D02*
X0261234Y0030332D01*
X0261234Y0029134D02*
X0217886Y0029134D01*
X0216688Y0027935D02*
X0261234Y0027935D01*
X0261234Y0026737D02*
X0215489Y0026737D01*
X0215396Y0033928D02*
X0215536Y0033928D01*
X0215536Y0035126D02*
X0215396Y0035126D01*
X0215536Y0036325D02*
X0214928Y0036325D01*
X0214412Y0037523D02*
X0215536Y0037523D01*
X0215536Y0038722D02*
X0214412Y0038722D01*
X0214412Y0039920D02*
X0215536Y0039920D01*
X0215536Y0041119D02*
X0214412Y0041119D01*
X0214412Y0042317D02*
X0215536Y0042317D01*
X0215536Y0043516D02*
X0214412Y0043516D01*
X0214412Y0044714D02*
X0215536Y0044714D01*
X0215536Y0045913D02*
X0214412Y0045913D01*
X0214412Y0047111D02*
X0215536Y0047111D01*
X0215536Y0048310D02*
X0214412Y0048310D01*
X0214412Y0049508D02*
X0215536Y0049508D01*
X0215536Y0050707D02*
X0214412Y0050707D01*
X0214412Y0051905D02*
X0215536Y0051905D01*
X0215536Y0053104D02*
X0214412Y0053104D01*
X0214412Y0054302D02*
X0215536Y0054302D01*
X0215536Y0055501D02*
X0214412Y0055501D01*
X0214412Y0056699D02*
X0215536Y0056699D01*
X0215536Y0057898D02*
X0214412Y0057898D01*
X0214412Y0059096D02*
X0215536Y0059096D01*
X0215536Y0060295D02*
X0214412Y0060295D01*
X0214412Y0061493D02*
X0215536Y0061493D01*
X0215536Y0062692D02*
X0214412Y0062692D01*
X0214412Y0063891D02*
X0215536Y0063891D01*
X0215536Y0065089D02*
X0214412Y0065089D01*
X0214412Y0066288D02*
X0215536Y0066288D01*
X0215536Y0067486D02*
X0214412Y0067486D01*
X0214412Y0068685D02*
X0215536Y0068685D01*
X0215536Y0069883D02*
X0214412Y0069883D01*
X0214412Y0071082D02*
X0215536Y0071082D01*
X0215536Y0072280D02*
X0214412Y0072280D01*
X0214412Y0073479D02*
X0215536Y0073479D01*
X0215536Y0074677D02*
X0214412Y0074677D01*
X0214412Y0075876D02*
X0215536Y0075876D01*
X0215536Y0077074D02*
X0214107Y0077074D01*
X0212992Y0078273D02*
X0215536Y0078273D01*
X0214874Y0079471D02*
X0211793Y0079471D01*
X0211377Y0080670D02*
X0213676Y0080670D01*
X0212477Y0081868D02*
X0210788Y0081868D01*
X0211279Y0083067D02*
X0209015Y0083067D01*
X0210080Y0084265D02*
X0129252Y0084265D01*
X0130450Y0083067D02*
X0207154Y0083067D01*
X0205381Y0081868D02*
X0131649Y0081868D01*
X0132847Y0080670D02*
X0204792Y0080670D01*
X0204709Y0079471D02*
X0134046Y0079471D01*
X0135244Y0078273D02*
X0205064Y0078273D01*
X0206037Y0077074D02*
X0165918Y0077074D01*
X0167568Y0075876D02*
X0208627Y0075876D01*
X0209631Y0074677D02*
X0168106Y0074677D01*
X0168152Y0073479D02*
X0209631Y0073479D01*
X0209631Y0072280D02*
X0167762Y0072280D01*
X0167168Y0071082D02*
X0209631Y0071082D01*
X0209631Y0069883D02*
X0167168Y0069883D01*
X0167168Y0068685D02*
X0209631Y0068685D01*
X0209631Y0067486D02*
X0167168Y0067486D01*
X0167168Y0066288D02*
X0209631Y0066288D01*
X0209631Y0065089D02*
X0167168Y0065089D01*
X0167168Y0063891D02*
X0209631Y0063891D01*
X0209631Y0062692D02*
X0167168Y0062692D01*
X0167168Y0061493D02*
X0209631Y0061493D01*
X0209631Y0060295D02*
X0166685Y0060295D01*
X0166255Y0059096D02*
X0209631Y0059096D01*
X0209631Y0057898D02*
X0166255Y0057898D01*
X0166255Y0056699D02*
X0209631Y0056699D01*
X0209631Y0055501D02*
X0166255Y0055501D01*
X0166255Y0054302D02*
X0209631Y0054302D01*
X0209631Y0053104D02*
X0165259Y0053104D01*
X0157051Y0053104D02*
X0154350Y0053104D01*
X0154524Y0054302D02*
X0156055Y0054302D01*
X0156055Y0055501D02*
X0155723Y0055501D01*
X0155548Y0051905D02*
X0209631Y0051905D01*
X0209631Y0050707D02*
X0156747Y0050707D01*
X0157945Y0049508D02*
X0209631Y0049508D01*
X0209631Y0048310D02*
X0159144Y0048310D01*
X0160342Y0047111D02*
X0209631Y0047111D01*
X0209631Y0045913D02*
X0161541Y0045913D01*
X0162739Y0044714D02*
X0209631Y0044714D01*
X0209631Y0043516D02*
X0163938Y0043516D01*
X0165136Y0042317D02*
X0209631Y0042317D01*
X0209631Y0041119D02*
X0166335Y0041119D01*
X0167533Y0039920D02*
X0209631Y0039920D01*
X0209631Y0038722D02*
X0168732Y0038722D01*
X0169930Y0037523D02*
X0209631Y0037523D01*
X0170097Y0025538D02*
X0261234Y0025538D01*
X0261234Y0024340D02*
X0137218Y0024340D01*
X0137218Y0025538D02*
X0167331Y0025538D01*
X0165841Y0026737D02*
X0137218Y0026737D01*
X0137218Y0027935D02*
X0165344Y0027935D01*
X0165339Y0029134D02*
X0137218Y0029134D01*
X0137218Y0030332D02*
X0165771Y0030332D01*
X0166927Y0031531D02*
X0137218Y0031531D01*
X0137218Y0032729D02*
X0166293Y0032729D01*
X0165094Y0033928D02*
X0137218Y0033928D01*
X0137218Y0035126D02*
X0163896Y0035126D01*
X0162697Y0036325D02*
X0137218Y0036325D01*
X0137218Y0037523D02*
X0161499Y0037523D01*
X0160300Y0038722D02*
X0137218Y0038722D01*
X0137218Y0039920D02*
X0159102Y0039920D01*
X0157903Y0041119D02*
X0137218Y0041119D01*
X0137218Y0042317D02*
X0156705Y0042317D01*
X0155506Y0043516D02*
X0137218Y0043516D01*
X0137218Y0044714D02*
X0154308Y0044714D01*
X0153109Y0045913D02*
X0137218Y0045913D01*
X0137218Y0047111D02*
X0151911Y0047111D01*
X0150712Y0048310D02*
X0137218Y0048310D01*
X0137218Y0049508D02*
X0149513Y0049508D01*
X0148498Y0050707D02*
X0136783Y0050707D01*
X0135584Y0051905D02*
X0148174Y0051905D01*
X0148174Y0053104D02*
X0134386Y0053104D01*
X0134524Y0054302D02*
X0138369Y0054302D01*
X0137171Y0055501D02*
X0135723Y0055501D01*
X0136255Y0056699D02*
X0136468Y0056699D01*
X0136255Y0057898D02*
X0140869Y0057898D01*
X0141441Y0057898D02*
X0146055Y0057898D01*
X0145843Y0057860D02*
X0141441Y0057860D01*
X0141441Y0053458D01*
X0143097Y0053458D01*
X0145843Y0056204D01*
X0145843Y0057860D01*
X0145843Y0056699D02*
X0146055Y0056699D01*
X0146587Y0055501D02*
X0145139Y0055501D01*
X0143941Y0054302D02*
X0147786Y0054302D01*
X0141441Y0054302D02*
X0140869Y0054302D01*
X0140869Y0055501D02*
X0141441Y0055501D01*
X0141441Y0056699D02*
X0140869Y0056699D01*
X0140869Y0059096D02*
X0141441Y0059096D01*
X0141441Y0060295D02*
X0140869Y0060295D01*
X0140869Y0061493D02*
X0141441Y0061493D01*
X0141441Y0062692D02*
X0140869Y0062692D01*
X0141194Y0063891D02*
X0123599Y0063891D01*
X0122401Y0065089D02*
X0139996Y0065089D01*
X0138797Y0066288D02*
X0121202Y0066288D01*
X0120004Y0067486D02*
X0137599Y0067486D01*
X0136400Y0068685D02*
X0078163Y0068685D01*
X0078163Y0069883D02*
X0135202Y0069883D01*
X0134003Y0071082D02*
X0078163Y0071082D01*
X0078163Y0072280D02*
X0132805Y0072280D01*
X0131606Y0073479D02*
X0078163Y0073479D01*
X0078163Y0074677D02*
X0130408Y0074677D01*
X0129209Y0075876D02*
X0078163Y0075876D01*
X0078163Y0077074D02*
X0128011Y0077074D01*
X0126812Y0078273D02*
X0078163Y0078273D01*
X0078163Y0079471D02*
X0125614Y0079471D01*
X0124415Y0080670D02*
X0078163Y0080670D01*
X0078163Y0081868D02*
X0123217Y0081868D01*
X0122018Y0083067D02*
X0078163Y0083067D01*
X0078163Y0084265D02*
X0120820Y0084265D01*
X0119621Y0085464D02*
X0078163Y0085464D01*
X0078163Y0086662D02*
X0118423Y0086662D01*
X0117224Y0087861D02*
X0078163Y0087861D01*
X0078163Y0089059D02*
X0116026Y0089059D01*
X0114827Y0090258D02*
X0078163Y0090258D01*
X0078163Y0091456D02*
X0113629Y0091456D01*
X0112430Y0092655D02*
X0078163Y0092655D01*
X0078163Y0093853D02*
X0111232Y0093853D01*
X0110033Y0095052D02*
X0078163Y0095052D01*
X0078163Y0096250D02*
X0108835Y0096250D01*
X0107636Y0097449D02*
X0078163Y0097449D01*
X0078163Y0098647D02*
X0106438Y0098647D01*
X0105239Y0099846D02*
X0078163Y0099846D01*
X0078163Y0101044D02*
X0104041Y0101044D01*
X0103049Y0102243D02*
X0078163Y0102243D01*
X0078163Y0103441D02*
X0102741Y0103441D01*
X0102741Y0104640D02*
X0078163Y0104640D01*
X0078163Y0105838D02*
X0102741Y0105838D01*
X0102741Y0107037D02*
X0078163Y0107037D01*
X0078163Y0108235D02*
X0102521Y0108235D01*
X0102347Y0109434D02*
X0078163Y0109434D01*
X0078163Y0110632D02*
X0102610Y0110632D01*
X0103454Y0111831D02*
X0078163Y0111831D01*
X0078163Y0113029D02*
X0183801Y0113029D01*
X0183509Y0113735D02*
X0184163Y0112155D01*
X0185373Y0110945D01*
X0186953Y0110291D01*
X0188664Y0110291D01*
X0190244Y0110945D01*
X0191454Y0112155D01*
X0192109Y0113735D01*
X0192109Y0115446D01*
X0191454Y0117026D01*
X0190244Y0118236D01*
X0188664Y0118891D01*
X0186953Y0118891D01*
X0185373Y0118236D01*
X0184163Y0117026D01*
X0183509Y0115446D01*
X0183509Y0113735D01*
X0183509Y0114228D02*
X0078163Y0114228D01*
X0078163Y0115426D02*
X0183509Y0115426D01*
X0183997Y0116625D02*
X0078163Y0116625D01*
X0078163Y0117824D02*
X0184961Y0117824D01*
X0190657Y0117824D02*
X0219895Y0117824D01*
X0219895Y0119022D02*
X0078163Y0119022D01*
X0078163Y0120221D02*
X0219895Y0120221D01*
X0219895Y0121419D02*
X0078163Y0121419D01*
X0078163Y0122618D02*
X0219895Y0122618D01*
X0219895Y0123816D02*
X0078163Y0123816D01*
X0078163Y0125015D02*
X0219895Y0125015D01*
X0219895Y0126213D02*
X0078163Y0126213D01*
X0078163Y0127412D02*
X0219895Y0127412D01*
X0219895Y0128610D02*
X0078163Y0128610D01*
X0078163Y0129809D02*
X0185703Y0129809D01*
X0185373Y0129945D02*
X0186953Y0129291D01*
X0188664Y0129291D01*
X0190244Y0129945D01*
X0191454Y0131155D01*
X0192109Y0132735D01*
X0192109Y0134446D01*
X0191454Y0136026D01*
X0190244Y0137236D01*
X0188664Y0137891D01*
X0186953Y0137891D01*
X0185373Y0137236D01*
X0184163Y0136026D01*
X0183509Y0134446D01*
X0183509Y0132735D01*
X0184163Y0131155D01*
X0185373Y0129945D01*
X0184311Y0131007D02*
X0078163Y0131007D01*
X0078163Y0132206D02*
X0183728Y0132206D01*
X0183509Y0133404D02*
X0078163Y0133404D01*
X0078163Y0134603D02*
X0183574Y0134603D01*
X0184070Y0135801D02*
X0078163Y0135801D01*
X0078163Y0137000D02*
X0185137Y0137000D01*
X0190481Y0137000D02*
X0219895Y0137000D01*
X0219895Y0138198D02*
X0078163Y0138198D01*
X0078163Y0139397D02*
X0219895Y0139397D01*
X0219895Y0140595D02*
X0078163Y0140595D01*
X0078163Y0141794D02*
X0219895Y0141794D01*
X0219895Y0142992D02*
X0078163Y0142992D01*
X0078163Y0144191D02*
X0219895Y0144191D01*
X0219895Y0145389D02*
X0078163Y0145389D01*
X0078163Y0146588D02*
X0219895Y0146588D01*
X0219895Y0147786D02*
X0078163Y0147786D01*
X0107991Y0111831D02*
X0184487Y0111831D01*
X0186128Y0110632D02*
X0108834Y0110632D01*
X0109097Y0109434D02*
X0219895Y0109434D01*
X0219895Y0110632D02*
X0189489Y0110632D01*
X0191130Y0111831D02*
X0219895Y0111831D01*
X0219895Y0113029D02*
X0191816Y0113029D01*
X0192109Y0114228D02*
X0219895Y0114228D01*
X0219895Y0115426D02*
X0192109Y0115426D01*
X0191620Y0116625D02*
X0219895Y0116625D01*
X0219895Y0108235D02*
X0108923Y0108235D01*
X0108703Y0107037D02*
X0219895Y0107037D01*
X0219895Y0105838D02*
X0108703Y0105838D01*
X0108877Y0104640D02*
X0219895Y0104640D01*
X0219895Y0103441D02*
X0110075Y0103441D01*
X0111274Y0102243D02*
X0219895Y0102243D01*
X0219895Y0101044D02*
X0112472Y0101044D01*
X0113671Y0099846D02*
X0219895Y0099846D01*
X0219895Y0098647D02*
X0114869Y0098647D01*
X0116068Y0097449D02*
X0219895Y0097449D01*
X0219895Y0096250D02*
X0198374Y0096250D01*
X0194172Y0096250D02*
X0117266Y0096250D01*
X0118465Y0095052D02*
X0193231Y0095052D01*
X0192898Y0093853D02*
X0119663Y0093853D01*
X0120862Y0092655D02*
X0193003Y0092655D01*
X0193623Y0091456D02*
X0122060Y0091456D01*
X0123259Y0090258D02*
X0195472Y0090258D01*
X0197074Y0090258D02*
X0204087Y0090258D01*
X0205286Y0089059D02*
X0124457Y0089059D01*
X0125656Y0087861D02*
X0206484Y0087861D01*
X0207683Y0086662D02*
X0126854Y0086662D01*
X0128053Y0085464D02*
X0208882Y0085464D01*
X0213246Y0087861D02*
X0221676Y0087861D01*
X0220478Y0089059D02*
X0212047Y0089059D01*
X0210849Y0090258D02*
X0219895Y0090258D01*
X0219895Y0091456D02*
X0209650Y0091456D01*
X0208452Y0092655D02*
X0219895Y0092655D01*
X0219895Y0093853D02*
X0207253Y0093853D01*
X0206055Y0095052D02*
X0219895Y0095052D01*
X0222875Y0086662D02*
X0214445Y0086662D01*
X0215643Y0085464D02*
X0224073Y0085464D01*
X0225272Y0084265D02*
X0216842Y0084265D01*
X0218040Y0083067D02*
X0226470Y0083067D01*
X0227669Y0081868D02*
X0219239Y0081868D01*
X0220154Y0080670D02*
X0228867Y0080670D01*
X0230066Y0079471D02*
X0220317Y0079471D01*
X0220317Y0078273D02*
X0231264Y0078273D01*
X0232463Y0077074D02*
X0220317Y0077074D01*
X0220317Y0075876D02*
X0233661Y0075876D01*
X0220317Y0074677D02*
X0258482Y0074677D01*
X0259680Y0073479D02*
X0220317Y0073479D01*
X0163637Y0077074D02*
X0136443Y0077074D01*
X0137641Y0075876D02*
X0161986Y0075876D01*
X0161449Y0074677D02*
X0138840Y0074677D01*
X0140038Y0073479D02*
X0161402Y0073479D01*
X0161793Y0072280D02*
X0141237Y0072280D01*
X0142435Y0071082D02*
X0162387Y0071082D01*
X0162387Y0069883D02*
X0143634Y0069883D01*
X0144832Y0068685D02*
X0162387Y0068685D01*
X0162387Y0067486D02*
X0146031Y0067486D01*
X0147229Y0066288D02*
X0162387Y0066288D01*
X0162387Y0065089D02*
X0148428Y0065089D01*
X0149626Y0063891D02*
X0162387Y0063891D01*
X0156556Y0062692D02*
X0153821Y0062692D01*
X0155020Y0061493D02*
X0156055Y0061493D01*
X0145988Y0059096D02*
X0145843Y0059096D01*
X0139072Y0062692D02*
X0133821Y0062692D01*
X0135020Y0061493D02*
X0137874Y0061493D01*
X0136675Y0060295D02*
X0136218Y0060295D01*
X0136255Y0059096D02*
X0136468Y0059096D01*
X0128489Y0062692D02*
X0124798Y0062692D01*
X0125996Y0061493D02*
X0127290Y0061493D01*
X0189915Y0129809D02*
X0219895Y0129809D01*
X0219895Y0131007D02*
X0191306Y0131007D01*
X0191889Y0132206D02*
X0219895Y0132206D01*
X0219895Y0133404D02*
X0192109Y0133404D01*
X0192044Y0134603D02*
X0219895Y0134603D01*
X0219895Y0135801D02*
X0191547Y0135801D01*
D16*
X0176588Y0140823D03*
X0125407Y0121138D03*
X0105722Y0132949D03*
X0095880Y0113264D03*
X0105722Y0109327D03*
X0147061Y0111295D03*
X0176588Y0103421D03*
X0196273Y0093579D03*
X0164777Y0085705D03*
X0164777Y0073894D03*
X0184462Y0062083D03*
X0206116Y0050272D03*
X0184462Y0040429D03*
X0212021Y0034524D03*
X0241549Y0034524D03*
X0168714Y0028618D03*
X0147061Y0038461D03*
X0241549Y0067988D03*
X0208084Y0079799D03*
X0269108Y0095547D03*
X0290761Y0081768D03*
X0280919Y0071925D03*
X0304541Y0101453D03*
X0103754Y0083736D03*
D17*
X0105722Y0103579D02*
X0151155Y0058146D01*
X0151155Y0052083D01*
X0168714Y0034524D01*
X0212021Y0034524D01*
X0105722Y0103579D02*
X0105722Y0109327D01*
D18*
X0164777Y0073894D02*
X0164777Y0061768D01*
X0161155Y0058146D01*
X0208084Y0079799D02*
X0212021Y0075862D01*
X0212021Y0034524D01*
X0217927Y0032555D02*
X0213990Y0028618D01*
X0168714Y0028618D01*
X0217927Y0032555D02*
X0217927Y0079799D01*
X0204147Y0093579D01*
X0196273Y0093579D01*
X0269108Y0095547D02*
X0298635Y0095547D01*
X0304541Y0101453D01*
X0290761Y0081768D02*
X0280919Y0071925D01*
D19*
X0074228Y0065433D02*
X0067100Y0058205D01*
X0074228Y0050976D01*
X0074228Y0045433D01*
X0067100Y0038205D01*
X0057100Y0043205D02*
X0057100Y0053205D01*
X0049828Y0060476D01*
X0049828Y0095933D01*
X0057100Y0103205D01*
X0057100Y0113205D01*
X0067100Y0118205D02*
X0074228Y0110976D01*
X0074228Y0105433D01*
X0067100Y0098205D01*
X0074228Y0090976D01*
X0074228Y0065433D01*
M02*
