G75*
%MOIN*%
%OFA0B0*%
%FSLAX25Y25*%
%IPPOS*%
%LPD*%
%AMOC8*
5,1,8,0,0,1.08239X$1,22.5*
%
%ADD10C,0.00800*%
%ADD11C,0.00600*%
D10*
X0332828Y0095665D02*
X0333828Y0095665D01*
D11*
X0260077Y0044468D02*
X0256537Y0044468D01*
X0256537Y0045353D01*
X0257422Y0046238D01*
X0259192Y0046238D01*
X0260077Y0045353D01*
X0260077Y0043583D01*
X0259192Y0042698D01*
X0257422Y0042698D01*
X0261932Y0042698D02*
X0263702Y0042698D01*
X0262817Y0042698D02*
X0262817Y0048008D01*
X0263702Y0048008D01*
X0265600Y0045353D02*
X0266485Y0046238D01*
X0269140Y0046238D01*
X0269140Y0048008D02*
X0269140Y0042698D01*
X0266485Y0042698D01*
X0265600Y0043583D01*
X0265600Y0045353D01*
X0271880Y0046238D02*
X0271880Y0042698D01*
X0272765Y0042698D02*
X0270995Y0042698D01*
X0274620Y0042698D02*
X0275505Y0043583D01*
X0275505Y0047123D01*
X0276390Y0046238D02*
X0274620Y0046238D01*
X0272765Y0046238D02*
X0271880Y0046238D01*
X0271880Y0048008D02*
X0271880Y0048893D01*
X0278288Y0045353D02*
X0278288Y0042698D01*
X0280943Y0042698D01*
X0281828Y0043583D01*
X0280943Y0044468D01*
X0278288Y0044468D01*
X0278288Y0045353D02*
X0279173Y0046238D01*
X0280943Y0046238D01*
X0283725Y0045353D02*
X0283725Y0043583D01*
X0284610Y0042698D01*
X0287265Y0042698D01*
X0287265Y0040928D02*
X0287265Y0046238D01*
X0284610Y0046238D01*
X0283725Y0045353D01*
X0289163Y0045353D02*
X0289163Y0042698D01*
X0290933Y0042698D02*
X0290933Y0045353D01*
X0290048Y0046238D01*
X0289163Y0045353D01*
X0290933Y0045353D02*
X0291818Y0046238D01*
X0292703Y0046238D01*
X0292703Y0042698D01*
X0294601Y0043583D02*
X0294601Y0045353D01*
X0295486Y0046238D01*
X0297256Y0046238D01*
X0298141Y0045353D01*
X0298141Y0043583D01*
X0297256Y0042698D01*
X0295486Y0042698D01*
X0294601Y0043583D01*
X0300039Y0042698D02*
X0302694Y0042698D01*
X0303579Y0043583D01*
X0303579Y0045353D01*
X0302694Y0046238D01*
X0300039Y0046238D01*
X0310914Y0048008D02*
X0310914Y0042698D01*
X0314454Y0048008D01*
X0314454Y0042698D01*
X0316352Y0042698D02*
X0316352Y0046238D01*
X0318122Y0048008D01*
X0319892Y0046238D01*
X0319892Y0042698D01*
X0321789Y0043583D02*
X0322674Y0042698D01*
X0324444Y0042698D01*
X0325329Y0043583D01*
X0325329Y0047123D01*
X0324444Y0048008D01*
X0322674Y0048008D01*
X0321789Y0047123D01*
X0319892Y0045353D02*
X0316352Y0045353D01*
X0327227Y0045353D02*
X0328112Y0044468D01*
X0330767Y0044468D01*
X0330767Y0042698D02*
X0330767Y0048008D01*
X0328112Y0048008D01*
X0327227Y0047123D01*
X0327227Y0045353D01*
X0332665Y0045353D02*
X0336205Y0045353D01*
X0336205Y0046238D02*
X0334435Y0048008D01*
X0332665Y0046238D01*
X0332665Y0042698D01*
X0336205Y0042698D02*
X0336205Y0046238D01*
X0338102Y0045353D02*
X0341643Y0045353D01*
X0341643Y0042698D02*
X0341643Y0048008D01*
X0338102Y0048008D02*
X0338102Y0042698D01*
X0338988Y0039149D02*
X0341643Y0039149D01*
X0341643Y0033839D01*
X0338988Y0033839D01*
X0338102Y0034724D01*
X0338102Y0038264D01*
X0338988Y0039149D01*
X0336205Y0037379D02*
X0334435Y0039149D01*
X0332665Y0037379D01*
X0332665Y0033839D01*
X0330767Y0033839D02*
X0327227Y0033839D01*
X0325329Y0033839D02*
X0323559Y0033839D01*
X0324444Y0033839D02*
X0324444Y0039149D01*
X0325329Y0039149D02*
X0323559Y0039149D01*
X0330767Y0039149D02*
X0330767Y0033839D01*
X0336205Y0033839D02*
X0336205Y0037379D01*
X0336205Y0036494D02*
X0332665Y0036494D01*
X0336205Y0030291D02*
X0336205Y0024981D01*
X0336205Y0026751D02*
X0333550Y0024981D01*
X0331673Y0025866D02*
X0330788Y0026751D01*
X0328133Y0026751D01*
X0328133Y0027636D02*
X0328133Y0024981D01*
X0330788Y0024981D01*
X0331673Y0025866D01*
X0333550Y0028521D02*
X0336205Y0026751D01*
X0338102Y0025866D02*
X0338988Y0026751D01*
X0340758Y0026751D01*
X0341643Y0027636D01*
X0340758Y0028521D01*
X0338102Y0028521D01*
X0338102Y0025866D02*
X0338988Y0024981D01*
X0341643Y0024981D01*
X0330788Y0028521D02*
X0329018Y0028521D01*
X0328133Y0027636D01*
X0326236Y0027636D02*
X0326236Y0025866D01*
X0325351Y0024981D01*
X0322696Y0024981D01*
X0322696Y0024096D02*
X0322696Y0028521D01*
X0325351Y0028521D01*
X0326236Y0027636D01*
X0322696Y0024096D02*
X0323581Y0023211D01*
X0324466Y0023211D01*
X0320798Y0024981D02*
X0320798Y0028521D01*
X0319913Y0028521D01*
X0319028Y0027636D01*
X0318143Y0028521D01*
X0317258Y0027636D01*
X0317258Y0024981D01*
X0319028Y0024981D02*
X0319028Y0027636D01*
X0315360Y0027636D02*
X0315360Y0025866D01*
X0314475Y0024981D01*
X0312705Y0024981D01*
X0311820Y0025866D01*
X0311820Y0027636D01*
X0312705Y0028521D01*
X0314475Y0028521D01*
X0315360Y0027636D01*
X0309923Y0025866D02*
X0309038Y0025866D01*
X0309038Y0024981D01*
X0309923Y0024981D01*
X0309923Y0025866D01*
X0307204Y0025866D02*
X0306319Y0024981D01*
X0303664Y0024981D01*
X0301766Y0025866D02*
X0301766Y0027636D01*
X0300881Y0028521D01*
X0299111Y0028521D01*
X0298226Y0027636D01*
X0298226Y0025866D01*
X0299111Y0024981D01*
X0300881Y0024981D01*
X0301766Y0025866D01*
X0296328Y0024981D02*
X0296328Y0028521D01*
X0295443Y0028521D01*
X0294558Y0027636D01*
X0293673Y0028521D01*
X0292788Y0027636D01*
X0292788Y0024981D01*
X0294558Y0024981D02*
X0294558Y0027636D01*
X0290006Y0025866D02*
X0290006Y0024981D01*
X0289121Y0024981D01*
X0289121Y0025866D01*
X0290006Y0025866D01*
X0289121Y0024981D02*
X0290891Y0023211D01*
X0281828Y0024981D02*
X0278288Y0028521D01*
X0278288Y0029406D01*
X0279173Y0030291D01*
X0280943Y0030291D01*
X0281828Y0029406D01*
X0282798Y0032069D02*
X0283683Y0032069D01*
X0282798Y0032069D02*
X0281913Y0032954D01*
X0281913Y0037379D01*
X0285453Y0037379D02*
X0285453Y0034724D01*
X0284568Y0033839D01*
X0281913Y0033839D01*
X0287351Y0033839D02*
X0290006Y0033839D01*
X0290891Y0034724D01*
X0290006Y0035609D01*
X0287351Y0035609D01*
X0287351Y0036494D02*
X0287351Y0033839D01*
X0287351Y0036494D02*
X0288236Y0037379D01*
X0290006Y0037379D01*
X0292788Y0037379D02*
X0292788Y0034724D01*
X0293673Y0033839D01*
X0294558Y0034724D01*
X0295443Y0033839D01*
X0296328Y0034724D01*
X0296328Y0037379D01*
X0298226Y0036494D02*
X0299111Y0037379D01*
X0300881Y0037379D01*
X0301766Y0036494D01*
X0301766Y0034724D01*
X0300881Y0033839D01*
X0299111Y0033839D01*
X0298226Y0035609D02*
X0301766Y0035609D01*
X0303621Y0033839D02*
X0304506Y0034724D01*
X0304506Y0038264D01*
X0305391Y0037379D02*
X0303621Y0037379D01*
X0307289Y0036494D02*
X0307289Y0033839D01*
X0309944Y0033839D01*
X0310829Y0034724D01*
X0309944Y0035609D01*
X0307289Y0035609D01*
X0307289Y0036494D02*
X0308174Y0037379D01*
X0309944Y0037379D01*
X0312727Y0037379D02*
X0315382Y0037379D01*
X0316267Y0036494D01*
X0316267Y0034724D01*
X0315382Y0033839D01*
X0312727Y0033839D01*
X0312727Y0032954D02*
X0312727Y0037379D01*
X0312727Y0032954D02*
X0313612Y0032069D01*
X0314497Y0032069D01*
X0307204Y0027636D02*
X0307204Y0025866D01*
X0307204Y0027636D02*
X0306319Y0028521D01*
X0303664Y0028521D01*
X0298226Y0035609D02*
X0298226Y0036494D01*
X0276390Y0029406D02*
X0275505Y0030291D01*
X0273735Y0030291D01*
X0272850Y0029406D01*
X0276390Y0025866D01*
X0275505Y0024981D01*
X0273735Y0024981D01*
X0272850Y0025866D01*
X0272850Y0029406D01*
X0270952Y0028521D02*
X0269182Y0030291D01*
X0269182Y0024981D01*
X0270952Y0024981D02*
X0267412Y0024981D01*
X0265515Y0025866D02*
X0264630Y0024981D01*
X0262860Y0024981D01*
X0261975Y0025866D01*
X0261975Y0026751D01*
X0262860Y0027636D01*
X0265515Y0027636D01*
X0265515Y0025866D01*
X0265515Y0027636D02*
X0263745Y0029406D01*
X0261975Y0030291D01*
X0276390Y0029406D02*
X0276390Y0025866D01*
X0278288Y0024981D02*
X0281828Y0024981D01*
M02*
