%
M48
M72
T01C0.01575
T02C0.02756
T03C0.03543
T04C0.04724
T05C0.05906
T06C0.12800
%
T01
X147061Y38461
X168714Y28618
X184462Y40429
X206116Y50272
X184462Y62083
X164777Y73894
X164777Y85705
X196273Y93579
X176588Y103421
X147061Y111295
X125407Y121138
X105722Y132949
X95880Y113264
X105722Y109327
X103754Y83736
X208084Y79799
X241549Y67988
X280919Y71925
X290761Y81768
X269108Y95547
X304541Y101453
X176588Y140823
X212021Y34524
X241549Y34524
T02
X187809Y114591
X187809Y133591
T03
X67100Y128205
X57100Y123205
X67100Y118205
X57100Y113205
X67100Y108205
X57100Y103205
X67100Y98205
X57100Y73205
X67100Y68205
X57100Y63205
X67100Y58205
X57100Y53205
X67100Y48205
X57100Y43205
X67100Y38205
X121155Y58146
X131155Y58146
X141155Y58146
X151155Y58146
X161155Y58146
X57100Y133205
T04
X39730Y85705
T05
X323045Y95547
X323045Y75862
T06
X32100Y33205
X32100Y78205
X32100Y93205
X32100Y138205
M30
