G75*
%MOIN*%
%OFA0B0*%
%FSLAX25Y25*%
%IPPOS*%
%LPD*%
%AMOC8*
5,1,8,0,0,1.08239X$1,22.5*
%
%ADD10C,0.00000*%
%ADD11C,0.00512*%
%ADD12C,0.00600*%
D10*
X0005328Y0020744D02*
X0345880Y0020744D01*
X0345880Y0150665D01*
X0005328Y0150665D01*
X0005328Y0020744D01*
X0025700Y0033205D02*
X0025702Y0033365D01*
X0025708Y0033524D01*
X0025718Y0033683D01*
X0025732Y0033842D01*
X0025750Y0034001D01*
X0025771Y0034159D01*
X0025797Y0034316D01*
X0025827Y0034473D01*
X0025860Y0034629D01*
X0025898Y0034784D01*
X0025939Y0034938D01*
X0025984Y0035091D01*
X0026033Y0035243D01*
X0026086Y0035394D01*
X0026142Y0035543D01*
X0026203Y0035691D01*
X0026266Y0035837D01*
X0026334Y0035982D01*
X0026405Y0036125D01*
X0026479Y0036266D01*
X0026557Y0036405D01*
X0026639Y0036542D01*
X0026724Y0036677D01*
X0026812Y0036810D01*
X0026904Y0036941D01*
X0026998Y0037069D01*
X0027096Y0037195D01*
X0027197Y0037319D01*
X0027301Y0037440D01*
X0027408Y0037558D01*
X0027518Y0037674D01*
X0027631Y0037787D01*
X0027747Y0037897D01*
X0027865Y0038004D01*
X0027986Y0038108D01*
X0028110Y0038209D01*
X0028236Y0038307D01*
X0028364Y0038401D01*
X0028495Y0038493D01*
X0028628Y0038581D01*
X0028763Y0038666D01*
X0028900Y0038748D01*
X0029039Y0038826D01*
X0029180Y0038900D01*
X0029323Y0038971D01*
X0029468Y0039039D01*
X0029614Y0039102D01*
X0029762Y0039163D01*
X0029911Y0039219D01*
X0030062Y0039272D01*
X0030214Y0039321D01*
X0030367Y0039366D01*
X0030521Y0039407D01*
X0030676Y0039445D01*
X0030832Y0039478D01*
X0030989Y0039508D01*
X0031146Y0039534D01*
X0031304Y0039555D01*
X0031463Y0039573D01*
X0031622Y0039587D01*
X0031781Y0039597D01*
X0031940Y0039603D01*
X0032100Y0039605D01*
X0032260Y0039603D01*
X0032419Y0039597D01*
X0032578Y0039587D01*
X0032737Y0039573D01*
X0032896Y0039555D01*
X0033054Y0039534D01*
X0033211Y0039508D01*
X0033368Y0039478D01*
X0033524Y0039445D01*
X0033679Y0039407D01*
X0033833Y0039366D01*
X0033986Y0039321D01*
X0034138Y0039272D01*
X0034289Y0039219D01*
X0034438Y0039163D01*
X0034586Y0039102D01*
X0034732Y0039039D01*
X0034877Y0038971D01*
X0035020Y0038900D01*
X0035161Y0038826D01*
X0035300Y0038748D01*
X0035437Y0038666D01*
X0035572Y0038581D01*
X0035705Y0038493D01*
X0035836Y0038401D01*
X0035964Y0038307D01*
X0036090Y0038209D01*
X0036214Y0038108D01*
X0036335Y0038004D01*
X0036453Y0037897D01*
X0036569Y0037787D01*
X0036682Y0037674D01*
X0036792Y0037558D01*
X0036899Y0037440D01*
X0037003Y0037319D01*
X0037104Y0037195D01*
X0037202Y0037069D01*
X0037296Y0036941D01*
X0037388Y0036810D01*
X0037476Y0036677D01*
X0037561Y0036542D01*
X0037643Y0036405D01*
X0037721Y0036266D01*
X0037795Y0036125D01*
X0037866Y0035982D01*
X0037934Y0035837D01*
X0037997Y0035691D01*
X0038058Y0035543D01*
X0038114Y0035394D01*
X0038167Y0035243D01*
X0038216Y0035091D01*
X0038261Y0034938D01*
X0038302Y0034784D01*
X0038340Y0034629D01*
X0038373Y0034473D01*
X0038403Y0034316D01*
X0038429Y0034159D01*
X0038450Y0034001D01*
X0038468Y0033842D01*
X0038482Y0033683D01*
X0038492Y0033524D01*
X0038498Y0033365D01*
X0038500Y0033205D01*
X0038498Y0033045D01*
X0038492Y0032886D01*
X0038482Y0032727D01*
X0038468Y0032568D01*
X0038450Y0032409D01*
X0038429Y0032251D01*
X0038403Y0032094D01*
X0038373Y0031937D01*
X0038340Y0031781D01*
X0038302Y0031626D01*
X0038261Y0031472D01*
X0038216Y0031319D01*
X0038167Y0031167D01*
X0038114Y0031016D01*
X0038058Y0030867D01*
X0037997Y0030719D01*
X0037934Y0030573D01*
X0037866Y0030428D01*
X0037795Y0030285D01*
X0037721Y0030144D01*
X0037643Y0030005D01*
X0037561Y0029868D01*
X0037476Y0029733D01*
X0037388Y0029600D01*
X0037296Y0029469D01*
X0037202Y0029341D01*
X0037104Y0029215D01*
X0037003Y0029091D01*
X0036899Y0028970D01*
X0036792Y0028852D01*
X0036682Y0028736D01*
X0036569Y0028623D01*
X0036453Y0028513D01*
X0036335Y0028406D01*
X0036214Y0028302D01*
X0036090Y0028201D01*
X0035964Y0028103D01*
X0035836Y0028009D01*
X0035705Y0027917D01*
X0035572Y0027829D01*
X0035437Y0027744D01*
X0035300Y0027662D01*
X0035161Y0027584D01*
X0035020Y0027510D01*
X0034877Y0027439D01*
X0034732Y0027371D01*
X0034586Y0027308D01*
X0034438Y0027247D01*
X0034289Y0027191D01*
X0034138Y0027138D01*
X0033986Y0027089D01*
X0033833Y0027044D01*
X0033679Y0027003D01*
X0033524Y0026965D01*
X0033368Y0026932D01*
X0033211Y0026902D01*
X0033054Y0026876D01*
X0032896Y0026855D01*
X0032737Y0026837D01*
X0032578Y0026823D01*
X0032419Y0026813D01*
X0032260Y0026807D01*
X0032100Y0026805D01*
X0031940Y0026807D01*
X0031781Y0026813D01*
X0031622Y0026823D01*
X0031463Y0026837D01*
X0031304Y0026855D01*
X0031146Y0026876D01*
X0030989Y0026902D01*
X0030832Y0026932D01*
X0030676Y0026965D01*
X0030521Y0027003D01*
X0030367Y0027044D01*
X0030214Y0027089D01*
X0030062Y0027138D01*
X0029911Y0027191D01*
X0029762Y0027247D01*
X0029614Y0027308D01*
X0029468Y0027371D01*
X0029323Y0027439D01*
X0029180Y0027510D01*
X0029039Y0027584D01*
X0028900Y0027662D01*
X0028763Y0027744D01*
X0028628Y0027829D01*
X0028495Y0027917D01*
X0028364Y0028009D01*
X0028236Y0028103D01*
X0028110Y0028201D01*
X0027986Y0028302D01*
X0027865Y0028406D01*
X0027747Y0028513D01*
X0027631Y0028623D01*
X0027518Y0028736D01*
X0027408Y0028852D01*
X0027301Y0028970D01*
X0027197Y0029091D01*
X0027096Y0029215D01*
X0026998Y0029341D01*
X0026904Y0029469D01*
X0026812Y0029600D01*
X0026724Y0029733D01*
X0026639Y0029868D01*
X0026557Y0030005D01*
X0026479Y0030144D01*
X0026405Y0030285D01*
X0026334Y0030428D01*
X0026266Y0030573D01*
X0026203Y0030719D01*
X0026142Y0030867D01*
X0026086Y0031016D01*
X0026033Y0031167D01*
X0025984Y0031319D01*
X0025939Y0031472D01*
X0025898Y0031626D01*
X0025860Y0031781D01*
X0025827Y0031937D01*
X0025797Y0032094D01*
X0025771Y0032251D01*
X0025750Y0032409D01*
X0025732Y0032568D01*
X0025718Y0032727D01*
X0025708Y0032886D01*
X0025702Y0033045D01*
X0025700Y0033205D01*
X0025700Y0078205D02*
X0025702Y0078365D01*
X0025708Y0078524D01*
X0025718Y0078683D01*
X0025732Y0078842D01*
X0025750Y0079001D01*
X0025771Y0079159D01*
X0025797Y0079316D01*
X0025827Y0079473D01*
X0025860Y0079629D01*
X0025898Y0079784D01*
X0025939Y0079938D01*
X0025984Y0080091D01*
X0026033Y0080243D01*
X0026086Y0080394D01*
X0026142Y0080543D01*
X0026203Y0080691D01*
X0026266Y0080837D01*
X0026334Y0080982D01*
X0026405Y0081125D01*
X0026479Y0081266D01*
X0026557Y0081405D01*
X0026639Y0081542D01*
X0026724Y0081677D01*
X0026812Y0081810D01*
X0026904Y0081941D01*
X0026998Y0082069D01*
X0027096Y0082195D01*
X0027197Y0082319D01*
X0027301Y0082440D01*
X0027408Y0082558D01*
X0027518Y0082674D01*
X0027631Y0082787D01*
X0027747Y0082897D01*
X0027865Y0083004D01*
X0027986Y0083108D01*
X0028110Y0083209D01*
X0028236Y0083307D01*
X0028364Y0083401D01*
X0028495Y0083493D01*
X0028628Y0083581D01*
X0028763Y0083666D01*
X0028900Y0083748D01*
X0029039Y0083826D01*
X0029180Y0083900D01*
X0029323Y0083971D01*
X0029468Y0084039D01*
X0029614Y0084102D01*
X0029762Y0084163D01*
X0029911Y0084219D01*
X0030062Y0084272D01*
X0030214Y0084321D01*
X0030367Y0084366D01*
X0030521Y0084407D01*
X0030676Y0084445D01*
X0030832Y0084478D01*
X0030989Y0084508D01*
X0031146Y0084534D01*
X0031304Y0084555D01*
X0031463Y0084573D01*
X0031622Y0084587D01*
X0031781Y0084597D01*
X0031940Y0084603D01*
X0032100Y0084605D01*
X0032260Y0084603D01*
X0032419Y0084597D01*
X0032578Y0084587D01*
X0032737Y0084573D01*
X0032896Y0084555D01*
X0033054Y0084534D01*
X0033211Y0084508D01*
X0033368Y0084478D01*
X0033524Y0084445D01*
X0033679Y0084407D01*
X0033833Y0084366D01*
X0033986Y0084321D01*
X0034138Y0084272D01*
X0034289Y0084219D01*
X0034438Y0084163D01*
X0034586Y0084102D01*
X0034732Y0084039D01*
X0034877Y0083971D01*
X0035020Y0083900D01*
X0035161Y0083826D01*
X0035300Y0083748D01*
X0035437Y0083666D01*
X0035572Y0083581D01*
X0035705Y0083493D01*
X0035836Y0083401D01*
X0035964Y0083307D01*
X0036090Y0083209D01*
X0036214Y0083108D01*
X0036335Y0083004D01*
X0036453Y0082897D01*
X0036569Y0082787D01*
X0036682Y0082674D01*
X0036792Y0082558D01*
X0036899Y0082440D01*
X0037003Y0082319D01*
X0037104Y0082195D01*
X0037202Y0082069D01*
X0037296Y0081941D01*
X0037388Y0081810D01*
X0037476Y0081677D01*
X0037561Y0081542D01*
X0037643Y0081405D01*
X0037721Y0081266D01*
X0037795Y0081125D01*
X0037866Y0080982D01*
X0037934Y0080837D01*
X0037997Y0080691D01*
X0038058Y0080543D01*
X0038114Y0080394D01*
X0038167Y0080243D01*
X0038216Y0080091D01*
X0038261Y0079938D01*
X0038302Y0079784D01*
X0038340Y0079629D01*
X0038373Y0079473D01*
X0038403Y0079316D01*
X0038429Y0079159D01*
X0038450Y0079001D01*
X0038468Y0078842D01*
X0038482Y0078683D01*
X0038492Y0078524D01*
X0038498Y0078365D01*
X0038500Y0078205D01*
X0038498Y0078045D01*
X0038492Y0077886D01*
X0038482Y0077727D01*
X0038468Y0077568D01*
X0038450Y0077409D01*
X0038429Y0077251D01*
X0038403Y0077094D01*
X0038373Y0076937D01*
X0038340Y0076781D01*
X0038302Y0076626D01*
X0038261Y0076472D01*
X0038216Y0076319D01*
X0038167Y0076167D01*
X0038114Y0076016D01*
X0038058Y0075867D01*
X0037997Y0075719D01*
X0037934Y0075573D01*
X0037866Y0075428D01*
X0037795Y0075285D01*
X0037721Y0075144D01*
X0037643Y0075005D01*
X0037561Y0074868D01*
X0037476Y0074733D01*
X0037388Y0074600D01*
X0037296Y0074469D01*
X0037202Y0074341D01*
X0037104Y0074215D01*
X0037003Y0074091D01*
X0036899Y0073970D01*
X0036792Y0073852D01*
X0036682Y0073736D01*
X0036569Y0073623D01*
X0036453Y0073513D01*
X0036335Y0073406D01*
X0036214Y0073302D01*
X0036090Y0073201D01*
X0035964Y0073103D01*
X0035836Y0073009D01*
X0035705Y0072917D01*
X0035572Y0072829D01*
X0035437Y0072744D01*
X0035300Y0072662D01*
X0035161Y0072584D01*
X0035020Y0072510D01*
X0034877Y0072439D01*
X0034732Y0072371D01*
X0034586Y0072308D01*
X0034438Y0072247D01*
X0034289Y0072191D01*
X0034138Y0072138D01*
X0033986Y0072089D01*
X0033833Y0072044D01*
X0033679Y0072003D01*
X0033524Y0071965D01*
X0033368Y0071932D01*
X0033211Y0071902D01*
X0033054Y0071876D01*
X0032896Y0071855D01*
X0032737Y0071837D01*
X0032578Y0071823D01*
X0032419Y0071813D01*
X0032260Y0071807D01*
X0032100Y0071805D01*
X0031940Y0071807D01*
X0031781Y0071813D01*
X0031622Y0071823D01*
X0031463Y0071837D01*
X0031304Y0071855D01*
X0031146Y0071876D01*
X0030989Y0071902D01*
X0030832Y0071932D01*
X0030676Y0071965D01*
X0030521Y0072003D01*
X0030367Y0072044D01*
X0030214Y0072089D01*
X0030062Y0072138D01*
X0029911Y0072191D01*
X0029762Y0072247D01*
X0029614Y0072308D01*
X0029468Y0072371D01*
X0029323Y0072439D01*
X0029180Y0072510D01*
X0029039Y0072584D01*
X0028900Y0072662D01*
X0028763Y0072744D01*
X0028628Y0072829D01*
X0028495Y0072917D01*
X0028364Y0073009D01*
X0028236Y0073103D01*
X0028110Y0073201D01*
X0027986Y0073302D01*
X0027865Y0073406D01*
X0027747Y0073513D01*
X0027631Y0073623D01*
X0027518Y0073736D01*
X0027408Y0073852D01*
X0027301Y0073970D01*
X0027197Y0074091D01*
X0027096Y0074215D01*
X0026998Y0074341D01*
X0026904Y0074469D01*
X0026812Y0074600D01*
X0026724Y0074733D01*
X0026639Y0074868D01*
X0026557Y0075005D01*
X0026479Y0075144D01*
X0026405Y0075285D01*
X0026334Y0075428D01*
X0026266Y0075573D01*
X0026203Y0075719D01*
X0026142Y0075867D01*
X0026086Y0076016D01*
X0026033Y0076167D01*
X0025984Y0076319D01*
X0025939Y0076472D01*
X0025898Y0076626D01*
X0025860Y0076781D01*
X0025827Y0076937D01*
X0025797Y0077094D01*
X0025771Y0077251D01*
X0025750Y0077409D01*
X0025732Y0077568D01*
X0025718Y0077727D01*
X0025708Y0077886D01*
X0025702Y0078045D01*
X0025700Y0078205D01*
X0037368Y0085705D02*
X0037370Y0085802D01*
X0037376Y0085899D01*
X0037386Y0085995D01*
X0037400Y0086091D01*
X0037418Y0086187D01*
X0037439Y0086281D01*
X0037465Y0086375D01*
X0037494Y0086467D01*
X0037528Y0086558D01*
X0037564Y0086648D01*
X0037605Y0086736D01*
X0037649Y0086822D01*
X0037697Y0086907D01*
X0037748Y0086989D01*
X0037802Y0087070D01*
X0037860Y0087148D01*
X0037921Y0087223D01*
X0037984Y0087296D01*
X0038051Y0087367D01*
X0038121Y0087434D01*
X0038193Y0087499D01*
X0038268Y0087560D01*
X0038346Y0087619D01*
X0038425Y0087674D01*
X0038507Y0087726D01*
X0038591Y0087774D01*
X0038677Y0087819D01*
X0038765Y0087861D01*
X0038854Y0087899D01*
X0038945Y0087933D01*
X0039037Y0087963D01*
X0039130Y0087990D01*
X0039225Y0088012D01*
X0039320Y0088031D01*
X0039416Y0088046D01*
X0039512Y0088057D01*
X0039609Y0088064D01*
X0039706Y0088067D01*
X0039803Y0088066D01*
X0039900Y0088061D01*
X0039996Y0088052D01*
X0040092Y0088039D01*
X0040188Y0088022D01*
X0040283Y0088001D01*
X0040376Y0087977D01*
X0040469Y0087948D01*
X0040561Y0087916D01*
X0040651Y0087880D01*
X0040739Y0087841D01*
X0040826Y0087797D01*
X0040911Y0087751D01*
X0040994Y0087700D01*
X0041075Y0087647D01*
X0041153Y0087590D01*
X0041230Y0087530D01*
X0041303Y0087467D01*
X0041374Y0087401D01*
X0041442Y0087332D01*
X0041508Y0087260D01*
X0041570Y0087186D01*
X0041629Y0087109D01*
X0041685Y0087030D01*
X0041738Y0086948D01*
X0041788Y0086865D01*
X0041833Y0086779D01*
X0041876Y0086692D01*
X0041915Y0086603D01*
X0041950Y0086513D01*
X0041981Y0086421D01*
X0042008Y0086328D01*
X0042032Y0086234D01*
X0042052Y0086139D01*
X0042068Y0086043D01*
X0042080Y0085947D01*
X0042088Y0085850D01*
X0042092Y0085753D01*
X0042092Y0085657D01*
X0042088Y0085560D01*
X0042080Y0085463D01*
X0042068Y0085367D01*
X0042052Y0085271D01*
X0042032Y0085176D01*
X0042008Y0085082D01*
X0041981Y0084989D01*
X0041950Y0084897D01*
X0041915Y0084807D01*
X0041876Y0084718D01*
X0041833Y0084631D01*
X0041788Y0084545D01*
X0041738Y0084462D01*
X0041685Y0084380D01*
X0041629Y0084301D01*
X0041570Y0084224D01*
X0041508Y0084150D01*
X0041442Y0084078D01*
X0041374Y0084009D01*
X0041303Y0083943D01*
X0041230Y0083880D01*
X0041153Y0083820D01*
X0041075Y0083763D01*
X0040994Y0083710D01*
X0040911Y0083659D01*
X0040826Y0083613D01*
X0040739Y0083569D01*
X0040651Y0083530D01*
X0040561Y0083494D01*
X0040469Y0083462D01*
X0040376Y0083433D01*
X0040283Y0083409D01*
X0040188Y0083388D01*
X0040092Y0083371D01*
X0039996Y0083358D01*
X0039900Y0083349D01*
X0039803Y0083344D01*
X0039706Y0083343D01*
X0039609Y0083346D01*
X0039512Y0083353D01*
X0039416Y0083364D01*
X0039320Y0083379D01*
X0039225Y0083398D01*
X0039130Y0083420D01*
X0039037Y0083447D01*
X0038945Y0083477D01*
X0038854Y0083511D01*
X0038765Y0083549D01*
X0038677Y0083591D01*
X0038591Y0083636D01*
X0038507Y0083684D01*
X0038425Y0083736D01*
X0038346Y0083791D01*
X0038268Y0083850D01*
X0038193Y0083911D01*
X0038121Y0083976D01*
X0038051Y0084043D01*
X0037984Y0084114D01*
X0037921Y0084187D01*
X0037860Y0084262D01*
X0037802Y0084340D01*
X0037748Y0084421D01*
X0037697Y0084503D01*
X0037649Y0084588D01*
X0037605Y0084674D01*
X0037564Y0084762D01*
X0037528Y0084852D01*
X0037494Y0084943D01*
X0037465Y0085035D01*
X0037439Y0085129D01*
X0037418Y0085223D01*
X0037400Y0085319D01*
X0037386Y0085415D01*
X0037376Y0085511D01*
X0037370Y0085608D01*
X0037368Y0085705D01*
X0025700Y0093205D02*
X0025702Y0093365D01*
X0025708Y0093524D01*
X0025718Y0093683D01*
X0025732Y0093842D01*
X0025750Y0094001D01*
X0025771Y0094159D01*
X0025797Y0094316D01*
X0025827Y0094473D01*
X0025860Y0094629D01*
X0025898Y0094784D01*
X0025939Y0094938D01*
X0025984Y0095091D01*
X0026033Y0095243D01*
X0026086Y0095394D01*
X0026142Y0095543D01*
X0026203Y0095691D01*
X0026266Y0095837D01*
X0026334Y0095982D01*
X0026405Y0096125D01*
X0026479Y0096266D01*
X0026557Y0096405D01*
X0026639Y0096542D01*
X0026724Y0096677D01*
X0026812Y0096810D01*
X0026904Y0096941D01*
X0026998Y0097069D01*
X0027096Y0097195D01*
X0027197Y0097319D01*
X0027301Y0097440D01*
X0027408Y0097558D01*
X0027518Y0097674D01*
X0027631Y0097787D01*
X0027747Y0097897D01*
X0027865Y0098004D01*
X0027986Y0098108D01*
X0028110Y0098209D01*
X0028236Y0098307D01*
X0028364Y0098401D01*
X0028495Y0098493D01*
X0028628Y0098581D01*
X0028763Y0098666D01*
X0028900Y0098748D01*
X0029039Y0098826D01*
X0029180Y0098900D01*
X0029323Y0098971D01*
X0029468Y0099039D01*
X0029614Y0099102D01*
X0029762Y0099163D01*
X0029911Y0099219D01*
X0030062Y0099272D01*
X0030214Y0099321D01*
X0030367Y0099366D01*
X0030521Y0099407D01*
X0030676Y0099445D01*
X0030832Y0099478D01*
X0030989Y0099508D01*
X0031146Y0099534D01*
X0031304Y0099555D01*
X0031463Y0099573D01*
X0031622Y0099587D01*
X0031781Y0099597D01*
X0031940Y0099603D01*
X0032100Y0099605D01*
X0032260Y0099603D01*
X0032419Y0099597D01*
X0032578Y0099587D01*
X0032737Y0099573D01*
X0032896Y0099555D01*
X0033054Y0099534D01*
X0033211Y0099508D01*
X0033368Y0099478D01*
X0033524Y0099445D01*
X0033679Y0099407D01*
X0033833Y0099366D01*
X0033986Y0099321D01*
X0034138Y0099272D01*
X0034289Y0099219D01*
X0034438Y0099163D01*
X0034586Y0099102D01*
X0034732Y0099039D01*
X0034877Y0098971D01*
X0035020Y0098900D01*
X0035161Y0098826D01*
X0035300Y0098748D01*
X0035437Y0098666D01*
X0035572Y0098581D01*
X0035705Y0098493D01*
X0035836Y0098401D01*
X0035964Y0098307D01*
X0036090Y0098209D01*
X0036214Y0098108D01*
X0036335Y0098004D01*
X0036453Y0097897D01*
X0036569Y0097787D01*
X0036682Y0097674D01*
X0036792Y0097558D01*
X0036899Y0097440D01*
X0037003Y0097319D01*
X0037104Y0097195D01*
X0037202Y0097069D01*
X0037296Y0096941D01*
X0037388Y0096810D01*
X0037476Y0096677D01*
X0037561Y0096542D01*
X0037643Y0096405D01*
X0037721Y0096266D01*
X0037795Y0096125D01*
X0037866Y0095982D01*
X0037934Y0095837D01*
X0037997Y0095691D01*
X0038058Y0095543D01*
X0038114Y0095394D01*
X0038167Y0095243D01*
X0038216Y0095091D01*
X0038261Y0094938D01*
X0038302Y0094784D01*
X0038340Y0094629D01*
X0038373Y0094473D01*
X0038403Y0094316D01*
X0038429Y0094159D01*
X0038450Y0094001D01*
X0038468Y0093842D01*
X0038482Y0093683D01*
X0038492Y0093524D01*
X0038498Y0093365D01*
X0038500Y0093205D01*
X0038498Y0093045D01*
X0038492Y0092886D01*
X0038482Y0092727D01*
X0038468Y0092568D01*
X0038450Y0092409D01*
X0038429Y0092251D01*
X0038403Y0092094D01*
X0038373Y0091937D01*
X0038340Y0091781D01*
X0038302Y0091626D01*
X0038261Y0091472D01*
X0038216Y0091319D01*
X0038167Y0091167D01*
X0038114Y0091016D01*
X0038058Y0090867D01*
X0037997Y0090719D01*
X0037934Y0090573D01*
X0037866Y0090428D01*
X0037795Y0090285D01*
X0037721Y0090144D01*
X0037643Y0090005D01*
X0037561Y0089868D01*
X0037476Y0089733D01*
X0037388Y0089600D01*
X0037296Y0089469D01*
X0037202Y0089341D01*
X0037104Y0089215D01*
X0037003Y0089091D01*
X0036899Y0088970D01*
X0036792Y0088852D01*
X0036682Y0088736D01*
X0036569Y0088623D01*
X0036453Y0088513D01*
X0036335Y0088406D01*
X0036214Y0088302D01*
X0036090Y0088201D01*
X0035964Y0088103D01*
X0035836Y0088009D01*
X0035705Y0087917D01*
X0035572Y0087829D01*
X0035437Y0087744D01*
X0035300Y0087662D01*
X0035161Y0087584D01*
X0035020Y0087510D01*
X0034877Y0087439D01*
X0034732Y0087371D01*
X0034586Y0087308D01*
X0034438Y0087247D01*
X0034289Y0087191D01*
X0034138Y0087138D01*
X0033986Y0087089D01*
X0033833Y0087044D01*
X0033679Y0087003D01*
X0033524Y0086965D01*
X0033368Y0086932D01*
X0033211Y0086902D01*
X0033054Y0086876D01*
X0032896Y0086855D01*
X0032737Y0086837D01*
X0032578Y0086823D01*
X0032419Y0086813D01*
X0032260Y0086807D01*
X0032100Y0086805D01*
X0031940Y0086807D01*
X0031781Y0086813D01*
X0031622Y0086823D01*
X0031463Y0086837D01*
X0031304Y0086855D01*
X0031146Y0086876D01*
X0030989Y0086902D01*
X0030832Y0086932D01*
X0030676Y0086965D01*
X0030521Y0087003D01*
X0030367Y0087044D01*
X0030214Y0087089D01*
X0030062Y0087138D01*
X0029911Y0087191D01*
X0029762Y0087247D01*
X0029614Y0087308D01*
X0029468Y0087371D01*
X0029323Y0087439D01*
X0029180Y0087510D01*
X0029039Y0087584D01*
X0028900Y0087662D01*
X0028763Y0087744D01*
X0028628Y0087829D01*
X0028495Y0087917D01*
X0028364Y0088009D01*
X0028236Y0088103D01*
X0028110Y0088201D01*
X0027986Y0088302D01*
X0027865Y0088406D01*
X0027747Y0088513D01*
X0027631Y0088623D01*
X0027518Y0088736D01*
X0027408Y0088852D01*
X0027301Y0088970D01*
X0027197Y0089091D01*
X0027096Y0089215D01*
X0026998Y0089341D01*
X0026904Y0089469D01*
X0026812Y0089600D01*
X0026724Y0089733D01*
X0026639Y0089868D01*
X0026557Y0090005D01*
X0026479Y0090144D01*
X0026405Y0090285D01*
X0026334Y0090428D01*
X0026266Y0090573D01*
X0026203Y0090719D01*
X0026142Y0090867D01*
X0026086Y0091016D01*
X0026033Y0091167D01*
X0025984Y0091319D01*
X0025939Y0091472D01*
X0025898Y0091626D01*
X0025860Y0091781D01*
X0025827Y0091937D01*
X0025797Y0092094D01*
X0025771Y0092251D01*
X0025750Y0092409D01*
X0025732Y0092568D01*
X0025718Y0092727D01*
X0025708Y0092886D01*
X0025702Y0093045D01*
X0025700Y0093205D01*
X0025700Y0138205D02*
X0025702Y0138365D01*
X0025708Y0138524D01*
X0025718Y0138683D01*
X0025732Y0138842D01*
X0025750Y0139001D01*
X0025771Y0139159D01*
X0025797Y0139316D01*
X0025827Y0139473D01*
X0025860Y0139629D01*
X0025898Y0139784D01*
X0025939Y0139938D01*
X0025984Y0140091D01*
X0026033Y0140243D01*
X0026086Y0140394D01*
X0026142Y0140543D01*
X0026203Y0140691D01*
X0026266Y0140837D01*
X0026334Y0140982D01*
X0026405Y0141125D01*
X0026479Y0141266D01*
X0026557Y0141405D01*
X0026639Y0141542D01*
X0026724Y0141677D01*
X0026812Y0141810D01*
X0026904Y0141941D01*
X0026998Y0142069D01*
X0027096Y0142195D01*
X0027197Y0142319D01*
X0027301Y0142440D01*
X0027408Y0142558D01*
X0027518Y0142674D01*
X0027631Y0142787D01*
X0027747Y0142897D01*
X0027865Y0143004D01*
X0027986Y0143108D01*
X0028110Y0143209D01*
X0028236Y0143307D01*
X0028364Y0143401D01*
X0028495Y0143493D01*
X0028628Y0143581D01*
X0028763Y0143666D01*
X0028900Y0143748D01*
X0029039Y0143826D01*
X0029180Y0143900D01*
X0029323Y0143971D01*
X0029468Y0144039D01*
X0029614Y0144102D01*
X0029762Y0144163D01*
X0029911Y0144219D01*
X0030062Y0144272D01*
X0030214Y0144321D01*
X0030367Y0144366D01*
X0030521Y0144407D01*
X0030676Y0144445D01*
X0030832Y0144478D01*
X0030989Y0144508D01*
X0031146Y0144534D01*
X0031304Y0144555D01*
X0031463Y0144573D01*
X0031622Y0144587D01*
X0031781Y0144597D01*
X0031940Y0144603D01*
X0032100Y0144605D01*
X0032260Y0144603D01*
X0032419Y0144597D01*
X0032578Y0144587D01*
X0032737Y0144573D01*
X0032896Y0144555D01*
X0033054Y0144534D01*
X0033211Y0144508D01*
X0033368Y0144478D01*
X0033524Y0144445D01*
X0033679Y0144407D01*
X0033833Y0144366D01*
X0033986Y0144321D01*
X0034138Y0144272D01*
X0034289Y0144219D01*
X0034438Y0144163D01*
X0034586Y0144102D01*
X0034732Y0144039D01*
X0034877Y0143971D01*
X0035020Y0143900D01*
X0035161Y0143826D01*
X0035300Y0143748D01*
X0035437Y0143666D01*
X0035572Y0143581D01*
X0035705Y0143493D01*
X0035836Y0143401D01*
X0035964Y0143307D01*
X0036090Y0143209D01*
X0036214Y0143108D01*
X0036335Y0143004D01*
X0036453Y0142897D01*
X0036569Y0142787D01*
X0036682Y0142674D01*
X0036792Y0142558D01*
X0036899Y0142440D01*
X0037003Y0142319D01*
X0037104Y0142195D01*
X0037202Y0142069D01*
X0037296Y0141941D01*
X0037388Y0141810D01*
X0037476Y0141677D01*
X0037561Y0141542D01*
X0037643Y0141405D01*
X0037721Y0141266D01*
X0037795Y0141125D01*
X0037866Y0140982D01*
X0037934Y0140837D01*
X0037997Y0140691D01*
X0038058Y0140543D01*
X0038114Y0140394D01*
X0038167Y0140243D01*
X0038216Y0140091D01*
X0038261Y0139938D01*
X0038302Y0139784D01*
X0038340Y0139629D01*
X0038373Y0139473D01*
X0038403Y0139316D01*
X0038429Y0139159D01*
X0038450Y0139001D01*
X0038468Y0138842D01*
X0038482Y0138683D01*
X0038492Y0138524D01*
X0038498Y0138365D01*
X0038500Y0138205D01*
X0038498Y0138045D01*
X0038492Y0137886D01*
X0038482Y0137727D01*
X0038468Y0137568D01*
X0038450Y0137409D01*
X0038429Y0137251D01*
X0038403Y0137094D01*
X0038373Y0136937D01*
X0038340Y0136781D01*
X0038302Y0136626D01*
X0038261Y0136472D01*
X0038216Y0136319D01*
X0038167Y0136167D01*
X0038114Y0136016D01*
X0038058Y0135867D01*
X0037997Y0135719D01*
X0037934Y0135573D01*
X0037866Y0135428D01*
X0037795Y0135285D01*
X0037721Y0135144D01*
X0037643Y0135005D01*
X0037561Y0134868D01*
X0037476Y0134733D01*
X0037388Y0134600D01*
X0037296Y0134469D01*
X0037202Y0134341D01*
X0037104Y0134215D01*
X0037003Y0134091D01*
X0036899Y0133970D01*
X0036792Y0133852D01*
X0036682Y0133736D01*
X0036569Y0133623D01*
X0036453Y0133513D01*
X0036335Y0133406D01*
X0036214Y0133302D01*
X0036090Y0133201D01*
X0035964Y0133103D01*
X0035836Y0133009D01*
X0035705Y0132917D01*
X0035572Y0132829D01*
X0035437Y0132744D01*
X0035300Y0132662D01*
X0035161Y0132584D01*
X0035020Y0132510D01*
X0034877Y0132439D01*
X0034732Y0132371D01*
X0034586Y0132308D01*
X0034438Y0132247D01*
X0034289Y0132191D01*
X0034138Y0132138D01*
X0033986Y0132089D01*
X0033833Y0132044D01*
X0033679Y0132003D01*
X0033524Y0131965D01*
X0033368Y0131932D01*
X0033211Y0131902D01*
X0033054Y0131876D01*
X0032896Y0131855D01*
X0032737Y0131837D01*
X0032578Y0131823D01*
X0032419Y0131813D01*
X0032260Y0131807D01*
X0032100Y0131805D01*
X0031940Y0131807D01*
X0031781Y0131813D01*
X0031622Y0131823D01*
X0031463Y0131837D01*
X0031304Y0131855D01*
X0031146Y0131876D01*
X0030989Y0131902D01*
X0030832Y0131932D01*
X0030676Y0131965D01*
X0030521Y0132003D01*
X0030367Y0132044D01*
X0030214Y0132089D01*
X0030062Y0132138D01*
X0029911Y0132191D01*
X0029762Y0132247D01*
X0029614Y0132308D01*
X0029468Y0132371D01*
X0029323Y0132439D01*
X0029180Y0132510D01*
X0029039Y0132584D01*
X0028900Y0132662D01*
X0028763Y0132744D01*
X0028628Y0132829D01*
X0028495Y0132917D01*
X0028364Y0133009D01*
X0028236Y0133103D01*
X0028110Y0133201D01*
X0027986Y0133302D01*
X0027865Y0133406D01*
X0027747Y0133513D01*
X0027631Y0133623D01*
X0027518Y0133736D01*
X0027408Y0133852D01*
X0027301Y0133970D01*
X0027197Y0134091D01*
X0027096Y0134215D01*
X0026998Y0134341D01*
X0026904Y0134469D01*
X0026812Y0134600D01*
X0026724Y0134733D01*
X0026639Y0134868D01*
X0026557Y0135005D01*
X0026479Y0135144D01*
X0026405Y0135285D01*
X0026334Y0135428D01*
X0026266Y0135573D01*
X0026203Y0135719D01*
X0026142Y0135867D01*
X0026086Y0136016D01*
X0026033Y0136167D01*
X0025984Y0136319D01*
X0025939Y0136472D01*
X0025898Y0136626D01*
X0025860Y0136781D01*
X0025827Y0136937D01*
X0025797Y0137094D01*
X0025771Y0137251D01*
X0025750Y0137409D01*
X0025732Y0137568D01*
X0025718Y0137727D01*
X0025708Y0137886D01*
X0025702Y0138045D01*
X0025700Y0138205D01*
D11*
X0005328Y0016807D02*
X0005328Y0001256D01*
X0005584Y0008933D02*
X0015565Y0007676D01*
X0015565Y0010190D01*
X0005584Y0008933D01*
X0015565Y0007909D01*
X0015565Y0008421D02*
X0005584Y0008933D01*
X0015565Y0009957D01*
X0015565Y0009445D02*
X0005584Y0008933D01*
X0345624Y0008933D01*
X0335643Y0007909D01*
X0335643Y0007676D02*
X0345624Y0008933D01*
X0335643Y0009957D01*
X0335643Y0010190D02*
X0335643Y0007676D01*
X0335643Y0008421D02*
X0345624Y0008933D01*
X0335643Y0009445D01*
X0335643Y0010190D02*
X0345624Y0008933D01*
X0345880Y0001256D02*
X0345880Y0016807D01*
X0349817Y0020744D02*
X0369305Y0020744D01*
X0361628Y0021000D02*
X0362651Y0030980D01*
X0362884Y0030980D02*
X0361628Y0021000D01*
X0360604Y0030980D01*
X0360371Y0030980D02*
X0362884Y0030980D01*
X0362139Y0030980D02*
X0361628Y0021000D01*
X0361116Y0030980D01*
X0360371Y0030980D02*
X0361628Y0021000D01*
X0361628Y0150409D01*
X0362651Y0140429D01*
X0362884Y0140429D02*
X0361628Y0150409D01*
X0360604Y0140429D01*
X0360371Y0140429D02*
X0362884Y0140429D01*
X0362139Y0140429D02*
X0361628Y0150409D01*
X0361116Y0140429D01*
X0360371Y0140429D02*
X0361628Y0150409D01*
X0369305Y0150665D02*
X0349817Y0150665D01*
D12*
X0356195Y0089417D02*
X0355507Y0088729D01*
X0355507Y0087353D01*
X0356195Y0086665D01*
X0356195Y0085067D02*
X0355507Y0084379D01*
X0355507Y0083003D01*
X0356195Y0082315D01*
X0357571Y0083691D02*
X0357571Y0084379D01*
X0358259Y0085067D01*
X0358947Y0085067D01*
X0359635Y0084379D01*
X0359635Y0083003D01*
X0358947Y0082315D01*
X0357571Y0084379D02*
X0356883Y0085067D01*
X0356195Y0085067D01*
X0358947Y0086665D02*
X0359635Y0087353D01*
X0359635Y0088729D01*
X0358947Y0089417D01*
X0358259Y0089417D01*
X0357571Y0088729D01*
X0357571Y0088041D01*
X0357571Y0088729D02*
X0356883Y0089417D01*
X0356195Y0089417D01*
X0182977Y0015054D02*
X0180226Y0015054D01*
X0180226Y0012990D01*
X0181602Y0013678D01*
X0182289Y0013678D01*
X0182977Y0012990D01*
X0182977Y0011614D01*
X0182289Y0010926D01*
X0180914Y0010926D01*
X0180226Y0011614D01*
X0178738Y0011614D02*
X0178738Y0010926D01*
X0178050Y0010926D01*
X0178050Y0011614D01*
X0178738Y0011614D01*
X0176452Y0011614D02*
X0176452Y0012302D01*
X0175764Y0012990D01*
X0173700Y0012990D01*
X0173700Y0011614D01*
X0174388Y0010926D01*
X0175764Y0010926D01*
X0176452Y0011614D01*
X0175076Y0014366D02*
X0173700Y0012990D01*
X0172102Y0013678D02*
X0171414Y0012990D01*
X0170038Y0012990D01*
X0169350Y0013678D01*
X0169350Y0014366D01*
X0170038Y0015054D01*
X0171414Y0015054D01*
X0172102Y0014366D01*
X0172102Y0013678D01*
X0171414Y0012990D02*
X0172102Y0012302D01*
X0172102Y0011614D01*
X0171414Y0010926D01*
X0170038Y0010926D01*
X0169350Y0011614D01*
X0169350Y0012302D01*
X0170038Y0012990D01*
X0175076Y0014366D02*
X0176452Y0015054D01*
M02*
