G75*
%MOIN*%
%OFA0B0*%
%FSLAX25Y25*%
%IPPOS*%
%LPD*%
%AMOC8*
5,1,8,0,0,1.08239X$1,22.5*
%
%ADD10R,0.06600X0.06600*%
%ADD11OC8,0.06600*%
%ADD12C,0.00750*%
%ADD13C,0.01181*%
%ADD14C,0.05118*%
%ADD15R,0.04800X0.04800*%
%ADD16C,0.04800*%
%ADD17C,0.00827*%
%ADD18C,0.00531*%
%ADD19C,0.00561*%
%ADD20C,0.00148*%
%ADD21C,0.00496*%
%ADD22C,0.01969*%
%ADD23C,0.00591*%
%ADD24C,0.00738*%
%ADD25C,0.01200*%
%ADD26C,0.02362*%
%ADD27C,0.00787*%
%ADD28C,0.02362*%
%ADD29C,0.01575*%
D10*
X0113349Y0110626D03*
D11*
X0113349Y0100626D03*
X0113349Y0090626D03*
X0113349Y0080626D03*
X0113349Y0070626D03*
D12*
X0056419Y0082545D02*
X0052169Y0082545D01*
X0056419Y0082545D02*
X0056419Y0077895D01*
X0052169Y0077895D01*
X0052169Y0082545D01*
X0052169Y0078644D02*
X0056419Y0078644D01*
X0056419Y0079393D02*
X0052169Y0079393D01*
X0052169Y0080142D02*
X0056419Y0080142D01*
X0056419Y0080891D02*
X0052169Y0080891D01*
X0052169Y0081640D02*
X0056419Y0081640D01*
X0056419Y0082389D02*
X0052169Y0082389D01*
X0052169Y0091545D02*
X0056419Y0091545D01*
X0056419Y0086895D01*
X0052169Y0086895D01*
X0052169Y0091545D01*
X0052169Y0087644D02*
X0056419Y0087644D01*
X0056419Y0088393D02*
X0052169Y0088393D01*
X0052169Y0089142D02*
X0056419Y0089142D01*
X0056419Y0089891D02*
X0052169Y0089891D01*
X0052169Y0090640D02*
X0056419Y0090640D01*
X0056419Y0091389D02*
X0052169Y0091389D01*
X0044608Y0091545D02*
X0040358Y0091545D01*
X0044608Y0091545D02*
X0044608Y0086895D01*
X0040358Y0086895D01*
X0040358Y0091545D01*
X0040358Y0087644D02*
X0044608Y0087644D01*
X0044608Y0088393D02*
X0040358Y0088393D01*
X0040358Y0089142D02*
X0044608Y0089142D01*
X0044608Y0089891D02*
X0040358Y0089891D01*
X0040358Y0090640D02*
X0044608Y0090640D01*
X0044608Y0091389D02*
X0040358Y0091389D01*
X0040358Y0082545D02*
X0044608Y0082545D01*
X0044608Y0077895D01*
X0040358Y0077895D01*
X0040358Y0082545D01*
X0040358Y0078644D02*
X0044608Y0078644D01*
X0044608Y0079393D02*
X0040358Y0079393D01*
X0040358Y0080142D02*
X0044608Y0080142D01*
X0044608Y0080891D02*
X0040358Y0080891D01*
X0040358Y0081640D02*
X0044608Y0081640D01*
X0044608Y0082389D02*
X0040358Y0082389D01*
X0041564Y0071097D02*
X0041564Y0066847D01*
X0041564Y0071097D02*
X0046214Y0071097D01*
X0046214Y0066847D01*
X0041564Y0066847D01*
X0041564Y0067596D02*
X0046214Y0067596D01*
X0046214Y0068345D02*
X0041564Y0068345D01*
X0041564Y0069094D02*
X0046214Y0069094D01*
X0046214Y0069843D02*
X0041564Y0069843D01*
X0041564Y0070592D02*
X0046214Y0070592D01*
X0050564Y0071097D02*
X0050564Y0066847D01*
X0050564Y0071097D02*
X0055214Y0071097D01*
X0055214Y0066847D01*
X0050564Y0066847D01*
X0050564Y0067596D02*
X0055214Y0067596D01*
X0055214Y0068345D02*
X0050564Y0068345D01*
X0050564Y0069094D02*
X0055214Y0069094D01*
X0055214Y0069843D02*
X0050564Y0069843D01*
X0050564Y0070592D02*
X0055214Y0070592D01*
D13*
X0056933Y0055587D02*
X0050239Y0055587D01*
X0056933Y0055587D02*
X0056933Y0046925D01*
X0050239Y0046925D01*
X0050239Y0055587D01*
X0050239Y0048105D02*
X0056933Y0048105D01*
X0056933Y0049285D02*
X0050239Y0049285D01*
X0050239Y0050465D02*
X0056933Y0050465D01*
X0056933Y0051645D02*
X0050239Y0051645D01*
X0050239Y0052825D02*
X0056933Y0052825D01*
X0056933Y0054005D02*
X0050239Y0054005D01*
X0050239Y0055185D02*
X0056933Y0055185D01*
X0034728Y0046925D02*
X0028034Y0046925D01*
X0028034Y0055587D01*
X0034728Y0055587D01*
X0034728Y0046925D01*
X0034728Y0048105D02*
X0028034Y0048105D01*
X0028034Y0049285D02*
X0034728Y0049285D01*
X0034728Y0050465D02*
X0028034Y0050465D01*
X0028034Y0051645D02*
X0034728Y0051645D01*
X0034728Y0052825D02*
X0028034Y0052825D01*
X0028034Y0054005D02*
X0034728Y0054005D01*
X0034728Y0055185D02*
X0028034Y0055185D01*
X0062168Y0092594D02*
X0066105Y0096531D01*
X0086775Y0096531D01*
X0095534Y0105291D01*
X0095534Y0123106D01*
X0088743Y0127043D02*
X0088743Y0136886D01*
X0092680Y0140823D01*
X0106460Y0140823D01*
X0112365Y0134917D01*
X0112365Y0128126D01*
X0111282Y0127043D01*
X0105574Y0127043D02*
X0105475Y0126945D01*
X0105475Y0100469D01*
X0102523Y0097516D01*
X0083920Y0122220D02*
X0078900Y0122220D01*
X0063152Y0122220D01*
X0045436Y0122220D01*
X0029688Y0122220D01*
X0029688Y0127929D02*
X0029688Y0134917D01*
X0045436Y0134917D02*
X0045436Y0127929D01*
X0063152Y0127929D02*
X0063152Y0134917D01*
X0078900Y0134917D02*
X0078900Y0127929D01*
X0083920Y0122220D02*
X0088743Y0127043D01*
X0104491Y0128126D02*
X0104491Y0134917D01*
X0104491Y0128126D02*
X0105574Y0127043D01*
D14*
X0083822Y0036492D03*
X0083822Y0028618D03*
X0075948Y0028618D03*
X0075948Y0036492D03*
X0068074Y0036492D03*
X0068074Y0028618D03*
X0046420Y0028618D03*
X0046420Y0036492D03*
X0038546Y0036492D03*
X0038546Y0028618D03*
X0030672Y0028618D03*
X0030672Y0036492D03*
D15*
X0029688Y0134917D03*
X0063152Y0134917D03*
X0096617Y0134917D03*
D16*
X0104491Y0134917D03*
X0112365Y0134917D03*
X0078900Y0134917D03*
X0071026Y0134917D03*
X0045436Y0134917D03*
X0037562Y0134917D03*
D17*
X0030298Y0080567D02*
X0030298Y0072733D01*
X0030298Y0080567D02*
X0034984Y0080567D01*
X0034984Y0072733D01*
X0030298Y0072733D01*
X0030298Y0073559D02*
X0034984Y0073559D01*
X0034984Y0074385D02*
X0030298Y0074385D01*
X0030298Y0075211D02*
X0034984Y0075211D01*
X0034984Y0076037D02*
X0030298Y0076037D01*
X0030298Y0076863D02*
X0034984Y0076863D01*
X0034984Y0077689D02*
X0030298Y0077689D01*
X0030298Y0078515D02*
X0034984Y0078515D01*
X0034984Y0079341D02*
X0030298Y0079341D01*
X0030298Y0080167D02*
X0034984Y0080167D01*
D18*
X0030150Y0068116D02*
X0030150Y0065104D01*
X0030150Y0068116D02*
X0035132Y0068116D01*
X0035132Y0065104D01*
X0030150Y0065104D01*
X0030150Y0065634D02*
X0035132Y0065634D01*
X0035132Y0066164D02*
X0030150Y0066164D01*
X0030150Y0066694D02*
X0035132Y0066694D01*
X0035132Y0067224D02*
X0030150Y0067224D01*
X0030150Y0067754D02*
X0035132Y0067754D01*
X0071528Y0073786D02*
X0074540Y0073786D01*
X0074540Y0069198D01*
X0071528Y0069198D01*
X0071528Y0073786D01*
X0071528Y0069728D02*
X0074540Y0069728D01*
X0074540Y0070258D02*
X0071528Y0070258D01*
X0071528Y0070788D02*
X0074540Y0070788D01*
X0074540Y0071318D02*
X0071528Y0071318D01*
X0071528Y0071848D02*
X0074540Y0071848D01*
X0074540Y0072378D02*
X0071528Y0072378D01*
X0071528Y0072908D02*
X0074540Y0072908D01*
X0074540Y0073438D02*
X0071528Y0073438D01*
X0079009Y0073786D02*
X0082021Y0073786D01*
X0082021Y0069198D01*
X0079009Y0069198D01*
X0079009Y0073786D01*
X0079009Y0069728D02*
X0082021Y0069728D01*
X0082021Y0070258D02*
X0079009Y0070258D01*
X0079009Y0070788D02*
X0082021Y0070788D01*
X0082021Y0071318D02*
X0079009Y0071318D01*
X0079009Y0071848D02*
X0082021Y0071848D01*
X0082021Y0072378D02*
X0079009Y0072378D01*
X0079009Y0072908D02*
X0082021Y0072908D01*
X0082021Y0073438D02*
X0079009Y0073438D01*
D19*
X0078236Y0089587D02*
X0081416Y0089587D01*
X0078236Y0089587D02*
X0078236Y0092767D01*
X0081416Y0092767D01*
X0081416Y0089587D01*
X0081416Y0090147D02*
X0078236Y0090147D01*
X0078236Y0090707D02*
X0081416Y0090707D01*
X0081416Y0091267D02*
X0078236Y0091267D01*
X0078236Y0091827D02*
X0081416Y0091827D01*
X0081416Y0092387D02*
X0078236Y0092387D01*
X0075313Y0089587D02*
X0072133Y0089587D01*
X0072133Y0092767D01*
X0075313Y0092767D01*
X0075313Y0089587D01*
X0075313Y0090147D02*
X0072133Y0090147D01*
X0072133Y0090707D02*
X0075313Y0090707D01*
X0075313Y0091267D02*
X0072133Y0091267D01*
X0072133Y0091827D02*
X0075313Y0091827D01*
X0075313Y0092387D02*
X0072133Y0092387D01*
X0069605Y0089587D02*
X0066425Y0089587D01*
X0066425Y0092767D01*
X0069605Y0092767D01*
X0069605Y0089587D01*
X0069605Y0090147D02*
X0066425Y0090147D01*
X0066425Y0090707D02*
X0069605Y0090707D01*
X0069605Y0091267D02*
X0066425Y0091267D01*
X0066425Y0091827D02*
X0069605Y0091827D01*
X0069605Y0092387D02*
X0066425Y0092387D01*
X0083944Y0089587D02*
X0087124Y0089587D01*
X0083944Y0089587D02*
X0083944Y0092767D01*
X0087124Y0092767D01*
X0087124Y0089587D01*
X0087124Y0090147D02*
X0083944Y0090147D01*
X0083944Y0090707D02*
X0087124Y0090707D01*
X0087124Y0091267D02*
X0083944Y0091267D01*
X0083944Y0091827D02*
X0087124Y0091827D01*
X0087124Y0092387D02*
X0083944Y0092387D01*
X0080490Y0120630D02*
X0080490Y0123810D01*
X0080490Y0120630D02*
X0077310Y0120630D01*
X0077310Y0123810D01*
X0080490Y0123810D01*
X0080490Y0121190D02*
X0077310Y0121190D01*
X0077310Y0121750D02*
X0080490Y0121750D01*
X0080490Y0122310D02*
X0077310Y0122310D01*
X0077310Y0122870D02*
X0080490Y0122870D01*
X0080490Y0123430D02*
X0077310Y0123430D01*
X0080490Y0126339D02*
X0080490Y0129519D01*
X0080490Y0126339D02*
X0077310Y0126339D01*
X0077310Y0129519D01*
X0080490Y0129519D01*
X0080490Y0126899D02*
X0077310Y0126899D01*
X0077310Y0127459D02*
X0080490Y0127459D01*
X0080490Y0128019D02*
X0077310Y0128019D01*
X0077310Y0128579D02*
X0080490Y0128579D01*
X0080490Y0129139D02*
X0077310Y0129139D01*
X0064742Y0129519D02*
X0064742Y0126339D01*
X0061562Y0126339D01*
X0061562Y0129519D01*
X0064742Y0129519D01*
X0064742Y0126899D02*
X0061562Y0126899D01*
X0061562Y0127459D02*
X0064742Y0127459D01*
X0064742Y0128019D02*
X0061562Y0128019D01*
X0061562Y0128579D02*
X0064742Y0128579D01*
X0064742Y0129139D02*
X0061562Y0129139D01*
X0064742Y0123810D02*
X0064742Y0120630D01*
X0061562Y0120630D01*
X0061562Y0123810D01*
X0064742Y0123810D01*
X0064742Y0121190D02*
X0061562Y0121190D01*
X0061562Y0121750D02*
X0064742Y0121750D01*
X0064742Y0122310D02*
X0061562Y0122310D01*
X0061562Y0122870D02*
X0064742Y0122870D01*
X0064742Y0123430D02*
X0061562Y0123430D01*
X0047026Y0123810D02*
X0047026Y0120630D01*
X0043846Y0120630D01*
X0043846Y0123810D01*
X0047026Y0123810D01*
X0047026Y0121190D02*
X0043846Y0121190D01*
X0043846Y0121750D02*
X0047026Y0121750D01*
X0047026Y0122310D02*
X0043846Y0122310D01*
X0043846Y0122870D02*
X0047026Y0122870D01*
X0047026Y0123430D02*
X0043846Y0123430D01*
X0047026Y0126339D02*
X0047026Y0129519D01*
X0047026Y0126339D02*
X0043846Y0126339D01*
X0043846Y0129519D01*
X0047026Y0129519D01*
X0047026Y0126899D02*
X0043846Y0126899D01*
X0043846Y0127459D02*
X0047026Y0127459D01*
X0047026Y0128019D02*
X0043846Y0128019D01*
X0043846Y0128579D02*
X0047026Y0128579D01*
X0047026Y0129139D02*
X0043846Y0129139D01*
X0031278Y0129519D02*
X0031278Y0126339D01*
X0028098Y0126339D01*
X0028098Y0129519D01*
X0031278Y0129519D01*
X0031278Y0126899D02*
X0028098Y0126899D01*
X0028098Y0127459D02*
X0031278Y0127459D01*
X0031278Y0128019D02*
X0028098Y0128019D01*
X0028098Y0128579D02*
X0031278Y0128579D01*
X0031278Y0129139D02*
X0028098Y0129139D01*
X0031278Y0123810D02*
X0031278Y0120630D01*
X0028098Y0120630D01*
X0028098Y0123810D01*
X0031278Y0123810D01*
X0031278Y0121190D02*
X0028098Y0121190D01*
X0028098Y0121750D02*
X0031278Y0121750D01*
X0031278Y0122310D02*
X0028098Y0122310D01*
X0028098Y0122870D02*
X0031278Y0122870D01*
X0031278Y0123430D02*
X0028098Y0123430D01*
X0103984Y0125453D02*
X0107164Y0125453D01*
X0103984Y0125453D02*
X0103984Y0128633D01*
X0107164Y0128633D01*
X0107164Y0125453D01*
X0107164Y0126013D02*
X0103984Y0126013D01*
X0103984Y0126573D02*
X0107164Y0126573D01*
X0107164Y0127133D02*
X0103984Y0127133D01*
X0103984Y0127693D02*
X0107164Y0127693D01*
X0107164Y0128253D02*
X0103984Y0128253D01*
X0109692Y0125453D02*
X0112872Y0125453D01*
X0109692Y0125453D02*
X0109692Y0128633D01*
X0112872Y0128633D01*
X0112872Y0125453D01*
X0112872Y0126013D02*
X0109692Y0126013D01*
X0109692Y0126573D02*
X0112872Y0126573D01*
X0112872Y0127133D02*
X0109692Y0127133D01*
X0109692Y0127693D02*
X0112872Y0127693D01*
X0112872Y0128253D02*
X0109692Y0128253D01*
D20*
X0079605Y0085690D02*
X0079605Y0084854D01*
X0079605Y0085690D02*
X0081425Y0085690D01*
X0081425Y0084854D01*
X0079605Y0084854D01*
X0079605Y0085001D02*
X0081425Y0085001D01*
X0081425Y0085148D02*
X0079605Y0085148D01*
X0079605Y0085295D02*
X0081425Y0085295D01*
X0081425Y0085442D02*
X0079605Y0085442D01*
X0079605Y0085589D02*
X0081425Y0085589D01*
X0079605Y0083721D02*
X0079605Y0082885D01*
X0079605Y0083721D02*
X0081425Y0083721D01*
X0081425Y0082885D01*
X0079605Y0082885D01*
X0079605Y0083032D02*
X0081425Y0083032D01*
X0081425Y0083179D02*
X0079605Y0083179D01*
X0079605Y0083326D02*
X0081425Y0083326D01*
X0081425Y0083473D02*
X0079605Y0083473D01*
X0079605Y0083620D02*
X0081425Y0083620D01*
X0079605Y0081753D02*
X0079605Y0080917D01*
X0079605Y0081753D02*
X0081425Y0081753D01*
X0081425Y0080917D01*
X0079605Y0080917D01*
X0079605Y0081064D02*
X0081425Y0081064D01*
X0081425Y0081211D02*
X0079605Y0081211D01*
X0079605Y0081358D02*
X0081425Y0081358D01*
X0081425Y0081505D02*
X0079605Y0081505D01*
X0079605Y0081652D02*
X0081425Y0081652D01*
X0079605Y0079784D02*
X0079605Y0078948D01*
X0079605Y0079784D02*
X0081425Y0079784D01*
X0081425Y0078948D01*
X0079605Y0078948D01*
X0079605Y0079095D02*
X0081425Y0079095D01*
X0081425Y0079242D02*
X0079605Y0079242D01*
X0079605Y0079389D02*
X0081425Y0079389D01*
X0081425Y0079536D02*
X0079605Y0079536D01*
X0079605Y0079683D02*
X0081425Y0079683D01*
X0079605Y0077816D02*
X0079605Y0076980D01*
X0079605Y0077816D02*
X0081425Y0077816D01*
X0081425Y0076980D01*
X0079605Y0076980D01*
X0079605Y0077127D02*
X0081425Y0077127D01*
X0081425Y0077274D02*
X0079605Y0077274D01*
X0079605Y0077421D02*
X0081425Y0077421D01*
X0081425Y0077568D02*
X0079605Y0077568D01*
X0079605Y0077715D02*
X0081425Y0077715D01*
X0072124Y0077816D02*
X0072124Y0076980D01*
X0072124Y0077816D02*
X0073944Y0077816D01*
X0073944Y0076980D01*
X0072124Y0076980D01*
X0072124Y0077127D02*
X0073944Y0077127D01*
X0073944Y0077274D02*
X0072124Y0077274D01*
X0072124Y0077421D02*
X0073944Y0077421D01*
X0073944Y0077568D02*
X0072124Y0077568D01*
X0072124Y0077715D02*
X0073944Y0077715D01*
X0072124Y0078948D02*
X0072124Y0079784D01*
X0073944Y0079784D01*
X0073944Y0078948D01*
X0072124Y0078948D01*
X0072124Y0079095D02*
X0073944Y0079095D01*
X0073944Y0079242D02*
X0072124Y0079242D01*
X0072124Y0079389D02*
X0073944Y0079389D01*
X0073944Y0079536D02*
X0072124Y0079536D01*
X0072124Y0079683D02*
X0073944Y0079683D01*
X0072124Y0080917D02*
X0072124Y0081753D01*
X0073944Y0081753D01*
X0073944Y0080917D01*
X0072124Y0080917D01*
X0072124Y0081064D02*
X0073944Y0081064D01*
X0073944Y0081211D02*
X0072124Y0081211D01*
X0072124Y0081358D02*
X0073944Y0081358D01*
X0073944Y0081505D02*
X0072124Y0081505D01*
X0072124Y0081652D02*
X0073944Y0081652D01*
X0072124Y0082885D02*
X0072124Y0083721D01*
X0073944Y0083721D01*
X0073944Y0082885D01*
X0072124Y0082885D01*
X0072124Y0083032D02*
X0073944Y0083032D01*
X0073944Y0083179D02*
X0072124Y0083179D01*
X0072124Y0083326D02*
X0073944Y0083326D01*
X0073944Y0083473D02*
X0072124Y0083473D01*
X0072124Y0083620D02*
X0073944Y0083620D01*
X0072124Y0084854D02*
X0072124Y0085690D01*
X0073944Y0085690D01*
X0073944Y0084854D01*
X0072124Y0084854D01*
X0072124Y0085001D02*
X0073944Y0085001D01*
X0073944Y0085148D02*
X0072124Y0085148D01*
X0072124Y0085295D02*
X0073944Y0085295D01*
X0073944Y0085442D02*
X0072124Y0085442D01*
X0072124Y0085589D02*
X0073944Y0085589D01*
D21*
X0075370Y0076859D02*
X0078180Y0076859D01*
X0075370Y0076859D02*
X0075370Y0085811D01*
X0078180Y0085811D01*
X0078180Y0076859D01*
X0078180Y0077354D02*
X0075370Y0077354D01*
X0075370Y0077849D02*
X0078180Y0077849D01*
X0078180Y0078344D02*
X0075370Y0078344D01*
X0075370Y0078839D02*
X0078180Y0078839D01*
X0078180Y0079334D02*
X0075370Y0079334D01*
X0075370Y0079829D02*
X0078180Y0079829D01*
X0078180Y0080324D02*
X0075370Y0080324D01*
X0075370Y0080819D02*
X0078180Y0080819D01*
X0078180Y0081314D02*
X0075370Y0081314D01*
X0075370Y0081809D02*
X0078180Y0081809D01*
X0078180Y0082304D02*
X0075370Y0082304D01*
X0075370Y0082799D02*
X0078180Y0082799D01*
X0078180Y0083294D02*
X0075370Y0083294D01*
X0075370Y0083789D02*
X0078180Y0083789D01*
X0078180Y0084284D02*
X0075370Y0084284D01*
X0075370Y0084779D02*
X0078180Y0084779D01*
X0078180Y0085274D02*
X0075370Y0085274D01*
X0075370Y0085769D02*
X0078180Y0085769D01*
D22*
X0076775Y0085075D03*
X0076775Y0081335D03*
X0076775Y0077594D03*
X0102523Y0059130D03*
X0102523Y0097516D03*
X0098674Y0109140D03*
X0095534Y0123106D03*
X0063152Y0047319D03*
D23*
X0084550Y0072771D02*
X0094590Y0072771D01*
X0094590Y0069425D01*
X0084550Y0069425D01*
X0084550Y0072771D01*
X0084550Y0070015D02*
X0094590Y0070015D01*
X0094590Y0070605D02*
X0084550Y0070605D01*
X0084550Y0071195D02*
X0094590Y0071195D01*
X0094590Y0071785D02*
X0084550Y0071785D01*
X0084550Y0072375D02*
X0094590Y0072375D01*
X0094590Y0081433D02*
X0084550Y0081433D01*
X0094590Y0081433D02*
X0094590Y0078087D01*
X0084550Y0078087D01*
X0084550Y0081433D01*
X0084550Y0078677D02*
X0094590Y0078677D01*
X0094590Y0079267D02*
X0084550Y0079267D01*
X0084550Y0079857D02*
X0094590Y0079857D01*
X0094590Y0080447D02*
X0084550Y0080447D01*
X0084550Y0081037D02*
X0094590Y0081037D01*
D24*
X0061887Y0080720D02*
X0061887Y0084902D01*
X0068039Y0084902D01*
X0068039Y0080720D01*
X0061887Y0080720D01*
X0061887Y0081457D02*
X0068039Y0081457D01*
X0068039Y0082194D02*
X0061887Y0082194D01*
X0061887Y0082931D02*
X0068039Y0082931D01*
X0068039Y0083668D02*
X0061887Y0083668D01*
X0061887Y0084405D02*
X0068039Y0084405D01*
X0061887Y0074075D02*
X0061887Y0069893D01*
X0061887Y0074075D02*
X0068039Y0074075D01*
X0068039Y0069893D01*
X0061887Y0069893D01*
X0061887Y0070630D02*
X0068039Y0070630D01*
X0068039Y0071367D02*
X0061887Y0071367D01*
X0061887Y0072104D02*
X0068039Y0072104D01*
X0068039Y0072841D02*
X0061887Y0072841D01*
X0061887Y0073578D02*
X0068039Y0073578D01*
D25*
X0019385Y0022400D02*
X0020517Y0021267D01*
X0021997Y0020654D01*
X0022798Y0020576D01*
X0050247Y0020576D01*
X0046563Y0024259D01*
X0045553Y0024259D01*
X0043951Y0024923D01*
X0043237Y0025637D01*
X0041730Y0025637D01*
X0041015Y0024923D01*
X0039413Y0024259D01*
X0037679Y0024259D01*
X0036077Y0024923D01*
X0034851Y0026149D01*
X0034609Y0026732D01*
X0034368Y0026149D01*
X0033141Y0024923D01*
X0031539Y0024259D01*
X0029805Y0024259D01*
X0028203Y0024923D01*
X0026977Y0026149D01*
X0026313Y0027751D01*
X0026313Y0029485D01*
X0026977Y0031087D01*
X0028203Y0032314D01*
X0028786Y0032555D01*
X0028203Y0032797D01*
X0026977Y0034023D01*
X0026313Y0035625D01*
X0026313Y0037359D01*
X0026977Y0038961D01*
X0028203Y0040188D01*
X0029805Y0040851D01*
X0031539Y0040851D01*
X0033141Y0040188D01*
X0034368Y0038961D01*
X0034609Y0038378D01*
X0034851Y0038961D01*
X0035565Y0039676D01*
X0035565Y0042856D01*
X0033886Y0044535D01*
X0027559Y0044535D01*
X0026680Y0044899D01*
X0026008Y0045571D01*
X0025644Y0046450D01*
X0025644Y0056062D01*
X0026008Y0056941D01*
X0026680Y0057613D01*
X0027559Y0057977D01*
X0029660Y0057977D01*
X0029660Y0063039D01*
X0029295Y0063039D01*
X0028085Y0064249D01*
X0028085Y0068972D01*
X0029295Y0070182D01*
X0035986Y0070182D01*
X0037197Y0068972D01*
X0037197Y0064249D01*
X0035986Y0063039D01*
X0035622Y0063039D01*
X0035622Y0057804D01*
X0036081Y0057613D01*
X0036754Y0056941D01*
X0037118Y0056062D01*
X0037118Y0049735D01*
X0040235Y0046618D01*
X0041073Y0045779D01*
X0041527Y0044684D01*
X0041527Y0039676D01*
X0042242Y0038961D01*
X0042483Y0038378D01*
X0042725Y0038961D01*
X0043951Y0040188D01*
X0045553Y0040851D01*
X0047287Y0040851D01*
X0048889Y0040188D01*
X0050116Y0038961D01*
X0050604Y0037781D01*
X0050604Y0044535D01*
X0049764Y0044535D01*
X0048885Y0044899D01*
X0048212Y0045571D01*
X0047849Y0046450D01*
X0047849Y0056062D01*
X0048212Y0056941D01*
X0048885Y0057613D01*
X0049764Y0057977D01*
X0049908Y0057977D01*
X0049908Y0064672D01*
X0049663Y0064672D01*
X0048389Y0065947D01*
X0048389Y0071998D01*
X0049663Y0073272D01*
X0051313Y0073272D01*
X0051313Y0075720D01*
X0051268Y0075720D01*
X0049994Y0076995D01*
X0049994Y0083446D01*
X0051268Y0084720D01*
X0057320Y0084720D01*
X0058594Y0083446D01*
X0058594Y0076995D01*
X0057320Y0075720D01*
X0057275Y0075720D01*
X0057275Y0072112D01*
X0057389Y0071998D01*
X0057389Y0065947D01*
X0056115Y0064672D01*
X0055870Y0064672D01*
X0055870Y0057977D01*
X0057407Y0057977D01*
X0058286Y0057613D01*
X0058959Y0056941D01*
X0059323Y0056062D01*
X0059323Y0046450D01*
X0058959Y0045571D01*
X0058286Y0044899D01*
X0057407Y0044535D01*
X0056567Y0044535D01*
X0056567Y0035190D01*
X0056113Y0034095D01*
X0055274Y0033256D01*
X0050779Y0028761D01*
X0050779Y0028475D01*
X0053561Y0025694D01*
X0064834Y0025694D01*
X0064378Y0026149D01*
X0063715Y0027751D01*
X0063715Y0029485D01*
X0064378Y0031087D01*
X0065605Y0032314D01*
X0066188Y0032555D01*
X0065605Y0032797D01*
X0064378Y0034023D01*
X0063715Y0035625D01*
X0063715Y0037359D01*
X0064378Y0038961D01*
X0065605Y0040188D01*
X0067207Y0040851D01*
X0068941Y0040851D01*
X0070543Y0040188D01*
X0071769Y0038961D01*
X0072011Y0038378D01*
X0072252Y0038961D01*
X0073479Y0040188D01*
X0075081Y0040851D01*
X0076815Y0040851D01*
X0078417Y0040188D01*
X0079643Y0038961D01*
X0079885Y0038378D01*
X0080126Y0038961D01*
X0081353Y0040188D01*
X0082955Y0040851D01*
X0084689Y0040851D01*
X0086291Y0040188D01*
X0087517Y0038961D01*
X0088181Y0037359D01*
X0088181Y0035625D01*
X0087517Y0034023D01*
X0086291Y0032797D01*
X0085708Y0032555D01*
X0086291Y0032314D01*
X0087517Y0031087D01*
X0088181Y0029485D01*
X0088181Y0027751D01*
X0087517Y0026149D01*
X0086291Y0024923D01*
X0084689Y0024259D01*
X0082955Y0024259D01*
X0081353Y0024923D01*
X0080638Y0025637D01*
X0079131Y0025637D01*
X0078489Y0024995D01*
X0078475Y0024961D01*
X0074538Y0021024D01*
X0074090Y0020576D01*
X0119255Y0020576D01*
X0120056Y0020654D01*
X0121536Y0021267D01*
X0122668Y0022400D01*
X0123281Y0023880D01*
X0123360Y0024681D01*
X0123360Y0138854D01*
X0123281Y0139655D01*
X0122668Y0141135D01*
X0121536Y0142268D01*
X0120056Y0142881D01*
X0119255Y0142960D01*
X0107547Y0142960D01*
X0107814Y0142849D01*
X0111546Y0139117D01*
X0113200Y0139117D01*
X0114744Y0138478D01*
X0115926Y0137296D01*
X0116565Y0135753D01*
X0116565Y0134933D01*
X0122766Y0128732D01*
X0123220Y0127636D01*
X0123220Y0104797D01*
X0122766Y0103701D01*
X0121928Y0102862D01*
X0121928Y0102862D01*
X0118449Y0099384D01*
X0118449Y0098513D01*
X0115462Y0095526D01*
X0112623Y0095526D01*
X0112410Y0095313D01*
X0113063Y0095313D01*
X0113063Y0090912D01*
X0113063Y0090340D01*
X0108662Y0090340D01*
X0108662Y0088684D01*
X0111408Y0085939D01*
X0113063Y0085939D01*
X0113063Y0090340D01*
X0113635Y0090340D01*
X0113635Y0085939D01*
X0115291Y0085939D01*
X0118037Y0088684D01*
X0118037Y0090340D01*
X0113635Y0090340D01*
X0113635Y0090912D01*
X0113063Y0090912D01*
X0108662Y0090912D01*
X0108662Y0091565D01*
X0106488Y0089391D01*
X0106488Y0059521D01*
X0106034Y0058426D01*
X0105195Y0057587D01*
X0104211Y0056603D01*
X0104211Y0056603D01*
X0092400Y0044792D01*
X0091304Y0044338D01*
X0062559Y0044338D01*
X0061464Y0044792D01*
X0060625Y0045630D01*
X0060171Y0046726D01*
X0060171Y0047912D01*
X0060625Y0049008D01*
X0061464Y0049846D01*
X0062559Y0050300D01*
X0089477Y0050300D01*
X0099995Y0060819D01*
X0099995Y0060819D01*
X0100526Y0061349D01*
X0100526Y0069928D01*
X0096685Y0069928D01*
X0096685Y0068557D01*
X0095457Y0067330D01*
X0083073Y0067330D01*
X0082876Y0067133D01*
X0078153Y0067133D01*
X0076943Y0068343D01*
X0076943Y0074641D01*
X0077525Y0075223D01*
X0077001Y0075223D01*
X0077001Y0081108D01*
X0076548Y0081108D01*
X0076548Y0075223D01*
X0075357Y0075223D01*
X0075555Y0075108D01*
X0075863Y0074800D01*
X0076081Y0074424D01*
X0076193Y0074003D01*
X0076193Y0071778D01*
X0073320Y0071778D01*
X0072748Y0071778D01*
X0072748Y0071206D01*
X0069875Y0071206D01*
X0069875Y0068981D01*
X0069988Y0068561D01*
X0070206Y0068184D01*
X0070513Y0067876D01*
X0070890Y0067658D01*
X0071311Y0067546D01*
X0072748Y0067546D01*
X0072748Y0071206D01*
X0073320Y0071206D01*
X0073320Y0067546D01*
X0074758Y0067546D01*
X0075178Y0067658D01*
X0075555Y0067876D01*
X0075863Y0068184D01*
X0076081Y0068561D01*
X0076193Y0068981D01*
X0076193Y0071206D01*
X0073320Y0071206D01*
X0073320Y0071778D01*
X0073320Y0075439D01*
X0074557Y0075439D01*
X0074365Y0075550D01*
X0074342Y0075573D01*
X0074137Y0075518D01*
X0073034Y0075518D01*
X0073034Y0077074D01*
X0073034Y0077074D01*
X0073034Y0075518D01*
X0071932Y0075518D01*
X0071560Y0075618D01*
X0071227Y0075810D01*
X0070955Y0076082D01*
X0070762Y0076415D01*
X0070663Y0076787D01*
X0070663Y0077398D01*
X0071024Y0077398D01*
X0071024Y0077398D01*
X0070663Y0077398D01*
X0070663Y0077759D01*
X0070250Y0078172D01*
X0070250Y0079141D01*
X0069528Y0079141D01*
X0068938Y0078550D01*
X0060989Y0078550D01*
X0059719Y0079821D01*
X0059719Y0085801D01*
X0060756Y0086838D01*
X0060625Y0086969D01*
X0060171Y0088064D01*
X0060171Y0090375D01*
X0059641Y0090906D01*
X0056996Y0093550D01*
X0050608Y0093550D01*
X0046783Y0089726D01*
X0046783Y0085995D01*
X0045509Y0084720D01*
X0039457Y0084720D01*
X0038183Y0083446D01*
X0038183Y0081796D01*
X0036884Y0081796D01*
X0035900Y0082780D01*
X0029381Y0082780D01*
X0028085Y0081484D01*
X0028085Y0071815D01*
X0029381Y0070519D01*
X0035900Y0070519D01*
X0037197Y0071815D01*
X0037197Y0075834D01*
X0039344Y0075834D01*
X0039457Y0075720D01*
X0039502Y0075720D01*
X0039502Y0072112D01*
X0039389Y0071998D01*
X0039389Y0065947D01*
X0040663Y0064672D01*
X0047115Y0064672D01*
X0048389Y0065947D01*
X0048389Y0071998D01*
X0047115Y0073272D01*
X0045464Y0073272D01*
X0045464Y0075720D01*
X0045509Y0075720D01*
X0046783Y0076995D01*
X0046783Y0083446D01*
X0045509Y0084720D01*
X0039457Y0084720D01*
X0038183Y0085995D01*
X0038183Y0092446D01*
X0039457Y0093720D01*
X0042346Y0093720D01*
X0046846Y0098220D01*
X0047684Y0099059D01*
X0048780Y0099513D01*
X0058824Y0099513D01*
X0059920Y0099059D01*
X0062586Y0096393D01*
X0064079Y0097886D01*
X0064751Y0098558D01*
X0065630Y0098922D01*
X0085784Y0098922D01*
X0093144Y0106282D01*
X0093144Y0121602D01*
X0092750Y0122552D01*
X0092750Y0123660D01*
X0093174Y0124683D01*
X0093957Y0125467D01*
X0094981Y0125891D01*
X0096088Y0125891D01*
X0097111Y0125467D01*
X0097895Y0124683D01*
X0098319Y0123660D01*
X0098319Y0122552D01*
X0097925Y0121602D01*
X0097925Y0104816D01*
X0097561Y0103937D01*
X0096888Y0103265D01*
X0088228Y0094605D01*
X0089204Y0093629D01*
X0089204Y0093371D01*
X0089494Y0093371D01*
X0097368Y0085497D01*
X0098653Y0084212D01*
X0098653Y0076489D01*
X0098055Y0075891D01*
X0100526Y0075891D01*
X0100526Y0091219D01*
X0100980Y0092315D01*
X0101818Y0093153D01*
X0103623Y0094958D01*
X0103076Y0094731D01*
X0101969Y0094731D01*
X0100945Y0095155D01*
X0100162Y0095939D01*
X0099738Y0096962D01*
X0099738Y0098070D01*
X0100162Y0099093D01*
X0100945Y0099876D01*
X0101896Y0100270D01*
X0103085Y0101459D01*
X0103085Y0123411D01*
X0101904Y0124592D01*
X0101904Y0129495D01*
X0102100Y0129691D01*
X0102100Y0131368D01*
X0100930Y0132538D01*
X0100404Y0133808D01*
X0100404Y0132335D01*
X0100310Y0131982D01*
X0100127Y0131665D01*
X0099869Y0131407D01*
X0099553Y0131224D01*
X0099200Y0131130D01*
X0096817Y0131130D01*
X0096817Y0134717D01*
X0096417Y0134717D01*
X0096417Y0131130D01*
X0094034Y0131130D01*
X0093682Y0131224D01*
X0093365Y0131407D01*
X0093107Y0131665D01*
X0092924Y0131982D01*
X0092830Y0132335D01*
X0092830Y0134717D01*
X0096417Y0134717D01*
X0096417Y0135117D01*
X0092830Y0135117D01*
X0092830Y0137500D01*
X0092863Y0137625D01*
X0091134Y0135896D01*
X0091134Y0126568D01*
X0090770Y0125689D01*
X0090097Y0125017D01*
X0085274Y0120194D01*
X0084396Y0119830D01*
X0082571Y0119830D01*
X0082571Y0119769D01*
X0081352Y0118550D01*
X0076449Y0118550D01*
X0075230Y0119769D01*
X0075230Y0119830D01*
X0066823Y0119830D01*
X0066823Y0119769D01*
X0065604Y0118550D01*
X0060701Y0118550D01*
X0059482Y0119769D01*
X0059482Y0119830D01*
X0049106Y0119830D01*
X0049106Y0119769D01*
X0047887Y0118550D01*
X0042985Y0118550D01*
X0041766Y0119769D01*
X0041766Y0119830D01*
X0033358Y0119830D01*
X0033358Y0119769D01*
X0032139Y0118550D01*
X0027237Y0118550D01*
X0026018Y0119769D01*
X0026018Y0124672D01*
X0026421Y0125075D01*
X0026018Y0125478D01*
X0026018Y0130380D01*
X0026448Y0130811D01*
X0025488Y0131772D01*
X0025488Y0138063D01*
X0026542Y0139117D01*
X0032833Y0139117D01*
X0033888Y0138063D01*
X0033888Y0135860D01*
X0033920Y0136022D01*
X0034206Y0136711D01*
X0034620Y0137332D01*
X0035148Y0137859D01*
X0035768Y0138274D01*
X0036457Y0138559D01*
X0037189Y0138705D01*
X0037362Y0138705D01*
X0037362Y0135117D01*
X0037762Y0135117D01*
X0037762Y0138705D01*
X0037935Y0138705D01*
X0038667Y0138559D01*
X0039356Y0138274D01*
X0039976Y0137859D01*
X0040504Y0137332D01*
X0040918Y0136711D01*
X0041204Y0136022D01*
X0041250Y0135788D01*
X0041875Y0137296D01*
X0043057Y0138478D01*
X0044600Y0139117D01*
X0046271Y0139117D01*
X0047815Y0138478D01*
X0048997Y0137296D01*
X0049636Y0135753D01*
X0049636Y0134082D01*
X0048997Y0132538D01*
X0047972Y0131514D01*
X0049106Y0130380D01*
X0049106Y0125478D01*
X0048703Y0125075D01*
X0049106Y0124672D01*
X0049106Y0124611D01*
X0059482Y0124611D01*
X0059482Y0124672D01*
X0059885Y0125075D01*
X0059482Y0125478D01*
X0059482Y0130380D01*
X0059913Y0130811D01*
X0058952Y0131772D01*
X0058952Y0138063D01*
X0060007Y0139117D01*
X0066298Y0139117D01*
X0067352Y0138063D01*
X0067352Y0135860D01*
X0067385Y0136022D01*
X0067670Y0136711D01*
X0068085Y0137332D01*
X0068612Y0137859D01*
X0069232Y0138274D01*
X0069922Y0138559D01*
X0070653Y0138705D01*
X0070826Y0138705D01*
X0070826Y0135117D01*
X0071226Y0135117D01*
X0071226Y0138705D01*
X0071399Y0138705D01*
X0072131Y0138559D01*
X0072820Y0138274D01*
X0073441Y0137859D01*
X0073968Y0137332D01*
X0074383Y0136711D01*
X0074668Y0136022D01*
X0074715Y0135788D01*
X0075340Y0137296D01*
X0076521Y0138478D01*
X0078065Y0139117D01*
X0079736Y0139117D01*
X0081280Y0138478D01*
X0082461Y0137296D01*
X0083100Y0135753D01*
X0083100Y0134082D01*
X0082461Y0132538D01*
X0081437Y0131514D01*
X0082571Y0130380D01*
X0082571Y0125478D01*
X0082168Y0125075D01*
X0082571Y0124672D01*
X0082571Y0124611D01*
X0082930Y0124611D01*
X0086352Y0128034D01*
X0086352Y0137361D01*
X0086716Y0138240D01*
X0090653Y0142177D01*
X0091326Y0142849D01*
X0091592Y0142960D01*
X0022798Y0142960D01*
X0021997Y0142881D01*
X0020517Y0142268D01*
X0019385Y0141135D01*
X0018771Y0139655D01*
X0018693Y0138854D01*
X0018693Y0024681D01*
X0018771Y0023880D01*
X0019385Y0022400D01*
X0019414Y0022371D02*
X0048451Y0022371D01*
X0047253Y0023570D02*
X0018900Y0023570D01*
X0018693Y0024768D02*
X0028576Y0024768D01*
X0027159Y0025967D02*
X0018693Y0025967D01*
X0018693Y0027165D02*
X0026556Y0027165D01*
X0026313Y0028364D02*
X0018693Y0028364D01*
X0018693Y0029562D02*
X0026345Y0029562D01*
X0026841Y0030761D02*
X0018693Y0030761D01*
X0018693Y0031959D02*
X0027849Y0031959D01*
X0027842Y0033158D02*
X0018693Y0033158D01*
X0018693Y0034356D02*
X0026839Y0034356D01*
X0026342Y0035555D02*
X0018693Y0035555D01*
X0018693Y0036753D02*
X0026313Y0036753D01*
X0026559Y0037952D02*
X0018693Y0037952D01*
X0018693Y0039150D02*
X0027166Y0039150D01*
X0028592Y0040349D02*
X0018693Y0040349D01*
X0018693Y0041547D02*
X0035565Y0041547D01*
X0035565Y0040349D02*
X0032752Y0040349D01*
X0034179Y0039150D02*
X0035040Y0039150D01*
X0035565Y0042746D02*
X0018693Y0042746D01*
X0018693Y0043944D02*
X0034476Y0043944D01*
X0038114Y0048738D02*
X0047849Y0048738D01*
X0047849Y0047540D02*
X0039313Y0047540D01*
X0040511Y0046341D02*
X0047893Y0046341D01*
X0048641Y0045143D02*
X0041337Y0045143D01*
X0041527Y0043944D02*
X0050604Y0043944D01*
X0050604Y0042746D02*
X0041527Y0042746D01*
X0041527Y0041547D02*
X0050604Y0041547D01*
X0050604Y0040349D02*
X0048500Y0040349D01*
X0049927Y0039150D02*
X0050604Y0039150D01*
X0050604Y0037952D02*
X0050534Y0037952D01*
X0055176Y0033158D02*
X0065243Y0033158D01*
X0065250Y0031959D02*
X0053977Y0031959D01*
X0052779Y0030761D02*
X0064243Y0030761D01*
X0063747Y0029562D02*
X0051580Y0029562D01*
X0050891Y0028364D02*
X0063715Y0028364D01*
X0063957Y0027165D02*
X0052089Y0027165D01*
X0053288Y0025967D02*
X0064561Y0025967D01*
X0064240Y0034356D02*
X0056221Y0034356D01*
X0056567Y0035555D02*
X0063744Y0035555D01*
X0063715Y0036753D02*
X0056567Y0036753D01*
X0056567Y0037952D02*
X0063960Y0037952D01*
X0064567Y0039150D02*
X0056567Y0039150D01*
X0056567Y0040349D02*
X0065994Y0040349D01*
X0070154Y0040349D02*
X0073868Y0040349D01*
X0072441Y0039150D02*
X0071580Y0039150D01*
X0078028Y0040349D02*
X0081742Y0040349D01*
X0080315Y0039150D02*
X0079454Y0039150D01*
X0085902Y0040349D02*
X0123360Y0040349D01*
X0123360Y0041547D02*
X0056567Y0041547D01*
X0056567Y0042746D02*
X0123360Y0042746D01*
X0123360Y0043944D02*
X0056567Y0043944D01*
X0058530Y0045143D02*
X0061113Y0045143D01*
X0060331Y0046341D02*
X0059278Y0046341D01*
X0059323Y0047540D02*
X0060171Y0047540D01*
X0060514Y0048738D02*
X0059323Y0048738D01*
X0059323Y0049937D02*
X0061683Y0049937D01*
X0059323Y0051135D02*
X0090312Y0051135D01*
X0091511Y0052334D02*
X0059323Y0052334D01*
X0059323Y0053532D02*
X0092709Y0053532D01*
X0093908Y0054731D02*
X0059323Y0054731D01*
X0059323Y0055929D02*
X0095106Y0055929D01*
X0096305Y0057128D02*
X0058771Y0057128D01*
X0055870Y0058326D02*
X0097503Y0058326D01*
X0098702Y0059525D02*
X0055870Y0059525D01*
X0055870Y0060723D02*
X0099900Y0060723D01*
X0100526Y0061922D02*
X0055870Y0061922D01*
X0055870Y0063121D02*
X0100526Y0063121D01*
X0100526Y0064319D02*
X0055870Y0064319D01*
X0056960Y0065518D02*
X0100526Y0065518D01*
X0100526Y0066716D02*
X0057389Y0066716D01*
X0057389Y0067915D02*
X0070475Y0067915D01*
X0069875Y0069113D02*
X0069617Y0069113D01*
X0069676Y0069215D02*
X0069796Y0069661D01*
X0069796Y0071384D01*
X0065564Y0071384D01*
X0065564Y0072584D01*
X0069796Y0072584D01*
X0069796Y0074307D01*
X0069676Y0074754D01*
X0069445Y0075154D01*
X0069118Y0075481D01*
X0068717Y0075713D01*
X0068271Y0075832D01*
X0065563Y0075832D01*
X0065563Y0072584D01*
X0064363Y0072584D01*
X0064363Y0071384D01*
X0060131Y0071384D01*
X0060131Y0069661D01*
X0060251Y0069215D01*
X0060482Y0068814D01*
X0060809Y0068487D01*
X0061210Y0068256D01*
X0061656Y0068136D01*
X0064363Y0068136D01*
X0064363Y0071384D01*
X0065563Y0071384D01*
X0065563Y0068136D01*
X0068271Y0068136D01*
X0068717Y0068256D01*
X0069118Y0068487D01*
X0069445Y0068814D01*
X0069676Y0069215D01*
X0069796Y0070312D02*
X0069875Y0070312D01*
X0069875Y0071778D02*
X0072748Y0071778D01*
X0072748Y0075439D01*
X0071311Y0075439D01*
X0070890Y0075326D01*
X0070513Y0075108D01*
X0070206Y0074800D01*
X0069988Y0074424D01*
X0069875Y0074003D01*
X0069875Y0071778D01*
X0069875Y0072709D02*
X0069796Y0072709D01*
X0069796Y0073907D02*
X0069875Y0073907D01*
X0069473Y0075106D02*
X0070511Y0075106D01*
X0070826Y0076304D02*
X0057904Y0076304D01*
X0057275Y0075106D02*
X0060454Y0075106D01*
X0060482Y0075154D02*
X0060251Y0074754D01*
X0060131Y0074307D01*
X0060131Y0072584D01*
X0064363Y0072584D01*
X0064363Y0075832D01*
X0061656Y0075832D01*
X0061210Y0075713D01*
X0060809Y0075481D01*
X0060482Y0075154D01*
X0060131Y0073907D02*
X0057275Y0073907D01*
X0057275Y0072709D02*
X0060131Y0072709D01*
X0060131Y0070312D02*
X0057389Y0070312D01*
X0057389Y0071510D02*
X0064363Y0071510D01*
X0064363Y0070312D02*
X0065563Y0070312D01*
X0065564Y0071510D02*
X0072748Y0071510D01*
X0073320Y0071510D02*
X0076943Y0071510D01*
X0076943Y0070312D02*
X0076193Y0070312D01*
X0076193Y0069113D02*
X0076943Y0069113D01*
X0077372Y0067915D02*
X0075594Y0067915D01*
X0073320Y0067915D02*
X0072748Y0067915D01*
X0072748Y0069113D02*
X0073320Y0069113D01*
X0073320Y0070312D02*
X0072748Y0070312D01*
X0072748Y0072709D02*
X0073320Y0072709D01*
X0073320Y0073907D02*
X0072748Y0073907D01*
X0072748Y0075106D02*
X0073320Y0075106D01*
X0073034Y0076304D02*
X0073034Y0076304D01*
X0070663Y0077503D02*
X0058594Y0077503D01*
X0058594Y0078701D02*
X0060838Y0078701D01*
X0059719Y0079900D02*
X0058594Y0079900D01*
X0058594Y0081098D02*
X0059719Y0081098D01*
X0059719Y0082297D02*
X0058594Y0082297D01*
X0058545Y0083495D02*
X0059719Y0083495D01*
X0059719Y0084694D02*
X0057347Y0084694D01*
X0057099Y0085253D02*
X0057501Y0085485D01*
X0057829Y0085813D01*
X0058061Y0086215D01*
X0058182Y0086663D01*
X0058182Y0088620D01*
X0054894Y0088620D01*
X0054894Y0085133D01*
X0056651Y0085133D01*
X0057099Y0085253D01*
X0057875Y0085892D02*
X0059810Y0085892D01*
X0060575Y0087091D02*
X0058182Y0087091D01*
X0058182Y0088289D02*
X0060171Y0088289D01*
X0060171Y0089488D02*
X0054894Y0089488D01*
X0054894Y0089820D02*
X0054894Y0088620D01*
X0053694Y0088620D01*
X0053694Y0085133D01*
X0051937Y0085133D01*
X0051489Y0085253D01*
X0051087Y0085485D01*
X0050759Y0085813D01*
X0050527Y0086215D01*
X0050407Y0086663D01*
X0050407Y0088620D01*
X0053694Y0088620D01*
X0053694Y0089820D01*
X0050407Y0089820D01*
X0050407Y0091777D01*
X0050527Y0092226D01*
X0050759Y0092628D01*
X0051087Y0092956D01*
X0051489Y0093188D01*
X0051937Y0093308D01*
X0053694Y0093308D01*
X0053694Y0089821D01*
X0054894Y0089821D01*
X0054894Y0093308D01*
X0056651Y0093308D01*
X0057099Y0093188D01*
X0057501Y0092956D01*
X0057829Y0092628D01*
X0058061Y0092226D01*
X0058182Y0091777D01*
X0058182Y0089820D01*
X0054894Y0089820D01*
X0054894Y0090686D02*
X0053694Y0090686D01*
X0053694Y0089488D02*
X0046783Y0089488D01*
X0046783Y0088289D02*
X0050407Y0088289D01*
X0050407Y0087091D02*
X0046783Y0087091D01*
X0046681Y0085892D02*
X0050713Y0085892D01*
X0051242Y0084694D02*
X0045536Y0084694D01*
X0046734Y0083495D02*
X0050043Y0083495D01*
X0049994Y0082297D02*
X0046783Y0082297D01*
X0046783Y0081098D02*
X0049994Y0081098D01*
X0049994Y0079900D02*
X0046783Y0079900D01*
X0046783Y0078701D02*
X0049994Y0078701D01*
X0049994Y0077503D02*
X0046783Y0077503D01*
X0046093Y0076304D02*
X0050685Y0076304D01*
X0051313Y0075106D02*
X0045464Y0075106D01*
X0045464Y0073907D02*
X0051313Y0073907D01*
X0049099Y0072709D02*
X0047678Y0072709D01*
X0048389Y0071510D02*
X0048389Y0071510D01*
X0048389Y0070312D02*
X0048389Y0070312D01*
X0048389Y0069113D02*
X0048389Y0069113D01*
X0048389Y0067915D02*
X0048389Y0067915D01*
X0048389Y0066716D02*
X0048389Y0066716D01*
X0047960Y0065518D02*
X0048818Y0065518D01*
X0049908Y0064319D02*
X0037197Y0064319D01*
X0037197Y0065518D02*
X0039818Y0065518D01*
X0039389Y0066716D02*
X0037197Y0066716D01*
X0037197Y0067915D02*
X0039389Y0067915D01*
X0039389Y0069113D02*
X0037055Y0069113D01*
X0039389Y0070312D02*
X0018693Y0070312D01*
X0018693Y0071510D02*
X0028390Y0071510D01*
X0028085Y0072709D02*
X0018693Y0072709D01*
X0018693Y0073907D02*
X0028085Y0073907D01*
X0028085Y0075106D02*
X0018693Y0075106D01*
X0018693Y0076304D02*
X0028085Y0076304D01*
X0028085Y0077503D02*
X0018693Y0077503D01*
X0018693Y0078701D02*
X0028085Y0078701D01*
X0028085Y0079900D02*
X0018693Y0079900D01*
X0018693Y0081098D02*
X0028085Y0081098D01*
X0028898Y0082297D02*
X0018693Y0082297D01*
X0018693Y0083495D02*
X0038232Y0083495D01*
X0038183Y0082297D02*
X0036384Y0082297D01*
X0039430Y0084694D02*
X0018693Y0084694D01*
X0018693Y0085892D02*
X0038285Y0085892D01*
X0038183Y0087091D02*
X0018693Y0087091D01*
X0018693Y0088289D02*
X0038183Y0088289D01*
X0038183Y0089488D02*
X0018693Y0089488D01*
X0018693Y0090686D02*
X0038183Y0090686D01*
X0038183Y0091885D02*
X0018693Y0091885D01*
X0018693Y0093083D02*
X0038820Y0093083D01*
X0042907Y0094282D02*
X0018693Y0094282D01*
X0018693Y0095480D02*
X0044106Y0095480D01*
X0045304Y0096679D02*
X0018693Y0096679D01*
X0018693Y0097877D02*
X0046503Y0097877D01*
X0047726Y0099076D02*
X0018693Y0099076D01*
X0018693Y0100274D02*
X0087137Y0100274D01*
X0088335Y0101473D02*
X0018693Y0101473D01*
X0018693Y0102671D02*
X0089534Y0102671D01*
X0090732Y0103870D02*
X0018693Y0103870D01*
X0018693Y0105068D02*
X0091931Y0105068D01*
X0093129Y0106267D02*
X0018693Y0106267D01*
X0018693Y0107465D02*
X0093144Y0107465D01*
X0093144Y0108664D02*
X0018693Y0108664D01*
X0018693Y0109862D02*
X0093144Y0109862D01*
X0093144Y0111061D02*
X0018693Y0111061D01*
X0018693Y0112259D02*
X0093144Y0112259D01*
X0093144Y0113458D02*
X0018693Y0113458D01*
X0018693Y0114656D02*
X0093144Y0114656D01*
X0093144Y0115855D02*
X0018693Y0115855D01*
X0018693Y0117054D02*
X0093144Y0117054D01*
X0093144Y0118252D02*
X0018693Y0118252D01*
X0018693Y0119451D02*
X0026336Y0119451D01*
X0026018Y0120649D02*
X0018693Y0120649D01*
X0018693Y0121848D02*
X0026018Y0121848D01*
X0026018Y0123046D02*
X0018693Y0123046D01*
X0018693Y0124245D02*
X0026018Y0124245D01*
X0026052Y0125443D02*
X0018693Y0125443D01*
X0018693Y0126642D02*
X0026018Y0126642D01*
X0026018Y0127840D02*
X0018693Y0127840D01*
X0018693Y0129039D02*
X0026018Y0129039D01*
X0026018Y0130237D02*
X0018693Y0130237D01*
X0018693Y0131436D02*
X0025824Y0131436D01*
X0025488Y0132634D02*
X0018693Y0132634D01*
X0018693Y0133833D02*
X0025488Y0133833D01*
X0025488Y0135031D02*
X0018693Y0135031D01*
X0018693Y0136230D02*
X0025488Y0136230D01*
X0025488Y0137428D02*
X0018693Y0137428D01*
X0018693Y0138627D02*
X0026052Y0138627D01*
X0020472Y0142222D02*
X0090699Y0142222D01*
X0089500Y0141024D02*
X0019338Y0141024D01*
X0018842Y0139825D02*
X0088302Y0139825D01*
X0087103Y0138627D02*
X0080920Y0138627D01*
X0082329Y0137428D02*
X0086380Y0137428D01*
X0086352Y0136230D02*
X0082903Y0136230D01*
X0083100Y0135031D02*
X0086352Y0135031D01*
X0086352Y0133833D02*
X0082997Y0133833D01*
X0082501Y0132634D02*
X0086352Y0132634D01*
X0086352Y0131436D02*
X0081515Y0131436D01*
X0082571Y0130237D02*
X0086352Y0130237D01*
X0086352Y0129039D02*
X0082571Y0129039D01*
X0082571Y0127840D02*
X0086159Y0127840D01*
X0084961Y0126642D02*
X0082571Y0126642D01*
X0082536Y0125443D02*
X0083762Y0125443D01*
X0086928Y0121848D02*
X0093042Y0121848D01*
X0093144Y0120649D02*
X0085730Y0120649D01*
X0088127Y0123046D02*
X0092750Y0123046D01*
X0092992Y0124245D02*
X0089325Y0124245D01*
X0090524Y0125443D02*
X0093934Y0125443D01*
X0091134Y0126642D02*
X0101904Y0126642D01*
X0101904Y0127840D02*
X0091134Y0127840D01*
X0091134Y0129039D02*
X0101904Y0129039D01*
X0102100Y0130237D02*
X0091134Y0130237D01*
X0091134Y0131436D02*
X0093337Y0131436D01*
X0092830Y0132634D02*
X0091134Y0132634D01*
X0091134Y0133833D02*
X0092830Y0133833D01*
X0091134Y0135031D02*
X0096417Y0135031D01*
X0096417Y0133833D02*
X0096817Y0133833D01*
X0096817Y0132634D02*
X0096417Y0132634D01*
X0096417Y0131436D02*
X0096817Y0131436D01*
X0099897Y0131436D02*
X0102033Y0131436D01*
X0100891Y0132634D02*
X0100404Y0132634D01*
X0101904Y0125443D02*
X0097135Y0125443D01*
X0098077Y0124245D02*
X0102251Y0124245D01*
X0103085Y0123046D02*
X0098319Y0123046D01*
X0098027Y0121848D02*
X0103085Y0121848D01*
X0103085Y0120649D02*
X0097925Y0120649D01*
X0097925Y0119451D02*
X0103085Y0119451D01*
X0103085Y0118252D02*
X0097925Y0118252D01*
X0097925Y0117054D02*
X0103085Y0117054D01*
X0103085Y0115855D02*
X0097925Y0115855D01*
X0097925Y0114656D02*
X0103085Y0114656D01*
X0103085Y0113458D02*
X0097925Y0113458D01*
X0097925Y0112259D02*
X0103085Y0112259D01*
X0103085Y0111061D02*
X0097925Y0111061D01*
X0097925Y0109862D02*
X0103085Y0109862D01*
X0103085Y0108664D02*
X0097925Y0108664D01*
X0097925Y0107465D02*
X0103085Y0107465D01*
X0103085Y0106267D02*
X0097925Y0106267D01*
X0097925Y0105068D02*
X0103085Y0105068D01*
X0103085Y0103870D02*
X0097494Y0103870D01*
X0096295Y0102671D02*
X0103085Y0102671D01*
X0103085Y0101473D02*
X0095097Y0101473D01*
X0093898Y0100274D02*
X0101900Y0100274D01*
X0100155Y0099076D02*
X0092700Y0099076D01*
X0091501Y0097877D02*
X0099738Y0097877D01*
X0099856Y0096679D02*
X0090303Y0096679D01*
X0089104Y0095480D02*
X0100620Y0095480D01*
X0102947Y0094282D02*
X0088551Y0094282D01*
X0089782Y0093083D02*
X0101748Y0093083D01*
X0100801Y0091885D02*
X0090980Y0091885D01*
X0092179Y0090686D02*
X0100526Y0090686D01*
X0100526Y0089488D02*
X0093377Y0089488D01*
X0094576Y0088289D02*
X0100526Y0088289D01*
X0100526Y0087091D02*
X0095774Y0087091D01*
X0096973Y0085892D02*
X0100526Y0085892D01*
X0100526Y0084694D02*
X0098171Y0084694D01*
X0098653Y0083495D02*
X0100526Y0083495D01*
X0100526Y0082297D02*
X0098653Y0082297D01*
X0098653Y0081098D02*
X0100526Y0081098D01*
X0100526Y0079900D02*
X0098653Y0079900D01*
X0098653Y0078701D02*
X0100526Y0078701D01*
X0100526Y0077503D02*
X0098653Y0077503D01*
X0098468Y0076304D02*
X0100526Y0076304D01*
X0106488Y0076304D02*
X0110459Y0076304D01*
X0111137Y0075626D02*
X0108249Y0072738D01*
X0108249Y0068513D01*
X0111237Y0065526D01*
X0115462Y0065526D01*
X0118449Y0068513D01*
X0118449Y0072738D01*
X0115562Y0075626D01*
X0118449Y0078513D01*
X0118449Y0082738D01*
X0115462Y0085726D01*
X0111237Y0085726D01*
X0108249Y0082738D01*
X0108249Y0078513D01*
X0111137Y0075626D01*
X0110616Y0075106D02*
X0106488Y0075106D01*
X0106488Y0073907D02*
X0109418Y0073907D01*
X0108249Y0072709D02*
X0106488Y0072709D01*
X0106488Y0071510D02*
X0108249Y0071510D01*
X0108249Y0070312D02*
X0106488Y0070312D01*
X0106488Y0069113D02*
X0108249Y0069113D01*
X0108848Y0067915D02*
X0106488Y0067915D01*
X0106488Y0066716D02*
X0110047Y0066716D01*
X0106488Y0065518D02*
X0123360Y0065518D01*
X0123360Y0066716D02*
X0116652Y0066716D01*
X0117850Y0067915D02*
X0123360Y0067915D01*
X0123360Y0069113D02*
X0118449Y0069113D01*
X0118449Y0070312D02*
X0123360Y0070312D01*
X0123360Y0071510D02*
X0118449Y0071510D01*
X0118449Y0072709D02*
X0123360Y0072709D01*
X0123360Y0073907D02*
X0117281Y0073907D01*
X0116082Y0075106D02*
X0123360Y0075106D01*
X0123360Y0076304D02*
X0116240Y0076304D01*
X0117438Y0077503D02*
X0123360Y0077503D01*
X0123360Y0078701D02*
X0118449Y0078701D01*
X0118449Y0079900D02*
X0123360Y0079900D01*
X0123360Y0081098D02*
X0118449Y0081098D01*
X0118449Y0082297D02*
X0123360Y0082297D01*
X0123360Y0083495D02*
X0117693Y0083495D01*
X0116494Y0084694D02*
X0123360Y0084694D01*
X0123360Y0085892D02*
X0106488Y0085892D01*
X0106488Y0084694D02*
X0110205Y0084694D01*
X0109006Y0083495D02*
X0106488Y0083495D01*
X0106488Y0082297D02*
X0108249Y0082297D01*
X0108249Y0081098D02*
X0106488Y0081098D01*
X0106488Y0079900D02*
X0108249Y0079900D01*
X0108249Y0078701D02*
X0106488Y0078701D01*
X0106488Y0077503D02*
X0109260Y0077503D01*
X0110256Y0087091D02*
X0106488Y0087091D01*
X0106488Y0088289D02*
X0109057Y0088289D01*
X0108662Y0089488D02*
X0106584Y0089488D01*
X0107783Y0090686D02*
X0113063Y0090686D01*
X0113635Y0090686D02*
X0123360Y0090686D01*
X0123360Y0089488D02*
X0118037Y0089488D01*
X0117642Y0088289D02*
X0123360Y0088289D01*
X0123360Y0087091D02*
X0116443Y0087091D01*
X0113635Y0087091D02*
X0113063Y0087091D01*
X0113063Y0088289D02*
X0113635Y0088289D01*
X0113635Y0089488D02*
X0113063Y0089488D01*
X0113635Y0090912D02*
X0118037Y0090912D01*
X0118037Y0092568D01*
X0115291Y0095313D01*
X0113635Y0095313D01*
X0113635Y0090912D01*
X0113635Y0091885D02*
X0113063Y0091885D01*
X0113063Y0093083D02*
X0113635Y0093083D01*
X0113635Y0094282D02*
X0113063Y0094282D01*
X0112577Y0095480D02*
X0123360Y0095480D01*
X0123360Y0094282D02*
X0116322Y0094282D01*
X0117521Y0093083D02*
X0123360Y0093083D01*
X0123360Y0091885D02*
X0118037Y0091885D01*
X0116615Y0096679D02*
X0123360Y0096679D01*
X0123360Y0097877D02*
X0117813Y0097877D01*
X0118449Y0099076D02*
X0123360Y0099076D01*
X0123360Y0100274D02*
X0119340Y0100274D01*
X0120538Y0101473D02*
X0123360Y0101473D01*
X0123360Y0102671D02*
X0121737Y0102671D01*
X0122836Y0103870D02*
X0123360Y0103870D01*
X0123360Y0105068D02*
X0123220Y0105068D01*
X0123220Y0106267D02*
X0123360Y0106267D01*
X0123360Y0107465D02*
X0123220Y0107465D01*
X0123220Y0108664D02*
X0123360Y0108664D01*
X0123360Y0109862D02*
X0123220Y0109862D01*
X0123220Y0111061D02*
X0123360Y0111061D01*
X0123360Y0112259D02*
X0123220Y0112259D01*
X0123220Y0113458D02*
X0123360Y0113458D01*
X0123360Y0114656D02*
X0123220Y0114656D01*
X0123220Y0115855D02*
X0123360Y0115855D01*
X0123360Y0117054D02*
X0123220Y0117054D01*
X0123220Y0118252D02*
X0123360Y0118252D01*
X0123360Y0119451D02*
X0123220Y0119451D01*
X0123220Y0120649D02*
X0123360Y0120649D01*
X0123360Y0121848D02*
X0123220Y0121848D01*
X0123220Y0123046D02*
X0123360Y0123046D01*
X0123360Y0124245D02*
X0123220Y0124245D01*
X0123220Y0125443D02*
X0123360Y0125443D01*
X0123360Y0126642D02*
X0123220Y0126642D01*
X0123136Y0127840D02*
X0123360Y0127840D01*
X0123360Y0129039D02*
X0122460Y0129039D01*
X0123360Y0130237D02*
X0121261Y0130237D01*
X0120063Y0131436D02*
X0123360Y0131436D01*
X0123360Y0132634D02*
X0118864Y0132634D01*
X0117666Y0133833D02*
X0123360Y0133833D01*
X0123360Y0135031D02*
X0116565Y0135031D01*
X0116367Y0136230D02*
X0123360Y0136230D01*
X0123360Y0137428D02*
X0115794Y0137428D01*
X0114385Y0138627D02*
X0123360Y0138627D01*
X0123211Y0139825D02*
X0110838Y0139825D01*
X0109639Y0141024D02*
X0122715Y0141024D01*
X0121581Y0142222D02*
X0108441Y0142222D01*
X0092830Y0137428D02*
X0092666Y0137428D01*
X0092830Y0136230D02*
X0091468Y0136230D01*
X0076881Y0138627D02*
X0071792Y0138627D01*
X0071226Y0138627D02*
X0070826Y0138627D01*
X0070261Y0138627D02*
X0066789Y0138627D01*
X0067352Y0137428D02*
X0068181Y0137428D01*
X0067471Y0136230D02*
X0067352Y0136230D01*
X0067352Y0133974D02*
X0067385Y0133813D01*
X0067670Y0133123D01*
X0068085Y0132503D01*
X0068612Y0131975D01*
X0069232Y0131561D01*
X0069922Y0131275D01*
X0070653Y0131130D01*
X0070826Y0131130D01*
X0070826Y0134717D01*
X0071226Y0134717D01*
X0071226Y0131130D01*
X0071399Y0131130D01*
X0072131Y0131275D01*
X0072820Y0131561D01*
X0073441Y0131975D01*
X0073968Y0132503D01*
X0074383Y0133123D01*
X0074668Y0133813D01*
X0074715Y0134047D01*
X0075340Y0132538D01*
X0076364Y0131514D01*
X0075230Y0130380D01*
X0075230Y0125478D01*
X0075633Y0125075D01*
X0075230Y0124672D01*
X0075230Y0124611D01*
X0066823Y0124611D01*
X0066823Y0124672D01*
X0066420Y0125075D01*
X0066823Y0125478D01*
X0066823Y0130380D01*
X0066392Y0130811D01*
X0067352Y0131772D01*
X0067352Y0133974D01*
X0067352Y0133833D02*
X0067381Y0133833D01*
X0067352Y0132634D02*
X0067997Y0132634D01*
X0067016Y0131436D02*
X0069535Y0131436D01*
X0070826Y0131436D02*
X0071226Y0131436D01*
X0071226Y0132634D02*
X0070826Y0132634D01*
X0070826Y0133833D02*
X0071226Y0133833D01*
X0072518Y0131436D02*
X0076286Y0131436D01*
X0075300Y0132634D02*
X0074056Y0132634D01*
X0074672Y0133833D02*
X0074804Y0133833D01*
X0074898Y0136230D02*
X0074582Y0136230D01*
X0073872Y0137428D02*
X0075472Y0137428D01*
X0071226Y0137428D02*
X0070826Y0137428D01*
X0070826Y0136230D02*
X0071226Y0136230D01*
X0075230Y0130237D02*
X0066823Y0130237D01*
X0066823Y0129039D02*
X0075230Y0129039D01*
X0075230Y0127840D02*
X0066823Y0127840D01*
X0066823Y0126642D02*
X0075230Y0126642D01*
X0075265Y0125443D02*
X0066788Y0125443D01*
X0066504Y0119451D02*
X0075549Y0119451D01*
X0082252Y0119451D02*
X0093144Y0119451D01*
X0085938Y0099076D02*
X0059879Y0099076D01*
X0061101Y0097877D02*
X0064070Y0097877D01*
X0062872Y0096679D02*
X0062300Y0096679D01*
X0058662Y0091885D02*
X0058153Y0091885D01*
X0058182Y0090686D02*
X0059860Y0090686D01*
X0057463Y0093083D02*
X0057280Y0093083D01*
X0054894Y0093083D02*
X0053694Y0093083D01*
X0053694Y0091885D02*
X0054894Y0091885D01*
X0054894Y0088289D02*
X0053694Y0088289D01*
X0053694Y0087091D02*
X0054894Y0087091D01*
X0054894Y0085892D02*
X0053694Y0085892D01*
X0050407Y0090686D02*
X0047744Y0090686D01*
X0048942Y0091885D02*
X0050436Y0091885D01*
X0050141Y0093083D02*
X0051308Y0093083D01*
X0067680Y0090842D02*
X0067680Y0087996D01*
X0067886Y0087498D01*
X0067886Y0087072D01*
X0068938Y0087072D01*
X0070208Y0085801D01*
X0070208Y0083528D01*
X0070663Y0083528D01*
X0070663Y0083665D01*
X0070250Y0084077D01*
X0070250Y0086466D01*
X0070841Y0087057D01*
X0070841Y0087938D01*
X0070564Y0088216D01*
X0070248Y0088033D01*
X0069824Y0087920D01*
X0068350Y0087920D01*
X0068350Y0090842D01*
X0067680Y0090842D01*
X0067680Y0090686D02*
X0068350Y0090686D01*
X0068350Y0089488D02*
X0067680Y0089488D01*
X0067680Y0088289D02*
X0068350Y0088289D01*
X0067886Y0087091D02*
X0070841Y0087091D01*
X0070250Y0085892D02*
X0070117Y0085892D01*
X0070208Y0084694D02*
X0070250Y0084694D01*
X0075228Y0087446D02*
X0075228Y0087507D01*
X0076175Y0087507D01*
X0076774Y0088107D01*
X0077374Y0087507D01*
X0082277Y0087507D01*
X0082680Y0087910D01*
X0083083Y0087507D01*
X0087986Y0087507D01*
X0088569Y0088091D01*
X0093132Y0083528D01*
X0083682Y0083528D01*
X0083299Y0083145D01*
X0083299Y0084498D01*
X0082886Y0084910D01*
X0082886Y0085272D01*
X0082886Y0085882D01*
X0082787Y0086254D01*
X0082594Y0086587D01*
X0082322Y0086859D01*
X0081989Y0087052D01*
X0081617Y0087151D01*
X0080515Y0087151D01*
X0080515Y0085595D01*
X0080515Y0085595D01*
X0080515Y0087151D01*
X0079412Y0087151D01*
X0079207Y0087096D01*
X0079184Y0087120D01*
X0078811Y0087335D01*
X0078395Y0087446D01*
X0077001Y0087446D01*
X0077001Y0081561D01*
X0076548Y0081561D01*
X0076548Y0087446D01*
X0075228Y0087446D01*
X0076548Y0087091D02*
X0077001Y0087091D01*
X0077001Y0085892D02*
X0076548Y0085892D01*
X0076548Y0084694D02*
X0077001Y0084694D01*
X0077001Y0083495D02*
X0076548Y0083495D01*
X0076548Y0082297D02*
X0077001Y0082297D01*
X0077001Y0081098D02*
X0076548Y0081098D01*
X0076548Y0079900D02*
X0077001Y0079900D01*
X0077001Y0078701D02*
X0076548Y0078701D01*
X0076548Y0077503D02*
X0077001Y0077503D01*
X0077001Y0076304D02*
X0076548Y0076304D01*
X0077408Y0075106D02*
X0075558Y0075106D01*
X0076193Y0073907D02*
X0076943Y0073907D01*
X0076943Y0072709D02*
X0076193Y0072709D01*
X0070250Y0078701D02*
X0069088Y0078701D01*
X0065563Y0075106D02*
X0064363Y0075106D01*
X0064363Y0073907D02*
X0065563Y0073907D01*
X0065563Y0072709D02*
X0064363Y0072709D01*
X0064363Y0069113D02*
X0065563Y0069113D01*
X0060310Y0069113D02*
X0057389Y0069113D01*
X0049908Y0063121D02*
X0036068Y0063121D01*
X0035622Y0061922D02*
X0049908Y0061922D01*
X0049908Y0060723D02*
X0035622Y0060723D01*
X0035622Y0059525D02*
X0049908Y0059525D01*
X0049908Y0058326D02*
X0035622Y0058326D01*
X0036567Y0057128D02*
X0048400Y0057128D01*
X0047849Y0055929D02*
X0037118Y0055929D01*
X0037118Y0054731D02*
X0047849Y0054731D01*
X0047849Y0053532D02*
X0037118Y0053532D01*
X0037118Y0052334D02*
X0047849Y0052334D01*
X0047849Y0051135D02*
X0037118Y0051135D01*
X0037118Y0049937D02*
X0047849Y0049937D01*
X0044340Y0040349D02*
X0041527Y0040349D01*
X0042053Y0039150D02*
X0042914Y0039150D01*
X0035033Y0025967D02*
X0034185Y0025967D01*
X0032768Y0024768D02*
X0036450Y0024768D01*
X0040642Y0024768D02*
X0044324Y0024768D01*
X0049650Y0021173D02*
X0020746Y0021173D01*
X0018693Y0045143D02*
X0026436Y0045143D01*
X0025689Y0046341D02*
X0018693Y0046341D01*
X0018693Y0047540D02*
X0025644Y0047540D01*
X0025644Y0048738D02*
X0018693Y0048738D01*
X0018693Y0049937D02*
X0025644Y0049937D01*
X0025644Y0051135D02*
X0018693Y0051135D01*
X0018693Y0052334D02*
X0025644Y0052334D01*
X0025644Y0053532D02*
X0018693Y0053532D01*
X0018693Y0054731D02*
X0025644Y0054731D01*
X0025644Y0055929D02*
X0018693Y0055929D01*
X0018693Y0057128D02*
X0026195Y0057128D01*
X0029660Y0058326D02*
X0018693Y0058326D01*
X0018693Y0059525D02*
X0029660Y0059525D01*
X0029660Y0060723D02*
X0018693Y0060723D01*
X0018693Y0061922D02*
X0029660Y0061922D01*
X0029213Y0063121D02*
X0018693Y0063121D01*
X0018693Y0064319D02*
X0028085Y0064319D01*
X0028085Y0065518D02*
X0018693Y0065518D01*
X0018693Y0066716D02*
X0028085Y0066716D01*
X0028085Y0067915D02*
X0018693Y0067915D01*
X0018693Y0069113D02*
X0028226Y0069113D01*
X0036891Y0071510D02*
X0039389Y0071510D01*
X0039502Y0072709D02*
X0037197Y0072709D01*
X0037197Y0073907D02*
X0039502Y0073907D01*
X0039502Y0075106D02*
X0037197Y0075106D01*
X0033039Y0119451D02*
X0042084Y0119451D01*
X0041766Y0124611D02*
X0033358Y0124611D01*
X0033358Y0124672D01*
X0032955Y0125075D01*
X0033358Y0125478D01*
X0033358Y0130380D01*
X0032927Y0130811D01*
X0033888Y0131772D01*
X0033888Y0133974D01*
X0033920Y0133813D01*
X0034206Y0133123D01*
X0034620Y0132503D01*
X0035148Y0131975D01*
X0035768Y0131561D01*
X0036457Y0131275D01*
X0037189Y0131130D01*
X0037362Y0131130D01*
X0037362Y0134717D01*
X0037762Y0134717D01*
X0037762Y0131130D01*
X0037935Y0131130D01*
X0038667Y0131275D01*
X0039356Y0131561D01*
X0039976Y0131975D01*
X0040504Y0132503D01*
X0040918Y0133123D01*
X0041204Y0133813D01*
X0041250Y0134047D01*
X0041875Y0132538D01*
X0042899Y0131514D01*
X0041766Y0130380D01*
X0041766Y0125478D01*
X0042169Y0125075D01*
X0041766Y0124672D01*
X0041766Y0124611D01*
X0041801Y0125443D02*
X0033323Y0125443D01*
X0033358Y0126642D02*
X0041766Y0126642D01*
X0041766Y0127840D02*
X0033358Y0127840D01*
X0033358Y0129039D02*
X0041766Y0129039D01*
X0041766Y0130237D02*
X0033358Y0130237D01*
X0033552Y0131436D02*
X0036070Y0131436D01*
X0037362Y0131436D02*
X0037762Y0131436D01*
X0037762Y0132634D02*
X0037362Y0132634D01*
X0037362Y0133833D02*
X0037762Y0133833D01*
X0039053Y0131436D02*
X0042821Y0131436D01*
X0041836Y0132634D02*
X0040591Y0132634D01*
X0041208Y0133833D02*
X0041339Y0133833D01*
X0041433Y0136230D02*
X0041118Y0136230D01*
X0040407Y0137428D02*
X0042007Y0137428D01*
X0043416Y0138627D02*
X0038327Y0138627D01*
X0037762Y0138627D02*
X0037362Y0138627D01*
X0036797Y0138627D02*
X0033324Y0138627D01*
X0033888Y0137428D02*
X0034717Y0137428D01*
X0034006Y0136230D02*
X0033888Y0136230D01*
X0033888Y0133833D02*
X0033916Y0133833D01*
X0033888Y0132634D02*
X0034532Y0132634D01*
X0037362Y0136230D02*
X0037762Y0136230D01*
X0037762Y0137428D02*
X0037362Y0137428D01*
X0047456Y0138627D02*
X0059516Y0138627D01*
X0058952Y0137428D02*
X0048865Y0137428D01*
X0049438Y0136230D02*
X0058952Y0136230D01*
X0058952Y0135031D02*
X0049636Y0135031D01*
X0049533Y0133833D02*
X0058952Y0133833D01*
X0058952Y0132634D02*
X0049036Y0132634D01*
X0048051Y0131436D02*
X0059289Y0131436D01*
X0059482Y0130237D02*
X0049106Y0130237D01*
X0049106Y0129039D02*
X0059482Y0129039D01*
X0059482Y0127840D02*
X0049106Y0127840D01*
X0049106Y0126642D02*
X0059482Y0126642D01*
X0059517Y0125443D02*
X0049071Y0125443D01*
X0048787Y0119451D02*
X0059801Y0119451D01*
X0080515Y0087091D02*
X0080515Y0087091D01*
X0080515Y0085892D02*
X0080515Y0085892D01*
X0081843Y0087091D02*
X0089570Y0087091D01*
X0090768Y0085892D02*
X0082884Y0085892D01*
X0082886Y0085272D02*
X0082525Y0085272D01*
X0082525Y0085272D01*
X0082886Y0085272D01*
X0083103Y0084694D02*
X0091967Y0084694D01*
X0083649Y0083495D02*
X0083299Y0083495D01*
X0096685Y0069113D02*
X0100526Y0069113D01*
X0100526Y0067915D02*
X0096042Y0067915D01*
X0105935Y0058326D02*
X0123360Y0058326D01*
X0123360Y0057128D02*
X0104736Y0057128D01*
X0103538Y0055929D02*
X0123360Y0055929D01*
X0123360Y0054731D02*
X0102339Y0054731D01*
X0101141Y0053532D02*
X0123360Y0053532D01*
X0123360Y0052334D02*
X0099942Y0052334D01*
X0098744Y0051135D02*
X0123360Y0051135D01*
X0123360Y0049937D02*
X0097545Y0049937D01*
X0096347Y0048738D02*
X0123360Y0048738D01*
X0123360Y0047540D02*
X0095148Y0047540D01*
X0093950Y0046341D02*
X0123360Y0046341D01*
X0123360Y0045143D02*
X0092751Y0045143D01*
X0087328Y0039150D02*
X0123360Y0039150D01*
X0123360Y0037952D02*
X0087935Y0037952D01*
X0088181Y0036753D02*
X0123360Y0036753D01*
X0123360Y0035555D02*
X0088152Y0035555D01*
X0087655Y0034356D02*
X0123360Y0034356D01*
X0123360Y0033158D02*
X0086652Y0033158D01*
X0086645Y0031959D02*
X0123360Y0031959D01*
X0123360Y0030761D02*
X0087652Y0030761D01*
X0088149Y0029562D02*
X0123360Y0029562D01*
X0123360Y0028364D02*
X0088181Y0028364D01*
X0087938Y0027165D02*
X0123360Y0027165D01*
X0123360Y0025967D02*
X0087335Y0025967D01*
X0085918Y0024768D02*
X0123360Y0024768D01*
X0123153Y0023570D02*
X0077084Y0023570D01*
X0078282Y0024768D02*
X0081726Y0024768D01*
X0075885Y0022371D02*
X0122639Y0022371D01*
X0121307Y0021173D02*
X0074687Y0021173D01*
X0106488Y0059525D02*
X0123360Y0059525D01*
X0123360Y0060723D02*
X0106488Y0060723D01*
X0106488Y0061922D02*
X0123360Y0061922D01*
X0123360Y0063121D02*
X0106488Y0063121D01*
X0106488Y0064319D02*
X0123360Y0064319D01*
D26*
X0118271Y0059130D03*
X0115318Y0022713D03*
X0073979Y0066020D03*
X0065121Y0067004D03*
X0044452Y0047319D03*
X0061184Y0101453D03*
X0057247Y0117201D03*
X0072011Y0117201D03*
D27*
X0073723Y0091177D02*
X0079826Y0091177D01*
X0085534Y0091177D02*
X0088586Y0091177D01*
X0096460Y0083303D01*
X0096460Y0077398D01*
X0095475Y0076413D01*
X0092523Y0076413D01*
X0090554Y0074445D01*
X0094491Y0074575D02*
X0079727Y0074575D01*
X0079727Y0073789D02*
X0094491Y0073789D01*
X0094491Y0073004D02*
X0079727Y0073004D01*
X0079727Y0072218D02*
X0094491Y0072218D01*
X0094491Y0071432D02*
X0079727Y0071432D01*
X0079727Y0070646D02*
X0094491Y0070646D01*
X0094491Y0069860D02*
X0079727Y0069860D01*
X0079727Y0069524D02*
X0079727Y0077398D01*
X0083430Y0077398D01*
X0084020Y0076807D01*
X0094491Y0076807D01*
X0094491Y0069524D01*
X0079727Y0069524D01*
X0079727Y0075361D02*
X0094491Y0075361D01*
X0094491Y0076147D02*
X0079727Y0076147D01*
X0079727Y0076933D02*
X0083894Y0076933D01*
X0082680Y0079366D02*
X0080515Y0079366D01*
X0076775Y0081335D02*
X0076775Y0083303D01*
X0073034Y0083303D01*
X0070475Y0083303D01*
X0070042Y0083736D01*
X0070042Y0085705D01*
X0068074Y0087673D01*
X0068074Y0090626D01*
X0073034Y0090488D02*
X0073034Y0085272D01*
X0073034Y0081335D02*
X0067129Y0081335D01*
X0064963Y0082811D01*
X0073034Y0081335D02*
X0073034Y0079366D01*
X0073034Y0090488D02*
X0073723Y0091177D01*
D28*
X0064904Y0086906D02*
X0064904Y0083736D01*
X0064963Y0082811D01*
X0064904Y0086906D02*
X0063152Y0088657D01*
X0063152Y0091610D01*
X0062168Y0092594D01*
X0058231Y0096531D01*
X0049373Y0096531D01*
X0042877Y0090035D01*
X0042877Y0089614D01*
X0042483Y0089220D01*
X0042483Y0080220D02*
X0041920Y0080220D01*
X0040515Y0078815D01*
X0034806Y0078815D01*
X0032641Y0076650D01*
X0032641Y0066610D02*
X0032641Y0053224D01*
X0031381Y0051256D01*
X0038546Y0044091D01*
X0038546Y0036492D01*
X0038546Y0028618D02*
X0046420Y0028618D01*
X0053586Y0035783D01*
X0053586Y0051256D01*
X0052889Y0053224D01*
X0052889Y0068972D01*
X0054294Y0070378D01*
X0054294Y0080220D01*
X0043889Y0068972D02*
X0042483Y0070378D01*
X0042483Y0080220D01*
X0063152Y0047319D02*
X0090712Y0047319D01*
X0102523Y0059130D01*
X0103507Y0060114D01*
X0103507Y0072909D01*
X0092089Y0072909D01*
X0090554Y0074445D01*
X0103507Y0072909D02*
X0103507Y0090626D01*
X0112365Y0099484D01*
X0113349Y0100626D01*
X0113507Y0100469D01*
X0115318Y0100469D01*
X0120239Y0105390D01*
X0120239Y0127043D01*
X0112365Y0134917D01*
X0083822Y0028618D02*
X0075948Y0028618D01*
X0075948Y0026650D01*
X0072011Y0022713D01*
X0052326Y0022713D01*
X0046420Y0028618D01*
D29*
X0082680Y0079366D02*
X0089176Y0079366D01*
X0089570Y0079760D01*
M02*
