G75*
%MOIN*%
%OFA0B0*%
%FSLAX25Y25*%
%IPPOS*%
%LPD*%
%AMOC8*
5,1,8,0,0,1.08239X$1,22.5*
%
%ADD10C,0.00400*%
%ADD11C,0.00600*%
%ADD12C,0.00800*%
%ADD13C,0.00500*%
%ADD14C,0.00787*%
D10*
X0070842Y0051456D02*
X0071497Y0051456D01*
X0071497Y0052112D01*
X0070842Y0052112D01*
X0070842Y0051456D01*
X0072844Y0051456D02*
X0073500Y0052112D01*
X0073500Y0054734D01*
X0074156Y0054079D02*
X0072844Y0054079D01*
X0075521Y0053423D02*
X0075521Y0051456D01*
X0077488Y0051456D01*
X0078143Y0052112D01*
X0077488Y0052767D01*
X0075521Y0052767D01*
X0075521Y0053423D02*
X0076176Y0054079D01*
X0077488Y0054079D01*
X0079508Y0053423D02*
X0079508Y0052112D01*
X0080164Y0051456D01*
X0082131Y0051456D01*
X0082131Y0050145D02*
X0082131Y0054079D01*
X0080164Y0054079D01*
X0079508Y0053423D01*
X0083496Y0053423D02*
X0083496Y0051456D01*
X0084807Y0051456D02*
X0084807Y0053423D01*
X0084152Y0054079D01*
X0083496Y0053423D01*
X0084807Y0053423D02*
X0085463Y0054079D01*
X0086119Y0054079D01*
X0086119Y0051456D01*
X0087484Y0052112D02*
X0087484Y0053423D01*
X0088139Y0054079D01*
X0089451Y0054079D01*
X0090106Y0053423D01*
X0090106Y0052112D01*
X0089451Y0051456D01*
X0088139Y0051456D01*
X0087484Y0052112D01*
X0088786Y0048238D02*
X0088786Y0045616D01*
X0088130Y0044960D01*
X0086783Y0045616D02*
X0086783Y0046927D01*
X0086128Y0047583D01*
X0084816Y0047583D01*
X0084161Y0046927D01*
X0084161Y0045616D01*
X0084816Y0044960D01*
X0086128Y0044960D01*
X0086783Y0045616D01*
X0088130Y0047583D02*
X0089442Y0047583D01*
X0090789Y0047583D02*
X0092100Y0047583D01*
X0091444Y0048238D02*
X0091444Y0045616D01*
X0090789Y0044960D01*
X0093465Y0044960D02*
X0093465Y0047583D01*
X0093465Y0044960D02*
X0095432Y0044960D01*
X0096088Y0045616D01*
X0096088Y0047583D01*
X0097453Y0046927D02*
X0097453Y0045616D01*
X0098108Y0044960D01*
X0100075Y0044960D01*
X0100075Y0048894D01*
X0100075Y0047583D02*
X0098108Y0047583D01*
X0097453Y0046927D01*
X0099447Y0051456D02*
X0099447Y0055390D01*
X0102069Y0055390D02*
X0099447Y0051456D01*
X0102069Y0051456D02*
X0102069Y0055390D01*
X0103434Y0054079D02*
X0103434Y0051456D01*
X0106057Y0051456D02*
X0106057Y0054079D01*
X0104746Y0055390D01*
X0103434Y0054079D01*
X0103434Y0053423D02*
X0106057Y0053423D01*
X0107422Y0054734D02*
X0108078Y0055390D01*
X0109389Y0055390D01*
X0110045Y0054734D01*
X0110045Y0052112D01*
X0109389Y0051456D01*
X0108078Y0051456D01*
X0107422Y0052112D01*
X0111410Y0053423D02*
X0112065Y0052767D01*
X0114032Y0052767D01*
X0114032Y0051456D02*
X0114032Y0055390D01*
X0112065Y0055390D01*
X0111410Y0054734D01*
X0111410Y0053423D01*
X0115397Y0053423D02*
X0118020Y0053423D01*
X0118020Y0054079D02*
X0116709Y0055390D01*
X0115397Y0054079D01*
X0115397Y0051456D01*
X0118020Y0051456D02*
X0118020Y0054079D01*
X0119385Y0053423D02*
X0122008Y0053423D01*
X0122008Y0051456D02*
X0122008Y0055390D01*
X0119385Y0055390D02*
X0119385Y0051456D01*
X0117364Y0049550D02*
X0117364Y0048894D01*
X0117364Y0047583D02*
X0117364Y0044960D01*
X0116709Y0044960D02*
X0118020Y0044960D01*
X0119385Y0044960D02*
X0119385Y0046927D01*
X0120041Y0047583D01*
X0120696Y0046927D01*
X0120696Y0044960D01*
X0122008Y0044960D02*
X0122008Y0047583D01*
X0121352Y0047583D01*
X0120696Y0046927D01*
X0118020Y0047583D02*
X0117364Y0047583D01*
X0115361Y0046927D02*
X0115361Y0045616D01*
X0114706Y0044960D01*
X0112739Y0044960D01*
X0111374Y0044960D02*
X0111374Y0047583D01*
X0111374Y0046271D02*
X0110062Y0047583D01*
X0109407Y0047583D01*
X0108051Y0046927D02*
X0108051Y0045616D01*
X0107395Y0044960D01*
X0106084Y0044960D01*
X0105428Y0045616D01*
X0105428Y0046927D01*
X0106084Y0047583D01*
X0107395Y0047583D01*
X0108051Y0046927D01*
X0112739Y0047583D02*
X0114706Y0047583D01*
X0115361Y0046927D01*
X0114706Y0041742D02*
X0114706Y0039119D01*
X0114050Y0038464D01*
X0112703Y0039119D02*
X0112703Y0040431D01*
X0112047Y0041086D01*
X0110736Y0041086D01*
X0110080Y0040431D01*
X0110080Y0039775D01*
X0112703Y0039775D01*
X0112703Y0039119D02*
X0112047Y0038464D01*
X0110736Y0038464D01*
X0108715Y0038464D02*
X0108715Y0041086D01*
X0108715Y0039775D02*
X0107404Y0041086D01*
X0106748Y0041086D01*
X0105392Y0040431D02*
X0104081Y0040431D01*
X0104737Y0041742D02*
X0104081Y0042398D01*
X0104737Y0041742D02*
X0104737Y0038464D01*
X0102734Y0039119D02*
X0102078Y0039775D01*
X0100111Y0039775D01*
X0100111Y0040431D02*
X0100111Y0038464D01*
X0102078Y0038464D01*
X0102734Y0039119D01*
X0102078Y0041086D02*
X0100767Y0041086D01*
X0100111Y0040431D01*
X0098746Y0040431D02*
X0098746Y0039119D01*
X0098091Y0038464D01*
X0096124Y0038464D01*
X0094759Y0039119D02*
X0094759Y0040431D01*
X0094103Y0041086D01*
X0092792Y0041086D01*
X0092136Y0040431D01*
X0092136Y0039775D01*
X0094759Y0039775D01*
X0094759Y0039119D02*
X0094103Y0038464D01*
X0092792Y0038464D01*
X0096124Y0041086D02*
X0098091Y0041086D01*
X0098746Y0040431D01*
X0100767Y0034590D02*
X0102078Y0034590D01*
X0102734Y0033935D01*
X0102734Y0032623D01*
X0102078Y0031968D01*
X0100767Y0031968D01*
X0100111Y0032623D01*
X0100111Y0033935D01*
X0100767Y0034590D01*
X0098746Y0032623D02*
X0098091Y0032623D01*
X0098091Y0031968D01*
X0098746Y0031968D01*
X0098746Y0032623D01*
X0096752Y0032623D02*
X0096097Y0031968D01*
X0094130Y0031968D01*
X0092765Y0032623D02*
X0092765Y0033935D01*
X0092109Y0034590D01*
X0090798Y0034590D01*
X0090142Y0033935D01*
X0090142Y0032623D01*
X0090798Y0031968D01*
X0092109Y0031968D01*
X0092765Y0032623D01*
X0094130Y0034590D02*
X0096097Y0034590D01*
X0096752Y0033935D01*
X0096752Y0032623D01*
X0104099Y0031968D02*
X0104099Y0033935D01*
X0104755Y0034590D01*
X0105410Y0033935D01*
X0105410Y0031968D01*
X0106722Y0031968D02*
X0106722Y0034590D01*
X0106066Y0034590D01*
X0105410Y0033935D01*
X0108087Y0034590D02*
X0108087Y0031312D01*
X0108742Y0030656D01*
X0109398Y0030656D01*
X0110054Y0031968D02*
X0108087Y0031968D01*
X0110054Y0031968D02*
X0110709Y0032623D01*
X0110709Y0033935D01*
X0110054Y0034590D01*
X0108087Y0034590D01*
X0112074Y0033935D02*
X0112074Y0031968D01*
X0114041Y0031968D01*
X0114697Y0032623D01*
X0114041Y0033279D01*
X0112074Y0033279D01*
X0112074Y0033935D02*
X0112730Y0034590D01*
X0114041Y0034590D01*
X0116053Y0034590D02*
X0118020Y0033279D01*
X0116053Y0031968D01*
X0118020Y0031968D02*
X0118020Y0035902D01*
X0119385Y0034590D02*
X0121352Y0034590D01*
X0122008Y0033935D01*
X0121352Y0033279D01*
X0120041Y0033279D01*
X0119385Y0032623D01*
X0120041Y0031968D01*
X0122008Y0031968D01*
X0121352Y0029406D02*
X0122008Y0028750D01*
X0121352Y0029406D02*
X0120041Y0029406D01*
X0119385Y0028750D01*
X0119385Y0028094D01*
X0122008Y0025472D01*
X0119385Y0025472D01*
X0118020Y0026127D02*
X0115397Y0028750D01*
X0115397Y0026127D01*
X0116053Y0025472D01*
X0117364Y0025472D01*
X0118020Y0026127D01*
X0118020Y0028750D01*
X0117364Y0029406D01*
X0116053Y0029406D01*
X0115397Y0028750D01*
X0114032Y0028094D02*
X0112721Y0029406D01*
X0112721Y0025472D01*
X0114032Y0025472D02*
X0111410Y0025472D01*
X0110045Y0026127D02*
X0110045Y0027439D01*
X0108078Y0027439D01*
X0107422Y0026783D01*
X0107422Y0026127D01*
X0108078Y0025472D01*
X0109389Y0025472D01*
X0110045Y0026127D01*
X0110045Y0027439D02*
X0108733Y0028750D01*
X0107422Y0029406D01*
X0116726Y0038464D02*
X0116726Y0040431D01*
X0117382Y0041086D01*
X0119349Y0041086D01*
X0119349Y0038464D01*
X0120696Y0038464D02*
X0122008Y0038464D01*
X0121352Y0038464D02*
X0121352Y0041086D01*
X0122008Y0041086D01*
X0121352Y0042398D02*
X0121352Y0043054D01*
X0115361Y0041086D02*
X0114050Y0041086D01*
X0094094Y0052112D02*
X0093438Y0051456D01*
X0091471Y0051456D01*
X0091471Y0054079D02*
X0093438Y0054079D01*
X0094094Y0053423D01*
X0094094Y0052112D01*
X0082796Y0047583D02*
X0082796Y0044960D01*
X0082796Y0047583D02*
X0080829Y0047583D01*
X0080173Y0046927D01*
X0080173Y0044960D01*
X0086810Y0034590D02*
X0086154Y0033935D01*
X0086154Y0031968D01*
X0087466Y0031968D02*
X0087466Y0033935D01*
X0086810Y0034590D01*
X0087466Y0033935D02*
X0088121Y0034590D01*
X0088777Y0034590D01*
X0088777Y0031968D01*
D11*
X0084919Y0132855D02*
X0082167Y0132855D01*
X0083543Y0132855D02*
X0083543Y0136983D01*
X0084919Y0135607D01*
X0058915Y0136295D02*
X0058227Y0136983D01*
X0056851Y0136983D01*
X0056163Y0136295D01*
X0056163Y0135607D01*
X0058915Y0132855D01*
X0056163Y0132855D01*
X0052439Y0133543D02*
X0051751Y0132855D01*
X0050375Y0132855D01*
X0049687Y0133543D01*
X0049687Y0134231D01*
X0050375Y0134919D01*
X0051063Y0134919D01*
X0050375Y0134919D02*
X0049687Y0135607D01*
X0049687Y0136295D01*
X0050375Y0136983D01*
X0051751Y0136983D01*
X0052439Y0136295D01*
X0025451Y0134919D02*
X0022699Y0134919D01*
X0023387Y0132855D02*
X0023387Y0136983D01*
X0025451Y0134919D01*
D12*
X0026078Y0043972D02*
X0058889Y0043972D01*
X0058889Y0058539D01*
X0026078Y0058539D01*
X0026078Y0043972D01*
X0039727Y0065102D02*
X0039727Y0072843D01*
X0057050Y0072843D01*
X0057050Y0065102D01*
X0039727Y0065102D01*
X0038613Y0076059D02*
X0046353Y0076059D01*
X0046353Y0093382D01*
X0038613Y0093382D01*
X0038613Y0076059D01*
X0050424Y0076059D02*
X0058164Y0076059D01*
X0058164Y0093382D01*
X0050424Y0093382D01*
X0050424Y0076059D01*
D13*
X0050206Y0063804D02*
X0049060Y0063804D01*
X0048486Y0063231D01*
X0047154Y0063231D02*
X0047154Y0062657D01*
X0046581Y0062084D01*
X0044861Y0062084D01*
X0044861Y0060937D02*
X0044861Y0063231D01*
X0045434Y0063804D01*
X0046581Y0063804D01*
X0047154Y0063231D01*
X0047154Y0060937D02*
X0046581Y0060364D01*
X0045434Y0060364D01*
X0044861Y0060937D01*
X0048486Y0060937D02*
X0049060Y0060364D01*
X0050206Y0060364D01*
X0050780Y0060937D01*
X0050780Y0063231D01*
X0050206Y0063804D01*
X0058438Y0063664D02*
X0058438Y0061371D01*
X0059011Y0060797D01*
X0060158Y0060797D01*
X0060731Y0061371D01*
X0058438Y0063664D01*
X0059011Y0064237D01*
X0060158Y0064237D01*
X0060731Y0063664D01*
X0060731Y0061371D01*
X0062063Y0060797D02*
X0064356Y0060797D01*
X0063209Y0060797D02*
X0063209Y0064237D01*
X0064356Y0063091D01*
X0065688Y0063664D02*
X0066261Y0064237D01*
X0067408Y0064237D01*
X0067981Y0063664D01*
X0067981Y0061371D01*
X0067408Y0060797D01*
X0066261Y0060797D01*
X0065688Y0061371D01*
X0066528Y0054946D02*
X0064808Y0054946D01*
X0064234Y0054373D01*
X0064234Y0052079D01*
X0064808Y0051506D01*
X0066528Y0051506D01*
X0066528Y0054946D01*
X0062902Y0054373D02*
X0062329Y0054946D01*
X0061182Y0054946D01*
X0060609Y0054373D01*
X0060609Y0053799D01*
X0061182Y0053226D01*
X0060609Y0052653D01*
X0060609Y0052079D01*
X0061182Y0051506D01*
X0062329Y0051506D01*
X0062902Y0052079D01*
X0061756Y0053226D02*
X0061182Y0053226D01*
X0071494Y0060797D02*
X0071494Y0064237D01*
X0073214Y0062517D01*
X0070921Y0062517D01*
X0074546Y0061371D02*
X0075120Y0060797D01*
X0076266Y0060797D01*
X0076839Y0061371D01*
X0076839Y0063664D01*
X0076266Y0064237D01*
X0075120Y0064237D01*
X0074546Y0063664D01*
X0076775Y0069327D02*
X0076775Y0073657D01*
X0072838Y0075429D02*
X0080712Y0075429D01*
X0080712Y0075823D01*
X0072838Y0075823D02*
X0072838Y0075429D01*
X0069525Y0077398D02*
X0069527Y0077445D01*
X0069533Y0077491D01*
X0069542Y0077537D01*
X0069556Y0077581D01*
X0069573Y0077625D01*
X0069594Y0077666D01*
X0069618Y0077706D01*
X0069645Y0077744D01*
X0069676Y0077779D01*
X0069709Y0077812D01*
X0069745Y0077842D01*
X0069784Y0077868D01*
X0069824Y0077892D01*
X0069866Y0077911D01*
X0069910Y0077928D01*
X0069955Y0077940D01*
X0070001Y0077949D01*
X0070047Y0077954D01*
X0070094Y0077955D01*
X0070140Y0077952D01*
X0070186Y0077945D01*
X0070232Y0077934D01*
X0070276Y0077920D01*
X0070319Y0077902D01*
X0070360Y0077880D01*
X0070400Y0077855D01*
X0070437Y0077827D01*
X0070472Y0077796D01*
X0070504Y0077762D01*
X0070533Y0077725D01*
X0070558Y0077687D01*
X0070581Y0077646D01*
X0070600Y0077603D01*
X0070615Y0077559D01*
X0070627Y0077514D01*
X0070635Y0077468D01*
X0070639Y0077421D01*
X0070639Y0077375D01*
X0070635Y0077328D01*
X0070627Y0077282D01*
X0070615Y0077237D01*
X0070600Y0077193D01*
X0070581Y0077150D01*
X0070558Y0077109D01*
X0070533Y0077071D01*
X0070504Y0077034D01*
X0070472Y0077000D01*
X0070437Y0076969D01*
X0070400Y0076941D01*
X0070361Y0076916D01*
X0070319Y0076894D01*
X0070276Y0076876D01*
X0070232Y0076862D01*
X0070186Y0076851D01*
X0070140Y0076844D01*
X0070094Y0076841D01*
X0070047Y0076842D01*
X0070001Y0076847D01*
X0069955Y0076856D01*
X0069910Y0076868D01*
X0069866Y0076885D01*
X0069824Y0076904D01*
X0069784Y0076928D01*
X0069745Y0076954D01*
X0069709Y0076984D01*
X0069676Y0077017D01*
X0069645Y0077052D01*
X0069618Y0077090D01*
X0069594Y0077130D01*
X0069573Y0077171D01*
X0069556Y0077215D01*
X0069542Y0077259D01*
X0069533Y0077305D01*
X0069527Y0077351D01*
X0069525Y0077398D01*
X0067916Y0077398D02*
X0062011Y0077398D01*
X0072838Y0086846D02*
X0072838Y0087240D01*
X0080712Y0087240D01*
X0080712Y0086846D01*
X0082680Y0089602D02*
X0082680Y0092752D01*
X0083450Y0094380D02*
X0084597Y0095527D01*
X0084023Y0095527D02*
X0085743Y0095527D01*
X0085743Y0094380D02*
X0085743Y0097820D01*
X0084023Y0097820D01*
X0083450Y0097247D01*
X0083450Y0096100D01*
X0084023Y0095527D01*
X0082118Y0096100D02*
X0080398Y0096100D01*
X0079825Y0095527D01*
X0079825Y0094953D01*
X0080398Y0094380D01*
X0081545Y0094380D01*
X0082118Y0094953D01*
X0082118Y0096100D01*
X0080972Y0097247D01*
X0079825Y0097820D01*
X0073572Y0097820D02*
X0073572Y0094380D01*
X0073572Y0095527D02*
X0071852Y0095527D01*
X0071278Y0096100D01*
X0071278Y0097247D01*
X0071852Y0097820D01*
X0073572Y0097820D01*
X0072425Y0095527D02*
X0071278Y0094380D01*
X0069947Y0094953D02*
X0069373Y0094380D01*
X0068227Y0094380D01*
X0067653Y0094953D01*
X0067653Y0097247D01*
X0068227Y0097820D01*
X0069373Y0097820D01*
X0069947Y0097247D01*
X0069947Y0096673D01*
X0069373Y0096100D01*
X0067653Y0096100D01*
X0070869Y0092752D02*
X0070869Y0089602D01*
X0084746Y0085273D02*
X0087039Y0085273D01*
X0085319Y0086993D01*
X0085319Y0083553D01*
X0088371Y0084126D02*
X0088371Y0086993D01*
X0090665Y0086993D02*
X0090665Y0084126D01*
X0090091Y0083553D01*
X0088945Y0083553D01*
X0088371Y0084126D01*
X0088435Y0066324D02*
X0087288Y0066324D01*
X0086715Y0065750D01*
X0086715Y0065177D01*
X0087288Y0064604D01*
X0086715Y0064030D01*
X0086715Y0063457D01*
X0087288Y0062884D01*
X0088435Y0062884D01*
X0089008Y0063457D01*
X0090340Y0062884D02*
X0092633Y0062884D01*
X0092633Y0066324D01*
X0089008Y0065750D02*
X0088435Y0066324D01*
X0087861Y0064604D02*
X0087288Y0064604D01*
X0057669Y0095797D02*
X0055376Y0095797D01*
X0054044Y0095797D02*
X0051751Y0098091D01*
X0051751Y0098664D01*
X0052324Y0099237D01*
X0053471Y0099237D01*
X0054044Y0098664D01*
X0054044Y0095797D02*
X0051751Y0095797D01*
X0045858Y0095797D02*
X0043565Y0095797D01*
X0042233Y0095797D02*
X0039940Y0095797D01*
X0041087Y0095797D02*
X0041087Y0099237D01*
X0042233Y0098091D01*
X0045858Y0099237D02*
X0045858Y0095797D01*
X0036095Y0087505D02*
X0034375Y0087505D01*
X0033801Y0086932D01*
X0033801Y0084638D01*
X0034375Y0084065D01*
X0036095Y0084065D01*
X0036095Y0087505D01*
X0032469Y0086358D02*
X0031323Y0087505D01*
X0031323Y0084065D01*
X0032469Y0084065D02*
X0030176Y0084065D01*
X0041483Y0055256D02*
X0042483Y0054256D01*
X0042546Y0054193D02*
X0042546Y0051256D01*
X0047420Y0054193D01*
X0047420Y0048319D01*
X0042546Y0051256D01*
X0042546Y0048319D01*
X0042583Y0048256D02*
X0043483Y0047256D01*
X0042420Y0051256D02*
X0037546Y0048319D01*
X0037520Y0048319D02*
X0037520Y0054193D01*
X0037546Y0054193D02*
X0042420Y0051256D01*
X0057669Y0095797D02*
X0057669Y0099237D01*
X0061183Y0114498D02*
X0062329Y0114498D01*
X0062902Y0115071D01*
X0064234Y0114498D02*
X0065381Y0115645D01*
X0064808Y0115645D02*
X0066528Y0115645D01*
X0066528Y0114498D02*
X0066528Y0117938D01*
X0064808Y0117938D01*
X0064234Y0117365D01*
X0064234Y0116218D01*
X0064808Y0115645D01*
X0062902Y0117365D02*
X0062329Y0117938D01*
X0061183Y0117938D01*
X0060609Y0117365D01*
X0060609Y0116791D01*
X0061183Y0116218D01*
X0060609Y0115645D01*
X0060609Y0115071D01*
X0061183Y0114498D01*
X0061183Y0116218D02*
X0061756Y0116218D01*
X0061578Y0125075D02*
X0064727Y0125075D01*
X0076357Y0117365D02*
X0076931Y0117938D01*
X0078077Y0117938D01*
X0078651Y0117365D01*
X0079982Y0117365D02*
X0079982Y0116218D01*
X0080556Y0115645D01*
X0082276Y0115645D01*
X0082276Y0114498D02*
X0082276Y0117938D01*
X0080556Y0117938D01*
X0079982Y0117365D01*
X0081129Y0115645D02*
X0079982Y0114498D01*
X0078651Y0114498D02*
X0076357Y0116791D01*
X0076357Y0117365D01*
X0076357Y0114498D02*
X0078651Y0114498D01*
X0077326Y0125075D02*
X0080475Y0125075D01*
X0104072Y0123073D02*
X0104072Y0120780D01*
X0104646Y0120207D01*
X0105792Y0120207D01*
X0106366Y0120780D01*
X0104072Y0123073D01*
X0104646Y0123647D01*
X0105792Y0123647D01*
X0106366Y0123073D01*
X0106366Y0120780D01*
X0107697Y0120207D02*
X0109991Y0120207D01*
X0108844Y0120207D02*
X0108844Y0123647D01*
X0109991Y0122500D01*
X0111322Y0123073D02*
X0111322Y0121927D01*
X0111896Y0121353D01*
X0113616Y0121353D01*
X0113616Y0120207D02*
X0113616Y0123647D01*
X0111896Y0123647D01*
X0111322Y0123073D01*
X0112469Y0121353D02*
X0111322Y0120207D01*
X0108428Y0125469D02*
X0108428Y0128618D01*
X0048811Y0117938D02*
X0048811Y0114498D01*
X0048811Y0115645D02*
X0047091Y0115645D01*
X0046518Y0116218D01*
X0046518Y0117365D01*
X0047091Y0117938D01*
X0048811Y0117938D01*
X0047664Y0115645D02*
X0046518Y0114498D01*
X0045186Y0116218D02*
X0042893Y0116218D01*
X0043466Y0114498D02*
X0043466Y0117938D01*
X0045186Y0116218D01*
X0043861Y0125075D02*
X0047011Y0125075D01*
X0033063Y0117938D02*
X0033063Y0114498D01*
X0033063Y0115645D02*
X0031343Y0115645D01*
X0030770Y0116218D01*
X0030770Y0117365D01*
X0031343Y0117938D01*
X0033063Y0117938D01*
X0031916Y0115645D02*
X0030770Y0114498D01*
X0029438Y0115071D02*
X0028865Y0114498D01*
X0027718Y0114498D01*
X0027145Y0115071D01*
X0027145Y0116218D01*
X0027718Y0116791D01*
X0028291Y0116791D01*
X0029438Y0116218D01*
X0029438Y0117938D01*
X0027145Y0117938D01*
X0028113Y0125075D02*
X0031263Y0125075D01*
D14*
X0083664Y0076413D02*
X0083664Y0074445D01*
X0095475Y0074445D02*
X0095475Y0076413D01*
M02*
