%
M48
M72
T01C0.01181
T02C0.01575
T03C0.02953
T04C0.03200
T05C0.03543
%
T01
X63152Y47319
X76775Y77594
X76775Y81335
X76775Y85075
X98674Y109140
X102523Y97516
X95534Y123106
X102523Y59130
T02
X118271Y59130
X115318Y22713
X73979Y66020
X65121Y67004
X44452Y47319
X61184Y101453
X57247Y117201
X72011Y117201
T03
X30672Y28618
X30672Y36492
X38546Y36492
X38546Y28618
X46420Y28618
X46420Y36492
X68074Y36492
X68074Y28618
X75948Y28618
X75948Y36492
X83822Y36492
X83822Y28618
T04
X78900Y134917
X71026Y134917
X63152Y134917
X45436Y134917
X37562Y134917
X29688Y134917
X96617Y134917
X104491Y134917
X112365Y134917
T05
X113349Y110626
X113349Y100626
X113349Y90626
X113349Y80626
X113349Y70626
M30
