G75*
%MOIN*%
%OFA0B0*%
%FSLAX25Y25*%
%IPPOS*%
%LPD*%
%AMOC8*
5,1,8,0,0,1.08239X$1,22.5*
%
%ADD10C,0.00000*%
D10*
X0022798Y0018776D02*
X0119255Y0018776D01*
X0119255Y0018775D02*
X0119407Y0018777D01*
X0119559Y0018783D01*
X0119711Y0018793D01*
X0119862Y0018806D01*
X0120013Y0018824D01*
X0120164Y0018845D01*
X0120314Y0018871D01*
X0120463Y0018900D01*
X0120612Y0018933D01*
X0120759Y0018970D01*
X0120906Y0019010D01*
X0121051Y0019055D01*
X0121195Y0019103D01*
X0121338Y0019155D01*
X0121480Y0019210D01*
X0121620Y0019269D01*
X0121759Y0019332D01*
X0121896Y0019398D01*
X0122031Y0019468D01*
X0122164Y0019541D01*
X0122295Y0019618D01*
X0122425Y0019698D01*
X0122552Y0019781D01*
X0122677Y0019867D01*
X0122800Y0019957D01*
X0122920Y0020050D01*
X0123038Y0020146D01*
X0123154Y0020245D01*
X0123267Y0020347D01*
X0123377Y0020451D01*
X0123485Y0020559D01*
X0123589Y0020669D01*
X0123691Y0020782D01*
X0123790Y0020898D01*
X0123886Y0021016D01*
X0123979Y0021136D01*
X0124069Y0021259D01*
X0124155Y0021384D01*
X0124238Y0021511D01*
X0124318Y0021641D01*
X0124395Y0021772D01*
X0124468Y0021905D01*
X0124538Y0022040D01*
X0124604Y0022177D01*
X0124667Y0022316D01*
X0124726Y0022456D01*
X0124781Y0022598D01*
X0124833Y0022741D01*
X0124881Y0022885D01*
X0124926Y0023030D01*
X0124966Y0023177D01*
X0125003Y0023324D01*
X0125036Y0023473D01*
X0125065Y0023622D01*
X0125091Y0023772D01*
X0125112Y0023923D01*
X0125130Y0024074D01*
X0125143Y0024225D01*
X0125153Y0024377D01*
X0125159Y0024529D01*
X0125161Y0024681D01*
X0125160Y0024681D02*
X0125160Y0138854D01*
X0125161Y0138854D02*
X0125159Y0139006D01*
X0125153Y0139158D01*
X0125143Y0139310D01*
X0125130Y0139461D01*
X0125112Y0139612D01*
X0125091Y0139763D01*
X0125065Y0139913D01*
X0125036Y0140062D01*
X0125003Y0140211D01*
X0124966Y0140358D01*
X0124926Y0140505D01*
X0124881Y0140650D01*
X0124833Y0140794D01*
X0124781Y0140937D01*
X0124726Y0141079D01*
X0124667Y0141219D01*
X0124604Y0141358D01*
X0124538Y0141495D01*
X0124468Y0141630D01*
X0124395Y0141763D01*
X0124318Y0141894D01*
X0124238Y0142024D01*
X0124155Y0142151D01*
X0124069Y0142276D01*
X0123979Y0142399D01*
X0123886Y0142519D01*
X0123790Y0142637D01*
X0123691Y0142753D01*
X0123589Y0142866D01*
X0123485Y0142976D01*
X0123377Y0143084D01*
X0123267Y0143188D01*
X0123154Y0143290D01*
X0123038Y0143389D01*
X0122920Y0143485D01*
X0122800Y0143578D01*
X0122677Y0143668D01*
X0122552Y0143754D01*
X0122425Y0143837D01*
X0122295Y0143917D01*
X0122164Y0143994D01*
X0122031Y0144067D01*
X0121896Y0144137D01*
X0121759Y0144203D01*
X0121620Y0144266D01*
X0121480Y0144325D01*
X0121338Y0144380D01*
X0121195Y0144432D01*
X0121051Y0144480D01*
X0120906Y0144525D01*
X0120759Y0144565D01*
X0120612Y0144602D01*
X0120463Y0144635D01*
X0120314Y0144664D01*
X0120164Y0144690D01*
X0120013Y0144711D01*
X0119862Y0144729D01*
X0119711Y0144742D01*
X0119559Y0144752D01*
X0119407Y0144758D01*
X0119255Y0144760D01*
X0022798Y0144760D01*
X0022646Y0144758D01*
X0022494Y0144752D01*
X0022342Y0144742D01*
X0022191Y0144729D01*
X0022040Y0144711D01*
X0021889Y0144690D01*
X0021739Y0144664D01*
X0021590Y0144635D01*
X0021441Y0144602D01*
X0021294Y0144565D01*
X0021147Y0144525D01*
X0021002Y0144480D01*
X0020858Y0144432D01*
X0020715Y0144380D01*
X0020573Y0144325D01*
X0020433Y0144266D01*
X0020294Y0144203D01*
X0020157Y0144137D01*
X0020022Y0144067D01*
X0019889Y0143994D01*
X0019758Y0143917D01*
X0019628Y0143837D01*
X0019501Y0143754D01*
X0019376Y0143668D01*
X0019253Y0143578D01*
X0019133Y0143485D01*
X0019015Y0143389D01*
X0018899Y0143290D01*
X0018786Y0143188D01*
X0018676Y0143084D01*
X0018568Y0142976D01*
X0018464Y0142866D01*
X0018362Y0142753D01*
X0018263Y0142637D01*
X0018167Y0142519D01*
X0018074Y0142399D01*
X0017984Y0142276D01*
X0017898Y0142151D01*
X0017815Y0142024D01*
X0017735Y0141894D01*
X0017658Y0141763D01*
X0017585Y0141630D01*
X0017515Y0141495D01*
X0017449Y0141358D01*
X0017386Y0141219D01*
X0017327Y0141079D01*
X0017272Y0140937D01*
X0017220Y0140794D01*
X0017172Y0140650D01*
X0017127Y0140505D01*
X0017087Y0140358D01*
X0017050Y0140211D01*
X0017017Y0140062D01*
X0016988Y0139913D01*
X0016962Y0139763D01*
X0016941Y0139612D01*
X0016923Y0139461D01*
X0016910Y0139310D01*
X0016900Y0139158D01*
X0016894Y0139006D01*
X0016892Y0138854D01*
X0016893Y0138854D02*
X0016893Y0024681D01*
X0016892Y0024681D02*
X0016894Y0024529D01*
X0016900Y0024377D01*
X0016910Y0024225D01*
X0016923Y0024074D01*
X0016941Y0023923D01*
X0016962Y0023772D01*
X0016988Y0023622D01*
X0017017Y0023473D01*
X0017050Y0023324D01*
X0017087Y0023177D01*
X0017127Y0023030D01*
X0017172Y0022885D01*
X0017220Y0022741D01*
X0017272Y0022598D01*
X0017327Y0022456D01*
X0017386Y0022316D01*
X0017449Y0022177D01*
X0017515Y0022040D01*
X0017585Y0021905D01*
X0017658Y0021772D01*
X0017735Y0021641D01*
X0017815Y0021511D01*
X0017898Y0021384D01*
X0017984Y0021259D01*
X0018074Y0021136D01*
X0018167Y0021016D01*
X0018263Y0020898D01*
X0018362Y0020782D01*
X0018464Y0020669D01*
X0018568Y0020559D01*
X0018676Y0020451D01*
X0018786Y0020347D01*
X0018899Y0020245D01*
X0019015Y0020146D01*
X0019133Y0020050D01*
X0019253Y0019957D01*
X0019376Y0019867D01*
X0019501Y0019781D01*
X0019628Y0019698D01*
X0019758Y0019618D01*
X0019889Y0019541D01*
X0020022Y0019468D01*
X0020157Y0019398D01*
X0020294Y0019332D01*
X0020433Y0019269D01*
X0020573Y0019210D01*
X0020715Y0019155D01*
X0020858Y0019103D01*
X0021002Y0019055D01*
X0021147Y0019010D01*
X0021294Y0018970D01*
X0021441Y0018933D01*
X0021590Y0018900D01*
X0021739Y0018871D01*
X0021889Y0018845D01*
X0022040Y0018824D01*
X0022191Y0018806D01*
X0022342Y0018793D01*
X0022494Y0018783D01*
X0022646Y0018777D01*
X0022798Y0018775D01*
M02*
