G75*
%MOIN*%
%OFA0B0*%
%FSLAX25Y25*%
%IPPOS*%
%LPD*%
%AMOC8*
5,1,8,0,0,1.08239X$1,22.5*
%
%ADD10C,0.00800*%
%ADD11C,0.00500*%
%ADD12C,0.00300*%
%ADD13C,0.00400*%
%ADD14C,0.01000*%
%ADD15R,0.03937X0.01969*%
%ADD16C,0.00787*%
D10*
X0024129Y0056805D02*
X0024129Y0094305D01*
X0075030Y0100665D02*
X0082771Y0100665D01*
X0082771Y0117988D01*
X0075030Y0117988D01*
X0075030Y0100665D01*
X0099129Y0094305D02*
X0099129Y0078055D01*
X0099031Y0078053D01*
X0098933Y0078047D01*
X0098835Y0078038D01*
X0098738Y0078024D01*
X0098641Y0078007D01*
X0098545Y0077986D01*
X0098450Y0077961D01*
X0098356Y0077933D01*
X0098264Y0077900D01*
X0098172Y0077865D01*
X0098082Y0077825D01*
X0097994Y0077783D01*
X0097907Y0077736D01*
X0097823Y0077687D01*
X0097740Y0077634D01*
X0097660Y0077578D01*
X0097581Y0077518D01*
X0097505Y0077456D01*
X0097432Y0077391D01*
X0097361Y0077323D01*
X0097293Y0077252D01*
X0097228Y0077179D01*
X0097166Y0077103D01*
X0097106Y0077024D01*
X0097050Y0076944D01*
X0096997Y0076861D01*
X0096948Y0076777D01*
X0096901Y0076690D01*
X0096859Y0076602D01*
X0096819Y0076512D01*
X0096784Y0076420D01*
X0096751Y0076328D01*
X0096723Y0076234D01*
X0096698Y0076139D01*
X0096677Y0076043D01*
X0096660Y0075946D01*
X0096646Y0075849D01*
X0096637Y0075751D01*
X0096631Y0075653D01*
X0096629Y0075555D01*
X0096631Y0075457D01*
X0096637Y0075359D01*
X0096646Y0075261D01*
X0096660Y0075164D01*
X0096677Y0075067D01*
X0096698Y0074971D01*
X0096723Y0074876D01*
X0096751Y0074782D01*
X0096784Y0074690D01*
X0096819Y0074598D01*
X0096859Y0074508D01*
X0096901Y0074420D01*
X0096948Y0074333D01*
X0096997Y0074249D01*
X0097050Y0074166D01*
X0097106Y0074086D01*
X0097166Y0074007D01*
X0097228Y0073931D01*
X0097293Y0073858D01*
X0097361Y0073787D01*
X0097432Y0073719D01*
X0097505Y0073654D01*
X0097581Y0073592D01*
X0097660Y0073532D01*
X0097740Y0073476D01*
X0097823Y0073423D01*
X0097907Y0073374D01*
X0097994Y0073327D01*
X0098082Y0073285D01*
X0098172Y0073245D01*
X0098264Y0073210D01*
X0098356Y0073177D01*
X0098450Y0073149D01*
X0098545Y0073124D01*
X0098641Y0073103D01*
X0098738Y0073086D01*
X0098835Y0073072D01*
X0098933Y0073063D01*
X0099031Y0073057D01*
X0099129Y0073055D01*
X0099129Y0056805D01*
X0099147Y0049445D02*
X0099147Y0029445D01*
X0121647Y0029445D02*
X0121647Y0036945D01*
X0121549Y0036947D01*
X0121451Y0036953D01*
X0121353Y0036962D01*
X0121256Y0036976D01*
X0121159Y0036993D01*
X0121063Y0037014D01*
X0120968Y0037039D01*
X0120874Y0037067D01*
X0120782Y0037100D01*
X0120690Y0037135D01*
X0120600Y0037175D01*
X0120512Y0037217D01*
X0120425Y0037264D01*
X0120341Y0037313D01*
X0120258Y0037366D01*
X0120178Y0037422D01*
X0120099Y0037482D01*
X0120023Y0037544D01*
X0119950Y0037609D01*
X0119879Y0037677D01*
X0119811Y0037748D01*
X0119746Y0037821D01*
X0119684Y0037897D01*
X0119624Y0037976D01*
X0119568Y0038056D01*
X0119515Y0038139D01*
X0119466Y0038223D01*
X0119419Y0038310D01*
X0119377Y0038398D01*
X0119337Y0038488D01*
X0119302Y0038580D01*
X0119269Y0038672D01*
X0119241Y0038766D01*
X0119216Y0038861D01*
X0119195Y0038957D01*
X0119178Y0039054D01*
X0119164Y0039151D01*
X0119155Y0039249D01*
X0119149Y0039347D01*
X0119147Y0039445D01*
X0119149Y0039543D01*
X0119155Y0039641D01*
X0119164Y0039739D01*
X0119178Y0039836D01*
X0119195Y0039933D01*
X0119216Y0040029D01*
X0119241Y0040124D01*
X0119269Y0040218D01*
X0119302Y0040310D01*
X0119337Y0040402D01*
X0119377Y0040492D01*
X0119419Y0040580D01*
X0119466Y0040667D01*
X0119515Y0040751D01*
X0119568Y0040834D01*
X0119624Y0040914D01*
X0119684Y0040993D01*
X0119746Y0041069D01*
X0119811Y0041142D01*
X0119879Y0041213D01*
X0119950Y0041281D01*
X0120023Y0041346D01*
X0120099Y0041408D01*
X0120178Y0041468D01*
X0120258Y0041524D01*
X0120341Y0041577D01*
X0120425Y0041626D01*
X0120512Y0041673D01*
X0120600Y0041715D01*
X0120690Y0041755D01*
X0120782Y0041790D01*
X0120874Y0041823D01*
X0120968Y0041851D01*
X0121063Y0041876D01*
X0121159Y0041897D01*
X0121256Y0041914D01*
X0121353Y0041928D01*
X0121451Y0041937D01*
X0121549Y0041943D01*
X0121647Y0041945D01*
X0121647Y0049445D01*
X0118349Y0065626D02*
X0108349Y0065626D01*
X0108349Y0105626D01*
X0118349Y0105626D01*
X0108349Y0105626D02*
X0108349Y0115626D01*
X0118349Y0115626D01*
X0118349Y0065626D01*
D11*
X0110397Y0060705D02*
X0110397Y0057555D01*
X0106461Y0062530D02*
X0105314Y0062530D01*
X0104741Y0063103D01*
X0104741Y0064249D01*
X0106461Y0064249D01*
X0107034Y0063676D01*
X0107034Y0063103D01*
X0106461Y0062530D01*
X0104741Y0064249D02*
X0105888Y0065396D01*
X0107034Y0065969D01*
X0103409Y0065396D02*
X0102836Y0065969D01*
X0101689Y0065969D01*
X0101116Y0065396D01*
X0101116Y0063103D01*
X0101689Y0062530D01*
X0102836Y0062530D01*
X0103409Y0063103D01*
X0096618Y0049040D02*
X0095472Y0049040D01*
X0094899Y0048467D01*
X0093567Y0049040D02*
X0093567Y0046174D01*
X0092993Y0045600D01*
X0091847Y0045600D01*
X0091273Y0046174D01*
X0091273Y0049040D01*
X0094899Y0045600D02*
X0097192Y0047894D01*
X0097192Y0048467D01*
X0096618Y0049040D01*
X0097192Y0045600D02*
X0094899Y0045600D01*
X0083929Y0046410D02*
X0083355Y0045837D01*
X0082209Y0045837D01*
X0081635Y0046410D01*
X0082209Y0047557D02*
X0083355Y0047557D01*
X0083929Y0046983D01*
X0083929Y0046410D01*
X0082209Y0047557D02*
X0081635Y0048130D01*
X0081635Y0048703D01*
X0082209Y0049277D01*
X0083355Y0049277D01*
X0083929Y0048703D01*
X0080304Y0049277D02*
X0080304Y0046410D01*
X0079730Y0045837D01*
X0078584Y0045837D01*
X0078010Y0046410D01*
X0078010Y0049277D01*
X0076678Y0048703D02*
X0076678Y0048130D01*
X0076105Y0047557D01*
X0074385Y0047557D01*
X0074385Y0045837D02*
X0074385Y0049277D01*
X0076105Y0049277D01*
X0076678Y0048703D01*
X0076105Y0047557D02*
X0076678Y0046983D01*
X0076678Y0046410D01*
X0076105Y0045837D01*
X0074385Y0045837D01*
X0073053Y0045263D02*
X0070760Y0045263D01*
X0069428Y0045837D02*
X0069428Y0049277D01*
X0069428Y0047557D02*
X0067135Y0047557D01*
X0067135Y0045837D02*
X0067135Y0049277D01*
X0051341Y0048894D02*
X0051341Y0045744D01*
X0042074Y0047158D02*
X0041500Y0046585D01*
X0040354Y0046585D01*
X0039780Y0047158D01*
X0039780Y0048305D02*
X0040927Y0048878D01*
X0041500Y0048878D01*
X0042074Y0048305D01*
X0042074Y0047158D01*
X0039780Y0048305D02*
X0039780Y0050025D01*
X0042074Y0050025D01*
X0038449Y0049451D02*
X0037875Y0050025D01*
X0036729Y0050025D01*
X0036155Y0049451D01*
X0036155Y0047158D01*
X0036729Y0046585D01*
X0037875Y0046585D01*
X0038449Y0047158D01*
X0025341Y0096781D02*
X0023048Y0096781D01*
X0024195Y0096781D02*
X0024195Y0100221D01*
X0023048Y0099075D01*
X0021716Y0100221D02*
X0021716Y0097355D01*
X0021143Y0096781D01*
X0019996Y0096781D01*
X0019423Y0097355D01*
X0019423Y0100221D01*
X0036155Y0107805D02*
X0038449Y0111245D01*
X0039780Y0110098D02*
X0040927Y0111245D01*
X0040927Y0107805D01*
X0039780Y0107805D02*
X0042074Y0107805D01*
X0038449Y0107805D02*
X0036155Y0111245D01*
X0038697Y0118435D02*
X0038124Y0119008D01*
X0038124Y0121302D01*
X0038697Y0121875D01*
X0039844Y0121875D01*
X0040417Y0121302D01*
X0041749Y0121302D02*
X0042322Y0121875D01*
X0043469Y0121875D01*
X0044042Y0121302D01*
X0044042Y0120728D01*
X0041749Y0118435D01*
X0044042Y0118435D01*
X0040417Y0119008D02*
X0039844Y0118435D01*
X0038697Y0118435D01*
X0033888Y0119419D02*
X0031595Y0119419D01*
X0033888Y0121713D01*
X0033888Y0122286D01*
X0033314Y0122859D01*
X0032168Y0122859D01*
X0031595Y0122286D01*
X0030263Y0122286D02*
X0030263Y0121713D01*
X0029689Y0121139D01*
X0027969Y0121139D01*
X0027969Y0119419D02*
X0029689Y0119419D01*
X0030263Y0119993D01*
X0030263Y0120566D01*
X0029689Y0121139D01*
X0030263Y0122286D02*
X0029689Y0122859D01*
X0027969Y0122859D01*
X0027969Y0119419D01*
X0026638Y0118846D02*
X0024344Y0118846D01*
X0023012Y0119419D02*
X0023012Y0122859D01*
X0023012Y0121139D02*
X0020719Y0121139D01*
X0020719Y0119419D02*
X0020719Y0122859D01*
X0021814Y0125075D02*
X0053310Y0125075D01*
X0053310Y0142791D01*
X0021814Y0142791D01*
X0021814Y0125075D01*
X0050357Y0121728D02*
X0050357Y0118579D01*
X0055278Y0125075D02*
X0086775Y0125075D01*
X0086775Y0142791D01*
X0055278Y0142791D01*
X0055278Y0125075D01*
X0064026Y0127293D02*
X0064026Y0130733D01*
X0064026Y0129013D02*
X0066319Y0129013D01*
X0066319Y0130733D02*
X0066319Y0127293D01*
X0067651Y0126720D02*
X0069945Y0126720D01*
X0071276Y0127293D02*
X0072996Y0127293D01*
X0073570Y0127867D01*
X0073570Y0128440D01*
X0072996Y0129013D01*
X0071276Y0129013D01*
X0071276Y0127293D02*
X0071276Y0130733D01*
X0072996Y0130733D01*
X0073570Y0130160D01*
X0073570Y0129587D01*
X0072996Y0129013D01*
X0074902Y0129587D02*
X0076048Y0130733D01*
X0076048Y0127293D01*
X0074902Y0127293D02*
X0077195Y0127293D01*
X0075376Y0122859D02*
X0074229Y0121713D01*
X0072897Y0122286D02*
X0072324Y0122859D01*
X0071177Y0122859D01*
X0070604Y0122286D01*
X0070604Y0119993D01*
X0071177Y0119419D01*
X0072324Y0119419D01*
X0072897Y0119993D01*
X0074229Y0119419D02*
X0076523Y0119419D01*
X0075376Y0119419D02*
X0075376Y0122859D01*
X0078478Y0122286D02*
X0078478Y0119993D01*
X0079051Y0119419D01*
X0080198Y0119419D01*
X0080771Y0119993D01*
X0082103Y0119993D02*
X0082677Y0119419D01*
X0083823Y0119419D01*
X0084397Y0119993D01*
X0084397Y0120566D01*
X0083823Y0121139D01*
X0083250Y0121139D01*
X0083823Y0121139D02*
X0084397Y0121713D01*
X0084397Y0122286D01*
X0083823Y0122859D01*
X0082677Y0122859D01*
X0082103Y0122286D01*
X0080771Y0122286D02*
X0080198Y0122859D01*
X0079051Y0122859D01*
X0078478Y0122286D01*
X0088743Y0125075D02*
X0120239Y0125075D01*
X0120239Y0142791D01*
X0088743Y0142791D01*
X0088743Y0125075D01*
X0092680Y0120744D02*
X0092680Y0117594D01*
X0092680Y0113854D02*
X0092680Y0110705D01*
X0092680Y0106965D02*
X0092680Y0103815D01*
X0099721Y0110561D02*
X0100867Y0110561D01*
X0101441Y0111134D01*
X0102773Y0111134D02*
X0102773Y0111708D01*
X0103346Y0112281D01*
X0104493Y0112281D01*
X0105066Y0111708D01*
X0105066Y0111134D01*
X0104493Y0110561D01*
X0103346Y0110561D01*
X0102773Y0111134D01*
X0103346Y0112281D02*
X0102773Y0112854D01*
X0102773Y0113428D01*
X0103346Y0114001D01*
X0104493Y0114001D01*
X0105066Y0113428D01*
X0105066Y0112854D01*
X0104493Y0112281D01*
X0104493Y0115482D02*
X0103346Y0115482D01*
X0102773Y0116056D01*
X0102773Y0116629D01*
X0103346Y0117202D01*
X0104493Y0117202D01*
X0105066Y0116629D01*
X0105066Y0116056D01*
X0104493Y0115482D01*
X0104493Y0117202D02*
X0105066Y0117776D01*
X0105066Y0118349D01*
X0104493Y0118922D01*
X0103346Y0118922D01*
X0102773Y0118349D01*
X0102773Y0117776D01*
X0103346Y0117202D01*
X0101441Y0117202D02*
X0100867Y0116629D01*
X0099147Y0116629D01*
X0099147Y0115482D02*
X0099147Y0118922D01*
X0100867Y0118922D01*
X0101441Y0118349D01*
X0101441Y0117202D01*
X0100294Y0116629D02*
X0101441Y0115482D01*
X0100867Y0114001D02*
X0099721Y0114001D01*
X0099147Y0113428D01*
X0099147Y0111134D01*
X0099721Y0110561D01*
X0101441Y0113428D02*
X0100867Y0114001D01*
X0101441Y0120404D02*
X0100294Y0121550D01*
X0100867Y0121550D02*
X0099147Y0121550D01*
X0099147Y0120404D02*
X0099147Y0123843D01*
X0100867Y0123843D01*
X0101441Y0123270D01*
X0101441Y0122124D01*
X0100867Y0121550D01*
X0102773Y0120977D02*
X0102773Y0120404D01*
X0102773Y0120977D02*
X0105066Y0123270D01*
X0105066Y0123843D01*
X0102773Y0123843D01*
X0106505Y0122859D02*
X0106505Y0119419D01*
X0106505Y0121139D02*
X0108798Y0121139D01*
X0108798Y0122859D02*
X0108798Y0119419D01*
X0110130Y0118846D02*
X0112423Y0118846D01*
X0114902Y0119419D02*
X0114902Y0122859D01*
X0113755Y0122859D02*
X0116049Y0122859D01*
X0117380Y0122859D02*
X0118527Y0121713D01*
X0119674Y0122859D01*
X0119674Y0119419D01*
X0121005Y0119419D02*
X0121005Y0122859D01*
X0122725Y0122859D01*
X0123299Y0122286D01*
X0123299Y0121139D01*
X0122725Y0120566D01*
X0121005Y0120566D01*
X0117380Y0119419D02*
X0117380Y0122859D01*
X0106066Y0105390D02*
X0102916Y0105390D01*
X0102836Y0095300D02*
X0101116Y0095300D01*
X0101116Y0091860D01*
X0101116Y0093007D02*
X0102836Y0093007D01*
X0103409Y0093580D01*
X0103409Y0094727D01*
X0102836Y0095300D01*
X0102263Y0093007D02*
X0103409Y0091860D01*
X0104741Y0091860D02*
X0107034Y0091860D01*
X0105888Y0091860D02*
X0105888Y0095300D01*
X0104741Y0094154D01*
X0119502Y0094470D02*
X0120075Y0093897D01*
X0120649Y0093897D01*
X0121222Y0094470D01*
X0121222Y0095617D01*
X0121795Y0096190D01*
X0122369Y0096190D01*
X0122942Y0095617D01*
X0122942Y0094470D01*
X0122369Y0093897D01*
X0122369Y0092565D02*
X0122942Y0091992D01*
X0122942Y0090845D01*
X0122369Y0090272D01*
X0120075Y0090272D01*
X0119502Y0090845D01*
X0119502Y0091992D01*
X0120075Y0092565D01*
X0119502Y0094470D02*
X0119502Y0095617D01*
X0120075Y0096190D01*
X0119502Y0097522D02*
X0119502Y0099242D01*
X0120075Y0099815D01*
X0121222Y0099815D01*
X0121795Y0099242D01*
X0121795Y0097522D01*
X0122942Y0097522D02*
X0119502Y0097522D01*
X0119502Y0089002D02*
X0119502Y0087855D01*
X0119502Y0088428D02*
X0122942Y0088428D01*
X0122942Y0087855D02*
X0122942Y0089002D01*
X0123515Y0086523D02*
X0123515Y0084230D01*
X0122942Y0082898D02*
X0119502Y0082898D01*
X0121222Y0082898D02*
X0121222Y0080605D01*
X0122942Y0080605D02*
X0119502Y0080605D01*
X0064137Y0118579D02*
X0064137Y0121728D01*
D12*
X0096166Y0087344D02*
X0096166Y0084875D01*
X0096166Y0086110D02*
X0092463Y0086110D01*
X0093697Y0084875D01*
X0119668Y0043396D02*
X0119668Y0040970D01*
X0119668Y0042183D02*
X0116028Y0042183D01*
X0117241Y0040970D01*
D13*
X0036426Y0066366D02*
X0035825Y0065765D01*
X0035225Y0065765D01*
X0034624Y0066366D01*
X0034024Y0065765D01*
X0033423Y0065765D01*
X0032823Y0066366D01*
X0032823Y0067567D01*
X0033423Y0068167D01*
X0034624Y0066966D02*
X0034624Y0066366D01*
X0036426Y0066366D02*
X0036426Y0067567D01*
X0035825Y0068167D01*
X0036426Y0073131D02*
X0034024Y0073131D01*
X0032823Y0074332D01*
X0034024Y0075533D01*
X0036426Y0075533D01*
X0036426Y0076788D02*
X0036426Y0077989D01*
X0036426Y0077388D02*
X0032823Y0077388D01*
X0032823Y0076788D02*
X0032823Y0077989D01*
X0032823Y0079270D02*
X0036426Y0079270D01*
X0036426Y0081672D02*
X0032823Y0081672D01*
X0033423Y0082953D02*
X0036426Y0082953D01*
X0036426Y0081672D02*
X0032823Y0079270D01*
X0031213Y0079755D02*
X0030613Y0080355D01*
X0028211Y0080355D01*
X0027610Y0079755D01*
X0027610Y0078554D01*
X0028211Y0077953D01*
X0028811Y0076672D02*
X0028811Y0074870D01*
X0029412Y0074270D01*
X0030613Y0074270D01*
X0031213Y0074870D01*
X0031213Y0076672D01*
X0027610Y0076672D01*
X0030613Y0077953D02*
X0031213Y0078554D01*
X0031213Y0079755D01*
X0033423Y0082953D02*
X0032823Y0083554D01*
X0032823Y0084755D01*
X0033423Y0085355D01*
X0036426Y0085355D01*
X0031213Y0072989D02*
X0028211Y0072989D01*
X0027610Y0072388D01*
X0027610Y0071187D01*
X0028211Y0070587D01*
X0031213Y0070587D01*
D14*
X0021617Y0043579D02*
X0021617Y0021531D01*
X0055475Y0021531D01*
X0055475Y0043579D01*
X0021617Y0043579D01*
X0024373Y0042004D02*
X0025554Y0040035D01*
X0026735Y0042004D01*
X0024373Y0042004D01*
X0024530Y0041741D02*
X0026578Y0041741D01*
X0025978Y0040743D02*
X0025130Y0040743D01*
X0059019Y0043579D02*
X0059019Y0021531D01*
X0092877Y0021531D01*
X0092877Y0043579D01*
X0059019Y0043579D01*
X0061775Y0042004D02*
X0062956Y0040035D01*
X0064137Y0042004D01*
X0061775Y0042004D01*
X0061932Y0041741D02*
X0063979Y0041741D01*
X0063380Y0040743D02*
X0062531Y0040743D01*
D15*
X0071026Y0141807D03*
X0104491Y0141807D03*
X0037562Y0141807D03*
D16*
X0047404Y0115626D02*
X0067089Y0115626D01*
X0067089Y0114839D01*
X0067089Y0103815D02*
X0067089Y0103028D01*
X0047404Y0103028D01*
X0047404Y0103815D01*
X0047404Y0114839D02*
X0047404Y0115626D01*
M02*
