G75*
%MOIN*%
%OFA0B0*%
%FSLAX25Y25*%
%IPPOS*%
%LPD*%
%AMOC8*
5,1,8,0,0,1.08239X$1,22.5*
%
%ADD10R,0.07387X0.07387*%
%ADD11OC8,0.07387*%
%ADD12C,0.00673*%
%ADD13C,0.00868*%
%ADD14C,0.00567*%
%ADD15C,0.03780*%
%ADD16C,0.05906*%
%ADD17R,0.05587X0.05587*%
%ADD18C,0.05587*%
%ADD19C,0.01535*%
D10*
X0113349Y0110626D03*
D11*
X0113349Y0100626D03*
X0113349Y0090626D03*
X0113349Y0080626D03*
X0113349Y0070626D03*
D12*
X0115159Y0057222D02*
X0111343Y0057222D01*
X0111343Y0061038D01*
X0115159Y0061038D01*
X0115159Y0057222D01*
X0115159Y0057894D02*
X0111343Y0057894D01*
X0111343Y0058566D02*
X0115159Y0058566D01*
X0115159Y0059238D02*
X0111343Y0059238D01*
X0111343Y0059910D02*
X0115159Y0059910D01*
X0115159Y0060582D02*
X0111343Y0060582D01*
X0109450Y0057222D02*
X0105634Y0057222D01*
X0105634Y0061038D01*
X0109450Y0061038D01*
X0109450Y0057222D01*
X0109450Y0057894D02*
X0105634Y0057894D01*
X0105634Y0058566D02*
X0109450Y0058566D01*
X0109450Y0059238D02*
X0105634Y0059238D01*
X0105634Y0059910D02*
X0109450Y0059910D01*
X0109450Y0060582D02*
X0105634Y0060582D01*
X0102583Y0100627D02*
X0102583Y0104443D01*
X0106399Y0104443D01*
X0106399Y0100627D01*
X0102583Y0100627D01*
X0102583Y0101299D02*
X0106399Y0101299D01*
X0106399Y0101971D02*
X0102583Y0101971D01*
X0102583Y0102643D02*
X0106399Y0102643D01*
X0106399Y0103315D02*
X0102583Y0103315D01*
X0102583Y0103987D02*
X0106399Y0103987D01*
X0102583Y0106336D02*
X0102583Y0110152D01*
X0106399Y0110152D01*
X0106399Y0106336D01*
X0102583Y0106336D01*
X0102583Y0107008D02*
X0106399Y0107008D01*
X0106399Y0107680D02*
X0102583Y0107680D01*
X0102583Y0108352D02*
X0106399Y0108352D01*
X0106399Y0109024D02*
X0102583Y0109024D01*
X0102583Y0109696D02*
X0106399Y0109696D01*
X0097442Y0114188D02*
X0093626Y0114188D01*
X0097442Y0114188D02*
X0097442Y0110372D01*
X0093626Y0110372D01*
X0093626Y0114188D01*
X0093626Y0111044D02*
X0097442Y0111044D01*
X0097442Y0111716D02*
X0093626Y0111716D01*
X0093626Y0112388D02*
X0097442Y0112388D01*
X0097442Y0113060D02*
X0093626Y0113060D01*
X0093626Y0113732D02*
X0097442Y0113732D01*
X0097442Y0121077D02*
X0093626Y0121077D01*
X0097442Y0121077D02*
X0097442Y0117261D01*
X0093626Y0117261D01*
X0093626Y0121077D01*
X0093626Y0117933D02*
X0097442Y0117933D01*
X0097442Y0118605D02*
X0093626Y0118605D01*
X0093626Y0119277D02*
X0097442Y0119277D01*
X0097442Y0119949D02*
X0093626Y0119949D01*
X0093626Y0120621D02*
X0097442Y0120621D01*
X0091734Y0121077D02*
X0087918Y0121077D01*
X0091734Y0121077D02*
X0091734Y0117261D01*
X0087918Y0117261D01*
X0087918Y0121077D01*
X0087918Y0117933D02*
X0091734Y0117933D01*
X0091734Y0118605D02*
X0087918Y0118605D01*
X0087918Y0119277D02*
X0091734Y0119277D01*
X0091734Y0119949D02*
X0087918Y0119949D01*
X0087918Y0120621D02*
X0091734Y0120621D01*
X0091734Y0114188D02*
X0087918Y0114188D01*
X0091734Y0114188D02*
X0091734Y0110372D01*
X0087918Y0110372D01*
X0087918Y0114188D01*
X0087918Y0111044D02*
X0091734Y0111044D01*
X0091734Y0111716D02*
X0087918Y0111716D01*
X0087918Y0112388D02*
X0091734Y0112388D01*
X0091734Y0113060D02*
X0087918Y0113060D01*
X0087918Y0113732D02*
X0091734Y0113732D01*
X0091734Y0103482D02*
X0087918Y0103482D01*
X0087918Y0107298D01*
X0091734Y0107298D01*
X0091734Y0103482D01*
X0091734Y0104154D02*
X0087918Y0104154D01*
X0087918Y0104826D02*
X0091734Y0104826D01*
X0091734Y0105498D02*
X0087918Y0105498D01*
X0087918Y0106170D02*
X0091734Y0106170D01*
X0091734Y0106842D02*
X0087918Y0106842D01*
X0093626Y0103482D02*
X0097442Y0103482D01*
X0093626Y0103482D02*
X0093626Y0107298D01*
X0097442Y0107298D01*
X0097442Y0103482D01*
X0097442Y0104154D02*
X0093626Y0104154D01*
X0093626Y0104826D02*
X0097442Y0104826D01*
X0097442Y0105498D02*
X0093626Y0105498D01*
X0093626Y0106170D02*
X0097442Y0106170D01*
X0097442Y0106842D02*
X0093626Y0106842D01*
X0068899Y0122062D02*
X0065083Y0122062D01*
X0068899Y0122062D02*
X0068899Y0118246D01*
X0065083Y0118246D01*
X0065083Y0122062D01*
X0065083Y0118918D02*
X0068899Y0118918D01*
X0068899Y0119590D02*
X0065083Y0119590D01*
X0065083Y0120262D02*
X0068899Y0120262D01*
X0068899Y0120934D02*
X0065083Y0120934D01*
X0065083Y0121606D02*
X0068899Y0121606D01*
X0063190Y0122062D02*
X0059374Y0122062D01*
X0063190Y0122062D02*
X0063190Y0118246D01*
X0059374Y0118246D01*
X0059374Y0122062D01*
X0059374Y0118918D02*
X0063190Y0118918D01*
X0063190Y0119590D02*
X0059374Y0119590D01*
X0059374Y0120262D02*
X0063190Y0120262D01*
X0063190Y0120934D02*
X0059374Y0120934D01*
X0059374Y0121606D02*
X0063190Y0121606D01*
X0055120Y0118246D02*
X0051304Y0118246D01*
X0051304Y0122062D01*
X0055120Y0122062D01*
X0055120Y0118246D01*
X0055120Y0118918D02*
X0051304Y0118918D01*
X0051304Y0119590D02*
X0055120Y0119590D01*
X0055120Y0120262D02*
X0051304Y0120262D01*
X0051304Y0120934D02*
X0055120Y0120934D01*
X0055120Y0121606D02*
X0051304Y0121606D01*
X0049411Y0118246D02*
X0045595Y0118246D01*
X0045595Y0122062D01*
X0049411Y0122062D01*
X0049411Y0118246D01*
X0049411Y0118918D02*
X0045595Y0118918D01*
X0045595Y0119590D02*
X0049411Y0119590D01*
X0049411Y0120262D02*
X0045595Y0120262D01*
X0045595Y0120934D02*
X0049411Y0120934D01*
X0049411Y0121606D02*
X0045595Y0121606D01*
X0046579Y0049227D02*
X0050395Y0049227D01*
X0050395Y0045411D01*
X0046579Y0045411D01*
X0046579Y0049227D01*
X0046579Y0046083D02*
X0050395Y0046083D01*
X0050395Y0046755D02*
X0046579Y0046755D01*
X0046579Y0047427D02*
X0050395Y0047427D01*
X0050395Y0048099D02*
X0046579Y0048099D01*
X0046579Y0048771D02*
X0050395Y0048771D01*
X0052288Y0049227D02*
X0056104Y0049227D01*
X0056104Y0045411D01*
X0052288Y0045411D01*
X0052288Y0049227D01*
X0052288Y0046083D02*
X0056104Y0046083D01*
X0056104Y0046755D02*
X0052288Y0046755D01*
X0052288Y0047427D02*
X0056104Y0047427D01*
X0056104Y0048099D02*
X0052288Y0048099D01*
X0052288Y0048771D02*
X0056104Y0048771D01*
D13*
X0076441Y0107486D02*
X0081359Y0107486D01*
X0081359Y0102168D01*
X0076441Y0102168D01*
X0076441Y0107486D01*
X0076441Y0103035D02*
X0081359Y0103035D01*
X0081359Y0103902D02*
X0076441Y0103902D01*
X0076441Y0104769D02*
X0081359Y0104769D01*
X0081359Y0105636D02*
X0076441Y0105636D01*
X0076441Y0106503D02*
X0081359Y0106503D01*
X0081359Y0107370D02*
X0076441Y0107370D01*
X0076441Y0116486D02*
X0081359Y0116486D01*
X0081359Y0111168D01*
X0076441Y0111168D01*
X0076441Y0116486D01*
X0076441Y0112035D02*
X0081359Y0112035D01*
X0081359Y0112902D02*
X0076441Y0112902D01*
X0076441Y0113769D02*
X0081359Y0113769D01*
X0081359Y0114636D02*
X0076441Y0114636D01*
X0076441Y0115503D02*
X0081359Y0115503D01*
X0081359Y0116370D02*
X0076441Y0116370D01*
D14*
X0092522Y0099061D02*
X0092522Y0089549D01*
X0092522Y0099061D02*
X0095736Y0099061D01*
X0095736Y0089549D01*
X0092522Y0089549D01*
X0092522Y0090115D02*
X0095736Y0090115D01*
X0095736Y0090681D02*
X0092522Y0090681D01*
X0092522Y0091247D02*
X0095736Y0091247D01*
X0095736Y0091813D02*
X0092522Y0091813D01*
X0092522Y0092379D02*
X0095736Y0092379D01*
X0095736Y0092945D02*
X0092522Y0092945D01*
X0092522Y0093511D02*
X0095736Y0093511D01*
X0095736Y0094077D02*
X0092522Y0094077D01*
X0092522Y0094643D02*
X0095736Y0094643D01*
X0095736Y0095209D02*
X0092522Y0095209D01*
X0092522Y0095775D02*
X0095736Y0095775D01*
X0095736Y0096341D02*
X0092522Y0096341D01*
X0092522Y0096907D02*
X0095736Y0096907D01*
X0095736Y0097473D02*
X0092522Y0097473D01*
X0092522Y0098039D02*
X0095736Y0098039D01*
X0095736Y0098605D02*
X0092522Y0098605D01*
X0116290Y0054201D02*
X0116290Y0044689D01*
X0116290Y0054201D02*
X0119504Y0054201D01*
X0119504Y0044689D01*
X0116290Y0044689D01*
X0116290Y0045255D02*
X0119504Y0045255D01*
X0119504Y0045821D02*
X0116290Y0045821D01*
X0116290Y0046387D02*
X0119504Y0046387D01*
X0119504Y0046953D02*
X0116290Y0046953D01*
X0116290Y0047519D02*
X0119504Y0047519D01*
X0119504Y0048085D02*
X0116290Y0048085D01*
X0116290Y0048651D02*
X0119504Y0048651D01*
X0119504Y0049217D02*
X0116290Y0049217D01*
X0116290Y0049783D02*
X0119504Y0049783D01*
X0119504Y0050349D02*
X0116290Y0050349D01*
X0116290Y0050915D02*
X0119504Y0050915D01*
X0119504Y0051481D02*
X0116290Y0051481D01*
X0116290Y0052047D02*
X0119504Y0052047D01*
X0119504Y0052613D02*
X0116290Y0052613D01*
X0116290Y0053179D02*
X0119504Y0053179D01*
X0119504Y0053745D02*
X0116290Y0053745D01*
D15*
X0112897Y0052594D02*
X0112897Y0046296D01*
X0107897Y0046296D02*
X0107897Y0052594D01*
X0102897Y0052594D02*
X0102897Y0046296D01*
X0094129Y0053656D02*
X0094129Y0059954D01*
X0089129Y0059954D02*
X0089129Y0053656D01*
X0084129Y0053656D02*
X0084129Y0059954D01*
X0079129Y0059954D02*
X0079129Y0053656D01*
X0074129Y0053656D02*
X0074129Y0059954D01*
X0069129Y0059954D02*
X0069129Y0053656D01*
X0064129Y0053656D02*
X0064129Y0059954D01*
X0059129Y0059954D02*
X0059129Y0053656D01*
X0054129Y0053656D02*
X0054129Y0059954D01*
X0049129Y0059954D02*
X0049129Y0053656D01*
X0044129Y0053656D02*
X0044129Y0059954D01*
X0039129Y0059954D02*
X0039129Y0053656D01*
X0034129Y0053656D02*
X0034129Y0059954D01*
X0029129Y0059954D02*
X0029129Y0053656D01*
X0029129Y0091156D02*
X0029129Y0097454D01*
X0034129Y0097454D02*
X0034129Y0091156D01*
X0039129Y0091156D02*
X0039129Y0097454D01*
X0044129Y0097454D02*
X0044129Y0091156D01*
X0049129Y0091156D02*
X0049129Y0097454D01*
X0054129Y0097454D02*
X0054129Y0091156D01*
X0059129Y0091156D02*
X0059129Y0097454D01*
X0064129Y0097454D02*
X0064129Y0091156D01*
X0069129Y0091156D02*
X0069129Y0097454D01*
X0074129Y0097454D02*
X0074129Y0091156D01*
X0079129Y0091156D02*
X0079129Y0097454D01*
X0084129Y0097454D02*
X0084129Y0091156D01*
X0089129Y0091156D02*
X0089129Y0097454D01*
X0102897Y0032594D02*
X0102897Y0026296D01*
X0107897Y0026296D02*
X0107897Y0032594D01*
X0112897Y0032594D02*
X0112897Y0026296D01*
X0117897Y0026296D02*
X0117897Y0032594D01*
D16*
X0030672Y0028618D03*
X0030672Y0036492D03*
X0038546Y0036492D03*
X0038546Y0028618D03*
X0046420Y0028618D03*
X0046420Y0036492D03*
X0068074Y0036492D03*
X0068074Y0028618D03*
X0075948Y0028618D03*
X0075948Y0036492D03*
X0083822Y0036492D03*
X0083822Y0028618D03*
D17*
X0096617Y0134917D03*
X0063152Y0134917D03*
X0029688Y0134917D03*
D18*
X0037562Y0134917D03*
X0045436Y0134917D03*
X0071026Y0134917D03*
X0078900Y0134917D03*
X0104491Y0134917D03*
X0112365Y0134917D03*
D19*
X0061557Y0113678D02*
X0061557Y0104976D01*
X0061557Y0113678D02*
X0070259Y0113678D01*
X0070259Y0104976D01*
X0061557Y0104976D01*
X0061557Y0106510D02*
X0070259Y0106510D01*
X0070259Y0108044D02*
X0061557Y0108044D01*
X0061557Y0109578D02*
X0070259Y0109578D01*
X0070259Y0111112D02*
X0061557Y0111112D01*
X0061557Y0112646D02*
X0070259Y0112646D01*
X0044235Y0113678D02*
X0044235Y0104976D01*
X0044235Y0113678D02*
X0052937Y0113678D01*
X0052937Y0104976D01*
X0044235Y0104976D01*
X0044235Y0106510D02*
X0052937Y0106510D01*
X0052937Y0108044D02*
X0044235Y0108044D01*
X0044235Y0109578D02*
X0052937Y0109578D01*
X0052937Y0111112D02*
X0044235Y0111112D01*
X0044235Y0112646D02*
X0052937Y0112646D01*
M02*
