%
M48
M72
T01C0.01181
T02C0.01575
T03C0.03150
T04C0.03543
T05C0.04724
T06C0.05906
T07C0.12800
%
T01
X157100Y57161
X160840Y57161
X164580Y57161
X150998Y108343
T02
X162809Y107358
X172927Y112201
X142139Y125075
X132297Y125075
X108675Y126059
X103754Y115232
X92927Y108343
X103754Y100469
X115565Y106374
X105722Y94563
X87021Y89642
X116549Y79799
X113872Y71846
X121470Y71925
X133281Y70941
X146076Y70941
X146076Y67004
X168370Y61266
X145092Y53224
X148045Y32555
X241549Y34524
X241549Y67988
X280919Y71925
X290761Y81768
X269108Y95547
X304541Y101453
X205131Y139839
X191352Y130980
X156903Y142791
X144108Y146728
X135250Y142791
X130604Y146650
X111628Y142791
X104738Y142791
X88281Y146650
X155919Y84720
X180525Y79799
T03
X180604Y95823
X180604Y103697
X180604Y111571
X180604Y119445
X180604Y127319
T04
X205131Y108343
X205131Y98500
X205131Y88657
X67100Y98205
X57100Y103205
X67100Y108205
X57100Y113205
X67100Y118205
X57100Y123205
X67100Y128205
X57100Y133205
X57100Y73205
X67100Y68205
X57100Y63205
X67100Y58205
X57100Y53205
X67100Y48205
X57100Y43205
X67100Y38205
T05
X39730Y85705
T06
X323045Y95547
X323045Y75862
T07
X32100Y33205
X32100Y78205
X32100Y93205
X32100Y138205
M30
