G75*
%MOIN*%
%OFA0B0*%
%FSLAX25Y25*%
%IPPOS*%
%LPD*%
%AMOC8*
5,1,8,0,0,1.08239X$1,22.5*
%
%ADD10C,0.05512*%
%ADD11C,0.01299*%
%ADD12C,0.00673*%
%ADD13C,0.00868*%
%ADD14C,0.01063*%
%ADD15C,0.07387*%
%ADD16C,0.13587*%
%ADD17C,0.00567*%
%ADD18C,0.03780*%
%ADD19C,0.00709*%
%ADD20C,0.12598*%
%ADD21C,0.00838*%
%ADD22C,0.01417*%
%ADD23C,0.00827*%
%ADD24C,0.00638*%
%ADD25C,0.01122*%
%ADD26C,0.00189*%
%ADD27C,0.00207*%
%ADD28C,0.00595*%
%ADD29C,0.06102*%
D10*
X0039730Y0085705D03*
X0180604Y0095823D03*
X0180604Y0103697D03*
X0180604Y0111571D03*
X0180604Y0119445D03*
X0180604Y0127319D03*
D11*
X0110663Y0054938D02*
X0103301Y0054938D01*
X0110663Y0054938D02*
X0110663Y0045606D01*
X0103301Y0045606D01*
X0103301Y0054938D01*
X0103301Y0046904D02*
X0110663Y0046904D01*
X0110663Y0048202D02*
X0103301Y0048202D01*
X0103301Y0049500D02*
X0110663Y0049500D01*
X0110663Y0050798D02*
X0103301Y0050798D01*
X0103301Y0052096D02*
X0110663Y0052096D01*
X0110663Y0053394D02*
X0103301Y0053394D01*
X0103301Y0054692D02*
X0110663Y0054692D01*
X0088458Y0045606D02*
X0081096Y0045606D01*
X0081096Y0054938D01*
X0088458Y0054938D01*
X0088458Y0045606D01*
X0088458Y0046904D02*
X0081096Y0046904D01*
X0081096Y0048202D02*
X0088458Y0048202D01*
X0088458Y0049500D02*
X0081096Y0049500D01*
X0081096Y0050798D02*
X0088458Y0050798D01*
X0088458Y0052096D02*
X0081096Y0052096D01*
X0081096Y0053394D02*
X0088458Y0053394D01*
X0088458Y0054692D02*
X0081096Y0054692D01*
X0081096Y0027889D02*
X0088458Y0027889D01*
X0081096Y0027889D02*
X0081096Y0037221D01*
X0088458Y0037221D01*
X0088458Y0027889D01*
X0088458Y0029187D02*
X0081096Y0029187D01*
X0081096Y0030485D02*
X0088458Y0030485D01*
X0088458Y0031783D02*
X0081096Y0031783D01*
X0081096Y0033081D02*
X0088458Y0033081D01*
X0088458Y0034379D02*
X0081096Y0034379D01*
X0081096Y0035677D02*
X0088458Y0035677D01*
X0088458Y0036975D02*
X0081096Y0036975D01*
X0103301Y0037221D02*
X0110663Y0037221D01*
X0110663Y0027889D01*
X0103301Y0027889D01*
X0103301Y0037221D01*
X0103301Y0029187D02*
X0110663Y0029187D01*
X0110663Y0030485D02*
X0103301Y0030485D01*
X0103301Y0031783D02*
X0110663Y0031783D01*
X0110663Y0033081D02*
X0103301Y0033081D01*
X0103301Y0034379D02*
X0110663Y0034379D01*
X0110663Y0035677D02*
X0103301Y0035677D01*
X0103301Y0036975D02*
X0110663Y0036975D01*
D12*
X0120645Y0069896D02*
X0124461Y0069896D01*
X0124461Y0066080D01*
X0120645Y0066080D01*
X0120645Y0069896D01*
X0120645Y0066752D02*
X0124461Y0066752D01*
X0124461Y0067424D02*
X0120645Y0067424D01*
X0120645Y0068096D02*
X0124461Y0068096D01*
X0124461Y0068768D02*
X0120645Y0068768D01*
X0120645Y0069440D02*
X0124461Y0069440D01*
X0126353Y0069896D02*
X0130169Y0069896D01*
X0130169Y0066080D01*
X0126353Y0066080D01*
X0126353Y0069896D01*
X0126353Y0066752D02*
X0130169Y0066752D01*
X0130169Y0067424D02*
X0126353Y0067424D01*
X0126353Y0068096D02*
X0130169Y0068096D01*
X0130169Y0068768D02*
X0126353Y0068768D01*
X0126353Y0069440D02*
X0130169Y0069440D01*
X0175543Y0077005D02*
X0175543Y0080821D01*
X0175543Y0077005D02*
X0171727Y0077005D01*
X0171727Y0080821D01*
X0175543Y0080821D01*
X0175543Y0077677D02*
X0171727Y0077677D01*
X0171727Y0078349D02*
X0175543Y0078349D01*
X0175543Y0079021D02*
X0171727Y0079021D01*
X0171727Y0079693D02*
X0175543Y0079693D01*
X0175543Y0080365D02*
X0171727Y0080365D01*
X0175543Y0082714D02*
X0175543Y0086530D01*
X0175543Y0082714D02*
X0171727Y0082714D01*
X0171727Y0086530D01*
X0175543Y0086530D01*
X0175543Y0083386D02*
X0171727Y0083386D01*
X0171727Y0084058D02*
X0175543Y0084058D01*
X0175543Y0084730D02*
X0171727Y0084730D01*
X0171727Y0085402D02*
X0175543Y0085402D01*
X0175543Y0086074D02*
X0171727Y0086074D01*
X0168775Y0094722D02*
X0168775Y0098538D01*
X0172591Y0098538D01*
X0172591Y0094722D01*
X0168775Y0094722D01*
X0168775Y0095394D02*
X0172591Y0095394D01*
X0172591Y0096066D02*
X0168775Y0096066D01*
X0168775Y0096738D02*
X0172591Y0096738D01*
X0172591Y0097410D02*
X0168775Y0097410D01*
X0168775Y0098082D02*
X0172591Y0098082D01*
X0168775Y0100431D02*
X0168775Y0104247D01*
X0172591Y0104247D01*
X0172591Y0100431D01*
X0168775Y0100431D01*
X0168775Y0101103D02*
X0172591Y0101103D01*
X0172591Y0101775D02*
X0168775Y0101775D01*
X0168775Y0102447D02*
X0172591Y0102447D01*
X0172591Y0103119D02*
X0168775Y0103119D01*
X0168775Y0103791D02*
X0172591Y0103791D01*
X0170524Y0110372D02*
X0166708Y0110372D01*
X0166708Y0114188D01*
X0170524Y0114188D01*
X0170524Y0110372D01*
X0170524Y0111044D02*
X0166708Y0111044D01*
X0166708Y0111716D02*
X0170524Y0111716D01*
X0170524Y0112388D02*
X0166708Y0112388D01*
X0166708Y0113060D02*
X0170524Y0113060D01*
X0170524Y0113732D02*
X0166708Y0113732D01*
X0164815Y0110372D02*
X0160999Y0110372D01*
X0160999Y0114188D01*
X0164815Y0114188D01*
X0164815Y0110372D01*
X0164815Y0111044D02*
X0160999Y0111044D01*
X0160999Y0111716D02*
X0164815Y0111716D01*
X0164815Y0112388D02*
X0160999Y0112388D01*
X0160999Y0113060D02*
X0164815Y0113060D01*
X0164815Y0113732D02*
X0160999Y0113732D01*
X0113536Y0131139D02*
X0113536Y0134955D01*
X0113536Y0131139D02*
X0109720Y0131139D01*
X0109720Y0134955D01*
X0113536Y0134955D01*
X0113536Y0131811D02*
X0109720Y0131811D01*
X0109720Y0132483D02*
X0113536Y0132483D01*
X0113536Y0133155D02*
X0109720Y0133155D01*
X0109720Y0133827D02*
X0113536Y0133827D01*
X0113536Y0134499D02*
X0109720Y0134499D01*
X0102830Y0134955D02*
X0102830Y0131139D01*
X0102830Y0134955D02*
X0106646Y0134955D01*
X0106646Y0131139D01*
X0102830Y0131139D01*
X0102830Y0131811D02*
X0106646Y0131811D01*
X0106646Y0132483D02*
X0102830Y0132483D01*
X0102830Y0133155D02*
X0106646Y0133155D01*
X0106646Y0133827D02*
X0102830Y0133827D01*
X0102830Y0134499D02*
X0106646Y0134499D01*
X0102830Y0136848D02*
X0102830Y0140664D01*
X0106646Y0140664D01*
X0106646Y0136848D01*
X0102830Y0136848D01*
X0102830Y0137520D02*
X0106646Y0137520D01*
X0106646Y0138192D02*
X0102830Y0138192D01*
X0102830Y0138864D02*
X0106646Y0138864D01*
X0106646Y0139536D02*
X0102830Y0139536D01*
X0102830Y0140208D02*
X0106646Y0140208D01*
X0113536Y0140664D02*
X0113536Y0136848D01*
X0109720Y0136848D01*
X0109720Y0140664D01*
X0113536Y0140664D01*
X0113536Y0137520D02*
X0109720Y0137520D01*
X0109720Y0138192D02*
X0113536Y0138192D01*
X0113536Y0138864D02*
X0109720Y0138864D01*
X0109720Y0139536D02*
X0113536Y0139536D01*
X0113536Y0140208D02*
X0109720Y0140208D01*
X0095940Y0140664D02*
X0095940Y0136848D01*
X0095940Y0140664D02*
X0099756Y0140664D01*
X0099756Y0136848D01*
X0095940Y0136848D01*
X0095940Y0137520D02*
X0099756Y0137520D01*
X0099756Y0138192D02*
X0095940Y0138192D01*
X0095940Y0138864D02*
X0099756Y0138864D01*
X0099756Y0139536D02*
X0095940Y0139536D01*
X0095940Y0140208D02*
X0099756Y0140208D01*
X0095940Y0134955D02*
X0095940Y0131139D01*
X0095940Y0134955D02*
X0099756Y0134955D01*
X0099756Y0131139D01*
X0095940Y0131139D01*
X0095940Y0131811D02*
X0099756Y0131811D01*
X0099756Y0132483D02*
X0095940Y0132483D01*
X0095940Y0133155D02*
X0099756Y0133155D01*
X0099756Y0133827D02*
X0095940Y0133827D01*
X0095940Y0134499D02*
X0099756Y0134499D01*
X0105662Y0126884D02*
X0105662Y0123068D01*
X0101846Y0123068D01*
X0101846Y0126884D01*
X0105662Y0126884D01*
X0105662Y0123740D02*
X0101846Y0123740D01*
X0101846Y0124412D02*
X0105662Y0124412D01*
X0105662Y0125084D02*
X0101846Y0125084D01*
X0101846Y0125756D02*
X0105662Y0125756D01*
X0105662Y0126428D02*
X0101846Y0126428D01*
X0105662Y0121176D02*
X0105662Y0117360D01*
X0101846Y0117360D01*
X0101846Y0121176D01*
X0105662Y0121176D01*
X0105662Y0118032D02*
X0101846Y0118032D01*
X0101846Y0118704D02*
X0105662Y0118704D01*
X0105662Y0119376D02*
X0101846Y0119376D01*
X0101846Y0120048D02*
X0105662Y0120048D01*
X0105662Y0120720D02*
X0101846Y0120720D01*
X0080192Y0119010D02*
X0080192Y0115194D01*
X0080192Y0119010D02*
X0084008Y0119010D01*
X0084008Y0115194D01*
X0080192Y0115194D01*
X0080192Y0115866D02*
X0084008Y0115866D01*
X0084008Y0116538D02*
X0080192Y0116538D01*
X0080192Y0117210D02*
X0084008Y0117210D01*
X0084008Y0117882D02*
X0080192Y0117882D01*
X0080192Y0118554D02*
X0084008Y0118554D01*
X0080192Y0113302D02*
X0080192Y0109486D01*
X0080192Y0113302D02*
X0084008Y0113302D01*
X0084008Y0109486D01*
X0080192Y0109486D01*
X0080192Y0110158D02*
X0084008Y0110158D01*
X0084008Y0110830D02*
X0080192Y0110830D01*
X0080192Y0111502D02*
X0084008Y0111502D01*
X0084008Y0112174D02*
X0080192Y0112174D01*
X0080192Y0112846D02*
X0084008Y0112846D01*
X0084008Y0107199D02*
X0084008Y0103383D01*
X0080192Y0103383D01*
X0080192Y0107199D01*
X0084008Y0107199D01*
X0084008Y0104055D02*
X0080192Y0104055D01*
X0080192Y0104727D02*
X0084008Y0104727D01*
X0084008Y0105399D02*
X0080192Y0105399D01*
X0080192Y0106071D02*
X0084008Y0106071D01*
X0084008Y0106743D02*
X0080192Y0106743D01*
X0084008Y0101491D02*
X0084008Y0097675D01*
X0080192Y0097675D01*
X0080192Y0101491D01*
X0084008Y0101491D01*
X0084008Y0098347D02*
X0080192Y0098347D01*
X0080192Y0099019D02*
X0084008Y0099019D01*
X0084008Y0099691D02*
X0080192Y0099691D01*
X0080192Y0100363D02*
X0084008Y0100363D01*
X0084008Y0101035D02*
X0080192Y0101035D01*
X0090133Y0091550D02*
X0093949Y0091550D01*
X0093949Y0087734D01*
X0090133Y0087734D01*
X0090133Y0091550D01*
X0090133Y0088406D02*
X0093949Y0088406D01*
X0093949Y0089078D02*
X0090133Y0089078D01*
X0090133Y0089750D02*
X0093949Y0089750D01*
X0093949Y0090422D02*
X0090133Y0090422D01*
X0090133Y0091094D02*
X0093949Y0091094D01*
X0095842Y0091550D02*
X0099658Y0091550D01*
X0099658Y0087734D01*
X0095842Y0087734D01*
X0095842Y0091550D01*
X0095842Y0088406D02*
X0099658Y0088406D01*
X0099658Y0089078D02*
X0095842Y0089078D01*
X0095842Y0089750D02*
X0099658Y0089750D01*
X0099658Y0090422D02*
X0095842Y0090422D01*
X0095842Y0091094D02*
X0099658Y0091094D01*
X0178617Y0076688D02*
X0178617Y0072872D01*
X0178617Y0076688D02*
X0182433Y0076688D01*
X0182433Y0072872D01*
X0178617Y0072872D01*
X0178617Y0073544D02*
X0182433Y0073544D01*
X0182433Y0074216D02*
X0178617Y0074216D01*
X0178617Y0074888D02*
X0182433Y0074888D01*
X0182433Y0075560D02*
X0178617Y0075560D01*
X0178617Y0076232D02*
X0182433Y0076232D01*
X0178617Y0070979D02*
X0178617Y0067163D01*
X0178617Y0070979D02*
X0182433Y0070979D01*
X0182433Y0067163D01*
X0178617Y0067163D01*
X0178617Y0067835D02*
X0182433Y0067835D01*
X0182433Y0068507D02*
X0178617Y0068507D01*
X0178617Y0069179D02*
X0182433Y0069179D01*
X0182433Y0069851D02*
X0178617Y0069851D01*
X0178617Y0070523D02*
X0182433Y0070523D01*
X0154165Y0134998D02*
X0154165Y0138814D01*
X0154165Y0134998D02*
X0150349Y0134998D01*
X0150349Y0138814D01*
X0154165Y0138814D01*
X0154165Y0135670D02*
X0150349Y0135670D01*
X0150349Y0136342D02*
X0154165Y0136342D01*
X0154165Y0137014D02*
X0150349Y0137014D01*
X0150349Y0137686D02*
X0154165Y0137686D01*
X0154165Y0138358D02*
X0150349Y0138358D01*
X0146016Y0138892D02*
X0146016Y0135076D01*
X0142200Y0135076D01*
X0142200Y0138892D01*
X0146016Y0138892D01*
X0146016Y0135748D02*
X0142200Y0135748D01*
X0142200Y0136420D02*
X0146016Y0136420D01*
X0146016Y0137092D02*
X0142200Y0137092D01*
X0142200Y0137764D02*
X0146016Y0137764D01*
X0146016Y0138436D02*
X0142200Y0138436D01*
X0146016Y0140785D02*
X0146016Y0144601D01*
X0146016Y0140785D02*
X0142200Y0140785D01*
X0142200Y0144601D01*
X0146016Y0144601D01*
X0146016Y0141457D02*
X0142200Y0141457D01*
X0142200Y0142129D02*
X0146016Y0142129D01*
X0146016Y0142801D02*
X0142200Y0142801D01*
X0142200Y0143473D02*
X0146016Y0143473D01*
X0146016Y0144145D02*
X0142200Y0144145D01*
X0154165Y0144522D02*
X0154165Y0140706D01*
X0150349Y0140706D01*
X0150349Y0144522D01*
X0154165Y0144522D01*
X0154165Y0141378D02*
X0150349Y0141378D01*
X0150349Y0142050D02*
X0154165Y0142050D01*
X0154165Y0142722D02*
X0150349Y0142722D01*
X0150349Y0143394D02*
X0154165Y0143394D01*
X0154165Y0144066D02*
X0150349Y0144066D01*
X0132512Y0144522D02*
X0132512Y0140706D01*
X0128696Y0140706D01*
X0128696Y0144522D01*
X0132512Y0144522D01*
X0132512Y0141378D02*
X0128696Y0141378D01*
X0128696Y0142050D02*
X0132512Y0142050D01*
X0132512Y0142722D02*
X0128696Y0142722D01*
X0128696Y0143394D02*
X0132512Y0143394D01*
X0132512Y0144066D02*
X0128696Y0144066D01*
X0132512Y0138814D02*
X0132512Y0134998D01*
X0128696Y0134998D01*
X0128696Y0138814D01*
X0132512Y0138814D01*
X0132512Y0135670D02*
X0128696Y0135670D01*
X0128696Y0136342D02*
X0132512Y0136342D01*
X0132512Y0137014D02*
X0128696Y0137014D01*
X0128696Y0137686D02*
X0132512Y0137686D01*
X0132512Y0138358D02*
X0128696Y0138358D01*
X0169857Y0141747D02*
X0173673Y0141747D01*
X0173673Y0137931D01*
X0169857Y0137931D01*
X0169857Y0141747D01*
X0169857Y0138603D02*
X0173673Y0138603D01*
X0173673Y0139275D02*
X0169857Y0139275D01*
X0169857Y0139947D02*
X0173673Y0139947D01*
X0173673Y0140619D02*
X0169857Y0140619D01*
X0169857Y0141291D02*
X0173673Y0141291D01*
X0175566Y0141747D02*
X0179382Y0141747D01*
X0179382Y0137931D01*
X0175566Y0137931D01*
X0175566Y0141747D01*
X0175566Y0138603D02*
X0179382Y0138603D01*
X0179382Y0139275D02*
X0175566Y0139275D01*
X0175566Y0139947D02*
X0179382Y0139947D01*
X0179382Y0140619D02*
X0175566Y0140619D01*
X0175566Y0141291D02*
X0179382Y0141291D01*
D13*
X0247582Y0117691D02*
X0247582Y0112773D01*
X0242264Y0112773D01*
X0242264Y0117691D01*
X0247582Y0117691D01*
X0247582Y0113640D02*
X0242264Y0113640D01*
X0242264Y0114507D02*
X0247582Y0114507D01*
X0247582Y0115374D02*
X0242264Y0115374D01*
X0242264Y0116241D02*
X0247582Y0116241D01*
X0247582Y0117108D02*
X0242264Y0117108D01*
X0256582Y0117691D02*
X0256582Y0112773D01*
X0251264Y0112773D01*
X0251264Y0117691D01*
X0256582Y0117691D01*
X0256582Y0113640D02*
X0251264Y0113640D01*
X0251264Y0114507D02*
X0256582Y0114507D01*
X0256582Y0115374D02*
X0251264Y0115374D01*
X0251264Y0116241D02*
X0256582Y0116241D01*
X0256582Y0117108D02*
X0251264Y0117108D01*
X0271204Y0117691D02*
X0271204Y0112773D01*
X0265886Y0112773D01*
X0265886Y0117691D01*
X0271204Y0117691D01*
X0271204Y0113640D02*
X0265886Y0113640D01*
X0265886Y0114507D02*
X0271204Y0114507D01*
X0271204Y0115374D02*
X0265886Y0115374D01*
X0265886Y0116241D02*
X0271204Y0116241D01*
X0271204Y0117108D02*
X0265886Y0117108D01*
X0280204Y0117691D02*
X0280204Y0112773D01*
X0274886Y0112773D01*
X0274886Y0117691D01*
X0280204Y0117691D01*
X0280204Y0113640D02*
X0274886Y0113640D01*
X0274886Y0114507D02*
X0280204Y0114507D01*
X0280204Y0115374D02*
X0274886Y0115374D01*
X0274886Y0116241D02*
X0280204Y0116241D01*
X0280204Y0117108D02*
X0274886Y0117108D01*
X0280204Y0105880D02*
X0280204Y0100962D01*
X0274886Y0100962D01*
X0274886Y0105880D01*
X0280204Y0105880D01*
X0280204Y0101829D02*
X0274886Y0101829D01*
X0274886Y0102696D02*
X0280204Y0102696D01*
X0280204Y0103563D02*
X0274886Y0103563D01*
X0274886Y0104430D02*
X0280204Y0104430D01*
X0280204Y0105297D02*
X0274886Y0105297D01*
X0271204Y0105880D02*
X0271204Y0100962D01*
X0265886Y0100962D01*
X0265886Y0105880D01*
X0271204Y0105880D01*
X0271204Y0101829D02*
X0265886Y0101829D01*
X0265886Y0102696D02*
X0271204Y0102696D01*
X0271204Y0103563D02*
X0265886Y0103563D01*
X0265886Y0104430D02*
X0271204Y0104430D01*
X0271204Y0105297D02*
X0265886Y0105297D01*
X0251264Y0105880D02*
X0251264Y0100962D01*
X0251264Y0105880D02*
X0256582Y0105880D01*
X0256582Y0100962D01*
X0251264Y0100962D01*
X0251264Y0101829D02*
X0256582Y0101829D01*
X0256582Y0102696D02*
X0251264Y0102696D01*
X0251264Y0103563D02*
X0256582Y0103563D01*
X0256582Y0104430D02*
X0251264Y0104430D01*
X0251264Y0105297D02*
X0256582Y0105297D01*
X0242264Y0105880D02*
X0242264Y0100962D01*
X0242264Y0105880D02*
X0247582Y0105880D01*
X0247582Y0100962D01*
X0242264Y0100962D01*
X0242264Y0101829D02*
X0247582Y0101829D01*
X0247582Y0102696D02*
X0242264Y0102696D01*
X0242264Y0103563D02*
X0247582Y0103563D01*
X0247582Y0104430D02*
X0242264Y0104430D01*
X0242264Y0105297D02*
X0247582Y0105297D01*
X0247582Y0094069D02*
X0247582Y0089151D01*
X0242264Y0089151D01*
X0242264Y0094069D01*
X0247582Y0094069D01*
X0247582Y0090018D02*
X0242264Y0090018D01*
X0242264Y0090885D02*
X0247582Y0090885D01*
X0247582Y0091752D02*
X0242264Y0091752D01*
X0242264Y0092619D02*
X0247582Y0092619D01*
X0247582Y0093486D02*
X0242264Y0093486D01*
X0256582Y0094069D02*
X0256582Y0089151D01*
X0251264Y0089151D01*
X0251264Y0094069D01*
X0256582Y0094069D01*
X0256582Y0090018D02*
X0251264Y0090018D01*
X0251264Y0090885D02*
X0256582Y0090885D01*
X0256582Y0091752D02*
X0251264Y0091752D01*
X0251264Y0092619D02*
X0256582Y0092619D01*
X0256582Y0093486D02*
X0251264Y0093486D01*
X0139059Y0046825D02*
X0139059Y0041907D01*
X0139059Y0046825D02*
X0144377Y0046825D01*
X0144377Y0041907D01*
X0139059Y0041907D01*
X0139059Y0042774D02*
X0144377Y0042774D01*
X0144377Y0043641D02*
X0139059Y0043641D01*
X0139059Y0044508D02*
X0144377Y0044508D01*
X0144377Y0045375D02*
X0139059Y0045375D01*
X0139059Y0046242D02*
X0144377Y0046242D01*
X0130059Y0046825D02*
X0130059Y0041907D01*
X0130059Y0046825D02*
X0135377Y0046825D01*
X0135377Y0041907D01*
X0130059Y0041907D01*
X0130059Y0042774D02*
X0135377Y0042774D01*
X0135377Y0043641D02*
X0130059Y0043641D01*
X0130059Y0044508D02*
X0135377Y0044508D01*
X0135377Y0045375D02*
X0130059Y0045375D01*
X0130059Y0046242D02*
X0135377Y0046242D01*
X0123929Y0040302D02*
X0119011Y0040302D01*
X0119011Y0045620D01*
X0123929Y0045620D01*
X0123929Y0040302D01*
X0123929Y0041169D02*
X0119011Y0041169D01*
X0119011Y0042036D02*
X0123929Y0042036D01*
X0123929Y0042903D02*
X0119011Y0042903D01*
X0119011Y0043770D02*
X0123929Y0043770D01*
X0123929Y0044637D02*
X0119011Y0044637D01*
X0119011Y0045504D02*
X0123929Y0045504D01*
X0123929Y0031302D02*
X0119011Y0031302D01*
X0119011Y0036620D01*
X0123929Y0036620D01*
X0123929Y0031302D01*
X0123929Y0032169D02*
X0119011Y0032169D01*
X0119011Y0033036D02*
X0123929Y0033036D01*
X0123929Y0033903D02*
X0119011Y0033903D01*
X0119011Y0034770D02*
X0123929Y0034770D01*
X0123929Y0035637D02*
X0119011Y0035637D01*
X0119011Y0036504D02*
X0123929Y0036504D01*
X0130059Y0035014D02*
X0130059Y0030096D01*
X0130059Y0035014D02*
X0135377Y0035014D01*
X0135377Y0030096D01*
X0130059Y0030096D01*
X0130059Y0030963D02*
X0135377Y0030963D01*
X0135377Y0031830D02*
X0130059Y0031830D01*
X0130059Y0032697D02*
X0135377Y0032697D01*
X0135377Y0033564D02*
X0130059Y0033564D01*
X0130059Y0034431D02*
X0135377Y0034431D01*
X0139059Y0035014D02*
X0139059Y0030096D01*
X0139059Y0035014D02*
X0144377Y0035014D01*
X0144377Y0030096D01*
X0139059Y0030096D01*
X0139059Y0030963D02*
X0144377Y0030963D01*
X0144377Y0031830D02*
X0139059Y0031830D01*
X0139059Y0032697D02*
X0144377Y0032697D01*
X0144377Y0033564D02*
X0139059Y0033564D01*
X0139059Y0034431D02*
X0144377Y0034431D01*
D14*
X0151726Y0035961D02*
X0151726Y0029937D01*
X0151726Y0035961D02*
X0162080Y0035961D01*
X0162080Y0029937D01*
X0151726Y0029937D01*
X0151726Y0030999D02*
X0162080Y0030999D01*
X0162080Y0032061D02*
X0151726Y0032061D01*
X0151726Y0033123D02*
X0162080Y0033123D01*
X0162080Y0034185D02*
X0151726Y0034185D01*
X0151726Y0035247D02*
X0162080Y0035247D01*
X0151726Y0040960D02*
X0151726Y0046984D01*
X0162080Y0046984D01*
X0162080Y0040960D01*
X0151726Y0040960D01*
X0151726Y0042022D02*
X0162080Y0042022D01*
X0162080Y0043084D02*
X0151726Y0043084D01*
X0151726Y0044146D02*
X0162080Y0044146D01*
X0162080Y0045208D02*
X0151726Y0045208D01*
X0151726Y0046270D02*
X0162080Y0046270D01*
D15*
X0067100Y0048205D03*
X0057100Y0053205D03*
X0067100Y0058205D03*
X0057100Y0063205D03*
X0067100Y0068205D03*
X0057100Y0073205D03*
X0067100Y0098205D03*
X0057100Y0103205D03*
X0067100Y0108205D03*
X0057100Y0113205D03*
X0067100Y0118205D03*
X0057100Y0123205D03*
X0067100Y0128205D03*
X0057100Y0133205D03*
X0057100Y0043205D03*
X0067100Y0038205D03*
D16*
X0032100Y0033205D03*
X0032100Y0078205D03*
X0032100Y0093205D03*
X0032100Y0138205D03*
D17*
X0102108Y0068001D02*
X0111620Y0068001D01*
X0111620Y0064787D01*
X0102108Y0064787D01*
X0102108Y0068001D01*
X0102108Y0065353D02*
X0111620Y0065353D01*
X0111620Y0065919D02*
X0102108Y0065919D01*
X0102108Y0066485D02*
X0111620Y0066485D01*
X0111620Y0067051D02*
X0102108Y0067051D01*
X0102108Y0067617D02*
X0111620Y0067617D01*
X0245060Y0068690D02*
X0250636Y0068690D01*
X0250636Y0065476D01*
X0245060Y0065476D01*
X0245060Y0068690D01*
X0245060Y0066042D02*
X0250636Y0066042D01*
X0250636Y0066608D02*
X0245060Y0066608D01*
X0245060Y0067174D02*
X0250636Y0067174D01*
X0250636Y0067740D02*
X0245060Y0067740D01*
X0245060Y0068306D02*
X0250636Y0068306D01*
X0271438Y0068690D02*
X0277014Y0068690D01*
X0277014Y0065476D01*
X0271438Y0065476D01*
X0271438Y0068690D01*
X0271438Y0066042D02*
X0277014Y0066042D01*
X0277014Y0066608D02*
X0271438Y0066608D01*
X0271438Y0067174D02*
X0277014Y0067174D01*
X0277014Y0067740D02*
X0271438Y0067740D01*
X0271438Y0068306D02*
X0277014Y0068306D01*
X0277014Y0058690D02*
X0271438Y0058690D01*
X0277014Y0058690D02*
X0277014Y0055476D01*
X0271438Y0055476D01*
X0271438Y0058690D01*
X0271438Y0056042D02*
X0277014Y0056042D01*
X0277014Y0056608D02*
X0271438Y0056608D01*
X0271438Y0057174D02*
X0277014Y0057174D01*
X0277014Y0057740D02*
X0271438Y0057740D01*
X0271438Y0058306D02*
X0277014Y0058306D01*
X0277408Y0043822D02*
X0271832Y0043822D01*
X0271832Y0047036D01*
X0277408Y0047036D01*
X0277408Y0043822D01*
X0277408Y0044388D02*
X0271832Y0044388D01*
X0271832Y0044954D02*
X0277408Y0044954D01*
X0277408Y0045520D02*
X0271832Y0045520D01*
X0271832Y0046086D02*
X0277408Y0046086D01*
X0277408Y0046652D02*
X0271832Y0046652D01*
X0251030Y0043822D02*
X0245454Y0043822D01*
X0245454Y0047036D01*
X0251030Y0047036D01*
X0251030Y0043822D01*
X0251030Y0044388D02*
X0245454Y0044388D01*
X0245454Y0044954D02*
X0251030Y0044954D01*
X0251030Y0045520D02*
X0245454Y0045520D01*
X0245454Y0046086D02*
X0251030Y0046086D01*
X0251030Y0046652D02*
X0245454Y0046652D01*
X0245060Y0058690D02*
X0250636Y0058690D01*
X0250636Y0055476D01*
X0245060Y0055476D01*
X0245060Y0058690D01*
X0245060Y0056042D02*
X0250636Y0056042D01*
X0250636Y0056608D02*
X0245060Y0056608D01*
X0245060Y0057174D02*
X0250636Y0057174D01*
X0250636Y0057740D02*
X0245060Y0057740D01*
X0245060Y0058306D02*
X0250636Y0058306D01*
X0251030Y0033822D02*
X0245454Y0033822D01*
X0245454Y0037036D01*
X0251030Y0037036D01*
X0251030Y0033822D01*
X0251030Y0034388D02*
X0245454Y0034388D01*
X0245454Y0034954D02*
X0251030Y0034954D01*
X0251030Y0035520D02*
X0245454Y0035520D01*
X0245454Y0036086D02*
X0251030Y0036086D01*
X0251030Y0036652D02*
X0245454Y0036652D01*
X0271832Y0033822D02*
X0277408Y0033822D01*
X0271832Y0033822D02*
X0271832Y0037036D01*
X0277408Y0037036D01*
X0277408Y0033822D01*
X0277408Y0034388D02*
X0271832Y0034388D01*
X0271832Y0034954D02*
X0277408Y0034954D01*
X0277408Y0035520D02*
X0271832Y0035520D01*
X0271832Y0036086D02*
X0277408Y0036086D01*
X0277408Y0036652D02*
X0271832Y0036652D01*
D18*
X0110013Y0071394D02*
X0103715Y0071394D01*
X0103715Y0076394D02*
X0110013Y0076394D01*
X0110013Y0081394D02*
X0103715Y0081394D01*
X0090013Y0081394D02*
X0083715Y0081394D01*
X0083715Y0076394D02*
X0090013Y0076394D01*
X0090013Y0071394D02*
X0083715Y0071394D01*
X0083715Y0066394D02*
X0090013Y0066394D01*
D19*
X0148596Y0064603D02*
X0148596Y0075311D01*
X0152612Y0075311D01*
X0152612Y0064603D01*
X0148596Y0064603D01*
X0148596Y0065311D02*
X0152612Y0065311D01*
X0152612Y0066019D02*
X0148596Y0066019D01*
X0148596Y0066727D02*
X0152612Y0066727D01*
X0152612Y0067435D02*
X0148596Y0067435D01*
X0148596Y0068143D02*
X0152612Y0068143D01*
X0152612Y0068851D02*
X0148596Y0068851D01*
X0148596Y0069559D02*
X0152612Y0069559D01*
X0152612Y0070267D02*
X0148596Y0070267D01*
X0148596Y0070975D02*
X0152612Y0070975D01*
X0152612Y0071683D02*
X0148596Y0071683D01*
X0148596Y0072391D02*
X0152612Y0072391D01*
X0152612Y0073099D02*
X0148596Y0073099D01*
X0148596Y0073807D02*
X0152612Y0073807D01*
X0152612Y0074515D02*
X0148596Y0074515D01*
X0148596Y0075223D02*
X0152612Y0075223D01*
X0157257Y0075311D02*
X0157257Y0064603D01*
X0157257Y0075311D02*
X0161273Y0075311D01*
X0161273Y0064603D01*
X0157257Y0064603D01*
X0157257Y0065311D02*
X0161273Y0065311D01*
X0161273Y0066019D02*
X0157257Y0066019D01*
X0157257Y0066727D02*
X0161273Y0066727D01*
X0161273Y0067435D02*
X0157257Y0067435D01*
X0157257Y0068143D02*
X0161273Y0068143D01*
X0161273Y0068851D02*
X0157257Y0068851D01*
X0157257Y0069559D02*
X0161273Y0069559D01*
X0161273Y0070267D02*
X0157257Y0070267D01*
X0157257Y0070975D02*
X0161273Y0070975D01*
X0161273Y0071683D02*
X0157257Y0071683D01*
X0157257Y0072391D02*
X0161273Y0072391D01*
X0161273Y0073099D02*
X0157257Y0073099D01*
X0157257Y0073807D02*
X0161273Y0073807D01*
X0161273Y0074515D02*
X0157257Y0074515D01*
X0157257Y0075223D02*
X0161273Y0075223D01*
X0231864Y0127792D02*
X0235880Y0127792D01*
X0231864Y0127792D02*
X0231864Y0133382D01*
X0235880Y0133382D01*
X0235880Y0127792D01*
X0235880Y0128500D02*
X0231864Y0128500D01*
X0231864Y0129208D02*
X0235880Y0129208D01*
X0235880Y0129916D02*
X0231864Y0129916D01*
X0231864Y0130624D02*
X0235880Y0130624D01*
X0235880Y0131332D02*
X0231864Y0131332D01*
X0231864Y0132040D02*
X0235880Y0132040D01*
X0235880Y0132748D02*
X0231864Y0132748D01*
X0239344Y0127792D02*
X0243360Y0127792D01*
X0239344Y0127792D02*
X0239344Y0133382D01*
X0243360Y0133382D01*
X0243360Y0127792D01*
X0243360Y0128500D02*
X0239344Y0128500D01*
X0239344Y0129208D02*
X0243360Y0129208D01*
X0243360Y0129916D02*
X0239344Y0129916D01*
X0239344Y0130624D02*
X0243360Y0130624D01*
X0243360Y0131332D02*
X0239344Y0131332D01*
X0239344Y0132040D02*
X0243360Y0132040D01*
X0243360Y0132748D02*
X0239344Y0132748D01*
X0247612Y0127792D02*
X0251628Y0127792D01*
X0247612Y0127792D02*
X0247612Y0133382D01*
X0251628Y0133382D01*
X0251628Y0127792D01*
X0251628Y0128500D02*
X0247612Y0128500D01*
X0247612Y0129208D02*
X0251628Y0129208D01*
X0251628Y0129916D02*
X0247612Y0129916D01*
X0247612Y0130624D02*
X0251628Y0130624D01*
X0251628Y0131332D02*
X0247612Y0131332D01*
X0247612Y0132040D02*
X0251628Y0132040D01*
X0251628Y0132748D02*
X0247612Y0132748D01*
X0255092Y0127792D02*
X0259108Y0127792D01*
X0255092Y0127792D02*
X0255092Y0133382D01*
X0259108Y0133382D01*
X0259108Y0127792D01*
X0259108Y0128500D02*
X0255092Y0128500D01*
X0255092Y0129208D02*
X0259108Y0129208D01*
X0259108Y0129916D02*
X0255092Y0129916D01*
X0255092Y0130624D02*
X0259108Y0130624D01*
X0259108Y0131332D02*
X0255092Y0131332D01*
X0255092Y0132040D02*
X0259108Y0132040D01*
X0259108Y0132748D02*
X0255092Y0132748D01*
X0255368Y0136453D02*
X0251352Y0136453D01*
X0251352Y0142043D01*
X0255368Y0142043D01*
X0255368Y0136453D01*
X0255368Y0137161D02*
X0251352Y0137161D01*
X0251352Y0137869D02*
X0255368Y0137869D01*
X0255368Y0138577D02*
X0251352Y0138577D01*
X0251352Y0139285D02*
X0255368Y0139285D01*
X0255368Y0139993D02*
X0251352Y0139993D01*
X0251352Y0140701D02*
X0255368Y0140701D01*
X0255368Y0141409D02*
X0251352Y0141409D01*
X0239620Y0136453D02*
X0235604Y0136453D01*
X0235604Y0142043D01*
X0239620Y0142043D01*
X0239620Y0136453D01*
X0239620Y0137161D02*
X0235604Y0137161D01*
X0235604Y0137869D02*
X0239620Y0137869D01*
X0239620Y0138577D02*
X0235604Y0138577D01*
X0235604Y0139285D02*
X0239620Y0139285D01*
X0239620Y0139993D02*
X0235604Y0139993D01*
X0235604Y0140701D02*
X0239620Y0140701D01*
X0239620Y0141409D02*
X0235604Y0141409D01*
X0263360Y0142043D02*
X0267376Y0142043D01*
X0267376Y0136453D01*
X0263360Y0136453D01*
X0263360Y0142043D01*
X0263360Y0137161D02*
X0267376Y0137161D01*
X0267376Y0137869D02*
X0263360Y0137869D01*
X0263360Y0138577D02*
X0267376Y0138577D01*
X0267376Y0139285D02*
X0263360Y0139285D01*
X0263360Y0139993D02*
X0267376Y0139993D01*
X0267376Y0140701D02*
X0263360Y0140701D01*
X0263360Y0141409D02*
X0267376Y0141409D01*
X0270840Y0142043D02*
X0274856Y0142043D01*
X0274856Y0136453D01*
X0270840Y0136453D01*
X0270840Y0142043D01*
X0270840Y0137161D02*
X0274856Y0137161D01*
X0274856Y0137869D02*
X0270840Y0137869D01*
X0270840Y0138577D02*
X0274856Y0138577D01*
X0274856Y0139285D02*
X0270840Y0139285D01*
X0270840Y0139993D02*
X0274856Y0139993D01*
X0274856Y0140701D02*
X0270840Y0140701D01*
X0270840Y0141409D02*
X0274856Y0141409D01*
X0271116Y0133382D02*
X0267100Y0133382D01*
X0271116Y0133382D02*
X0271116Y0127792D01*
X0267100Y0127792D01*
X0267100Y0133382D01*
X0267100Y0128500D02*
X0271116Y0128500D01*
X0271116Y0129208D02*
X0267100Y0129208D01*
X0267100Y0129916D02*
X0271116Y0129916D01*
X0271116Y0130624D02*
X0267100Y0130624D01*
X0267100Y0131332D02*
X0271116Y0131332D01*
X0271116Y0132040D02*
X0267100Y0132040D01*
X0267100Y0132748D02*
X0271116Y0132748D01*
D20*
X0323045Y0095547D03*
X0323045Y0075862D03*
D21*
X0310108Y0110469D02*
X0305360Y0110469D01*
X0305360Y0119217D01*
X0310108Y0119217D01*
X0310108Y0110469D01*
X0310108Y0111306D02*
X0305360Y0111306D01*
X0305360Y0112143D02*
X0310108Y0112143D01*
X0310108Y0112980D02*
X0305360Y0112980D01*
X0305360Y0113817D02*
X0310108Y0113817D01*
X0310108Y0114654D02*
X0305360Y0114654D01*
X0305360Y0115491D02*
X0310108Y0115491D01*
X0310108Y0116328D02*
X0305360Y0116328D01*
X0305360Y0117165D02*
X0310108Y0117165D01*
X0310108Y0118002D02*
X0305360Y0118002D01*
X0305360Y0118839D02*
X0310108Y0118839D01*
X0301009Y0110469D02*
X0296261Y0110469D01*
X0296261Y0119217D01*
X0301009Y0119217D01*
X0301009Y0110469D01*
X0301009Y0111306D02*
X0296261Y0111306D01*
X0296261Y0112143D02*
X0301009Y0112143D01*
X0301009Y0112980D02*
X0296261Y0112980D01*
X0296261Y0113817D02*
X0301009Y0113817D01*
X0301009Y0114654D02*
X0296261Y0114654D01*
X0296261Y0115491D02*
X0301009Y0115491D01*
X0301009Y0116328D02*
X0296261Y0116328D01*
X0296261Y0117165D02*
X0301009Y0117165D01*
X0301009Y0118002D02*
X0296261Y0118002D01*
X0296261Y0118839D02*
X0301009Y0118839D01*
X0291911Y0110469D02*
X0287163Y0110469D01*
X0287163Y0119217D01*
X0291911Y0119217D01*
X0291911Y0110469D01*
X0291911Y0111306D02*
X0287163Y0111306D01*
X0287163Y0112143D02*
X0291911Y0112143D01*
X0291911Y0112980D02*
X0287163Y0112980D01*
X0287163Y0113817D02*
X0291911Y0113817D01*
X0291911Y0114654D02*
X0287163Y0114654D01*
X0287163Y0115491D02*
X0291911Y0115491D01*
X0291911Y0116328D02*
X0287163Y0116328D01*
X0287163Y0117165D02*
X0291911Y0117165D01*
X0291911Y0118002D02*
X0287163Y0118002D01*
X0287163Y0118839D02*
X0291911Y0118839D01*
D22*
X0291863Y0135228D02*
X0305407Y0135228D01*
X0291863Y0135228D02*
X0291863Y0143260D01*
X0305407Y0143260D01*
X0305407Y0135228D01*
X0305407Y0136644D02*
X0291863Y0136644D01*
X0291863Y0138060D02*
X0305407Y0138060D01*
X0305407Y0139476D02*
X0291863Y0139476D01*
X0291863Y0140892D02*
X0305407Y0140892D01*
X0305407Y0142308D02*
X0291863Y0142308D01*
D23*
X0320702Y0136708D02*
X0325388Y0136708D01*
X0320702Y0136708D02*
X0320702Y0141394D01*
X0325388Y0141394D01*
X0325388Y0136708D01*
X0325388Y0137534D02*
X0320702Y0137534D01*
X0320702Y0138360D02*
X0325388Y0138360D01*
X0325388Y0139186D02*
X0320702Y0139186D01*
X0320702Y0140012D02*
X0325388Y0140012D01*
X0325388Y0140838D02*
X0320702Y0140838D01*
X0330938Y0136708D02*
X0335624Y0136708D01*
X0330938Y0136708D02*
X0330938Y0141394D01*
X0335624Y0141394D01*
X0335624Y0136708D01*
X0335624Y0137534D02*
X0330938Y0137534D01*
X0330938Y0138360D02*
X0335624Y0138360D01*
X0335624Y0139186D02*
X0330938Y0139186D01*
X0330938Y0140012D02*
X0335624Y0140012D01*
X0335624Y0140838D02*
X0330938Y0140838D01*
X0330938Y0117378D02*
X0335624Y0117378D01*
X0335624Y0112692D01*
X0330938Y0112692D01*
X0330938Y0117378D01*
X0330938Y0113518D02*
X0335624Y0113518D01*
X0335624Y0114344D02*
X0330938Y0114344D01*
X0330938Y0115170D02*
X0335624Y0115170D01*
X0335624Y0115996D02*
X0330938Y0115996D01*
X0330938Y0116822D02*
X0335624Y0116822D01*
X0325388Y0117378D02*
X0320702Y0117378D01*
X0325388Y0117378D02*
X0325388Y0112692D01*
X0320702Y0112692D01*
X0320702Y0117378D01*
X0320702Y0113518D02*
X0325388Y0113518D01*
X0325388Y0114344D02*
X0320702Y0114344D01*
X0320702Y0115170D02*
X0325388Y0115170D01*
X0325388Y0115996D02*
X0320702Y0115996D01*
X0320702Y0116822D02*
X0325388Y0116822D01*
X0197080Y0137496D02*
X0197080Y0142182D01*
X0201766Y0142182D01*
X0201766Y0137496D01*
X0197080Y0137496D01*
X0197080Y0138322D02*
X0201766Y0138322D01*
X0201766Y0139148D02*
X0197080Y0139148D01*
X0197080Y0139974D02*
X0201766Y0139974D01*
X0201766Y0140800D02*
X0197080Y0140800D01*
X0197080Y0141626D02*
X0201766Y0141626D01*
X0188812Y0142182D02*
X0188812Y0137496D01*
X0188812Y0142182D02*
X0193498Y0142182D01*
X0193498Y0137496D01*
X0188812Y0137496D01*
X0188812Y0138322D02*
X0193498Y0138322D01*
X0193498Y0139148D02*
X0188812Y0139148D01*
X0188812Y0139974D02*
X0193498Y0139974D01*
X0193498Y0140800D02*
X0188812Y0140800D01*
X0188812Y0141626D02*
X0193498Y0141626D01*
D24*
X0130954Y0079440D02*
X0127340Y0079440D01*
X0130954Y0079440D02*
X0130954Y0074252D01*
X0127340Y0074252D01*
X0127340Y0079440D01*
X0127340Y0074889D02*
X0130954Y0074889D01*
X0130954Y0075526D02*
X0127340Y0075526D01*
X0127340Y0076163D02*
X0130954Y0076163D01*
X0130954Y0076800D02*
X0127340Y0076800D01*
X0127340Y0077437D02*
X0130954Y0077437D01*
X0130954Y0078074D02*
X0127340Y0078074D01*
X0127340Y0078711D02*
X0130954Y0078711D01*
X0130954Y0079348D02*
X0127340Y0079348D01*
X0123474Y0079440D02*
X0119860Y0079440D01*
X0123474Y0079440D02*
X0123474Y0074252D01*
X0119860Y0074252D01*
X0119860Y0079440D01*
X0119860Y0074889D02*
X0123474Y0074889D01*
X0123474Y0075526D02*
X0119860Y0075526D01*
X0119860Y0076163D02*
X0123474Y0076163D01*
X0123474Y0076800D02*
X0119860Y0076800D01*
X0119860Y0077437D02*
X0123474Y0077437D01*
X0123474Y0078074D02*
X0119860Y0078074D01*
X0119860Y0078711D02*
X0123474Y0078711D01*
X0123474Y0079348D02*
X0119860Y0079348D01*
X0147813Y0062630D02*
X0147813Y0059016D01*
X0147813Y0062630D02*
X0153001Y0062630D01*
X0153001Y0059016D01*
X0147813Y0059016D01*
X0147813Y0059653D02*
X0153001Y0059653D01*
X0153001Y0060290D02*
X0147813Y0060290D01*
X0147813Y0060927D02*
X0153001Y0060927D01*
X0153001Y0061564D02*
X0147813Y0061564D01*
X0147813Y0062201D02*
X0153001Y0062201D01*
X0147813Y0055150D02*
X0147813Y0051536D01*
X0147813Y0055150D02*
X0153001Y0055150D01*
X0153001Y0051536D01*
X0147813Y0051536D01*
X0147813Y0052173D02*
X0153001Y0052173D01*
X0153001Y0052810D02*
X0147813Y0052810D01*
X0147813Y0053447D02*
X0153001Y0053447D01*
X0153001Y0054084D02*
X0147813Y0054084D01*
X0147813Y0054721D02*
X0153001Y0054721D01*
D25*
X0097484Y0097880D02*
X0088370Y0097880D01*
X0088370Y0104238D01*
X0097484Y0104238D01*
X0097484Y0097880D01*
X0097484Y0099001D02*
X0088370Y0099001D01*
X0088370Y0100122D02*
X0097484Y0100122D01*
X0097484Y0101243D02*
X0088370Y0101243D01*
X0088370Y0102364D02*
X0097484Y0102364D01*
X0097484Y0103485D02*
X0088370Y0103485D01*
X0088370Y0112447D02*
X0097484Y0112447D01*
X0088370Y0112447D02*
X0088370Y0118805D01*
X0097484Y0118805D01*
X0097484Y0112447D01*
X0097484Y0113568D02*
X0088370Y0113568D01*
X0088370Y0114689D02*
X0097484Y0114689D01*
X0097484Y0115810D02*
X0088370Y0115810D01*
X0088370Y0116931D02*
X0097484Y0116931D01*
X0097484Y0118052D02*
X0088370Y0118052D01*
D26*
X0108572Y0117649D02*
X0108572Y0118721D01*
X0112714Y0118721D01*
X0112714Y0117649D01*
X0108572Y0117649D01*
X0108572Y0117837D02*
X0112714Y0117837D01*
X0112714Y0118025D02*
X0108572Y0118025D01*
X0108572Y0118213D02*
X0112714Y0118213D01*
X0112714Y0118401D02*
X0108572Y0118401D01*
X0108572Y0118589D02*
X0112714Y0118589D01*
X0108572Y0119618D02*
X0108572Y0120690D01*
X0112714Y0120690D01*
X0112714Y0119618D01*
X0108572Y0119618D01*
X0108572Y0119806D02*
X0112714Y0119806D01*
X0112714Y0119994D02*
X0108572Y0119994D01*
X0108572Y0120182D02*
X0112714Y0120182D01*
X0112714Y0120370D02*
X0108572Y0120370D01*
X0108572Y0120558D02*
X0112714Y0120558D01*
X0108572Y0121586D02*
X0108572Y0122658D01*
X0112714Y0122658D01*
X0112714Y0121586D01*
X0108572Y0121586D01*
X0108572Y0121774D02*
X0112714Y0121774D01*
X0112714Y0121962D02*
X0108572Y0121962D01*
X0108572Y0122150D02*
X0112714Y0122150D01*
X0112714Y0122338D02*
X0108572Y0122338D01*
X0108572Y0122526D02*
X0112714Y0122526D01*
X0108572Y0116753D02*
X0108572Y0115681D01*
X0108572Y0116753D02*
X0112714Y0116753D01*
X0112714Y0115681D01*
X0108572Y0115681D01*
X0108572Y0115869D02*
X0112714Y0115869D01*
X0112714Y0116057D02*
X0108572Y0116057D01*
X0108572Y0116245D02*
X0112714Y0116245D01*
X0112714Y0116433D02*
X0108572Y0116433D01*
X0108572Y0116621D02*
X0112714Y0116621D01*
X0108572Y0114784D02*
X0108572Y0113712D01*
X0108572Y0114784D02*
X0112714Y0114784D01*
X0112714Y0113712D01*
X0108572Y0113712D01*
X0108572Y0113900D02*
X0112714Y0113900D01*
X0112714Y0114088D02*
X0108572Y0114088D01*
X0108572Y0114276D02*
X0112714Y0114276D01*
X0112714Y0114464D02*
X0108572Y0114464D01*
X0108572Y0114652D02*
X0112714Y0114652D01*
X0108572Y0112816D02*
X0108572Y0111744D01*
X0108572Y0112816D02*
X0112714Y0112816D01*
X0112714Y0111744D01*
X0108572Y0111744D01*
X0108572Y0111932D02*
X0112714Y0111932D01*
X0112714Y0112120D02*
X0108572Y0112120D01*
X0108572Y0112308D02*
X0112714Y0112308D01*
X0112714Y0112496D02*
X0108572Y0112496D01*
X0108572Y0112684D02*
X0112714Y0112684D01*
X0108572Y0110847D02*
X0108572Y0109775D01*
X0108572Y0110847D02*
X0112714Y0110847D01*
X0112714Y0109775D01*
X0108572Y0109775D01*
X0108572Y0109963D02*
X0112714Y0109963D01*
X0112714Y0110151D02*
X0108572Y0110151D01*
X0108572Y0110339D02*
X0112714Y0110339D01*
X0112714Y0110527D02*
X0108572Y0110527D01*
X0108572Y0110715D02*
X0112714Y0110715D01*
X0108572Y0108879D02*
X0108572Y0107807D01*
X0108572Y0108879D02*
X0112714Y0108879D01*
X0112714Y0107807D01*
X0108572Y0107807D01*
X0108572Y0107995D02*
X0112714Y0107995D01*
X0112714Y0108183D02*
X0108572Y0108183D01*
X0108572Y0108371D02*
X0112714Y0108371D01*
X0112714Y0108559D02*
X0108572Y0108559D01*
X0108572Y0108747D02*
X0112714Y0108747D01*
X0108572Y0106910D02*
X0108572Y0105838D01*
X0108572Y0106910D02*
X0112714Y0106910D01*
X0112714Y0105838D01*
X0108572Y0105838D01*
X0108572Y0106026D02*
X0112714Y0106026D01*
X0112714Y0106214D02*
X0108572Y0106214D01*
X0108572Y0106402D02*
X0112714Y0106402D01*
X0112714Y0106590D02*
X0108572Y0106590D01*
X0108572Y0106778D02*
X0112714Y0106778D01*
X0108572Y0104942D02*
X0108572Y0103870D01*
X0108572Y0104942D02*
X0112714Y0104942D01*
X0112714Y0103870D01*
X0108572Y0103870D01*
X0108572Y0104058D02*
X0112714Y0104058D01*
X0112714Y0104246D02*
X0108572Y0104246D01*
X0108572Y0104434D02*
X0112714Y0104434D01*
X0112714Y0104622D02*
X0108572Y0104622D01*
X0108572Y0104810D02*
X0112714Y0104810D01*
X0108572Y0102973D02*
X0108572Y0101901D01*
X0108572Y0102973D02*
X0112714Y0102973D01*
X0112714Y0101901D01*
X0108572Y0101901D01*
X0108572Y0102089D02*
X0112714Y0102089D01*
X0112714Y0102277D02*
X0108572Y0102277D01*
X0108572Y0102465D02*
X0112714Y0102465D01*
X0112714Y0102653D02*
X0108572Y0102653D01*
X0108572Y0102841D02*
X0112714Y0102841D01*
X0108572Y0101005D02*
X0108572Y0099933D01*
X0108572Y0101005D02*
X0112714Y0101005D01*
X0112714Y0099933D01*
X0108572Y0099933D01*
X0108572Y0100121D02*
X0112714Y0100121D01*
X0112714Y0100309D02*
X0108572Y0100309D01*
X0108572Y0100497D02*
X0112714Y0100497D01*
X0112714Y0100685D02*
X0108572Y0100685D01*
X0108572Y0100873D02*
X0112714Y0100873D01*
X0108572Y0099036D02*
X0108572Y0097964D01*
X0108572Y0099036D02*
X0112714Y0099036D01*
X0112714Y0097964D01*
X0108572Y0097964D01*
X0108572Y0098152D02*
X0112714Y0098152D01*
X0112714Y0098340D02*
X0108572Y0098340D01*
X0108572Y0098528D02*
X0112714Y0098528D01*
X0112714Y0098716D02*
X0108572Y0098716D01*
X0108572Y0098904D02*
X0112714Y0098904D01*
X0108572Y0097067D02*
X0108572Y0095995D01*
X0108572Y0097067D02*
X0112714Y0097067D01*
X0112714Y0095995D01*
X0108572Y0095995D01*
X0108572Y0096183D02*
X0112714Y0096183D01*
X0112714Y0096371D02*
X0108572Y0096371D01*
X0108572Y0096559D02*
X0112714Y0096559D01*
X0112714Y0096747D02*
X0108572Y0096747D01*
X0108572Y0096935D02*
X0112714Y0096935D01*
X0108572Y0095099D02*
X0108572Y0094027D01*
X0108572Y0095099D02*
X0112714Y0095099D01*
X0112714Y0094027D01*
X0108572Y0094027D01*
X0108572Y0094215D02*
X0112714Y0094215D01*
X0112714Y0094403D02*
X0108572Y0094403D01*
X0108572Y0094591D02*
X0112714Y0094591D01*
X0112714Y0094779D02*
X0108572Y0094779D01*
X0108572Y0094967D02*
X0112714Y0094967D01*
X0108572Y0093130D02*
X0108572Y0092058D01*
X0108572Y0093130D02*
X0112714Y0093130D01*
X0112714Y0092058D01*
X0108572Y0092058D01*
X0108572Y0092246D02*
X0112714Y0092246D01*
X0112714Y0092434D02*
X0108572Y0092434D01*
X0108572Y0092622D02*
X0112714Y0092622D01*
X0112714Y0092810D02*
X0108572Y0092810D01*
X0108572Y0092998D02*
X0112714Y0092998D01*
X0117981Y0082649D02*
X0119053Y0082649D01*
X0117981Y0082649D02*
X0117981Y0086791D01*
X0119053Y0086791D01*
X0119053Y0082649D01*
X0119053Y0082837D02*
X0117981Y0082837D01*
X0117981Y0083025D02*
X0119053Y0083025D01*
X0119053Y0083213D02*
X0117981Y0083213D01*
X0117981Y0083401D02*
X0119053Y0083401D01*
X0119053Y0083589D02*
X0117981Y0083589D01*
X0117981Y0083777D02*
X0119053Y0083777D01*
X0119053Y0083965D02*
X0117981Y0083965D01*
X0117981Y0084153D02*
X0119053Y0084153D01*
X0119053Y0084341D02*
X0117981Y0084341D01*
X0117981Y0084529D02*
X0119053Y0084529D01*
X0119053Y0084717D02*
X0117981Y0084717D01*
X0117981Y0084905D02*
X0119053Y0084905D01*
X0119053Y0085093D02*
X0117981Y0085093D01*
X0117981Y0085281D02*
X0119053Y0085281D01*
X0119053Y0085469D02*
X0117981Y0085469D01*
X0117981Y0085657D02*
X0119053Y0085657D01*
X0119053Y0085845D02*
X0117981Y0085845D01*
X0117981Y0086033D02*
X0119053Y0086033D01*
X0119053Y0086221D02*
X0117981Y0086221D01*
X0117981Y0086409D02*
X0119053Y0086409D01*
X0119053Y0086597D02*
X0117981Y0086597D01*
X0117981Y0086785D02*
X0119053Y0086785D01*
X0119950Y0082649D02*
X0121022Y0082649D01*
X0119950Y0082649D02*
X0119950Y0086791D01*
X0121022Y0086791D01*
X0121022Y0082649D01*
X0121022Y0082837D02*
X0119950Y0082837D01*
X0119950Y0083025D02*
X0121022Y0083025D01*
X0121022Y0083213D02*
X0119950Y0083213D01*
X0119950Y0083401D02*
X0121022Y0083401D01*
X0121022Y0083589D02*
X0119950Y0083589D01*
X0119950Y0083777D02*
X0121022Y0083777D01*
X0121022Y0083965D02*
X0119950Y0083965D01*
X0119950Y0084153D02*
X0121022Y0084153D01*
X0121022Y0084341D02*
X0119950Y0084341D01*
X0119950Y0084529D02*
X0121022Y0084529D01*
X0121022Y0084717D02*
X0119950Y0084717D01*
X0119950Y0084905D02*
X0121022Y0084905D01*
X0121022Y0085093D02*
X0119950Y0085093D01*
X0119950Y0085281D02*
X0121022Y0085281D01*
X0121022Y0085469D02*
X0119950Y0085469D01*
X0119950Y0085657D02*
X0121022Y0085657D01*
X0121022Y0085845D02*
X0119950Y0085845D01*
X0119950Y0086033D02*
X0121022Y0086033D01*
X0121022Y0086221D02*
X0119950Y0086221D01*
X0119950Y0086409D02*
X0121022Y0086409D01*
X0121022Y0086597D02*
X0119950Y0086597D01*
X0119950Y0086785D02*
X0121022Y0086785D01*
X0121918Y0082649D02*
X0122990Y0082649D01*
X0121918Y0082649D02*
X0121918Y0086791D01*
X0122990Y0086791D01*
X0122990Y0082649D01*
X0122990Y0082837D02*
X0121918Y0082837D01*
X0121918Y0083025D02*
X0122990Y0083025D01*
X0122990Y0083213D02*
X0121918Y0083213D01*
X0121918Y0083401D02*
X0122990Y0083401D01*
X0122990Y0083589D02*
X0121918Y0083589D01*
X0121918Y0083777D02*
X0122990Y0083777D01*
X0122990Y0083965D02*
X0121918Y0083965D01*
X0121918Y0084153D02*
X0122990Y0084153D01*
X0122990Y0084341D02*
X0121918Y0084341D01*
X0121918Y0084529D02*
X0122990Y0084529D01*
X0122990Y0084717D02*
X0121918Y0084717D01*
X0121918Y0084905D02*
X0122990Y0084905D01*
X0122990Y0085093D02*
X0121918Y0085093D01*
X0121918Y0085281D02*
X0122990Y0085281D01*
X0122990Y0085469D02*
X0121918Y0085469D01*
X0121918Y0085657D02*
X0122990Y0085657D01*
X0122990Y0085845D02*
X0121918Y0085845D01*
X0121918Y0086033D02*
X0122990Y0086033D01*
X0122990Y0086221D02*
X0121918Y0086221D01*
X0121918Y0086409D02*
X0122990Y0086409D01*
X0122990Y0086597D02*
X0121918Y0086597D01*
X0121918Y0086785D02*
X0122990Y0086785D01*
X0123887Y0082649D02*
X0124959Y0082649D01*
X0123887Y0082649D02*
X0123887Y0086791D01*
X0124959Y0086791D01*
X0124959Y0082649D01*
X0124959Y0082837D02*
X0123887Y0082837D01*
X0123887Y0083025D02*
X0124959Y0083025D01*
X0124959Y0083213D02*
X0123887Y0083213D01*
X0123887Y0083401D02*
X0124959Y0083401D01*
X0124959Y0083589D02*
X0123887Y0083589D01*
X0123887Y0083777D02*
X0124959Y0083777D01*
X0124959Y0083965D02*
X0123887Y0083965D01*
X0123887Y0084153D02*
X0124959Y0084153D01*
X0124959Y0084341D02*
X0123887Y0084341D01*
X0123887Y0084529D02*
X0124959Y0084529D01*
X0124959Y0084717D02*
X0123887Y0084717D01*
X0123887Y0084905D02*
X0124959Y0084905D01*
X0124959Y0085093D02*
X0123887Y0085093D01*
X0123887Y0085281D02*
X0124959Y0085281D01*
X0124959Y0085469D02*
X0123887Y0085469D01*
X0123887Y0085657D02*
X0124959Y0085657D01*
X0124959Y0085845D02*
X0123887Y0085845D01*
X0123887Y0086033D02*
X0124959Y0086033D01*
X0124959Y0086221D02*
X0123887Y0086221D01*
X0123887Y0086409D02*
X0124959Y0086409D01*
X0124959Y0086597D02*
X0123887Y0086597D01*
X0123887Y0086785D02*
X0124959Y0086785D01*
X0125855Y0082649D02*
X0126927Y0082649D01*
X0125855Y0082649D02*
X0125855Y0086791D01*
X0126927Y0086791D01*
X0126927Y0082649D01*
X0126927Y0082837D02*
X0125855Y0082837D01*
X0125855Y0083025D02*
X0126927Y0083025D01*
X0126927Y0083213D02*
X0125855Y0083213D01*
X0125855Y0083401D02*
X0126927Y0083401D01*
X0126927Y0083589D02*
X0125855Y0083589D01*
X0125855Y0083777D02*
X0126927Y0083777D01*
X0126927Y0083965D02*
X0125855Y0083965D01*
X0125855Y0084153D02*
X0126927Y0084153D01*
X0126927Y0084341D02*
X0125855Y0084341D01*
X0125855Y0084529D02*
X0126927Y0084529D01*
X0126927Y0084717D02*
X0125855Y0084717D01*
X0125855Y0084905D02*
X0126927Y0084905D01*
X0126927Y0085093D02*
X0125855Y0085093D01*
X0125855Y0085281D02*
X0126927Y0085281D01*
X0126927Y0085469D02*
X0125855Y0085469D01*
X0125855Y0085657D02*
X0126927Y0085657D01*
X0126927Y0085845D02*
X0125855Y0085845D01*
X0125855Y0086033D02*
X0126927Y0086033D01*
X0126927Y0086221D02*
X0125855Y0086221D01*
X0125855Y0086409D02*
X0126927Y0086409D01*
X0126927Y0086597D02*
X0125855Y0086597D01*
X0125855Y0086785D02*
X0126927Y0086785D01*
X0127824Y0082649D02*
X0128896Y0082649D01*
X0127824Y0082649D02*
X0127824Y0086791D01*
X0128896Y0086791D01*
X0128896Y0082649D01*
X0128896Y0082837D02*
X0127824Y0082837D01*
X0127824Y0083025D02*
X0128896Y0083025D01*
X0128896Y0083213D02*
X0127824Y0083213D01*
X0127824Y0083401D02*
X0128896Y0083401D01*
X0128896Y0083589D02*
X0127824Y0083589D01*
X0127824Y0083777D02*
X0128896Y0083777D01*
X0128896Y0083965D02*
X0127824Y0083965D01*
X0127824Y0084153D02*
X0128896Y0084153D01*
X0128896Y0084341D02*
X0127824Y0084341D01*
X0127824Y0084529D02*
X0128896Y0084529D01*
X0128896Y0084717D02*
X0127824Y0084717D01*
X0127824Y0084905D02*
X0128896Y0084905D01*
X0128896Y0085093D02*
X0127824Y0085093D01*
X0127824Y0085281D02*
X0128896Y0085281D01*
X0128896Y0085469D02*
X0127824Y0085469D01*
X0127824Y0085657D02*
X0128896Y0085657D01*
X0128896Y0085845D02*
X0127824Y0085845D01*
X0127824Y0086033D02*
X0128896Y0086033D01*
X0128896Y0086221D02*
X0127824Y0086221D01*
X0127824Y0086409D02*
X0128896Y0086409D01*
X0128896Y0086597D02*
X0127824Y0086597D01*
X0127824Y0086785D02*
X0128896Y0086785D01*
X0129792Y0082649D02*
X0130864Y0082649D01*
X0129792Y0082649D02*
X0129792Y0086791D01*
X0130864Y0086791D01*
X0130864Y0082649D01*
X0130864Y0082837D02*
X0129792Y0082837D01*
X0129792Y0083025D02*
X0130864Y0083025D01*
X0130864Y0083213D02*
X0129792Y0083213D01*
X0129792Y0083401D02*
X0130864Y0083401D01*
X0130864Y0083589D02*
X0129792Y0083589D01*
X0129792Y0083777D02*
X0130864Y0083777D01*
X0130864Y0083965D02*
X0129792Y0083965D01*
X0129792Y0084153D02*
X0130864Y0084153D01*
X0130864Y0084341D02*
X0129792Y0084341D01*
X0129792Y0084529D02*
X0130864Y0084529D01*
X0130864Y0084717D02*
X0129792Y0084717D01*
X0129792Y0084905D02*
X0130864Y0084905D01*
X0130864Y0085093D02*
X0129792Y0085093D01*
X0129792Y0085281D02*
X0130864Y0085281D01*
X0130864Y0085469D02*
X0129792Y0085469D01*
X0129792Y0085657D02*
X0130864Y0085657D01*
X0130864Y0085845D02*
X0129792Y0085845D01*
X0129792Y0086033D02*
X0130864Y0086033D01*
X0130864Y0086221D02*
X0129792Y0086221D01*
X0129792Y0086409D02*
X0130864Y0086409D01*
X0130864Y0086597D02*
X0129792Y0086597D01*
X0129792Y0086785D02*
X0130864Y0086785D01*
X0131761Y0082649D02*
X0132833Y0082649D01*
X0131761Y0082649D02*
X0131761Y0086791D01*
X0132833Y0086791D01*
X0132833Y0082649D01*
X0132833Y0082837D02*
X0131761Y0082837D01*
X0131761Y0083025D02*
X0132833Y0083025D01*
X0132833Y0083213D02*
X0131761Y0083213D01*
X0131761Y0083401D02*
X0132833Y0083401D01*
X0132833Y0083589D02*
X0131761Y0083589D01*
X0131761Y0083777D02*
X0132833Y0083777D01*
X0132833Y0083965D02*
X0131761Y0083965D01*
X0131761Y0084153D02*
X0132833Y0084153D01*
X0132833Y0084341D02*
X0131761Y0084341D01*
X0131761Y0084529D02*
X0132833Y0084529D01*
X0132833Y0084717D02*
X0131761Y0084717D01*
X0131761Y0084905D02*
X0132833Y0084905D01*
X0132833Y0085093D02*
X0131761Y0085093D01*
X0131761Y0085281D02*
X0132833Y0085281D01*
X0132833Y0085469D02*
X0131761Y0085469D01*
X0131761Y0085657D02*
X0132833Y0085657D01*
X0132833Y0085845D02*
X0131761Y0085845D01*
X0131761Y0086033D02*
X0132833Y0086033D01*
X0132833Y0086221D02*
X0131761Y0086221D01*
X0131761Y0086409D02*
X0132833Y0086409D01*
X0132833Y0086597D02*
X0131761Y0086597D01*
X0131761Y0086785D02*
X0132833Y0086785D01*
X0133729Y0082649D02*
X0134801Y0082649D01*
X0133729Y0082649D02*
X0133729Y0086791D01*
X0134801Y0086791D01*
X0134801Y0082649D01*
X0134801Y0082837D02*
X0133729Y0082837D01*
X0133729Y0083025D02*
X0134801Y0083025D01*
X0134801Y0083213D02*
X0133729Y0083213D01*
X0133729Y0083401D02*
X0134801Y0083401D01*
X0134801Y0083589D02*
X0133729Y0083589D01*
X0133729Y0083777D02*
X0134801Y0083777D01*
X0134801Y0083965D02*
X0133729Y0083965D01*
X0133729Y0084153D02*
X0134801Y0084153D01*
X0134801Y0084341D02*
X0133729Y0084341D01*
X0133729Y0084529D02*
X0134801Y0084529D01*
X0134801Y0084717D02*
X0133729Y0084717D01*
X0133729Y0084905D02*
X0134801Y0084905D01*
X0134801Y0085093D02*
X0133729Y0085093D01*
X0133729Y0085281D02*
X0134801Y0085281D01*
X0134801Y0085469D02*
X0133729Y0085469D01*
X0133729Y0085657D02*
X0134801Y0085657D01*
X0134801Y0085845D02*
X0133729Y0085845D01*
X0133729Y0086033D02*
X0134801Y0086033D01*
X0134801Y0086221D02*
X0133729Y0086221D01*
X0133729Y0086409D02*
X0134801Y0086409D01*
X0134801Y0086597D02*
X0133729Y0086597D01*
X0133729Y0086785D02*
X0134801Y0086785D01*
X0135698Y0082649D02*
X0136770Y0082649D01*
X0135698Y0082649D02*
X0135698Y0086791D01*
X0136770Y0086791D01*
X0136770Y0082649D01*
X0136770Y0082837D02*
X0135698Y0082837D01*
X0135698Y0083025D02*
X0136770Y0083025D01*
X0136770Y0083213D02*
X0135698Y0083213D01*
X0135698Y0083401D02*
X0136770Y0083401D01*
X0136770Y0083589D02*
X0135698Y0083589D01*
X0135698Y0083777D02*
X0136770Y0083777D01*
X0136770Y0083965D02*
X0135698Y0083965D01*
X0135698Y0084153D02*
X0136770Y0084153D01*
X0136770Y0084341D02*
X0135698Y0084341D01*
X0135698Y0084529D02*
X0136770Y0084529D01*
X0136770Y0084717D02*
X0135698Y0084717D01*
X0135698Y0084905D02*
X0136770Y0084905D01*
X0136770Y0085093D02*
X0135698Y0085093D01*
X0135698Y0085281D02*
X0136770Y0085281D01*
X0136770Y0085469D02*
X0135698Y0085469D01*
X0135698Y0085657D02*
X0136770Y0085657D01*
X0136770Y0085845D02*
X0135698Y0085845D01*
X0135698Y0086033D02*
X0136770Y0086033D01*
X0136770Y0086221D02*
X0135698Y0086221D01*
X0135698Y0086409D02*
X0136770Y0086409D01*
X0136770Y0086597D02*
X0135698Y0086597D01*
X0135698Y0086785D02*
X0136770Y0086785D01*
X0137666Y0082649D02*
X0138738Y0082649D01*
X0137666Y0082649D02*
X0137666Y0086791D01*
X0138738Y0086791D01*
X0138738Y0082649D01*
X0138738Y0082837D02*
X0137666Y0082837D01*
X0137666Y0083025D02*
X0138738Y0083025D01*
X0138738Y0083213D02*
X0137666Y0083213D01*
X0137666Y0083401D02*
X0138738Y0083401D01*
X0138738Y0083589D02*
X0137666Y0083589D01*
X0137666Y0083777D02*
X0138738Y0083777D01*
X0138738Y0083965D02*
X0137666Y0083965D01*
X0137666Y0084153D02*
X0138738Y0084153D01*
X0138738Y0084341D02*
X0137666Y0084341D01*
X0137666Y0084529D02*
X0138738Y0084529D01*
X0138738Y0084717D02*
X0137666Y0084717D01*
X0137666Y0084905D02*
X0138738Y0084905D01*
X0138738Y0085093D02*
X0137666Y0085093D01*
X0137666Y0085281D02*
X0138738Y0085281D01*
X0138738Y0085469D02*
X0137666Y0085469D01*
X0137666Y0085657D02*
X0138738Y0085657D01*
X0138738Y0085845D02*
X0137666Y0085845D01*
X0137666Y0086033D02*
X0138738Y0086033D01*
X0138738Y0086221D02*
X0137666Y0086221D01*
X0137666Y0086409D02*
X0138738Y0086409D01*
X0138738Y0086597D02*
X0137666Y0086597D01*
X0137666Y0086785D02*
X0138738Y0086785D01*
X0139635Y0082649D02*
X0140707Y0082649D01*
X0139635Y0082649D02*
X0139635Y0086791D01*
X0140707Y0086791D01*
X0140707Y0082649D01*
X0140707Y0082837D02*
X0139635Y0082837D01*
X0139635Y0083025D02*
X0140707Y0083025D01*
X0140707Y0083213D02*
X0139635Y0083213D01*
X0139635Y0083401D02*
X0140707Y0083401D01*
X0140707Y0083589D02*
X0139635Y0083589D01*
X0139635Y0083777D02*
X0140707Y0083777D01*
X0140707Y0083965D02*
X0139635Y0083965D01*
X0139635Y0084153D02*
X0140707Y0084153D01*
X0140707Y0084341D02*
X0139635Y0084341D01*
X0139635Y0084529D02*
X0140707Y0084529D01*
X0140707Y0084717D02*
X0139635Y0084717D01*
X0139635Y0084905D02*
X0140707Y0084905D01*
X0140707Y0085093D02*
X0139635Y0085093D01*
X0139635Y0085281D02*
X0140707Y0085281D01*
X0140707Y0085469D02*
X0139635Y0085469D01*
X0139635Y0085657D02*
X0140707Y0085657D01*
X0140707Y0085845D02*
X0139635Y0085845D01*
X0139635Y0086033D02*
X0140707Y0086033D01*
X0140707Y0086221D02*
X0139635Y0086221D01*
X0139635Y0086409D02*
X0140707Y0086409D01*
X0140707Y0086597D02*
X0139635Y0086597D01*
X0139635Y0086785D02*
X0140707Y0086785D01*
X0141603Y0082649D02*
X0142675Y0082649D01*
X0141603Y0082649D02*
X0141603Y0086791D01*
X0142675Y0086791D01*
X0142675Y0082649D01*
X0142675Y0082837D02*
X0141603Y0082837D01*
X0141603Y0083025D02*
X0142675Y0083025D01*
X0142675Y0083213D02*
X0141603Y0083213D01*
X0141603Y0083401D02*
X0142675Y0083401D01*
X0142675Y0083589D02*
X0141603Y0083589D01*
X0141603Y0083777D02*
X0142675Y0083777D01*
X0142675Y0083965D02*
X0141603Y0083965D01*
X0141603Y0084153D02*
X0142675Y0084153D01*
X0142675Y0084341D02*
X0141603Y0084341D01*
X0141603Y0084529D02*
X0142675Y0084529D01*
X0142675Y0084717D02*
X0141603Y0084717D01*
X0141603Y0084905D02*
X0142675Y0084905D01*
X0142675Y0085093D02*
X0141603Y0085093D01*
X0141603Y0085281D02*
X0142675Y0085281D01*
X0142675Y0085469D02*
X0141603Y0085469D01*
X0141603Y0085657D02*
X0142675Y0085657D01*
X0142675Y0085845D02*
X0141603Y0085845D01*
X0141603Y0086033D02*
X0142675Y0086033D01*
X0142675Y0086221D02*
X0141603Y0086221D01*
X0141603Y0086409D02*
X0142675Y0086409D01*
X0142675Y0086597D02*
X0141603Y0086597D01*
X0141603Y0086785D02*
X0142675Y0086785D01*
X0143572Y0082649D02*
X0144644Y0082649D01*
X0143572Y0082649D02*
X0143572Y0086791D01*
X0144644Y0086791D01*
X0144644Y0082649D01*
X0144644Y0082837D02*
X0143572Y0082837D01*
X0143572Y0083025D02*
X0144644Y0083025D01*
X0144644Y0083213D02*
X0143572Y0083213D01*
X0143572Y0083401D02*
X0144644Y0083401D01*
X0144644Y0083589D02*
X0143572Y0083589D01*
X0143572Y0083777D02*
X0144644Y0083777D01*
X0144644Y0083965D02*
X0143572Y0083965D01*
X0143572Y0084153D02*
X0144644Y0084153D01*
X0144644Y0084341D02*
X0143572Y0084341D01*
X0143572Y0084529D02*
X0144644Y0084529D01*
X0144644Y0084717D02*
X0143572Y0084717D01*
X0143572Y0084905D02*
X0144644Y0084905D01*
X0144644Y0085093D02*
X0143572Y0085093D01*
X0143572Y0085281D02*
X0144644Y0085281D01*
X0144644Y0085469D02*
X0143572Y0085469D01*
X0143572Y0085657D02*
X0144644Y0085657D01*
X0144644Y0085845D02*
X0143572Y0085845D01*
X0143572Y0086033D02*
X0144644Y0086033D01*
X0144644Y0086221D02*
X0143572Y0086221D01*
X0143572Y0086409D02*
X0144644Y0086409D01*
X0144644Y0086597D02*
X0143572Y0086597D01*
X0143572Y0086785D02*
X0144644Y0086785D01*
X0145540Y0082649D02*
X0146612Y0082649D01*
X0145540Y0082649D02*
X0145540Y0086791D01*
X0146612Y0086791D01*
X0146612Y0082649D01*
X0146612Y0082837D02*
X0145540Y0082837D01*
X0145540Y0083025D02*
X0146612Y0083025D01*
X0146612Y0083213D02*
X0145540Y0083213D01*
X0145540Y0083401D02*
X0146612Y0083401D01*
X0146612Y0083589D02*
X0145540Y0083589D01*
X0145540Y0083777D02*
X0146612Y0083777D01*
X0146612Y0083965D02*
X0145540Y0083965D01*
X0145540Y0084153D02*
X0146612Y0084153D01*
X0146612Y0084341D02*
X0145540Y0084341D01*
X0145540Y0084529D02*
X0146612Y0084529D01*
X0146612Y0084717D02*
X0145540Y0084717D01*
X0145540Y0084905D02*
X0146612Y0084905D01*
X0146612Y0085093D02*
X0145540Y0085093D01*
X0145540Y0085281D02*
X0146612Y0085281D01*
X0146612Y0085469D02*
X0145540Y0085469D01*
X0145540Y0085657D02*
X0146612Y0085657D01*
X0146612Y0085845D02*
X0145540Y0085845D01*
X0145540Y0086033D02*
X0146612Y0086033D01*
X0146612Y0086221D02*
X0145540Y0086221D01*
X0145540Y0086409D02*
X0146612Y0086409D01*
X0146612Y0086597D02*
X0145540Y0086597D01*
X0145540Y0086785D02*
X0146612Y0086785D01*
X0147509Y0082649D02*
X0148581Y0082649D01*
X0147509Y0082649D02*
X0147509Y0086791D01*
X0148581Y0086791D01*
X0148581Y0082649D01*
X0148581Y0082837D02*
X0147509Y0082837D01*
X0147509Y0083025D02*
X0148581Y0083025D01*
X0148581Y0083213D02*
X0147509Y0083213D01*
X0147509Y0083401D02*
X0148581Y0083401D01*
X0148581Y0083589D02*
X0147509Y0083589D01*
X0147509Y0083777D02*
X0148581Y0083777D01*
X0148581Y0083965D02*
X0147509Y0083965D01*
X0147509Y0084153D02*
X0148581Y0084153D01*
X0148581Y0084341D02*
X0147509Y0084341D01*
X0147509Y0084529D02*
X0148581Y0084529D01*
X0148581Y0084717D02*
X0147509Y0084717D01*
X0147509Y0084905D02*
X0148581Y0084905D01*
X0148581Y0085093D02*
X0147509Y0085093D01*
X0147509Y0085281D02*
X0148581Y0085281D01*
X0148581Y0085469D02*
X0147509Y0085469D01*
X0147509Y0085657D02*
X0148581Y0085657D01*
X0148581Y0085845D02*
X0147509Y0085845D01*
X0147509Y0086033D02*
X0148581Y0086033D01*
X0148581Y0086221D02*
X0147509Y0086221D01*
X0147509Y0086409D02*
X0148581Y0086409D01*
X0148581Y0086597D02*
X0147509Y0086597D01*
X0147509Y0086785D02*
X0148581Y0086785D01*
X0157990Y0092058D02*
X0157990Y0093130D01*
X0157990Y0092058D02*
X0153848Y0092058D01*
X0153848Y0093130D01*
X0157990Y0093130D01*
X0157990Y0092246D02*
X0153848Y0092246D01*
X0153848Y0092434D02*
X0157990Y0092434D01*
X0157990Y0092622D02*
X0153848Y0092622D01*
X0153848Y0092810D02*
X0157990Y0092810D01*
X0157990Y0092998D02*
X0153848Y0092998D01*
X0157990Y0094027D02*
X0157990Y0095099D01*
X0157990Y0094027D02*
X0153848Y0094027D01*
X0153848Y0095099D01*
X0157990Y0095099D01*
X0157990Y0094215D02*
X0153848Y0094215D01*
X0153848Y0094403D02*
X0157990Y0094403D01*
X0157990Y0094591D02*
X0153848Y0094591D01*
X0153848Y0094779D02*
X0157990Y0094779D01*
X0157990Y0094967D02*
X0153848Y0094967D01*
X0157990Y0095995D02*
X0157990Y0097067D01*
X0157990Y0095995D02*
X0153848Y0095995D01*
X0153848Y0097067D01*
X0157990Y0097067D01*
X0157990Y0096183D02*
X0153848Y0096183D01*
X0153848Y0096371D02*
X0157990Y0096371D01*
X0157990Y0096559D02*
X0153848Y0096559D01*
X0153848Y0096747D02*
X0157990Y0096747D01*
X0157990Y0096935D02*
X0153848Y0096935D01*
X0157990Y0097964D02*
X0157990Y0099036D01*
X0157990Y0097964D02*
X0153848Y0097964D01*
X0153848Y0099036D01*
X0157990Y0099036D01*
X0157990Y0098152D02*
X0153848Y0098152D01*
X0153848Y0098340D02*
X0157990Y0098340D01*
X0157990Y0098528D02*
X0153848Y0098528D01*
X0153848Y0098716D02*
X0157990Y0098716D01*
X0157990Y0098904D02*
X0153848Y0098904D01*
X0157990Y0099933D02*
X0157990Y0101005D01*
X0157990Y0099933D02*
X0153848Y0099933D01*
X0153848Y0101005D01*
X0157990Y0101005D01*
X0157990Y0100121D02*
X0153848Y0100121D01*
X0153848Y0100309D02*
X0157990Y0100309D01*
X0157990Y0100497D02*
X0153848Y0100497D01*
X0153848Y0100685D02*
X0157990Y0100685D01*
X0157990Y0100873D02*
X0153848Y0100873D01*
X0157990Y0101901D02*
X0157990Y0102973D01*
X0157990Y0101901D02*
X0153848Y0101901D01*
X0153848Y0102973D01*
X0157990Y0102973D01*
X0157990Y0102089D02*
X0153848Y0102089D01*
X0153848Y0102277D02*
X0157990Y0102277D01*
X0157990Y0102465D02*
X0153848Y0102465D01*
X0153848Y0102653D02*
X0157990Y0102653D01*
X0157990Y0102841D02*
X0153848Y0102841D01*
X0157990Y0103870D02*
X0157990Y0104942D01*
X0157990Y0103870D02*
X0153848Y0103870D01*
X0153848Y0104942D01*
X0157990Y0104942D01*
X0157990Y0104058D02*
X0153848Y0104058D01*
X0153848Y0104246D02*
X0157990Y0104246D01*
X0157990Y0104434D02*
X0153848Y0104434D01*
X0153848Y0104622D02*
X0157990Y0104622D01*
X0157990Y0104810D02*
X0153848Y0104810D01*
X0157990Y0105838D02*
X0157990Y0106910D01*
X0157990Y0105838D02*
X0153848Y0105838D01*
X0153848Y0106910D01*
X0157990Y0106910D01*
X0157990Y0106026D02*
X0153848Y0106026D01*
X0153848Y0106214D02*
X0157990Y0106214D01*
X0157990Y0106402D02*
X0153848Y0106402D01*
X0153848Y0106590D02*
X0157990Y0106590D01*
X0157990Y0106778D02*
X0153848Y0106778D01*
X0157990Y0107807D02*
X0157990Y0108879D01*
X0157990Y0107807D02*
X0153848Y0107807D01*
X0153848Y0108879D01*
X0157990Y0108879D01*
X0157990Y0107995D02*
X0153848Y0107995D01*
X0153848Y0108183D02*
X0157990Y0108183D01*
X0157990Y0108371D02*
X0153848Y0108371D01*
X0153848Y0108559D02*
X0157990Y0108559D01*
X0157990Y0108747D02*
X0153848Y0108747D01*
X0157990Y0109775D02*
X0157990Y0110847D01*
X0157990Y0109775D02*
X0153848Y0109775D01*
X0153848Y0110847D01*
X0157990Y0110847D01*
X0157990Y0109963D02*
X0153848Y0109963D01*
X0153848Y0110151D02*
X0157990Y0110151D01*
X0157990Y0110339D02*
X0153848Y0110339D01*
X0153848Y0110527D02*
X0157990Y0110527D01*
X0157990Y0110715D02*
X0153848Y0110715D01*
X0157990Y0111744D02*
X0157990Y0112816D01*
X0157990Y0111744D02*
X0153848Y0111744D01*
X0153848Y0112816D01*
X0157990Y0112816D01*
X0157990Y0111932D02*
X0153848Y0111932D01*
X0153848Y0112120D02*
X0157990Y0112120D01*
X0157990Y0112308D02*
X0153848Y0112308D01*
X0153848Y0112496D02*
X0157990Y0112496D01*
X0157990Y0112684D02*
X0153848Y0112684D01*
X0157990Y0113712D02*
X0157990Y0114784D01*
X0157990Y0113712D02*
X0153848Y0113712D01*
X0153848Y0114784D01*
X0157990Y0114784D01*
X0157990Y0113900D02*
X0153848Y0113900D01*
X0153848Y0114088D02*
X0157990Y0114088D01*
X0157990Y0114276D02*
X0153848Y0114276D01*
X0153848Y0114464D02*
X0157990Y0114464D01*
X0157990Y0114652D02*
X0153848Y0114652D01*
X0157990Y0115681D02*
X0157990Y0116753D01*
X0157990Y0115681D02*
X0153848Y0115681D01*
X0153848Y0116753D01*
X0157990Y0116753D01*
X0157990Y0115869D02*
X0153848Y0115869D01*
X0153848Y0116057D02*
X0157990Y0116057D01*
X0157990Y0116245D02*
X0153848Y0116245D01*
X0153848Y0116433D02*
X0157990Y0116433D01*
X0157990Y0116621D02*
X0153848Y0116621D01*
X0157990Y0117649D02*
X0157990Y0118721D01*
X0157990Y0117649D02*
X0153848Y0117649D01*
X0153848Y0118721D01*
X0157990Y0118721D01*
X0157990Y0117837D02*
X0153848Y0117837D01*
X0153848Y0118025D02*
X0157990Y0118025D01*
X0157990Y0118213D02*
X0153848Y0118213D01*
X0153848Y0118401D02*
X0157990Y0118401D01*
X0157990Y0118589D02*
X0153848Y0118589D01*
X0157990Y0119618D02*
X0157990Y0120690D01*
X0157990Y0119618D02*
X0153848Y0119618D01*
X0153848Y0120690D01*
X0157990Y0120690D01*
X0157990Y0119806D02*
X0153848Y0119806D01*
X0153848Y0119994D02*
X0157990Y0119994D01*
X0157990Y0120182D02*
X0153848Y0120182D01*
X0153848Y0120370D02*
X0157990Y0120370D01*
X0157990Y0120558D02*
X0153848Y0120558D01*
X0157990Y0121586D02*
X0157990Y0122658D01*
X0157990Y0121586D02*
X0153848Y0121586D01*
X0153848Y0122658D01*
X0157990Y0122658D01*
X0157990Y0121774D02*
X0153848Y0121774D01*
X0153848Y0121962D02*
X0157990Y0121962D01*
X0157990Y0122150D02*
X0153848Y0122150D01*
X0153848Y0122338D02*
X0157990Y0122338D01*
X0157990Y0122526D02*
X0153848Y0122526D01*
X0148581Y0132067D02*
X0147509Y0132067D01*
X0148581Y0132067D02*
X0148581Y0127925D01*
X0147509Y0127925D01*
X0147509Y0132067D01*
X0147509Y0128113D02*
X0148581Y0128113D01*
X0148581Y0128301D02*
X0147509Y0128301D01*
X0147509Y0128489D02*
X0148581Y0128489D01*
X0148581Y0128677D02*
X0147509Y0128677D01*
X0147509Y0128865D02*
X0148581Y0128865D01*
X0148581Y0129053D02*
X0147509Y0129053D01*
X0147509Y0129241D02*
X0148581Y0129241D01*
X0148581Y0129429D02*
X0147509Y0129429D01*
X0147509Y0129617D02*
X0148581Y0129617D01*
X0148581Y0129805D02*
X0147509Y0129805D01*
X0147509Y0129993D02*
X0148581Y0129993D01*
X0148581Y0130181D02*
X0147509Y0130181D01*
X0147509Y0130369D02*
X0148581Y0130369D01*
X0148581Y0130557D02*
X0147509Y0130557D01*
X0147509Y0130745D02*
X0148581Y0130745D01*
X0148581Y0130933D02*
X0147509Y0130933D01*
X0147509Y0131121D02*
X0148581Y0131121D01*
X0148581Y0131309D02*
X0147509Y0131309D01*
X0147509Y0131497D02*
X0148581Y0131497D01*
X0148581Y0131685D02*
X0147509Y0131685D01*
X0147509Y0131873D02*
X0148581Y0131873D01*
X0148581Y0132061D02*
X0147509Y0132061D01*
X0146612Y0132067D02*
X0145540Y0132067D01*
X0146612Y0132067D02*
X0146612Y0127925D01*
X0145540Y0127925D01*
X0145540Y0132067D01*
X0145540Y0128113D02*
X0146612Y0128113D01*
X0146612Y0128301D02*
X0145540Y0128301D01*
X0145540Y0128489D02*
X0146612Y0128489D01*
X0146612Y0128677D02*
X0145540Y0128677D01*
X0145540Y0128865D02*
X0146612Y0128865D01*
X0146612Y0129053D02*
X0145540Y0129053D01*
X0145540Y0129241D02*
X0146612Y0129241D01*
X0146612Y0129429D02*
X0145540Y0129429D01*
X0145540Y0129617D02*
X0146612Y0129617D01*
X0146612Y0129805D02*
X0145540Y0129805D01*
X0145540Y0129993D02*
X0146612Y0129993D01*
X0146612Y0130181D02*
X0145540Y0130181D01*
X0145540Y0130369D02*
X0146612Y0130369D01*
X0146612Y0130557D02*
X0145540Y0130557D01*
X0145540Y0130745D02*
X0146612Y0130745D01*
X0146612Y0130933D02*
X0145540Y0130933D01*
X0145540Y0131121D02*
X0146612Y0131121D01*
X0146612Y0131309D02*
X0145540Y0131309D01*
X0145540Y0131497D02*
X0146612Y0131497D01*
X0146612Y0131685D02*
X0145540Y0131685D01*
X0145540Y0131873D02*
X0146612Y0131873D01*
X0146612Y0132061D02*
X0145540Y0132061D01*
X0144644Y0132067D02*
X0143572Y0132067D01*
X0144644Y0132067D02*
X0144644Y0127925D01*
X0143572Y0127925D01*
X0143572Y0132067D01*
X0143572Y0128113D02*
X0144644Y0128113D01*
X0144644Y0128301D02*
X0143572Y0128301D01*
X0143572Y0128489D02*
X0144644Y0128489D01*
X0144644Y0128677D02*
X0143572Y0128677D01*
X0143572Y0128865D02*
X0144644Y0128865D01*
X0144644Y0129053D02*
X0143572Y0129053D01*
X0143572Y0129241D02*
X0144644Y0129241D01*
X0144644Y0129429D02*
X0143572Y0129429D01*
X0143572Y0129617D02*
X0144644Y0129617D01*
X0144644Y0129805D02*
X0143572Y0129805D01*
X0143572Y0129993D02*
X0144644Y0129993D01*
X0144644Y0130181D02*
X0143572Y0130181D01*
X0143572Y0130369D02*
X0144644Y0130369D01*
X0144644Y0130557D02*
X0143572Y0130557D01*
X0143572Y0130745D02*
X0144644Y0130745D01*
X0144644Y0130933D02*
X0143572Y0130933D01*
X0143572Y0131121D02*
X0144644Y0131121D01*
X0144644Y0131309D02*
X0143572Y0131309D01*
X0143572Y0131497D02*
X0144644Y0131497D01*
X0144644Y0131685D02*
X0143572Y0131685D01*
X0143572Y0131873D02*
X0144644Y0131873D01*
X0144644Y0132061D02*
X0143572Y0132061D01*
X0142675Y0132067D02*
X0141603Y0132067D01*
X0142675Y0132067D02*
X0142675Y0127925D01*
X0141603Y0127925D01*
X0141603Y0132067D01*
X0141603Y0128113D02*
X0142675Y0128113D01*
X0142675Y0128301D02*
X0141603Y0128301D01*
X0141603Y0128489D02*
X0142675Y0128489D01*
X0142675Y0128677D02*
X0141603Y0128677D01*
X0141603Y0128865D02*
X0142675Y0128865D01*
X0142675Y0129053D02*
X0141603Y0129053D01*
X0141603Y0129241D02*
X0142675Y0129241D01*
X0142675Y0129429D02*
X0141603Y0129429D01*
X0141603Y0129617D02*
X0142675Y0129617D01*
X0142675Y0129805D02*
X0141603Y0129805D01*
X0141603Y0129993D02*
X0142675Y0129993D01*
X0142675Y0130181D02*
X0141603Y0130181D01*
X0141603Y0130369D02*
X0142675Y0130369D01*
X0142675Y0130557D02*
X0141603Y0130557D01*
X0141603Y0130745D02*
X0142675Y0130745D01*
X0142675Y0130933D02*
X0141603Y0130933D01*
X0141603Y0131121D02*
X0142675Y0131121D01*
X0142675Y0131309D02*
X0141603Y0131309D01*
X0141603Y0131497D02*
X0142675Y0131497D01*
X0142675Y0131685D02*
X0141603Y0131685D01*
X0141603Y0131873D02*
X0142675Y0131873D01*
X0142675Y0132061D02*
X0141603Y0132061D01*
X0140707Y0132067D02*
X0139635Y0132067D01*
X0140707Y0132067D02*
X0140707Y0127925D01*
X0139635Y0127925D01*
X0139635Y0132067D01*
X0139635Y0128113D02*
X0140707Y0128113D01*
X0140707Y0128301D02*
X0139635Y0128301D01*
X0139635Y0128489D02*
X0140707Y0128489D01*
X0140707Y0128677D02*
X0139635Y0128677D01*
X0139635Y0128865D02*
X0140707Y0128865D01*
X0140707Y0129053D02*
X0139635Y0129053D01*
X0139635Y0129241D02*
X0140707Y0129241D01*
X0140707Y0129429D02*
X0139635Y0129429D01*
X0139635Y0129617D02*
X0140707Y0129617D01*
X0140707Y0129805D02*
X0139635Y0129805D01*
X0139635Y0129993D02*
X0140707Y0129993D01*
X0140707Y0130181D02*
X0139635Y0130181D01*
X0139635Y0130369D02*
X0140707Y0130369D01*
X0140707Y0130557D02*
X0139635Y0130557D01*
X0139635Y0130745D02*
X0140707Y0130745D01*
X0140707Y0130933D02*
X0139635Y0130933D01*
X0139635Y0131121D02*
X0140707Y0131121D01*
X0140707Y0131309D02*
X0139635Y0131309D01*
X0139635Y0131497D02*
X0140707Y0131497D01*
X0140707Y0131685D02*
X0139635Y0131685D01*
X0139635Y0131873D02*
X0140707Y0131873D01*
X0140707Y0132061D02*
X0139635Y0132061D01*
X0138738Y0132067D02*
X0137666Y0132067D01*
X0138738Y0132067D02*
X0138738Y0127925D01*
X0137666Y0127925D01*
X0137666Y0132067D01*
X0137666Y0128113D02*
X0138738Y0128113D01*
X0138738Y0128301D02*
X0137666Y0128301D01*
X0137666Y0128489D02*
X0138738Y0128489D01*
X0138738Y0128677D02*
X0137666Y0128677D01*
X0137666Y0128865D02*
X0138738Y0128865D01*
X0138738Y0129053D02*
X0137666Y0129053D01*
X0137666Y0129241D02*
X0138738Y0129241D01*
X0138738Y0129429D02*
X0137666Y0129429D01*
X0137666Y0129617D02*
X0138738Y0129617D01*
X0138738Y0129805D02*
X0137666Y0129805D01*
X0137666Y0129993D02*
X0138738Y0129993D01*
X0138738Y0130181D02*
X0137666Y0130181D01*
X0137666Y0130369D02*
X0138738Y0130369D01*
X0138738Y0130557D02*
X0137666Y0130557D01*
X0137666Y0130745D02*
X0138738Y0130745D01*
X0138738Y0130933D02*
X0137666Y0130933D01*
X0137666Y0131121D02*
X0138738Y0131121D01*
X0138738Y0131309D02*
X0137666Y0131309D01*
X0137666Y0131497D02*
X0138738Y0131497D01*
X0138738Y0131685D02*
X0137666Y0131685D01*
X0137666Y0131873D02*
X0138738Y0131873D01*
X0138738Y0132061D02*
X0137666Y0132061D01*
X0136770Y0132067D02*
X0135698Y0132067D01*
X0136770Y0132067D02*
X0136770Y0127925D01*
X0135698Y0127925D01*
X0135698Y0132067D01*
X0135698Y0128113D02*
X0136770Y0128113D01*
X0136770Y0128301D02*
X0135698Y0128301D01*
X0135698Y0128489D02*
X0136770Y0128489D01*
X0136770Y0128677D02*
X0135698Y0128677D01*
X0135698Y0128865D02*
X0136770Y0128865D01*
X0136770Y0129053D02*
X0135698Y0129053D01*
X0135698Y0129241D02*
X0136770Y0129241D01*
X0136770Y0129429D02*
X0135698Y0129429D01*
X0135698Y0129617D02*
X0136770Y0129617D01*
X0136770Y0129805D02*
X0135698Y0129805D01*
X0135698Y0129993D02*
X0136770Y0129993D01*
X0136770Y0130181D02*
X0135698Y0130181D01*
X0135698Y0130369D02*
X0136770Y0130369D01*
X0136770Y0130557D02*
X0135698Y0130557D01*
X0135698Y0130745D02*
X0136770Y0130745D01*
X0136770Y0130933D02*
X0135698Y0130933D01*
X0135698Y0131121D02*
X0136770Y0131121D01*
X0136770Y0131309D02*
X0135698Y0131309D01*
X0135698Y0131497D02*
X0136770Y0131497D01*
X0136770Y0131685D02*
X0135698Y0131685D01*
X0135698Y0131873D02*
X0136770Y0131873D01*
X0136770Y0132061D02*
X0135698Y0132061D01*
X0134801Y0132067D02*
X0133729Y0132067D01*
X0134801Y0132067D02*
X0134801Y0127925D01*
X0133729Y0127925D01*
X0133729Y0132067D01*
X0133729Y0128113D02*
X0134801Y0128113D01*
X0134801Y0128301D02*
X0133729Y0128301D01*
X0133729Y0128489D02*
X0134801Y0128489D01*
X0134801Y0128677D02*
X0133729Y0128677D01*
X0133729Y0128865D02*
X0134801Y0128865D01*
X0134801Y0129053D02*
X0133729Y0129053D01*
X0133729Y0129241D02*
X0134801Y0129241D01*
X0134801Y0129429D02*
X0133729Y0129429D01*
X0133729Y0129617D02*
X0134801Y0129617D01*
X0134801Y0129805D02*
X0133729Y0129805D01*
X0133729Y0129993D02*
X0134801Y0129993D01*
X0134801Y0130181D02*
X0133729Y0130181D01*
X0133729Y0130369D02*
X0134801Y0130369D01*
X0134801Y0130557D02*
X0133729Y0130557D01*
X0133729Y0130745D02*
X0134801Y0130745D01*
X0134801Y0130933D02*
X0133729Y0130933D01*
X0133729Y0131121D02*
X0134801Y0131121D01*
X0134801Y0131309D02*
X0133729Y0131309D01*
X0133729Y0131497D02*
X0134801Y0131497D01*
X0134801Y0131685D02*
X0133729Y0131685D01*
X0133729Y0131873D02*
X0134801Y0131873D01*
X0134801Y0132061D02*
X0133729Y0132061D01*
X0132833Y0132067D02*
X0131761Y0132067D01*
X0132833Y0132067D02*
X0132833Y0127925D01*
X0131761Y0127925D01*
X0131761Y0132067D01*
X0131761Y0128113D02*
X0132833Y0128113D01*
X0132833Y0128301D02*
X0131761Y0128301D01*
X0131761Y0128489D02*
X0132833Y0128489D01*
X0132833Y0128677D02*
X0131761Y0128677D01*
X0131761Y0128865D02*
X0132833Y0128865D01*
X0132833Y0129053D02*
X0131761Y0129053D01*
X0131761Y0129241D02*
X0132833Y0129241D01*
X0132833Y0129429D02*
X0131761Y0129429D01*
X0131761Y0129617D02*
X0132833Y0129617D01*
X0132833Y0129805D02*
X0131761Y0129805D01*
X0131761Y0129993D02*
X0132833Y0129993D01*
X0132833Y0130181D02*
X0131761Y0130181D01*
X0131761Y0130369D02*
X0132833Y0130369D01*
X0132833Y0130557D02*
X0131761Y0130557D01*
X0131761Y0130745D02*
X0132833Y0130745D01*
X0132833Y0130933D02*
X0131761Y0130933D01*
X0131761Y0131121D02*
X0132833Y0131121D01*
X0132833Y0131309D02*
X0131761Y0131309D01*
X0131761Y0131497D02*
X0132833Y0131497D01*
X0132833Y0131685D02*
X0131761Y0131685D01*
X0131761Y0131873D02*
X0132833Y0131873D01*
X0132833Y0132061D02*
X0131761Y0132061D01*
X0130864Y0132067D02*
X0129792Y0132067D01*
X0130864Y0132067D02*
X0130864Y0127925D01*
X0129792Y0127925D01*
X0129792Y0132067D01*
X0129792Y0128113D02*
X0130864Y0128113D01*
X0130864Y0128301D02*
X0129792Y0128301D01*
X0129792Y0128489D02*
X0130864Y0128489D01*
X0130864Y0128677D02*
X0129792Y0128677D01*
X0129792Y0128865D02*
X0130864Y0128865D01*
X0130864Y0129053D02*
X0129792Y0129053D01*
X0129792Y0129241D02*
X0130864Y0129241D01*
X0130864Y0129429D02*
X0129792Y0129429D01*
X0129792Y0129617D02*
X0130864Y0129617D01*
X0130864Y0129805D02*
X0129792Y0129805D01*
X0129792Y0129993D02*
X0130864Y0129993D01*
X0130864Y0130181D02*
X0129792Y0130181D01*
X0129792Y0130369D02*
X0130864Y0130369D01*
X0130864Y0130557D02*
X0129792Y0130557D01*
X0129792Y0130745D02*
X0130864Y0130745D01*
X0130864Y0130933D02*
X0129792Y0130933D01*
X0129792Y0131121D02*
X0130864Y0131121D01*
X0130864Y0131309D02*
X0129792Y0131309D01*
X0129792Y0131497D02*
X0130864Y0131497D01*
X0130864Y0131685D02*
X0129792Y0131685D01*
X0129792Y0131873D02*
X0130864Y0131873D01*
X0130864Y0132061D02*
X0129792Y0132061D01*
X0128896Y0132067D02*
X0127824Y0132067D01*
X0128896Y0132067D02*
X0128896Y0127925D01*
X0127824Y0127925D01*
X0127824Y0132067D01*
X0127824Y0128113D02*
X0128896Y0128113D01*
X0128896Y0128301D02*
X0127824Y0128301D01*
X0127824Y0128489D02*
X0128896Y0128489D01*
X0128896Y0128677D02*
X0127824Y0128677D01*
X0127824Y0128865D02*
X0128896Y0128865D01*
X0128896Y0129053D02*
X0127824Y0129053D01*
X0127824Y0129241D02*
X0128896Y0129241D01*
X0128896Y0129429D02*
X0127824Y0129429D01*
X0127824Y0129617D02*
X0128896Y0129617D01*
X0128896Y0129805D02*
X0127824Y0129805D01*
X0127824Y0129993D02*
X0128896Y0129993D01*
X0128896Y0130181D02*
X0127824Y0130181D01*
X0127824Y0130369D02*
X0128896Y0130369D01*
X0128896Y0130557D02*
X0127824Y0130557D01*
X0127824Y0130745D02*
X0128896Y0130745D01*
X0128896Y0130933D02*
X0127824Y0130933D01*
X0127824Y0131121D02*
X0128896Y0131121D01*
X0128896Y0131309D02*
X0127824Y0131309D01*
X0127824Y0131497D02*
X0128896Y0131497D01*
X0128896Y0131685D02*
X0127824Y0131685D01*
X0127824Y0131873D02*
X0128896Y0131873D01*
X0128896Y0132061D02*
X0127824Y0132061D01*
X0126927Y0132067D02*
X0125855Y0132067D01*
X0126927Y0132067D02*
X0126927Y0127925D01*
X0125855Y0127925D01*
X0125855Y0132067D01*
X0125855Y0128113D02*
X0126927Y0128113D01*
X0126927Y0128301D02*
X0125855Y0128301D01*
X0125855Y0128489D02*
X0126927Y0128489D01*
X0126927Y0128677D02*
X0125855Y0128677D01*
X0125855Y0128865D02*
X0126927Y0128865D01*
X0126927Y0129053D02*
X0125855Y0129053D01*
X0125855Y0129241D02*
X0126927Y0129241D01*
X0126927Y0129429D02*
X0125855Y0129429D01*
X0125855Y0129617D02*
X0126927Y0129617D01*
X0126927Y0129805D02*
X0125855Y0129805D01*
X0125855Y0129993D02*
X0126927Y0129993D01*
X0126927Y0130181D02*
X0125855Y0130181D01*
X0125855Y0130369D02*
X0126927Y0130369D01*
X0126927Y0130557D02*
X0125855Y0130557D01*
X0125855Y0130745D02*
X0126927Y0130745D01*
X0126927Y0130933D02*
X0125855Y0130933D01*
X0125855Y0131121D02*
X0126927Y0131121D01*
X0126927Y0131309D02*
X0125855Y0131309D01*
X0125855Y0131497D02*
X0126927Y0131497D01*
X0126927Y0131685D02*
X0125855Y0131685D01*
X0125855Y0131873D02*
X0126927Y0131873D01*
X0126927Y0132061D02*
X0125855Y0132061D01*
X0124959Y0132067D02*
X0123887Y0132067D01*
X0124959Y0132067D02*
X0124959Y0127925D01*
X0123887Y0127925D01*
X0123887Y0132067D01*
X0123887Y0128113D02*
X0124959Y0128113D01*
X0124959Y0128301D02*
X0123887Y0128301D01*
X0123887Y0128489D02*
X0124959Y0128489D01*
X0124959Y0128677D02*
X0123887Y0128677D01*
X0123887Y0128865D02*
X0124959Y0128865D01*
X0124959Y0129053D02*
X0123887Y0129053D01*
X0123887Y0129241D02*
X0124959Y0129241D01*
X0124959Y0129429D02*
X0123887Y0129429D01*
X0123887Y0129617D02*
X0124959Y0129617D01*
X0124959Y0129805D02*
X0123887Y0129805D01*
X0123887Y0129993D02*
X0124959Y0129993D01*
X0124959Y0130181D02*
X0123887Y0130181D01*
X0123887Y0130369D02*
X0124959Y0130369D01*
X0124959Y0130557D02*
X0123887Y0130557D01*
X0123887Y0130745D02*
X0124959Y0130745D01*
X0124959Y0130933D02*
X0123887Y0130933D01*
X0123887Y0131121D02*
X0124959Y0131121D01*
X0124959Y0131309D02*
X0123887Y0131309D01*
X0123887Y0131497D02*
X0124959Y0131497D01*
X0124959Y0131685D02*
X0123887Y0131685D01*
X0123887Y0131873D02*
X0124959Y0131873D01*
X0124959Y0132061D02*
X0123887Y0132061D01*
X0122990Y0132067D02*
X0121918Y0132067D01*
X0122990Y0132067D02*
X0122990Y0127925D01*
X0121918Y0127925D01*
X0121918Y0132067D01*
X0121918Y0128113D02*
X0122990Y0128113D01*
X0122990Y0128301D02*
X0121918Y0128301D01*
X0121918Y0128489D02*
X0122990Y0128489D01*
X0122990Y0128677D02*
X0121918Y0128677D01*
X0121918Y0128865D02*
X0122990Y0128865D01*
X0122990Y0129053D02*
X0121918Y0129053D01*
X0121918Y0129241D02*
X0122990Y0129241D01*
X0122990Y0129429D02*
X0121918Y0129429D01*
X0121918Y0129617D02*
X0122990Y0129617D01*
X0122990Y0129805D02*
X0121918Y0129805D01*
X0121918Y0129993D02*
X0122990Y0129993D01*
X0122990Y0130181D02*
X0121918Y0130181D01*
X0121918Y0130369D02*
X0122990Y0130369D01*
X0122990Y0130557D02*
X0121918Y0130557D01*
X0121918Y0130745D02*
X0122990Y0130745D01*
X0122990Y0130933D02*
X0121918Y0130933D01*
X0121918Y0131121D02*
X0122990Y0131121D01*
X0122990Y0131309D02*
X0121918Y0131309D01*
X0121918Y0131497D02*
X0122990Y0131497D01*
X0122990Y0131685D02*
X0121918Y0131685D01*
X0121918Y0131873D02*
X0122990Y0131873D01*
X0122990Y0132061D02*
X0121918Y0132061D01*
X0121022Y0132067D02*
X0119950Y0132067D01*
X0121022Y0132067D02*
X0121022Y0127925D01*
X0119950Y0127925D01*
X0119950Y0132067D01*
X0119950Y0128113D02*
X0121022Y0128113D01*
X0121022Y0128301D02*
X0119950Y0128301D01*
X0119950Y0128489D02*
X0121022Y0128489D01*
X0121022Y0128677D02*
X0119950Y0128677D01*
X0119950Y0128865D02*
X0121022Y0128865D01*
X0121022Y0129053D02*
X0119950Y0129053D01*
X0119950Y0129241D02*
X0121022Y0129241D01*
X0121022Y0129429D02*
X0119950Y0129429D01*
X0119950Y0129617D02*
X0121022Y0129617D01*
X0121022Y0129805D02*
X0119950Y0129805D01*
X0119950Y0129993D02*
X0121022Y0129993D01*
X0121022Y0130181D02*
X0119950Y0130181D01*
X0119950Y0130369D02*
X0121022Y0130369D01*
X0121022Y0130557D02*
X0119950Y0130557D01*
X0119950Y0130745D02*
X0121022Y0130745D01*
X0121022Y0130933D02*
X0119950Y0130933D01*
X0119950Y0131121D02*
X0121022Y0131121D01*
X0121022Y0131309D02*
X0119950Y0131309D01*
X0119950Y0131497D02*
X0121022Y0131497D01*
X0121022Y0131685D02*
X0119950Y0131685D01*
X0119950Y0131873D02*
X0121022Y0131873D01*
X0121022Y0132061D02*
X0119950Y0132061D01*
X0119053Y0132067D02*
X0117981Y0132067D01*
X0119053Y0132067D02*
X0119053Y0127925D01*
X0117981Y0127925D01*
X0117981Y0132067D01*
X0117981Y0128113D02*
X0119053Y0128113D01*
X0119053Y0128301D02*
X0117981Y0128301D01*
X0117981Y0128489D02*
X0119053Y0128489D01*
X0119053Y0128677D02*
X0117981Y0128677D01*
X0117981Y0128865D02*
X0119053Y0128865D01*
X0119053Y0129053D02*
X0117981Y0129053D01*
X0117981Y0129241D02*
X0119053Y0129241D01*
X0119053Y0129429D02*
X0117981Y0129429D01*
X0117981Y0129617D02*
X0119053Y0129617D01*
X0119053Y0129805D02*
X0117981Y0129805D01*
X0117981Y0129993D02*
X0119053Y0129993D01*
X0119053Y0130181D02*
X0117981Y0130181D01*
X0117981Y0130369D02*
X0119053Y0130369D01*
X0119053Y0130557D02*
X0117981Y0130557D01*
X0117981Y0130745D02*
X0119053Y0130745D01*
X0119053Y0130933D02*
X0117981Y0130933D01*
X0117981Y0131121D02*
X0119053Y0131121D01*
X0119053Y0131309D02*
X0117981Y0131309D01*
X0117981Y0131497D02*
X0119053Y0131497D01*
X0119053Y0131685D02*
X0117981Y0131685D01*
X0117981Y0131873D02*
X0119053Y0131873D01*
X0119053Y0132061D02*
X0117981Y0132061D01*
D27*
X0156317Y0061980D02*
X0157489Y0061980D01*
X0157489Y0059824D01*
X0156317Y0059824D01*
X0156317Y0061980D01*
X0156317Y0060030D02*
X0157489Y0060030D01*
X0157489Y0060236D02*
X0156317Y0060236D01*
X0156317Y0060442D02*
X0157489Y0060442D01*
X0157489Y0060648D02*
X0156317Y0060648D01*
X0156317Y0060854D02*
X0157489Y0060854D01*
X0157489Y0061060D02*
X0156317Y0061060D01*
X0156317Y0061266D02*
X0157489Y0061266D01*
X0157489Y0061472D02*
X0156317Y0061472D01*
X0156317Y0061678D02*
X0157489Y0061678D01*
X0157489Y0061884D02*
X0156317Y0061884D01*
X0158286Y0061980D02*
X0159458Y0061980D01*
X0159458Y0059824D01*
X0158286Y0059824D01*
X0158286Y0061980D01*
X0158286Y0060030D02*
X0159458Y0060030D01*
X0159458Y0060236D02*
X0158286Y0060236D01*
X0158286Y0060442D02*
X0159458Y0060442D01*
X0159458Y0060648D02*
X0158286Y0060648D01*
X0158286Y0060854D02*
X0159458Y0060854D01*
X0159458Y0061060D02*
X0158286Y0061060D01*
X0158286Y0061266D02*
X0159458Y0061266D01*
X0159458Y0061472D02*
X0158286Y0061472D01*
X0158286Y0061678D02*
X0159458Y0061678D01*
X0159458Y0061884D02*
X0158286Y0061884D01*
X0160254Y0061980D02*
X0161426Y0061980D01*
X0161426Y0059824D01*
X0160254Y0059824D01*
X0160254Y0061980D01*
X0160254Y0060030D02*
X0161426Y0060030D01*
X0161426Y0060236D02*
X0160254Y0060236D01*
X0160254Y0060442D02*
X0161426Y0060442D01*
X0161426Y0060648D02*
X0160254Y0060648D01*
X0160254Y0060854D02*
X0161426Y0060854D01*
X0161426Y0061060D02*
X0160254Y0061060D01*
X0160254Y0061266D02*
X0161426Y0061266D01*
X0161426Y0061472D02*
X0160254Y0061472D01*
X0160254Y0061678D02*
X0161426Y0061678D01*
X0161426Y0061884D02*
X0160254Y0061884D01*
X0162223Y0061980D02*
X0163395Y0061980D01*
X0163395Y0059824D01*
X0162223Y0059824D01*
X0162223Y0061980D01*
X0162223Y0060030D02*
X0163395Y0060030D01*
X0163395Y0060236D02*
X0162223Y0060236D01*
X0162223Y0060442D02*
X0163395Y0060442D01*
X0163395Y0060648D02*
X0162223Y0060648D01*
X0162223Y0060854D02*
X0163395Y0060854D01*
X0163395Y0061060D02*
X0162223Y0061060D01*
X0162223Y0061266D02*
X0163395Y0061266D01*
X0163395Y0061472D02*
X0162223Y0061472D01*
X0162223Y0061678D02*
X0163395Y0061678D01*
X0163395Y0061884D02*
X0162223Y0061884D01*
X0164191Y0061980D02*
X0165363Y0061980D01*
X0165363Y0059824D01*
X0164191Y0059824D01*
X0164191Y0061980D01*
X0164191Y0060030D02*
X0165363Y0060030D01*
X0165363Y0060236D02*
X0164191Y0060236D01*
X0164191Y0060442D02*
X0165363Y0060442D01*
X0165363Y0060648D02*
X0164191Y0060648D01*
X0164191Y0060854D02*
X0165363Y0060854D01*
X0165363Y0061060D02*
X0164191Y0061060D01*
X0164191Y0061266D02*
X0165363Y0061266D01*
X0165363Y0061472D02*
X0164191Y0061472D01*
X0164191Y0061678D02*
X0165363Y0061678D01*
X0165363Y0061884D02*
X0164191Y0061884D01*
X0164191Y0054499D02*
X0165363Y0054499D01*
X0165363Y0052343D01*
X0164191Y0052343D01*
X0164191Y0054499D01*
X0164191Y0052549D02*
X0165363Y0052549D01*
X0165363Y0052755D02*
X0164191Y0052755D01*
X0164191Y0052961D02*
X0165363Y0052961D01*
X0165363Y0053167D02*
X0164191Y0053167D01*
X0164191Y0053373D02*
X0165363Y0053373D01*
X0165363Y0053579D02*
X0164191Y0053579D01*
X0164191Y0053785D02*
X0165363Y0053785D01*
X0165363Y0053991D02*
X0164191Y0053991D01*
X0164191Y0054197D02*
X0165363Y0054197D01*
X0165363Y0054403D02*
X0164191Y0054403D01*
X0163395Y0054499D02*
X0162223Y0054499D01*
X0163395Y0054499D02*
X0163395Y0052343D01*
X0162223Y0052343D01*
X0162223Y0054499D01*
X0162223Y0052549D02*
X0163395Y0052549D01*
X0163395Y0052755D02*
X0162223Y0052755D01*
X0162223Y0052961D02*
X0163395Y0052961D01*
X0163395Y0053167D02*
X0162223Y0053167D01*
X0162223Y0053373D02*
X0163395Y0053373D01*
X0163395Y0053579D02*
X0162223Y0053579D01*
X0162223Y0053785D02*
X0163395Y0053785D01*
X0163395Y0053991D02*
X0162223Y0053991D01*
X0162223Y0054197D02*
X0163395Y0054197D01*
X0163395Y0054403D02*
X0162223Y0054403D01*
X0161426Y0054499D02*
X0160254Y0054499D01*
X0161426Y0054499D02*
X0161426Y0052343D01*
X0160254Y0052343D01*
X0160254Y0054499D01*
X0160254Y0052549D02*
X0161426Y0052549D01*
X0161426Y0052755D02*
X0160254Y0052755D01*
X0160254Y0052961D02*
X0161426Y0052961D01*
X0161426Y0053167D02*
X0160254Y0053167D01*
X0160254Y0053373D02*
X0161426Y0053373D01*
X0161426Y0053579D02*
X0160254Y0053579D01*
X0160254Y0053785D02*
X0161426Y0053785D01*
X0161426Y0053991D02*
X0160254Y0053991D01*
X0160254Y0054197D02*
X0161426Y0054197D01*
X0161426Y0054403D02*
X0160254Y0054403D01*
X0159458Y0054499D02*
X0158286Y0054499D01*
X0159458Y0054499D02*
X0159458Y0052343D01*
X0158286Y0052343D01*
X0158286Y0054499D01*
X0158286Y0052549D02*
X0159458Y0052549D01*
X0159458Y0052755D02*
X0158286Y0052755D01*
X0158286Y0052961D02*
X0159458Y0052961D01*
X0159458Y0053167D02*
X0158286Y0053167D01*
X0158286Y0053373D02*
X0159458Y0053373D01*
X0159458Y0053579D02*
X0158286Y0053579D01*
X0158286Y0053785D02*
X0159458Y0053785D01*
X0159458Y0053991D02*
X0158286Y0053991D01*
X0158286Y0054197D02*
X0159458Y0054197D01*
X0159458Y0054403D02*
X0158286Y0054403D01*
X0157489Y0054499D02*
X0156317Y0054499D01*
X0157489Y0054499D02*
X0157489Y0052343D01*
X0156317Y0052343D01*
X0156317Y0054499D01*
X0156317Y0052549D02*
X0157489Y0052549D01*
X0157489Y0052755D02*
X0156317Y0052755D01*
X0156317Y0052961D02*
X0157489Y0052961D01*
X0157489Y0053167D02*
X0156317Y0053167D01*
X0156317Y0053373D02*
X0157489Y0053373D01*
X0157489Y0053579D02*
X0156317Y0053579D01*
X0156317Y0053785D02*
X0157489Y0053785D01*
X0157489Y0053991D02*
X0156317Y0053991D01*
X0156317Y0054197D02*
X0157489Y0054197D01*
X0157489Y0054403D02*
X0156317Y0054403D01*
D28*
X0165598Y0055474D02*
X0165598Y0058848D01*
X0165598Y0055474D02*
X0156082Y0055474D01*
X0156082Y0058848D01*
X0165598Y0058848D01*
X0165598Y0056068D02*
X0156082Y0056068D01*
X0156082Y0056662D02*
X0165598Y0056662D01*
X0165598Y0057256D02*
X0156082Y0057256D01*
X0156082Y0057850D02*
X0165598Y0057850D01*
X0165598Y0058444D02*
X0156082Y0058444D01*
D29*
X0205131Y0088657D03*
X0205131Y0098500D03*
X0205131Y0108343D03*
M02*
