G75*
%MOIN*%
%OFA0B0*%
%FSLAX25Y25*%
%IPPOS*%
%LPD*%
%AMOC8*
5,1,8,0,0,1.08239X$1,22.5*
%
%ADD10C,0.00500*%
%ADD11C,0.01181*%
%ADD12C,0.00800*%
%ADD13C,0.00300*%
%ADD14C,0.00600*%
%ADD15C,0.00400*%
%ADD16R,0.16142X0.01181*%
%ADD17R,0.00787X0.00787*%
%ADD18C,0.00787*%
D10*
X0090917Y0029618D02*
X0090917Y0035492D01*
X0090943Y0035492D02*
X0095817Y0032555D01*
X0090943Y0029618D01*
X0094880Y0028555D02*
X0095880Y0029555D01*
X0095943Y0029618D02*
X0095943Y0032555D01*
X0100817Y0029618D01*
X0100817Y0035492D01*
X0095943Y0032555D01*
X0095943Y0035492D01*
X0095980Y0035555D02*
X0096880Y0036555D01*
X0118095Y0025829D02*
X0118668Y0026403D01*
X0119815Y0026403D01*
X0120388Y0025829D01*
X0121720Y0025829D02*
X0122293Y0026403D01*
X0123440Y0026403D01*
X0124013Y0025829D01*
X0124013Y0023536D01*
X0123440Y0022963D01*
X0122293Y0022963D01*
X0121720Y0023536D01*
X0122293Y0024683D02*
X0124013Y0024683D01*
X0122293Y0024683D02*
X0121720Y0025256D01*
X0121720Y0025829D01*
X0120388Y0023536D02*
X0119815Y0022963D01*
X0118668Y0022963D01*
X0118095Y0023536D01*
X0118095Y0025829D01*
X0133843Y0026403D02*
X0133843Y0022963D01*
X0136136Y0022963D01*
X0137468Y0022963D02*
X0139761Y0025256D01*
X0139761Y0025829D01*
X0139188Y0026403D01*
X0138041Y0026403D01*
X0137468Y0025829D01*
X0137468Y0022963D02*
X0139761Y0022963D01*
X0153528Y0023536D02*
X0154101Y0022963D01*
X0155248Y0022963D01*
X0155821Y0023536D01*
X0157153Y0023536D02*
X0157153Y0022963D01*
X0157153Y0023536D02*
X0159446Y0025829D01*
X0159446Y0026403D01*
X0157153Y0026403D01*
X0155821Y0025829D02*
X0155248Y0026403D01*
X0154101Y0026403D01*
X0153528Y0025829D01*
X0153528Y0023536D01*
X0169948Y0033986D02*
X0172259Y0033986D01*
X0173030Y0034757D01*
X0172259Y0035527D01*
X0170719Y0035527D01*
X0169948Y0036297D01*
X0170719Y0037068D01*
X0173030Y0037068D01*
X0174661Y0038608D02*
X0174661Y0033986D01*
X0174661Y0035527D02*
X0176972Y0033986D01*
X0178588Y0034757D02*
X0179359Y0035527D01*
X0181670Y0035527D01*
X0181670Y0036297D02*
X0181670Y0033986D01*
X0179359Y0033986D01*
X0178588Y0034757D01*
X0176972Y0037068D02*
X0174661Y0035527D01*
X0179359Y0037068D02*
X0180899Y0037068D01*
X0181670Y0036297D01*
X0183301Y0036297D02*
X0183301Y0034757D01*
X0184071Y0033986D01*
X0186382Y0033986D01*
X0186382Y0033216D02*
X0186382Y0037068D01*
X0184071Y0037068D01*
X0183301Y0036297D01*
X0188014Y0037068D02*
X0188014Y0033986D01*
X0189554Y0033986D02*
X0189554Y0036297D01*
X0190325Y0037068D01*
X0191095Y0036297D01*
X0191095Y0033986D01*
X0192726Y0034757D02*
X0193497Y0033986D01*
X0195037Y0033986D01*
X0195808Y0034757D01*
X0195808Y0036297D01*
X0195037Y0037068D01*
X0193497Y0037068D01*
X0192726Y0036297D01*
X0192726Y0034757D01*
X0189554Y0036297D02*
X0188784Y0037068D01*
X0188014Y0037068D01*
X0193482Y0040123D02*
X0194252Y0040123D01*
X0195022Y0040893D01*
X0195022Y0044745D01*
X0192711Y0044745D01*
X0191941Y0043974D01*
X0191941Y0042434D01*
X0192711Y0041663D01*
X0195022Y0041663D01*
X0196654Y0042434D02*
X0197424Y0043204D01*
X0199735Y0043204D01*
X0199735Y0043974D02*
X0199735Y0041663D01*
X0197424Y0041663D01*
X0196654Y0042434D01*
X0198965Y0044745D02*
X0199735Y0043974D01*
X0198965Y0044745D02*
X0197424Y0044745D01*
X0201366Y0044745D02*
X0202907Y0044745D01*
X0202137Y0045515D02*
X0202137Y0042434D01*
X0202907Y0041663D01*
X0204508Y0042434D02*
X0204508Y0043974D01*
X0205278Y0044745D01*
X0206819Y0044745D01*
X0207589Y0043974D01*
X0207589Y0043204D01*
X0204508Y0043204D01*
X0204508Y0042434D02*
X0205278Y0041663D01*
X0206819Y0041663D01*
X0209221Y0042434D02*
X0209991Y0041663D01*
X0210761Y0042434D01*
X0211532Y0041663D01*
X0212302Y0042434D01*
X0212302Y0044745D01*
X0214704Y0044745D02*
X0216244Y0044745D01*
X0217015Y0043974D01*
X0217015Y0041663D01*
X0214704Y0041663D01*
X0213933Y0042434D01*
X0214704Y0043204D01*
X0217015Y0043204D01*
X0218646Y0042434D02*
X0219416Y0041663D01*
X0221728Y0041663D01*
X0221728Y0040893D02*
X0220957Y0040123D01*
X0220187Y0040123D01*
X0221728Y0040893D02*
X0221728Y0044745D01*
X0218646Y0044745D02*
X0218646Y0042434D01*
X0222558Y0038608D02*
X0221788Y0037838D01*
X0222558Y0038608D02*
X0224099Y0038608D01*
X0224869Y0037838D01*
X0224869Y0037068D01*
X0221788Y0033986D01*
X0224869Y0033986D01*
X0226501Y0034757D02*
X0229582Y0037838D01*
X0229582Y0034757D01*
X0228812Y0033986D01*
X0227271Y0033986D01*
X0226501Y0034757D01*
X0226501Y0037838D01*
X0227271Y0038608D01*
X0228812Y0038608D01*
X0229582Y0037838D01*
X0231213Y0037068D02*
X0232754Y0038608D01*
X0232754Y0033986D01*
X0231213Y0033986D02*
X0234295Y0033986D01*
X0235926Y0034757D02*
X0235926Y0036297D01*
X0238237Y0036297D01*
X0239007Y0035527D01*
X0239007Y0034757D01*
X0238237Y0033986D01*
X0236696Y0033986D01*
X0235926Y0034757D01*
X0235926Y0036297D02*
X0237467Y0037838D01*
X0239007Y0038608D01*
X0239038Y0049341D02*
X0237497Y0049341D01*
X0238267Y0049341D02*
X0238267Y0053963D01*
X0237497Y0053963D01*
X0235866Y0051652D02*
X0235095Y0052422D01*
X0232784Y0052422D01*
X0232784Y0053963D02*
X0232784Y0049341D01*
X0235095Y0049341D01*
X0235866Y0050111D01*
X0235866Y0051652D01*
X0240639Y0051652D02*
X0240639Y0050111D01*
X0241409Y0049341D01*
X0242950Y0049341D01*
X0243720Y0050881D02*
X0240639Y0050881D01*
X0240639Y0051652D02*
X0241409Y0052422D01*
X0242950Y0052422D01*
X0243720Y0051652D01*
X0243720Y0050881D01*
X0231183Y0049341D02*
X0229642Y0049341D01*
X0230413Y0049341D02*
X0230413Y0052422D01*
X0229642Y0052422D01*
X0228041Y0052422D02*
X0226501Y0052422D01*
X0227271Y0053192D02*
X0227271Y0050111D01*
X0228041Y0049341D01*
X0224869Y0049341D02*
X0222558Y0049341D01*
X0221788Y0050111D01*
X0222558Y0050881D01*
X0224869Y0050881D01*
X0224869Y0051652D02*
X0224869Y0049341D01*
X0220157Y0050111D02*
X0219386Y0049341D01*
X0217075Y0049341D01*
X0217075Y0047800D02*
X0217075Y0052422D01*
X0219386Y0052422D01*
X0220157Y0051652D01*
X0220157Y0050111D01*
X0222558Y0052422D02*
X0224099Y0052422D01*
X0224869Y0051652D01*
X0230413Y0053963D02*
X0230413Y0054733D01*
X0215444Y0051652D02*
X0215444Y0049341D01*
X0213903Y0049341D02*
X0213903Y0051652D01*
X0214674Y0052422D01*
X0215444Y0051652D01*
X0213903Y0051652D02*
X0213133Y0052422D01*
X0212363Y0052422D01*
X0212363Y0049341D01*
X0210731Y0050111D02*
X0210731Y0051652D01*
X0209961Y0052422D01*
X0208420Y0052422D01*
X0207650Y0051652D01*
X0207650Y0050111D01*
X0208420Y0049341D01*
X0209961Y0049341D01*
X0210731Y0050111D01*
X0206019Y0049341D02*
X0203708Y0049341D01*
X0202937Y0050111D01*
X0202937Y0051652D01*
X0203708Y0052422D01*
X0206019Y0052422D01*
X0196593Y0053963D02*
X0196593Y0049341D01*
X0193512Y0053963D01*
X0193512Y0049341D01*
X0191881Y0049341D02*
X0191881Y0052422D01*
X0190340Y0053963D01*
X0188799Y0052422D01*
X0188799Y0049341D01*
X0187168Y0050111D02*
X0186398Y0049341D01*
X0184857Y0049341D01*
X0184086Y0050111D01*
X0184086Y0053192D01*
X0184857Y0053963D01*
X0186398Y0053963D01*
X0187168Y0053192D01*
X0188799Y0051652D02*
X0191881Y0051652D01*
X0182455Y0051652D02*
X0181685Y0050881D01*
X0179374Y0050881D01*
X0179374Y0049341D02*
X0179374Y0053963D01*
X0181685Y0053963D01*
X0182455Y0053192D01*
X0182455Y0051652D01*
X0177742Y0051652D02*
X0174661Y0051652D01*
X0174661Y0052422D02*
X0176202Y0053963D01*
X0177742Y0052422D01*
X0177742Y0049341D01*
X0174661Y0049341D02*
X0174661Y0052422D01*
X0173030Y0051652D02*
X0169948Y0051652D01*
X0169948Y0049341D02*
X0169948Y0053963D01*
X0173030Y0053963D02*
X0173030Y0049341D01*
X0172259Y0046285D02*
X0169948Y0046285D01*
X0169948Y0041663D01*
X0172259Y0041663D01*
X0173030Y0042434D01*
X0173030Y0045515D01*
X0172259Y0046285D01*
X0174661Y0044745D02*
X0176202Y0046285D01*
X0177742Y0044745D01*
X0177742Y0041663D01*
X0179374Y0041663D02*
X0182455Y0041663D01*
X0184086Y0041663D02*
X0185627Y0041663D01*
X0184857Y0041663D02*
X0184857Y0046285D01*
X0185627Y0046285D02*
X0184086Y0046285D01*
X0179374Y0046285D02*
X0179374Y0041663D01*
X0177742Y0043974D02*
X0174661Y0043974D01*
X0174661Y0044745D02*
X0174661Y0041663D01*
X0156346Y0050469D02*
X0156348Y0050516D01*
X0156354Y0050562D01*
X0156363Y0050608D01*
X0156377Y0050652D01*
X0156394Y0050696D01*
X0156415Y0050737D01*
X0156439Y0050777D01*
X0156466Y0050815D01*
X0156497Y0050850D01*
X0156530Y0050883D01*
X0156566Y0050913D01*
X0156605Y0050939D01*
X0156645Y0050963D01*
X0156687Y0050982D01*
X0156731Y0050999D01*
X0156776Y0051011D01*
X0156822Y0051020D01*
X0156868Y0051025D01*
X0156915Y0051026D01*
X0156961Y0051023D01*
X0157007Y0051016D01*
X0157053Y0051005D01*
X0157097Y0050991D01*
X0157140Y0050973D01*
X0157181Y0050951D01*
X0157221Y0050926D01*
X0157258Y0050898D01*
X0157293Y0050867D01*
X0157325Y0050833D01*
X0157354Y0050796D01*
X0157379Y0050758D01*
X0157402Y0050717D01*
X0157421Y0050674D01*
X0157436Y0050630D01*
X0157448Y0050585D01*
X0157456Y0050539D01*
X0157460Y0050492D01*
X0157460Y0050446D01*
X0157456Y0050399D01*
X0157448Y0050353D01*
X0157436Y0050308D01*
X0157421Y0050264D01*
X0157402Y0050221D01*
X0157379Y0050180D01*
X0157354Y0050142D01*
X0157325Y0050105D01*
X0157293Y0050071D01*
X0157258Y0050040D01*
X0157221Y0050012D01*
X0157182Y0049987D01*
X0157140Y0049965D01*
X0157097Y0049947D01*
X0157053Y0049933D01*
X0157007Y0049922D01*
X0156961Y0049915D01*
X0156915Y0049912D01*
X0156868Y0049913D01*
X0156822Y0049918D01*
X0156776Y0049927D01*
X0156731Y0049939D01*
X0156687Y0049956D01*
X0156645Y0049975D01*
X0156605Y0049999D01*
X0156566Y0050025D01*
X0156530Y0050055D01*
X0156497Y0050088D01*
X0156466Y0050123D01*
X0156439Y0050161D01*
X0156415Y0050201D01*
X0156394Y0050242D01*
X0156377Y0050286D01*
X0156363Y0050330D01*
X0156354Y0050376D01*
X0156348Y0050422D01*
X0156346Y0050469D01*
X0155328Y0053224D02*
X0154935Y0053224D01*
X0154935Y0061098D01*
X0155328Y0061098D01*
X0152572Y0057083D02*
X0148242Y0057083D01*
X0145505Y0055443D02*
X0145505Y0058883D01*
X0144358Y0057736D01*
X0143026Y0058310D02*
X0142453Y0058883D01*
X0141306Y0058883D01*
X0140733Y0058310D01*
X0140733Y0056016D01*
X0141306Y0055443D01*
X0142453Y0055443D01*
X0143026Y0056016D01*
X0144358Y0055443D02*
X0146651Y0055443D01*
X0138615Y0053962D02*
X0138615Y0050522D01*
X0139761Y0050522D02*
X0137468Y0050522D01*
X0136136Y0050522D02*
X0133843Y0050522D01*
X0133843Y0053962D01*
X0137468Y0052815D02*
X0138615Y0053962D01*
X0129763Y0061348D02*
X0127470Y0061348D01*
X0129763Y0063642D01*
X0129763Y0064215D01*
X0129190Y0064788D01*
X0128043Y0064788D01*
X0127470Y0064215D01*
X0124991Y0064788D02*
X0124991Y0061348D01*
X0123845Y0061348D02*
X0126138Y0061348D01*
X0122513Y0061922D02*
X0121939Y0061348D01*
X0120793Y0061348D01*
X0120219Y0061922D01*
X0120219Y0064215D01*
X0120793Y0064788D01*
X0121939Y0064788D01*
X0122513Y0064215D01*
X0123845Y0063642D02*
X0124991Y0064788D01*
X0125407Y0066413D02*
X0125407Y0069563D01*
X0125407Y0074681D02*
X0125407Y0079012D01*
X0133015Y0077995D02*
X0133015Y0075701D01*
X0133588Y0075128D01*
X0134735Y0075128D01*
X0135308Y0075701D01*
X0136640Y0075128D02*
X0138933Y0075128D01*
X0137786Y0075128D02*
X0137786Y0078568D01*
X0136640Y0077421D01*
X0135308Y0077995D02*
X0134735Y0078568D01*
X0133588Y0078568D01*
X0133015Y0077995D01*
X0140265Y0077995D02*
X0140265Y0075701D01*
X0142558Y0077995D01*
X0142558Y0075701D01*
X0141985Y0075128D01*
X0140838Y0075128D01*
X0140265Y0075701D01*
X0140265Y0077995D02*
X0140838Y0078568D01*
X0141985Y0078568D01*
X0142558Y0077995D01*
X0151560Y0078081D02*
X0153853Y0078081D01*
X0155185Y0078654D02*
X0155758Y0078081D01*
X0156905Y0078081D01*
X0157478Y0078654D01*
X0157478Y0079227D01*
X0156905Y0079801D01*
X0156331Y0079801D01*
X0156905Y0079801D02*
X0157478Y0080374D01*
X0157478Y0080947D01*
X0156905Y0081521D01*
X0155758Y0081521D01*
X0155185Y0080947D01*
X0151560Y0081521D02*
X0151560Y0078081D01*
X0164355Y0080049D02*
X0164355Y0083489D01*
X0166075Y0083489D01*
X0166648Y0082916D01*
X0166648Y0081769D01*
X0166075Y0081196D01*
X0164355Y0081196D01*
X0165501Y0081196D02*
X0166648Y0080049D01*
X0167980Y0080623D02*
X0168553Y0080049D01*
X0169700Y0080049D01*
X0170273Y0080623D01*
X0170273Y0081769D01*
X0169700Y0082343D01*
X0169127Y0082343D01*
X0167980Y0081769D01*
X0167980Y0083489D01*
X0170273Y0083489D01*
X0172061Y0081768D02*
X0175210Y0081768D01*
X0175880Y0091098D02*
X0175880Y0132043D01*
X0185328Y0132043D01*
X0185328Y0091098D01*
X0175880Y0091098D01*
X0172257Y0099484D02*
X0169108Y0099484D01*
X0169120Y0105837D02*
X0171413Y0105837D01*
X0170267Y0105837D02*
X0170267Y0109277D01*
X0169120Y0108130D01*
X0167788Y0108703D02*
X0167788Y0107557D01*
X0167215Y0106983D01*
X0165495Y0106983D01*
X0165495Y0105837D02*
X0165495Y0109277D01*
X0167215Y0109277D01*
X0167788Y0108703D01*
X0166642Y0106983D02*
X0167788Y0105837D01*
X0172745Y0105837D02*
X0175039Y0105837D01*
X0173892Y0105837D02*
X0173892Y0109277D01*
X0172745Y0108130D01*
X0165761Y0110705D02*
X0165761Y0113854D01*
X0165345Y0116467D02*
X0165345Y0119906D01*
X0164199Y0118760D01*
X0162867Y0119333D02*
X0162294Y0119906D01*
X0161147Y0119906D01*
X0160574Y0119333D01*
X0160574Y0117040D01*
X0161147Y0116467D01*
X0162294Y0116467D01*
X0162867Y0117040D01*
X0164199Y0116467D02*
X0166492Y0116467D01*
X0167824Y0117040D02*
X0168397Y0116467D01*
X0169544Y0116467D01*
X0170117Y0117040D01*
X0170117Y0117613D01*
X0169544Y0118187D01*
X0168971Y0118187D01*
X0169544Y0118187D02*
X0170117Y0118760D01*
X0170117Y0119333D01*
X0169544Y0119906D01*
X0168397Y0119906D01*
X0167824Y0119333D01*
X0161415Y0125898D02*
X0160842Y0125325D01*
X0159695Y0125325D01*
X0159122Y0125898D01*
X0159122Y0126471D01*
X0159695Y0127045D01*
X0160842Y0127045D01*
X0161415Y0126471D01*
X0161415Y0125898D01*
X0160842Y0127045D02*
X0161415Y0127618D01*
X0161415Y0128191D01*
X0160842Y0128765D01*
X0159695Y0128765D01*
X0159122Y0128191D01*
X0159122Y0127618D01*
X0159695Y0127045D01*
X0157790Y0125898D02*
X0157790Y0128765D01*
X0155497Y0128765D02*
X0155497Y0125898D01*
X0156070Y0125325D01*
X0157216Y0125325D01*
X0157790Y0125898D01*
X0170657Y0133278D02*
X0170657Y0136717D01*
X0170657Y0134998D02*
X0172950Y0134998D01*
X0172950Y0136717D02*
X0172950Y0133278D01*
X0174282Y0132704D02*
X0176576Y0132704D01*
X0177907Y0133278D02*
X0179054Y0133278D01*
X0178481Y0133278D02*
X0178481Y0136717D01*
X0179054Y0136717D02*
X0177907Y0136717D01*
X0180324Y0136144D02*
X0180324Y0133851D01*
X0180897Y0133278D01*
X0182044Y0133278D01*
X0182617Y0133851D01*
X0183949Y0133851D02*
X0184523Y0133278D01*
X0185669Y0133278D01*
X0186243Y0133851D01*
X0186243Y0134424D01*
X0185669Y0134998D01*
X0184523Y0134998D01*
X0183949Y0135571D01*
X0183949Y0136144D01*
X0184523Y0136717D01*
X0185669Y0136717D01*
X0186243Y0136144D01*
X0187574Y0136717D02*
X0189294Y0136717D01*
X0189868Y0136144D01*
X0189868Y0134998D01*
X0189294Y0134424D01*
X0187574Y0134424D01*
X0187574Y0133278D02*
X0187574Y0136717D01*
X0182617Y0136144D02*
X0182044Y0136717D01*
X0180897Y0136717D01*
X0180324Y0136144D01*
X0174620Y0138264D02*
X0174620Y0141413D01*
X0175443Y0144026D02*
X0176590Y0144026D01*
X0177163Y0144599D01*
X0177163Y0146892D01*
X0176590Y0147466D01*
X0175443Y0147466D01*
X0174870Y0146892D01*
X0174870Y0146319D01*
X0175443Y0145746D01*
X0177163Y0145746D01*
X0175443Y0144026D02*
X0174870Y0144599D01*
X0173538Y0144026D02*
X0172391Y0145172D01*
X0172965Y0145172D02*
X0171245Y0145172D01*
X0171245Y0144026D02*
X0171245Y0147466D01*
X0172965Y0147466D01*
X0173538Y0146892D01*
X0173538Y0145746D01*
X0172965Y0145172D01*
X0181038Y0144026D02*
X0183332Y0144026D01*
X0184664Y0144026D02*
X0186957Y0144026D01*
X0188289Y0144026D02*
X0190009Y0144026D01*
X0190582Y0144599D01*
X0190582Y0146892D01*
X0190009Y0147466D01*
X0188289Y0147466D01*
X0188289Y0144026D01*
X0185810Y0145746D02*
X0184664Y0145746D01*
X0184664Y0147466D02*
X0184664Y0144026D01*
X0181038Y0144026D02*
X0181038Y0147466D01*
X0184664Y0147466D02*
X0186957Y0147466D01*
X0191914Y0143452D02*
X0194207Y0143452D01*
X0195539Y0144599D02*
X0196112Y0144026D01*
X0197259Y0144026D01*
X0197832Y0144599D01*
X0197832Y0145172D01*
X0197259Y0145746D01*
X0196112Y0145746D01*
X0195539Y0146319D01*
X0195539Y0146892D01*
X0196112Y0147466D01*
X0197259Y0147466D01*
X0197832Y0146892D01*
X0199164Y0147466D02*
X0201457Y0147466D01*
X0200311Y0147466D02*
X0200311Y0144026D01*
X0202789Y0144026D02*
X0202789Y0146319D01*
X0203936Y0147466D01*
X0205083Y0146319D01*
X0205083Y0144026D01*
X0205083Y0145746D02*
X0202789Y0145746D01*
X0206414Y0147466D02*
X0208708Y0147466D01*
X0207561Y0147466D02*
X0207561Y0144026D01*
X0162559Y0143621D02*
X0162559Y0142474D01*
X0161985Y0141901D01*
X0159692Y0144194D01*
X0161985Y0144194D01*
X0162559Y0143621D01*
X0161985Y0141901D02*
X0159692Y0141901D01*
X0159119Y0142474D01*
X0159119Y0143621D01*
X0159692Y0144194D01*
X0162559Y0140569D02*
X0162559Y0138276D01*
X0162559Y0139423D02*
X0159119Y0139423D01*
X0160265Y0138276D01*
X0159692Y0136944D02*
X0160839Y0136944D01*
X0161412Y0136371D01*
X0161412Y0134651D01*
X0161412Y0135798D02*
X0162559Y0136944D01*
X0162559Y0134651D02*
X0159119Y0134651D01*
X0159119Y0136371D01*
X0159692Y0136944D01*
X0153832Y0139760D02*
X0150683Y0139760D01*
X0145683Y0139839D02*
X0142533Y0139839D01*
X0140905Y0139423D02*
X0137465Y0139423D01*
X0138612Y0138276D01*
X0138038Y0136944D02*
X0137465Y0136371D01*
X0137465Y0135224D01*
X0138038Y0134651D01*
X0140332Y0134651D01*
X0140905Y0135224D01*
X0140905Y0136371D01*
X0140332Y0136944D01*
X0140905Y0138276D02*
X0140905Y0140569D01*
X0140332Y0141901D02*
X0140905Y0142474D01*
X0140905Y0143621D01*
X0140332Y0144194D01*
X0139185Y0144194D01*
X0138612Y0143621D01*
X0138612Y0143048D01*
X0139185Y0141901D01*
X0137465Y0141901D01*
X0137465Y0144194D01*
X0132179Y0139760D02*
X0129029Y0139760D01*
X0127401Y0139344D02*
X0123961Y0139344D01*
X0125108Y0138197D01*
X0124535Y0136865D02*
X0123961Y0136292D01*
X0123961Y0135145D01*
X0124535Y0134572D01*
X0126828Y0134572D01*
X0127401Y0135145D01*
X0127401Y0136292D01*
X0126828Y0136865D01*
X0127401Y0138197D02*
X0127401Y0140491D01*
X0125681Y0141822D02*
X0125681Y0144116D01*
X0127401Y0143542D02*
X0123961Y0143542D01*
X0125681Y0141822D01*
X0115155Y0144599D02*
X0115155Y0145172D01*
X0114582Y0145746D01*
X0113435Y0145746D01*
X0112862Y0146319D01*
X0112862Y0146892D01*
X0113435Y0147466D01*
X0114582Y0147466D01*
X0115155Y0146892D01*
X0115155Y0146319D01*
X0114582Y0145746D01*
X0113435Y0145746D02*
X0112862Y0145172D01*
X0112862Y0144599D01*
X0113435Y0144026D01*
X0114582Y0144026D01*
X0115155Y0144599D01*
X0111530Y0144599D02*
X0110957Y0144026D01*
X0109810Y0144026D01*
X0109237Y0144599D01*
X0109237Y0146892D01*
X0109810Y0147466D01*
X0110957Y0147466D01*
X0111530Y0146892D01*
X0107281Y0146892D02*
X0107281Y0146319D01*
X0106708Y0145746D01*
X0105561Y0145746D01*
X0104988Y0146319D01*
X0104988Y0146892D01*
X0105561Y0147466D01*
X0106708Y0147466D01*
X0107281Y0146892D01*
X0106708Y0145746D02*
X0107281Y0145172D01*
X0107281Y0144599D01*
X0106708Y0144026D01*
X0105561Y0144026D01*
X0104988Y0144599D01*
X0104988Y0145172D01*
X0105561Y0145746D01*
X0103656Y0145746D02*
X0103083Y0145172D01*
X0101363Y0145172D01*
X0102509Y0145172D02*
X0103656Y0144026D01*
X0103656Y0145746D02*
X0103656Y0146892D01*
X0103083Y0147466D01*
X0101363Y0147466D01*
X0101363Y0144026D01*
X0099407Y0146892D02*
X0097114Y0144599D01*
X0097114Y0144026D01*
X0095782Y0144026D02*
X0094635Y0145172D01*
X0095209Y0145172D02*
X0093489Y0145172D01*
X0093489Y0144026D02*
X0093489Y0147466D01*
X0095209Y0147466D01*
X0095782Y0146892D01*
X0095782Y0145746D01*
X0095209Y0145172D01*
X0097114Y0147466D02*
X0099407Y0147466D01*
X0099407Y0146892D01*
X0077916Y0144297D02*
X0077916Y0143150D01*
X0077343Y0142577D01*
X0077343Y0141245D02*
X0075049Y0141245D01*
X0074476Y0140672D01*
X0074476Y0139525D01*
X0075049Y0138952D01*
X0077343Y0138952D01*
X0077916Y0139525D01*
X0077916Y0140672D01*
X0077343Y0141245D01*
X0075049Y0142577D02*
X0074476Y0143150D01*
X0074476Y0144297D01*
X0075049Y0144870D01*
X0077343Y0144870D01*
X0077916Y0144297D01*
X0077916Y0137620D02*
X0074476Y0137620D01*
X0074476Y0135327D02*
X0077916Y0137620D01*
X0077916Y0135327D02*
X0074476Y0135327D01*
X0074476Y0133995D02*
X0076769Y0131702D01*
X0077343Y0131702D01*
X0077916Y0132275D01*
X0077916Y0133422D01*
X0077343Y0133995D01*
X0074476Y0133995D02*
X0074476Y0131702D01*
X0077486Y0124828D02*
X0076912Y0124254D01*
X0076912Y0121961D01*
X0077486Y0121388D01*
X0078632Y0121388D01*
X0079206Y0121961D01*
X0080537Y0121388D02*
X0082831Y0121388D01*
X0081684Y0121388D02*
X0081684Y0124828D01*
X0080537Y0123681D01*
X0079206Y0124254D02*
X0078632Y0124828D01*
X0077486Y0124828D01*
X0084163Y0123108D02*
X0085883Y0123108D01*
X0086456Y0122534D01*
X0086456Y0121961D01*
X0085883Y0121388D01*
X0084736Y0121388D01*
X0084163Y0121961D01*
X0084163Y0123108D01*
X0085309Y0124254D01*
X0086456Y0124828D01*
X0089552Y0124828D02*
X0091845Y0121388D01*
X0093177Y0121388D02*
X0095470Y0121388D01*
X0094323Y0121388D02*
X0094323Y0124828D01*
X0093177Y0123681D01*
X0091845Y0124828D02*
X0089552Y0121388D01*
X0102179Y0122122D02*
X0105328Y0122122D01*
X0101220Y0126506D02*
X0098926Y0126506D01*
X0100073Y0126506D02*
X0100073Y0129946D01*
X0098926Y0128799D01*
X0097595Y0126506D02*
X0095301Y0126506D01*
X0096448Y0126506D02*
X0096448Y0129946D01*
X0095301Y0128799D01*
X0093969Y0129373D02*
X0093396Y0129946D01*
X0092249Y0129946D01*
X0091676Y0129373D01*
X0091676Y0127079D01*
X0092249Y0126506D01*
X0093396Y0126506D01*
X0093969Y0127079D01*
X0096273Y0135902D02*
X0099423Y0135902D01*
X0103163Y0135902D02*
X0106313Y0135902D01*
X0110053Y0135902D02*
X0113202Y0135902D01*
X0083675Y0114248D02*
X0080525Y0114248D01*
X0080525Y0102437D02*
X0083675Y0102437D01*
X0084163Y0095300D02*
X0086456Y0095300D01*
X0086456Y0094727D01*
X0084163Y0092434D01*
X0084163Y0091860D01*
X0082831Y0091860D02*
X0080537Y0091860D01*
X0081684Y0091860D02*
X0081684Y0095300D01*
X0080537Y0094154D01*
X0079206Y0094727D02*
X0078632Y0095300D01*
X0077486Y0095300D01*
X0076912Y0094727D01*
X0076912Y0092434D01*
X0077486Y0091860D01*
X0078632Y0091860D01*
X0079206Y0092434D01*
X0078725Y0089395D02*
X0078725Y0086528D01*
X0079298Y0085955D01*
X0080445Y0085955D01*
X0081018Y0086528D01*
X0081018Y0089395D01*
X0082350Y0088821D02*
X0082923Y0089395D01*
X0084070Y0089395D01*
X0084643Y0088821D01*
X0084643Y0088248D01*
X0082350Y0085955D01*
X0084643Y0085955D01*
X0077916Y0084258D02*
X0077916Y0083111D01*
X0077343Y0082538D01*
X0077343Y0081206D02*
X0075049Y0081206D01*
X0074476Y0080633D01*
X0074476Y0079486D01*
X0075049Y0078913D01*
X0077343Y0078913D01*
X0077916Y0079486D01*
X0077916Y0080633D01*
X0077343Y0081206D01*
X0075049Y0082538D02*
X0074476Y0083111D01*
X0074476Y0084258D01*
X0075049Y0084831D01*
X0077343Y0084831D01*
X0077916Y0084258D01*
X0077916Y0077581D02*
X0074476Y0077581D01*
X0074476Y0075287D02*
X0077916Y0077581D01*
X0077916Y0075287D02*
X0074476Y0075287D01*
X0074476Y0073956D02*
X0074476Y0071662D01*
X0074476Y0072809D02*
X0077916Y0072809D01*
X0076769Y0073956D01*
X0094895Y0088067D02*
X0094895Y0091217D01*
X0101363Y0090790D02*
X0101363Y0088497D01*
X0101936Y0087923D01*
X0103083Y0087923D01*
X0103656Y0088497D01*
X0104988Y0088497D02*
X0105561Y0087923D01*
X0106708Y0087923D01*
X0107281Y0088497D01*
X0107281Y0089643D01*
X0106708Y0090217D01*
X0106134Y0090217D01*
X0104988Y0089643D01*
X0104988Y0091363D01*
X0107281Y0091363D01*
X0103656Y0090790D02*
X0103083Y0091363D01*
X0101936Y0091363D01*
X0101363Y0090790D01*
X0166323Y0066757D02*
X0166323Y0063890D01*
X0166897Y0063317D01*
X0168043Y0063317D01*
X0168617Y0063890D01*
X0168617Y0066757D01*
X0169948Y0065610D02*
X0171095Y0066757D01*
X0171095Y0063317D01*
X0169948Y0063317D02*
X0172242Y0063317D01*
X0166746Y0061098D02*
X0166352Y0061098D01*
X0166746Y0061098D02*
X0166746Y0053224D01*
X0166352Y0053224D01*
X0199795Y0036297D02*
X0200566Y0037068D01*
X0202877Y0037068D01*
X0204508Y0036297D02*
X0204508Y0034757D01*
X0205278Y0033986D01*
X0206819Y0033986D01*
X0207589Y0034757D01*
X0207589Y0036297D01*
X0206819Y0037068D01*
X0205278Y0037068D01*
X0204508Y0036297D01*
X0202877Y0033986D02*
X0200566Y0033986D01*
X0199795Y0034757D01*
X0199795Y0036297D01*
X0198209Y0034757D02*
X0198209Y0033986D01*
X0197439Y0033986D01*
X0197439Y0034757D01*
X0198209Y0034757D01*
X0209221Y0033986D02*
X0209221Y0037068D01*
X0209991Y0037068D01*
X0210761Y0036297D01*
X0211532Y0037068D01*
X0212302Y0036297D01*
X0212302Y0033986D01*
X0210761Y0033986D02*
X0210761Y0036297D01*
X0214704Y0034757D02*
X0214704Y0033986D01*
X0215474Y0033986D01*
X0215474Y0034757D01*
X0214704Y0034757D01*
X0215474Y0033986D02*
X0213933Y0032446D01*
X0209221Y0042434D02*
X0209221Y0044745D01*
X0186382Y0033216D02*
X0185612Y0032446D01*
X0184842Y0032446D01*
X0121061Y0052079D02*
X0120487Y0051506D01*
X0119341Y0051506D01*
X0118767Y0052079D01*
X0117435Y0052079D02*
X0117435Y0054373D01*
X0116862Y0054946D01*
X0115142Y0054946D01*
X0115142Y0051506D01*
X0116862Y0051506D01*
X0117435Y0052079D01*
X0119914Y0053226D02*
X0120487Y0053226D01*
X0121061Y0052653D01*
X0121061Y0052079D01*
X0120487Y0053226D02*
X0121061Y0053799D01*
X0121061Y0054373D01*
X0120487Y0054946D01*
X0119341Y0054946D01*
X0118767Y0054373D01*
X0118767Y0056427D02*
X0121061Y0058720D01*
X0121061Y0059294D01*
X0120487Y0059867D01*
X0119341Y0059867D01*
X0118767Y0059294D01*
X0117435Y0059294D02*
X0116862Y0059867D01*
X0115142Y0059867D01*
X0115142Y0056427D01*
X0116862Y0056427D01*
X0117435Y0057000D01*
X0117435Y0059294D01*
X0118767Y0056427D02*
X0121061Y0056427D01*
X0099817Y0054209D02*
X0099817Y0050272D01*
X0091943Y0046335D01*
X0091943Y0054209D01*
X0099817Y0050272D01*
X0099817Y0046335D01*
X0178950Y0071925D02*
X0182100Y0071925D01*
X0184040Y0071353D02*
X0185760Y0071353D01*
X0186333Y0071927D01*
X0186333Y0073073D01*
X0185760Y0073647D01*
X0184040Y0073647D01*
X0184040Y0070207D01*
X0185186Y0071353D02*
X0186333Y0070207D01*
X0187665Y0070780D02*
X0188238Y0070207D01*
X0189385Y0070207D01*
X0189958Y0070780D01*
X0189958Y0071353D01*
X0189385Y0071927D01*
X0187665Y0071927D01*
X0187665Y0070780D01*
X0187665Y0071927D02*
X0188812Y0073073D01*
X0189958Y0073647D01*
X0197147Y0119830D02*
X0199440Y0119830D01*
X0200772Y0120977D02*
X0201345Y0120404D01*
X0202492Y0120404D01*
X0203065Y0120977D01*
X0203065Y0123843D01*
X0204397Y0122697D02*
X0205544Y0123843D01*
X0206691Y0122697D01*
X0206691Y0120404D01*
X0208022Y0120404D02*
X0208022Y0123843D01*
X0209742Y0123843D01*
X0210316Y0123270D01*
X0210316Y0122124D01*
X0209742Y0121550D01*
X0208022Y0121550D01*
X0209169Y0121550D02*
X0210316Y0120404D01*
X0212794Y0120404D02*
X0212794Y0123843D01*
X0211647Y0123843D02*
X0213941Y0123843D01*
X0206691Y0122124D02*
X0204397Y0122124D01*
X0204397Y0122697D02*
X0204397Y0120404D01*
X0200772Y0120977D02*
X0200772Y0123843D01*
X0195815Y0123843D02*
X0195815Y0120404D01*
X0195815Y0122124D02*
X0193522Y0122124D01*
X0193522Y0123843D02*
X0193522Y0120404D01*
D11*
X0217927Y0119169D02*
X0217927Y0123598D01*
X0217927Y0127535D02*
X0217927Y0131965D01*
X0217927Y0135902D02*
X0217927Y0140331D01*
X0217927Y0144268D02*
X0217927Y0148697D01*
X0217927Y0115232D02*
X0217927Y0110803D01*
X0217927Y0106866D02*
X0217927Y0102437D01*
X0217927Y0098500D02*
X0217927Y0094071D01*
X0217927Y0090134D02*
X0217927Y0085705D01*
X0222440Y0081191D01*
X0225224Y0078407D02*
X0229738Y0073894D01*
X0234331Y0073894D01*
X0238268Y0073894D02*
X0242861Y0073894D01*
X0246798Y0073894D02*
X0251391Y0073894D01*
X0253360Y0071925D01*
X0253360Y0067004D01*
X0252572Y0069169D02*
X0269895Y0069169D01*
X0269895Y0054996D01*
X0252572Y0054996D01*
X0252572Y0069169D01*
X0253360Y0063067D02*
X0253360Y0058146D01*
X0253360Y0054209D02*
X0253360Y0049287D01*
X0252572Y0047516D02*
X0269895Y0047516D01*
X0269895Y0033343D01*
X0252572Y0033343D01*
X0252572Y0047516D01*
X0253360Y0045350D02*
X0253360Y0040429D01*
X0253360Y0036492D02*
X0253360Y0031571D01*
X0253360Y0027634D02*
X0253360Y0022713D01*
X0239580Y0045429D02*
X0239582Y0045517D01*
X0239588Y0045605D01*
X0239598Y0045693D01*
X0239612Y0045781D01*
X0239629Y0045867D01*
X0239651Y0045953D01*
X0239676Y0046037D01*
X0239706Y0046121D01*
X0239738Y0046203D01*
X0239775Y0046283D01*
X0239815Y0046362D01*
X0239859Y0046439D01*
X0239906Y0046514D01*
X0239956Y0046586D01*
X0240010Y0046657D01*
X0240066Y0046724D01*
X0240126Y0046790D01*
X0240188Y0046852D01*
X0240254Y0046912D01*
X0240321Y0046968D01*
X0240392Y0047022D01*
X0240464Y0047072D01*
X0240539Y0047119D01*
X0240616Y0047163D01*
X0240695Y0047203D01*
X0240775Y0047240D01*
X0240857Y0047272D01*
X0240941Y0047302D01*
X0241025Y0047327D01*
X0241111Y0047349D01*
X0241197Y0047366D01*
X0241285Y0047380D01*
X0241373Y0047390D01*
X0241461Y0047396D01*
X0241549Y0047398D01*
X0241637Y0047396D01*
X0241725Y0047390D01*
X0241813Y0047380D01*
X0241901Y0047366D01*
X0241987Y0047349D01*
X0242073Y0047327D01*
X0242157Y0047302D01*
X0242241Y0047272D01*
X0242323Y0047240D01*
X0242403Y0047203D01*
X0242482Y0047163D01*
X0242559Y0047119D01*
X0242634Y0047072D01*
X0242706Y0047022D01*
X0242777Y0046968D01*
X0242844Y0046912D01*
X0242910Y0046852D01*
X0242972Y0046790D01*
X0243032Y0046724D01*
X0243088Y0046657D01*
X0243142Y0046586D01*
X0243192Y0046514D01*
X0243239Y0046439D01*
X0243283Y0046362D01*
X0243323Y0046283D01*
X0243360Y0046203D01*
X0243392Y0046121D01*
X0243422Y0046037D01*
X0243447Y0045953D01*
X0243469Y0045867D01*
X0243486Y0045781D01*
X0243500Y0045693D01*
X0243510Y0045605D01*
X0243516Y0045517D01*
X0243518Y0045429D01*
X0243516Y0045341D01*
X0243510Y0045253D01*
X0243500Y0045165D01*
X0243486Y0045077D01*
X0243469Y0044991D01*
X0243447Y0044905D01*
X0243422Y0044821D01*
X0243392Y0044737D01*
X0243360Y0044655D01*
X0243323Y0044575D01*
X0243283Y0044496D01*
X0243239Y0044419D01*
X0243192Y0044344D01*
X0243142Y0044272D01*
X0243088Y0044201D01*
X0243032Y0044134D01*
X0242972Y0044068D01*
X0242910Y0044006D01*
X0242844Y0043946D01*
X0242777Y0043890D01*
X0242706Y0043836D01*
X0242634Y0043786D01*
X0242559Y0043739D01*
X0242482Y0043695D01*
X0242403Y0043655D01*
X0242323Y0043618D01*
X0242241Y0043586D01*
X0242157Y0043556D01*
X0242073Y0043531D01*
X0241987Y0043509D01*
X0241901Y0043492D01*
X0241813Y0043478D01*
X0241725Y0043468D01*
X0241637Y0043462D01*
X0241549Y0043460D01*
X0241461Y0043462D01*
X0241373Y0043468D01*
X0241285Y0043478D01*
X0241197Y0043492D01*
X0241111Y0043509D01*
X0241025Y0043531D01*
X0240941Y0043556D01*
X0240857Y0043586D01*
X0240775Y0043618D01*
X0240695Y0043655D01*
X0240616Y0043695D01*
X0240539Y0043739D01*
X0240464Y0043786D01*
X0240392Y0043836D01*
X0240321Y0043890D01*
X0240254Y0043946D01*
X0240188Y0044006D01*
X0240126Y0044068D01*
X0240066Y0044134D01*
X0240010Y0044201D01*
X0239956Y0044272D01*
X0239906Y0044344D01*
X0239859Y0044419D01*
X0239815Y0044496D01*
X0239775Y0044575D01*
X0239738Y0044655D01*
X0239706Y0044737D01*
X0239676Y0044821D01*
X0239651Y0044905D01*
X0239629Y0044991D01*
X0239612Y0045077D01*
X0239598Y0045165D01*
X0239588Y0045253D01*
X0239582Y0045341D01*
X0239580Y0045429D01*
X0278950Y0057083D02*
X0278952Y0057171D01*
X0278958Y0057259D01*
X0278968Y0057347D01*
X0278982Y0057435D01*
X0278999Y0057521D01*
X0279021Y0057607D01*
X0279046Y0057691D01*
X0279076Y0057775D01*
X0279108Y0057857D01*
X0279145Y0057937D01*
X0279185Y0058016D01*
X0279229Y0058093D01*
X0279276Y0058168D01*
X0279326Y0058240D01*
X0279380Y0058311D01*
X0279436Y0058378D01*
X0279496Y0058444D01*
X0279558Y0058506D01*
X0279624Y0058566D01*
X0279691Y0058622D01*
X0279762Y0058676D01*
X0279834Y0058726D01*
X0279909Y0058773D01*
X0279986Y0058817D01*
X0280065Y0058857D01*
X0280145Y0058894D01*
X0280227Y0058926D01*
X0280311Y0058956D01*
X0280395Y0058981D01*
X0280481Y0059003D01*
X0280567Y0059020D01*
X0280655Y0059034D01*
X0280743Y0059044D01*
X0280831Y0059050D01*
X0280919Y0059052D01*
X0281007Y0059050D01*
X0281095Y0059044D01*
X0281183Y0059034D01*
X0281271Y0059020D01*
X0281357Y0059003D01*
X0281443Y0058981D01*
X0281527Y0058956D01*
X0281611Y0058926D01*
X0281693Y0058894D01*
X0281773Y0058857D01*
X0281852Y0058817D01*
X0281929Y0058773D01*
X0282004Y0058726D01*
X0282076Y0058676D01*
X0282147Y0058622D01*
X0282214Y0058566D01*
X0282280Y0058506D01*
X0282342Y0058444D01*
X0282402Y0058378D01*
X0282458Y0058311D01*
X0282512Y0058240D01*
X0282562Y0058168D01*
X0282609Y0058093D01*
X0282653Y0058016D01*
X0282693Y0057937D01*
X0282730Y0057857D01*
X0282762Y0057775D01*
X0282792Y0057691D01*
X0282817Y0057607D01*
X0282839Y0057521D01*
X0282856Y0057435D01*
X0282870Y0057347D01*
X0282880Y0057259D01*
X0282886Y0057171D01*
X0282888Y0057083D01*
X0282886Y0056995D01*
X0282880Y0056907D01*
X0282870Y0056819D01*
X0282856Y0056731D01*
X0282839Y0056645D01*
X0282817Y0056559D01*
X0282792Y0056475D01*
X0282762Y0056391D01*
X0282730Y0056309D01*
X0282693Y0056229D01*
X0282653Y0056150D01*
X0282609Y0056073D01*
X0282562Y0055998D01*
X0282512Y0055926D01*
X0282458Y0055855D01*
X0282402Y0055788D01*
X0282342Y0055722D01*
X0282280Y0055660D01*
X0282214Y0055600D01*
X0282147Y0055544D01*
X0282076Y0055490D01*
X0282004Y0055440D01*
X0281929Y0055393D01*
X0281852Y0055349D01*
X0281773Y0055309D01*
X0281693Y0055272D01*
X0281611Y0055240D01*
X0281527Y0055210D01*
X0281443Y0055185D01*
X0281357Y0055163D01*
X0281271Y0055146D01*
X0281183Y0055132D01*
X0281095Y0055122D01*
X0281007Y0055116D01*
X0280919Y0055114D01*
X0280831Y0055116D01*
X0280743Y0055122D01*
X0280655Y0055132D01*
X0280567Y0055146D01*
X0280481Y0055163D01*
X0280395Y0055185D01*
X0280311Y0055210D01*
X0280227Y0055240D01*
X0280145Y0055272D01*
X0280065Y0055309D01*
X0279986Y0055349D01*
X0279909Y0055393D01*
X0279834Y0055440D01*
X0279762Y0055490D01*
X0279691Y0055544D01*
X0279624Y0055600D01*
X0279558Y0055660D01*
X0279496Y0055722D01*
X0279436Y0055788D01*
X0279380Y0055855D01*
X0279326Y0055926D01*
X0279276Y0055998D01*
X0279229Y0056073D01*
X0279185Y0056150D01*
X0279145Y0056229D01*
X0279108Y0056309D01*
X0279076Y0056391D01*
X0279046Y0056475D01*
X0279021Y0056559D01*
X0278999Y0056645D01*
X0278982Y0056731D01*
X0278968Y0056819D01*
X0278958Y0056907D01*
X0278952Y0056995D01*
X0278950Y0057083D01*
D12*
X0001400Y0085705D02*
X0001400Y0025705D01*
X0072700Y0025705D01*
X0072700Y0085705D01*
X0072700Y0145705D01*
X0001400Y0145705D01*
X0001400Y0085705D01*
X0072700Y0085705D01*
X0001400Y0085705D01*
X0079474Y0057555D02*
X0112285Y0057555D01*
X0112285Y0042988D01*
X0079474Y0042988D01*
X0079474Y0057555D01*
X0086864Y0062644D02*
X0094364Y0062644D01*
X0094366Y0062742D01*
X0094372Y0062840D01*
X0094381Y0062938D01*
X0094395Y0063035D01*
X0094412Y0063132D01*
X0094433Y0063228D01*
X0094458Y0063323D01*
X0094486Y0063417D01*
X0094519Y0063509D01*
X0094554Y0063601D01*
X0094594Y0063691D01*
X0094636Y0063779D01*
X0094683Y0063866D01*
X0094732Y0063950D01*
X0094785Y0064033D01*
X0094841Y0064113D01*
X0094901Y0064192D01*
X0094963Y0064268D01*
X0095028Y0064341D01*
X0095096Y0064412D01*
X0095167Y0064480D01*
X0095240Y0064545D01*
X0095316Y0064607D01*
X0095395Y0064667D01*
X0095475Y0064723D01*
X0095558Y0064776D01*
X0095642Y0064825D01*
X0095729Y0064872D01*
X0095817Y0064914D01*
X0095907Y0064954D01*
X0095999Y0064989D01*
X0096091Y0065022D01*
X0096185Y0065050D01*
X0096280Y0065075D01*
X0096376Y0065096D01*
X0096473Y0065113D01*
X0096570Y0065127D01*
X0096668Y0065136D01*
X0096766Y0065142D01*
X0096864Y0065144D01*
X0096962Y0065142D01*
X0097060Y0065136D01*
X0097158Y0065127D01*
X0097255Y0065113D01*
X0097352Y0065096D01*
X0097448Y0065075D01*
X0097543Y0065050D01*
X0097637Y0065022D01*
X0097729Y0064989D01*
X0097821Y0064954D01*
X0097911Y0064914D01*
X0097999Y0064872D01*
X0098086Y0064825D01*
X0098170Y0064776D01*
X0098253Y0064723D01*
X0098333Y0064667D01*
X0098412Y0064607D01*
X0098488Y0064545D01*
X0098561Y0064480D01*
X0098632Y0064412D01*
X0098700Y0064341D01*
X0098765Y0064268D01*
X0098827Y0064192D01*
X0098887Y0064113D01*
X0098943Y0064033D01*
X0098996Y0063950D01*
X0099045Y0063866D01*
X0099092Y0063779D01*
X0099134Y0063691D01*
X0099174Y0063601D01*
X0099209Y0063509D01*
X0099242Y0063417D01*
X0099270Y0063323D01*
X0099295Y0063228D01*
X0099316Y0063132D01*
X0099333Y0063035D01*
X0099347Y0062938D01*
X0099356Y0062840D01*
X0099362Y0062742D01*
X0099364Y0062644D01*
X0106864Y0062644D01*
X0101679Y0057358D02*
X0101679Y0043185D01*
X0112285Y0039839D02*
X0079474Y0039839D01*
X0079474Y0025272D01*
X0112285Y0025272D01*
X0112285Y0039839D01*
X0128557Y0040496D02*
X0128557Y0048236D01*
X0145880Y0048236D01*
X0145880Y0040496D01*
X0128557Y0040496D01*
X0128557Y0036425D02*
X0145880Y0036425D01*
X0145880Y0028685D01*
X0128557Y0028685D01*
X0128557Y0036425D01*
X0125340Y0029799D02*
X0117600Y0029799D01*
X0117600Y0047122D01*
X0125340Y0047122D01*
X0125340Y0029799D01*
X0150171Y0028331D02*
X0163635Y0028331D01*
X0163635Y0048591D01*
X0150171Y0048591D01*
X0150171Y0028331D01*
X0106864Y0085144D02*
X0086864Y0085144D01*
X0113202Y0087280D02*
X0113202Y0091217D01*
X0113202Y0087280D02*
X0117139Y0087280D01*
X0149423Y0087280D02*
X0153360Y0091217D01*
X0153360Y0123500D02*
X0153360Y0127437D01*
X0149423Y0127437D01*
X0117139Y0127437D02*
X0113202Y0127437D01*
X0113202Y0123500D01*
X0240761Y0119102D02*
X0240761Y0111362D01*
X0258084Y0111362D01*
X0258084Y0119102D01*
X0240761Y0119102D01*
X0264383Y0119102D02*
X0264383Y0111362D01*
X0281706Y0111362D01*
X0281706Y0119102D01*
X0264383Y0119102D01*
X0285734Y0120043D02*
X0285734Y0134043D01*
X0311537Y0134043D01*
X0311537Y0120043D01*
X0285734Y0120043D01*
X0281706Y0107291D02*
X0264383Y0107291D01*
X0264383Y0099551D01*
X0281706Y0099551D01*
X0281706Y0107291D01*
X0301391Y0105390D02*
X0344698Y0105390D01*
X0344698Y0066020D01*
X0301391Y0066020D01*
X0301391Y0105390D01*
X0330919Y0095547D02*
X0332887Y0093579D01*
X0330919Y0095547D02*
X0332887Y0097516D01*
X0330919Y0095547D02*
X0336824Y0095547D01*
X0332887Y0077831D02*
X0330919Y0075862D01*
X0332887Y0073894D01*
X0330919Y0075862D02*
X0336824Y0075862D01*
X0258084Y0087740D02*
X0240761Y0087740D01*
X0240761Y0095480D01*
X0258084Y0095480D01*
X0258084Y0087740D01*
X0258084Y0099551D02*
X0240761Y0099551D01*
X0240761Y0107291D01*
X0258084Y0107291D01*
X0258084Y0099551D01*
X0318911Y0119169D02*
X0318911Y0134917D01*
X0337415Y0134917D01*
X0337415Y0119169D01*
X0318911Y0119169D01*
D13*
X0100815Y0064622D02*
X0098389Y0064622D01*
X0099602Y0064622D02*
X0099602Y0068263D01*
X0098389Y0067049D01*
X0051450Y0071172D02*
X0051450Y0073640D01*
X0051450Y0072406D02*
X0047747Y0072406D01*
X0048981Y0071172D01*
X0048981Y0131172D02*
X0047747Y0132406D01*
X0051450Y0132406D01*
X0051450Y0131172D02*
X0051450Y0133640D01*
D14*
X0232012Y0134317D02*
X0232012Y0137517D01*
X0234212Y0137517D01*
X0241012Y0137517D02*
X0243212Y0137517D01*
X0243212Y0134317D01*
X0247760Y0134317D02*
X0247760Y0137517D01*
X0249960Y0137517D01*
X0256760Y0137517D02*
X0258960Y0137517D01*
X0258960Y0134317D01*
X0263508Y0135517D02*
X0263508Y0132317D01*
X0265708Y0132317D01*
X0272508Y0132317D02*
X0274708Y0132317D01*
X0274708Y0135517D01*
X0280806Y0141811D02*
X0281494Y0141123D01*
X0282870Y0141123D01*
X0283558Y0141811D01*
X0283558Y0144563D01*
X0282870Y0145251D01*
X0281494Y0145251D01*
X0280806Y0144563D01*
X0280806Y0141811D01*
X0282182Y0142499D02*
X0283558Y0141123D01*
X0285156Y0141811D02*
X0285844Y0141123D01*
X0287220Y0141123D01*
X0287908Y0141811D01*
X0287908Y0142499D01*
X0287220Y0143187D01*
X0286532Y0143187D01*
X0287220Y0143187D02*
X0287908Y0143875D01*
X0287908Y0144563D01*
X0287220Y0145251D01*
X0285844Y0145251D01*
X0285156Y0144563D01*
X0272160Y0144076D02*
X0269408Y0144076D01*
X0270784Y0144076D02*
X0270784Y0148204D01*
X0269408Y0146828D01*
X0267810Y0147516D02*
X0267122Y0148204D01*
X0265058Y0148204D01*
X0265058Y0144076D01*
X0267122Y0144076D01*
X0267810Y0144764D01*
X0267810Y0147516D01*
X0256412Y0147516D02*
X0255724Y0148204D01*
X0254348Y0148204D01*
X0253660Y0147516D01*
X0252062Y0147516D02*
X0252062Y0144764D01*
X0251374Y0144076D01*
X0249998Y0144076D01*
X0249310Y0144764D01*
X0249310Y0147516D01*
X0249998Y0148204D01*
X0251374Y0148204D01*
X0252062Y0147516D01*
X0250686Y0145452D02*
X0252062Y0144076D01*
X0253660Y0144076D02*
X0256412Y0146828D01*
X0256412Y0147516D01*
X0256412Y0144076D02*
X0253660Y0144076D01*
X0240664Y0144076D02*
X0237912Y0144076D01*
X0239288Y0144076D02*
X0239288Y0148204D01*
X0237912Y0146828D01*
X0236314Y0147516D02*
X0236314Y0144764D01*
X0235626Y0144076D01*
X0234250Y0144076D01*
X0233562Y0144764D01*
X0233562Y0147516D01*
X0234250Y0148204D01*
X0235626Y0148204D01*
X0236314Y0147516D01*
X0234938Y0145452D02*
X0236314Y0144076D01*
X0268995Y0124878D02*
X0269683Y0125566D01*
X0271059Y0125566D01*
X0271747Y0124878D01*
X0273345Y0123502D02*
X0275409Y0125566D01*
X0275409Y0121438D01*
X0271747Y0122126D02*
X0271059Y0121438D01*
X0269683Y0121438D01*
X0268995Y0122126D01*
X0268995Y0124878D01*
X0273345Y0123502D02*
X0276097Y0123502D01*
X0238695Y0117004D02*
X0238695Y0116316D01*
X0238007Y0115628D01*
X0238695Y0114940D01*
X0238695Y0114252D01*
X0238007Y0113564D01*
X0236631Y0113564D01*
X0235943Y0114252D01*
X0234345Y0113564D02*
X0232969Y0114940D01*
X0233657Y0114940D02*
X0231593Y0114940D01*
X0231593Y0113564D02*
X0231593Y0117692D01*
X0233657Y0117692D01*
X0234345Y0117004D01*
X0234345Y0115628D01*
X0233657Y0114940D01*
X0235943Y0117004D02*
X0236631Y0117692D01*
X0238007Y0117692D01*
X0238695Y0117004D01*
X0238007Y0115628D02*
X0237319Y0115628D01*
X0238007Y0105881D02*
X0235943Y0103817D01*
X0238695Y0103817D01*
X0238007Y0101753D02*
X0238007Y0105881D01*
X0234345Y0105193D02*
X0234345Y0103817D01*
X0233657Y0103129D01*
X0231593Y0103129D01*
X0232969Y0103129D02*
X0234345Y0101753D01*
X0231593Y0101753D02*
X0231593Y0105881D01*
X0233657Y0105881D01*
X0234345Y0105193D01*
X0233657Y0094070D02*
X0234345Y0093382D01*
X0234345Y0092006D01*
X0233657Y0091318D01*
X0231593Y0091318D01*
X0232969Y0091318D02*
X0234345Y0089942D01*
X0235943Y0089942D02*
X0238695Y0092694D01*
X0238695Y0093382D01*
X0238007Y0094070D01*
X0236631Y0094070D01*
X0235943Y0093382D01*
X0233657Y0094070D02*
X0231593Y0094070D01*
X0231593Y0089942D01*
X0235943Y0089942D02*
X0238695Y0089942D01*
X0272932Y0093879D02*
X0272932Y0098007D01*
X0274996Y0098007D01*
X0275684Y0097319D01*
X0275684Y0095943D01*
X0274996Y0095255D01*
X0272932Y0095255D01*
X0274308Y0095255D02*
X0275684Y0093879D01*
X0277282Y0093879D02*
X0280034Y0093879D01*
X0278658Y0093879D02*
X0278658Y0098007D01*
X0277282Y0096631D01*
X0295192Y0095430D02*
X0299320Y0095430D01*
X0299320Y0098182D01*
X0299320Y0099780D02*
X0299320Y0101156D01*
X0299320Y0100468D02*
X0295192Y0100468D01*
X0295192Y0099780D02*
X0295192Y0101156D01*
X0296568Y0093832D02*
X0299320Y0093832D01*
X0297256Y0093832D02*
X0297256Y0091080D01*
X0296568Y0091080D02*
X0295192Y0092456D01*
X0296568Y0093832D01*
X0296568Y0091080D02*
X0299320Y0091080D01*
X0298632Y0089482D02*
X0295880Y0089482D01*
X0295192Y0088794D01*
X0295192Y0086730D01*
X0299320Y0086730D01*
X0299320Y0088794D01*
X0298632Y0089482D01*
X0300008Y0085132D02*
X0300008Y0082380D01*
X0299320Y0080781D02*
X0295192Y0080781D01*
X0295192Y0078029D02*
X0299320Y0080781D01*
X0299320Y0078029D02*
X0295192Y0078029D01*
X0295880Y0076431D02*
X0295192Y0075743D01*
X0295192Y0074367D01*
X0295880Y0073679D01*
X0298632Y0073679D01*
X0299320Y0074367D01*
X0299320Y0075743D01*
X0298632Y0076431D01*
X0295880Y0076431D01*
X0295880Y0072081D02*
X0295192Y0071393D01*
X0295192Y0070017D01*
X0295880Y0069329D01*
X0298632Y0069329D01*
X0299320Y0070017D01*
X0299320Y0071393D01*
X0298632Y0072081D01*
X0264286Y0073305D02*
X0261534Y0073305D01*
X0263598Y0075369D01*
X0263598Y0071241D01*
X0259936Y0071929D02*
X0259936Y0075369D01*
X0257184Y0075369D02*
X0257184Y0071929D01*
X0257872Y0071241D01*
X0259248Y0071241D01*
X0259936Y0071929D01*
X0259936Y0031274D02*
X0259936Y0027834D01*
X0259248Y0027146D01*
X0257872Y0027146D01*
X0257184Y0027834D01*
X0257184Y0031274D01*
X0261534Y0031274D02*
X0261534Y0029210D01*
X0262910Y0029898D01*
X0263598Y0029898D01*
X0264286Y0029210D01*
X0264286Y0027834D01*
X0263598Y0027146D01*
X0262222Y0027146D01*
X0261534Y0027834D01*
X0261534Y0031274D02*
X0264286Y0031274D01*
X0324801Y0143091D02*
X0326177Y0143091D01*
X0326865Y0143779D01*
X0326865Y0147219D01*
X0328463Y0145155D02*
X0330527Y0145155D01*
X0331215Y0144467D01*
X0331215Y0143779D01*
X0330527Y0143091D01*
X0329151Y0143091D01*
X0328463Y0143779D01*
X0328463Y0145155D01*
X0329839Y0146531D01*
X0331215Y0147219D01*
X0324113Y0147219D02*
X0324113Y0143779D01*
X0324801Y0143091D01*
D15*
X0333163Y0132043D02*
X0333163Y0129543D01*
X0331923Y0130764D02*
X0334423Y0130764D01*
X0323163Y0130862D02*
X0320663Y0130862D01*
X0321864Y0122024D02*
X0321900Y0121984D01*
X0321938Y0121947D01*
X0321980Y0121912D01*
X0322023Y0121881D01*
X0322069Y0121852D01*
X0322116Y0121827D01*
X0322165Y0121805D01*
X0322216Y0121787D01*
X0322268Y0121772D01*
X0322320Y0121761D01*
X0322373Y0121753D01*
X0322427Y0121749D01*
X0322481Y0121749D01*
X0322535Y0121753D01*
X0322588Y0121761D01*
X0322640Y0121772D01*
X0322692Y0121787D01*
X0322743Y0121805D01*
X0322792Y0121827D01*
X0322839Y0121852D01*
X0322885Y0121881D01*
X0322928Y0121912D01*
X0322970Y0121947D01*
X0323008Y0121984D01*
X0323044Y0122024D01*
X0321863Y0122024D02*
X0321827Y0122064D01*
X0321789Y0122101D01*
X0321747Y0122136D01*
X0321704Y0122167D01*
X0321658Y0122196D01*
X0321611Y0122221D01*
X0321562Y0122243D01*
X0321511Y0122261D01*
X0321459Y0122276D01*
X0321407Y0122287D01*
X0321354Y0122295D01*
X0321300Y0122299D01*
X0321246Y0122299D01*
X0321192Y0122295D01*
X0321139Y0122287D01*
X0321087Y0122276D01*
X0321035Y0122261D01*
X0320984Y0122243D01*
X0320935Y0122221D01*
X0320888Y0122196D01*
X0320842Y0122167D01*
X0320799Y0122136D01*
X0320757Y0122101D01*
X0320719Y0122064D01*
X0320683Y0122024D01*
X0333183Y0122024D02*
X0333219Y0122064D01*
X0333257Y0122101D01*
X0333299Y0122136D01*
X0333342Y0122167D01*
X0333388Y0122196D01*
X0333435Y0122221D01*
X0333484Y0122243D01*
X0333535Y0122261D01*
X0333587Y0122276D01*
X0333639Y0122287D01*
X0333692Y0122295D01*
X0333746Y0122299D01*
X0333800Y0122299D01*
X0333854Y0122295D01*
X0333907Y0122287D01*
X0333959Y0122276D01*
X0334011Y0122261D01*
X0334062Y0122243D01*
X0334111Y0122221D01*
X0334158Y0122196D01*
X0334204Y0122167D01*
X0334247Y0122136D01*
X0334289Y0122101D01*
X0334327Y0122064D01*
X0334363Y0122024D01*
X0334364Y0122024D02*
X0334400Y0121984D01*
X0334438Y0121947D01*
X0334480Y0121912D01*
X0334523Y0121881D01*
X0334569Y0121852D01*
X0334616Y0121827D01*
X0334665Y0121805D01*
X0334716Y0121787D01*
X0334768Y0121772D01*
X0334820Y0121761D01*
X0334873Y0121753D01*
X0334927Y0121749D01*
X0334981Y0121749D01*
X0335035Y0121753D01*
X0335088Y0121761D01*
X0335140Y0121772D01*
X0335192Y0121787D01*
X0335243Y0121805D01*
X0335292Y0121827D01*
X0335339Y0121852D01*
X0335385Y0121881D01*
X0335428Y0121912D01*
X0335470Y0121947D01*
X0335508Y0121984D01*
X0335544Y0122024D01*
D16*
X0328163Y0133539D03*
D17*
X0195683Y0139839D03*
D18*
X0191746Y0117988D02*
X0191746Y0079012D01*
X0214383Y0079012D01*
X0214383Y0086689D01*
X0213006Y0086689D01*
X0213006Y0090626D01*
X0214383Y0090626D01*
X0214383Y0106374D01*
X0213006Y0106374D01*
X0213006Y0110311D01*
X0214383Y0110311D01*
X0214383Y0117988D01*
X0191746Y0117988D01*
X0214383Y0110311D02*
X0214383Y0106374D01*
X0214383Y0090626D02*
X0214383Y0086689D01*
X0171549Y0087949D02*
X0171551Y0088018D01*
X0171557Y0088086D01*
X0171567Y0088154D01*
X0171581Y0088221D01*
X0171599Y0088288D01*
X0171620Y0088353D01*
X0171646Y0088417D01*
X0171675Y0088479D01*
X0171707Y0088539D01*
X0171743Y0088598D01*
X0171783Y0088654D01*
X0171825Y0088708D01*
X0171871Y0088759D01*
X0171920Y0088808D01*
X0171971Y0088854D01*
X0172025Y0088896D01*
X0172081Y0088936D01*
X0172139Y0088972D01*
X0172200Y0089004D01*
X0172262Y0089033D01*
X0172326Y0089059D01*
X0172391Y0089080D01*
X0172458Y0089098D01*
X0172525Y0089112D01*
X0172593Y0089122D01*
X0172661Y0089128D01*
X0172730Y0089130D01*
X0172799Y0089128D01*
X0172867Y0089122D01*
X0172935Y0089112D01*
X0173002Y0089098D01*
X0173069Y0089080D01*
X0173134Y0089059D01*
X0173198Y0089033D01*
X0173260Y0089004D01*
X0173320Y0088972D01*
X0173379Y0088936D01*
X0173435Y0088896D01*
X0173489Y0088854D01*
X0173540Y0088808D01*
X0173589Y0088759D01*
X0173635Y0088708D01*
X0173677Y0088654D01*
X0173717Y0088598D01*
X0173753Y0088539D01*
X0173785Y0088479D01*
X0173814Y0088417D01*
X0173840Y0088353D01*
X0173861Y0088288D01*
X0173879Y0088221D01*
X0173893Y0088154D01*
X0173903Y0088086D01*
X0173909Y0088018D01*
X0173911Y0087949D01*
X0173909Y0087880D01*
X0173903Y0087812D01*
X0173893Y0087744D01*
X0173879Y0087677D01*
X0173861Y0087610D01*
X0173840Y0087545D01*
X0173814Y0087481D01*
X0173785Y0087419D01*
X0173753Y0087358D01*
X0173717Y0087300D01*
X0173677Y0087244D01*
X0173635Y0087190D01*
X0173589Y0087139D01*
X0173540Y0087090D01*
X0173489Y0087044D01*
X0173435Y0087002D01*
X0173379Y0086962D01*
X0173321Y0086926D01*
X0173260Y0086894D01*
X0173198Y0086865D01*
X0173134Y0086839D01*
X0173069Y0086818D01*
X0173002Y0086800D01*
X0172935Y0086786D01*
X0172867Y0086776D01*
X0172799Y0086770D01*
X0172730Y0086768D01*
X0172661Y0086770D01*
X0172593Y0086776D01*
X0172525Y0086786D01*
X0172458Y0086800D01*
X0172391Y0086818D01*
X0172326Y0086839D01*
X0172262Y0086865D01*
X0172200Y0086894D01*
X0172139Y0086926D01*
X0172081Y0086962D01*
X0172025Y0087002D01*
X0171971Y0087044D01*
X0171920Y0087090D01*
X0171871Y0087139D01*
X0171825Y0087190D01*
X0171783Y0087244D01*
X0171743Y0087300D01*
X0171707Y0087358D01*
X0171675Y0087419D01*
X0171646Y0087481D01*
X0171620Y0087545D01*
X0171599Y0087610D01*
X0171581Y0087677D01*
X0171567Y0087744D01*
X0171557Y0087812D01*
X0171551Y0087880D01*
X0171549Y0087949D01*
X0155919Y0075862D02*
X0153950Y0075862D01*
X0153950Y0064051D02*
X0155919Y0064051D01*
X0099226Y0098500D02*
X0098439Y0098500D01*
X0099226Y0098500D02*
X0099226Y0118185D01*
X0098439Y0118185D01*
X0087415Y0118185D02*
X0086628Y0118185D01*
X0086628Y0098500D01*
X0087415Y0098500D01*
M02*
