G75*
%MOIN*%
%OFA0B0*%
%FSLAX25Y25*%
%IPPOS*%
%LPD*%
%AMOC8*
5,1,8,0,0,1.08239X$1,22.5*
%
%ADD10C,0.00400*%
%ADD11C,0.01181*%
%ADD12C,0.00800*%
%ADD13C,0.00500*%
D10*
X0107317Y0062701D02*
X0107317Y0063357D01*
X0107972Y0064013D01*
X0111251Y0064013D01*
X0111251Y0062046D01*
X0110595Y0061390D01*
X0109284Y0061390D01*
X0108628Y0062046D01*
X0108628Y0064013D01*
X0108628Y0065378D02*
X0111251Y0065378D01*
X0111251Y0066033D01*
X0110595Y0066689D01*
X0111251Y0067345D01*
X0110595Y0068001D01*
X0108628Y0068001D01*
X0108628Y0066689D02*
X0110595Y0066689D01*
X0110595Y0069365D02*
X0109284Y0069365D01*
X0108628Y0070021D01*
X0108628Y0071332D01*
X0109284Y0071988D01*
X0110595Y0071988D01*
X0111251Y0071332D01*
X0111251Y0070021D01*
X0110595Y0069365D01*
X0109284Y0073353D02*
X0109284Y0074009D01*
X0108628Y0074009D01*
X0108628Y0073353D01*
X0109284Y0073353D01*
X0109284Y0075347D02*
X0108628Y0076003D01*
X0108628Y0077970D01*
X0109284Y0079335D02*
X0108628Y0079990D01*
X0108628Y0081302D01*
X0109284Y0081957D01*
X0110595Y0081957D01*
X0111251Y0081302D01*
X0111251Y0079990D01*
X0110595Y0079335D01*
X0109284Y0079335D01*
X0111251Y0077970D02*
X0111251Y0076003D01*
X0110595Y0075347D01*
X0109284Y0075347D01*
X0115124Y0074664D02*
X0115780Y0074009D01*
X0118402Y0074009D01*
X0117747Y0074664D02*
X0117747Y0073353D01*
X0117747Y0072006D02*
X0117747Y0070695D01*
X0118402Y0071350D02*
X0115780Y0071350D01*
X0115124Y0072006D01*
X0115124Y0069330D02*
X0117747Y0069330D01*
X0117747Y0066707D02*
X0115780Y0066707D01*
X0115124Y0067363D01*
X0115124Y0069330D01*
X0115780Y0065342D02*
X0117091Y0065342D01*
X0117747Y0064686D01*
X0117747Y0062719D01*
X0119058Y0062719D02*
X0115124Y0062719D01*
X0115124Y0064686D01*
X0115780Y0065342D01*
X0110595Y0060025D02*
X0108628Y0060025D01*
X0108628Y0058058D01*
X0109284Y0057402D01*
X0109939Y0058058D01*
X0109939Y0060025D01*
X0110595Y0060025D02*
X0111251Y0059370D01*
X0111251Y0058058D01*
X0111251Y0056046D02*
X0109939Y0054079D01*
X0108628Y0056046D01*
X0108628Y0054079D02*
X0112562Y0054079D01*
X0111251Y0052714D02*
X0111251Y0050747D01*
X0110595Y0050092D01*
X0109939Y0050747D01*
X0109939Y0052059D01*
X0109284Y0052714D01*
X0108628Y0052059D01*
X0108628Y0050092D01*
X0115124Y0050056D02*
X0115124Y0048089D01*
X0115780Y0047433D01*
X0117091Y0047433D01*
X0117747Y0048089D01*
X0117747Y0050056D01*
X0117747Y0051421D02*
X0115124Y0051421D01*
X0116435Y0051421D02*
X0117747Y0052732D01*
X0117747Y0053388D01*
X0117091Y0054744D02*
X0117747Y0055400D01*
X0117747Y0056711D01*
X0117091Y0057367D01*
X0115780Y0057367D01*
X0115124Y0056711D01*
X0115124Y0055400D01*
X0115780Y0054744D01*
X0117091Y0054744D01*
X0121620Y0054708D02*
X0124243Y0054708D01*
X0125554Y0053397D01*
X0124243Y0052086D01*
X0121620Y0052086D01*
X0121620Y0050721D02*
X0125554Y0050721D01*
X0123587Y0050721D02*
X0123587Y0048098D01*
X0121620Y0048098D02*
X0125554Y0048098D01*
X0123587Y0052086D02*
X0123587Y0054708D01*
X0122932Y0056073D02*
X0122932Y0058040D01*
X0123587Y0058696D01*
X0124899Y0058696D01*
X0125554Y0058040D01*
X0125554Y0056073D01*
X0121620Y0056073D01*
X0122276Y0060061D02*
X0121620Y0060717D01*
X0121620Y0062028D01*
X0122276Y0062684D01*
X0121620Y0064049D02*
X0124243Y0064049D01*
X0125554Y0065360D01*
X0124243Y0066671D01*
X0121620Y0066671D01*
X0121620Y0068036D02*
X0125554Y0068036D01*
X0121620Y0070659D01*
X0125554Y0070659D01*
X0123587Y0066671D02*
X0123587Y0064049D01*
X0124899Y0062684D02*
X0125554Y0062028D01*
X0125554Y0060717D01*
X0124899Y0060061D01*
X0122276Y0060061D01*
X0119714Y0045431D02*
X0119058Y0045431D01*
X0117747Y0045431D02*
X0115124Y0045431D01*
X0115124Y0046086D02*
X0115124Y0044775D01*
X0115124Y0043410D02*
X0119058Y0043410D01*
X0117747Y0042099D01*
X0119058Y0040787D01*
X0115124Y0040787D01*
X0117747Y0044775D02*
X0117747Y0045431D01*
X0117091Y0076012D02*
X0115780Y0076012D01*
X0115124Y0076667D01*
X0115124Y0077979D01*
X0115780Y0078634D01*
X0117091Y0078634D01*
X0117747Y0077979D01*
X0117747Y0076667D01*
X0117091Y0076012D01*
X0117747Y0079999D02*
X0115124Y0079999D01*
X0115124Y0082622D02*
X0117091Y0082622D01*
X0117747Y0081966D01*
X0117747Y0079999D01*
X0121620Y0080655D02*
X0122276Y0079999D01*
X0123587Y0079999D01*
X0124243Y0080655D01*
X0124243Y0081966D01*
X0123587Y0082622D01*
X0122276Y0082622D01*
X0121620Y0081966D01*
X0121620Y0080655D01*
X0121620Y0078634D02*
X0121620Y0076667D01*
X0122276Y0076012D01*
X0123587Y0076012D01*
X0124243Y0076667D01*
X0124243Y0078634D01*
X0124243Y0083987D02*
X0121620Y0083987D01*
X0121620Y0085298D02*
X0123587Y0085298D01*
X0124243Y0085954D01*
X0123587Y0086610D01*
X0121620Y0086610D01*
X0121620Y0087975D02*
X0121620Y0089942D01*
X0122276Y0090597D01*
X0123587Y0090597D01*
X0124243Y0089942D01*
X0124243Y0087975D01*
X0120309Y0087975D01*
X0119714Y0088630D02*
X0119058Y0088630D01*
X0117747Y0088630D02*
X0115124Y0088630D01*
X0115124Y0087975D02*
X0115124Y0089286D01*
X0115124Y0090633D02*
X0117747Y0090633D01*
X0117747Y0092600D01*
X0117091Y0093256D01*
X0115124Y0093256D01*
X0115780Y0095276D02*
X0115124Y0095932D01*
X0115780Y0095276D02*
X0118402Y0095276D01*
X0117747Y0094621D02*
X0117747Y0095932D01*
X0117091Y0097279D02*
X0117747Y0097935D01*
X0117747Y0099246D01*
X0117091Y0099902D01*
X0116435Y0099902D01*
X0116435Y0097279D01*
X0115780Y0097279D02*
X0117091Y0097279D01*
X0115780Y0097279D02*
X0115124Y0097935D01*
X0115124Y0099246D01*
X0115124Y0101267D02*
X0117747Y0101267D01*
X0117747Y0102578D02*
X0117747Y0103234D01*
X0117747Y0102578D02*
X0116435Y0101267D01*
X0117091Y0104590D02*
X0117091Y0105901D01*
X0118402Y0105245D02*
X0115124Y0105245D01*
X0115780Y0107248D02*
X0116435Y0107904D01*
X0116435Y0109871D01*
X0117091Y0109871D02*
X0115124Y0109871D01*
X0115124Y0107904D01*
X0115780Y0107248D01*
X0117747Y0107904D02*
X0117747Y0109215D01*
X0117091Y0109871D01*
X0117091Y0111236D02*
X0115780Y0111236D01*
X0115124Y0111892D01*
X0115124Y0113859D01*
X0115780Y0115224D02*
X0117091Y0115224D01*
X0117747Y0115879D01*
X0117747Y0117191D01*
X0117091Y0117846D01*
X0116435Y0117846D01*
X0116435Y0115224D01*
X0115780Y0115224D02*
X0115124Y0115879D01*
X0115124Y0117191D01*
X0117747Y0113859D02*
X0117747Y0111892D01*
X0117091Y0111236D01*
X0121620Y0109880D02*
X0121620Y0108569D01*
X0122276Y0107913D01*
X0123587Y0107913D01*
X0124243Y0108569D01*
X0124243Y0109880D01*
X0123587Y0110536D01*
X0122932Y0110536D01*
X0122932Y0107913D01*
X0121620Y0106566D02*
X0121620Y0105254D01*
X0121620Y0105910D02*
X0125554Y0105910D01*
X0125554Y0105254D01*
X0123587Y0103889D02*
X0124243Y0103234D01*
X0124243Y0101267D01*
X0125554Y0101267D02*
X0121620Y0101267D01*
X0121620Y0103234D01*
X0122276Y0103889D01*
X0123587Y0103889D01*
X0121620Y0099920D02*
X0121620Y0098608D01*
X0121620Y0099264D02*
X0124243Y0099264D01*
X0124243Y0098608D01*
X0124243Y0097261D02*
X0124243Y0095950D01*
X0124899Y0096606D02*
X0122276Y0096606D01*
X0121620Y0097261D01*
X0121620Y0094585D02*
X0121620Y0092618D01*
X0122276Y0091962D01*
X0122932Y0092618D01*
X0122932Y0094585D01*
X0123587Y0094585D02*
X0121620Y0094585D01*
X0123587Y0094585D02*
X0124243Y0093929D01*
X0124243Y0092618D01*
X0125554Y0099264D02*
X0126210Y0099264D01*
X0119058Y0105901D02*
X0118402Y0105245D01*
X0112562Y0103243D02*
X0108628Y0103243D01*
X0108628Y0104554D02*
X0108628Y0101931D01*
X0109284Y0100566D02*
X0108628Y0099911D01*
X0108628Y0098599D01*
X0109284Y0097944D01*
X0111906Y0100566D01*
X0109284Y0100566D01*
X0111251Y0101931D02*
X0112562Y0103243D01*
X0110595Y0105919D02*
X0110595Y0107886D01*
X0109939Y0108542D01*
X0109284Y0108542D01*
X0108628Y0107886D01*
X0108628Y0106575D01*
X0109284Y0105919D01*
X0110595Y0105919D01*
X0111906Y0107230D01*
X0112562Y0108542D01*
X0111906Y0100566D02*
X0112562Y0099911D01*
X0112562Y0098599D01*
X0111906Y0097944D01*
X0109284Y0097944D01*
X0108628Y0096579D02*
X0108628Y0093956D01*
X0111251Y0096579D01*
X0111906Y0096579D01*
X0112562Y0095923D01*
X0112562Y0094612D01*
X0111906Y0093956D01*
X0109284Y0088621D02*
X0109284Y0087966D01*
X0108628Y0087966D01*
X0108628Y0088621D01*
X0109284Y0088621D01*
X0108628Y0088621D02*
X0107317Y0087310D01*
X0108628Y0085945D02*
X0110595Y0085945D01*
X0111251Y0085289D01*
X0110595Y0084634D01*
X0108628Y0084634D01*
X0108628Y0083322D02*
X0111251Y0083322D01*
X0111251Y0083978D01*
X0110595Y0084634D01*
X0117747Y0087975D02*
X0117747Y0088630D01*
X0123587Y0085298D02*
X0124243Y0084643D01*
X0124243Y0083987D01*
D11*
X0110397Y0046335D02*
X0088743Y0046335D01*
X0078900Y0046335D01*
X0075948Y0049287D01*
X0075948Y0058146D01*
X0088743Y0046335D02*
X0088743Y0030587D01*
X0110397Y0030587D01*
X0110397Y0046335D01*
D12*
X0034215Y0059457D02*
X0034215Y0092268D01*
X0048782Y0092268D01*
X0048782Y0059457D01*
X0034215Y0059457D01*
X0055345Y0061295D02*
X0063086Y0061295D01*
X0063086Y0078618D01*
X0055345Y0078618D01*
X0055345Y0061295D01*
X0066302Y0060181D02*
X0083625Y0060181D01*
X0083625Y0067921D01*
X0066302Y0067921D01*
X0066302Y0060181D01*
X0066302Y0071992D02*
X0083625Y0071992D01*
X0083625Y0079732D01*
X0066302Y0079732D01*
X0066302Y0071992D01*
X0069845Y0091677D02*
X0052523Y0091677D01*
X0052523Y0099417D01*
X0069845Y0099417D01*
X0069845Y0091677D01*
X0073873Y0094453D02*
X0099676Y0094453D01*
X0099676Y0108453D01*
X0073873Y0108453D01*
X0073873Y0094453D01*
X0087916Y0080087D02*
X0101381Y0080087D01*
X0101381Y0059827D01*
X0087916Y0059827D01*
X0087916Y0080087D01*
X0096684Y0120350D02*
X0104424Y0120350D01*
X0104424Y0137673D01*
X0096684Y0137673D01*
X0096684Y0120350D01*
X0108495Y0120350D02*
X0116235Y0120350D01*
X0116235Y0137673D01*
X0108495Y0137673D01*
X0108495Y0120350D01*
X0041432Y0120350D02*
X0033692Y0120350D01*
X0033692Y0137673D01*
X0041432Y0137673D01*
X0041432Y0120350D01*
X0029621Y0120350D02*
X0021881Y0120350D01*
X0021881Y0137673D01*
X0029621Y0137673D01*
X0029621Y0120350D01*
D13*
X0029670Y0141073D02*
X0029670Y0145104D01*
X0027654Y0145104D01*
X0026982Y0144432D01*
X0026982Y0143088D01*
X0027654Y0142416D01*
X0029670Y0142416D01*
X0028326Y0142416D02*
X0026982Y0141073D01*
X0025501Y0141073D02*
X0022814Y0143760D01*
X0022814Y0144432D01*
X0023485Y0145104D01*
X0024829Y0145104D01*
X0025501Y0144432D01*
X0025501Y0141073D02*
X0022814Y0141073D01*
X0034625Y0141745D02*
X0035296Y0141073D01*
X0036640Y0141073D01*
X0037312Y0141745D01*
X0038793Y0141073D02*
X0040137Y0142416D01*
X0039465Y0142416D02*
X0038793Y0143088D01*
X0038793Y0144432D01*
X0039465Y0145104D01*
X0041481Y0145104D01*
X0041481Y0141073D01*
X0041481Y0142416D02*
X0039465Y0142416D01*
X0037312Y0144432D02*
X0036640Y0145104D01*
X0035296Y0145104D01*
X0034625Y0144432D01*
X0034625Y0143760D01*
X0035296Y0143088D01*
X0034625Y0142416D01*
X0034625Y0141745D01*
X0035296Y0143088D02*
X0035968Y0143088D01*
X0058247Y0113608D02*
X0059590Y0112936D01*
X0060934Y0111592D01*
X0058918Y0111592D01*
X0058247Y0110920D01*
X0058247Y0110249D01*
X0058918Y0109577D01*
X0060262Y0109577D01*
X0060934Y0110249D01*
X0060934Y0111592D01*
X0062416Y0110249D02*
X0063087Y0109577D01*
X0064431Y0109577D01*
X0065103Y0110249D01*
X0065103Y0112936D01*
X0064431Y0113608D01*
X0063087Y0113608D01*
X0062416Y0112936D01*
X0062182Y0106797D02*
X0064197Y0106797D01*
X0064197Y0102766D01*
X0062182Y0102766D01*
X0061510Y0103438D01*
X0061510Y0106125D01*
X0062182Y0106797D01*
X0060028Y0105453D02*
X0058685Y0106797D01*
X0058685Y0102766D01*
X0060028Y0102766D02*
X0057341Y0102766D01*
X0044436Y0080825D02*
X0038562Y0080825D01*
X0038562Y0080799D02*
X0041499Y0075925D01*
X0044436Y0080799D01*
X0045499Y0076862D02*
X0044499Y0075862D01*
X0044436Y0075799D02*
X0041499Y0075799D01*
X0044436Y0070925D01*
X0038562Y0070925D01*
X0041499Y0075799D01*
X0038562Y0075799D01*
X0038499Y0075762D02*
X0037499Y0074862D01*
X0031638Y0074144D02*
X0029623Y0074144D01*
X0028951Y0074816D01*
X0028951Y0077503D01*
X0029623Y0078175D01*
X0031638Y0078175D01*
X0031638Y0074144D01*
X0027469Y0074816D02*
X0026798Y0074144D01*
X0025454Y0074144D01*
X0024782Y0074816D01*
X0024782Y0075487D01*
X0025454Y0076159D01*
X0026126Y0076159D01*
X0025454Y0076159D02*
X0024782Y0076831D01*
X0024782Y0077503D01*
X0025454Y0078175D01*
X0026798Y0078175D01*
X0027469Y0077503D01*
X0083837Y0122060D02*
X0084509Y0121388D01*
X0085853Y0121388D01*
X0086525Y0122060D01*
X0088006Y0122060D02*
X0088006Y0125419D01*
X0086525Y0124747D02*
X0085853Y0125419D01*
X0084509Y0125419D01*
X0083837Y0124747D01*
X0083837Y0124075D01*
X0084509Y0123403D01*
X0083837Y0122731D01*
X0083837Y0122060D01*
X0084509Y0123403D02*
X0085181Y0123403D01*
X0088006Y0122060D02*
X0088678Y0121388D01*
X0090022Y0121388D01*
X0090693Y0122060D01*
X0090693Y0125419D01*
X0098289Y0141073D02*
X0098289Y0145104D01*
X0100304Y0143088D01*
X0097617Y0143088D01*
X0101786Y0143088D02*
X0102457Y0142416D01*
X0104473Y0142416D01*
X0104473Y0141073D02*
X0104473Y0145104D01*
X0102457Y0145104D01*
X0101786Y0144432D01*
X0101786Y0143088D01*
X0103129Y0142416D02*
X0101786Y0141073D01*
X0109428Y0141745D02*
X0110100Y0141073D01*
X0111443Y0141073D01*
X0112115Y0141745D01*
X0112115Y0143088D02*
X0110771Y0143760D01*
X0110100Y0143760D01*
X0109428Y0143088D01*
X0109428Y0141745D01*
X0112115Y0143088D02*
X0112115Y0145104D01*
X0109428Y0145104D01*
X0113597Y0144432D02*
X0113597Y0143088D01*
X0114268Y0142416D01*
X0116284Y0142416D01*
X0116284Y0141073D02*
X0116284Y0145104D01*
X0114268Y0145104D01*
X0113597Y0144432D01*
X0114940Y0142416D02*
X0113597Y0141073D01*
X0103801Y0056521D02*
X0104473Y0055849D01*
X0104473Y0053162D01*
X0103801Y0052490D01*
X0102457Y0052490D01*
X0101786Y0053162D01*
X0100304Y0053162D02*
X0100304Y0052490D01*
X0100304Y0053162D02*
X0097617Y0055849D01*
X0097617Y0056521D01*
X0100304Y0056521D01*
X0101786Y0055849D02*
X0102457Y0056521D01*
X0103801Y0056521D01*
X0106441Y0044710D02*
X0106441Y0040679D01*
X0103754Y0040679D01*
X0102273Y0040679D02*
X0099585Y0040679D01*
X0098567Y0040101D02*
X0098567Y0037414D01*
X0097896Y0036742D01*
X0096552Y0036742D01*
X0095880Y0037414D01*
X0094399Y0037414D02*
X0093727Y0036742D01*
X0092383Y0036742D01*
X0091711Y0037414D01*
X0091711Y0040101D01*
X0092383Y0040773D01*
X0093727Y0040773D01*
X0094399Y0040101D01*
X0094399Y0039429D01*
X0093727Y0038758D01*
X0091711Y0038758D01*
X0095880Y0040101D02*
X0096552Y0040773D01*
X0097896Y0040773D01*
X0098567Y0040101D01*
X0100929Y0040679D02*
X0100929Y0044710D01*
X0102273Y0043366D01*
X0101601Y0036836D02*
X0100257Y0036836D01*
X0099585Y0036164D01*
X0099585Y0035492D01*
X0102273Y0032805D01*
X0099585Y0032805D01*
X0103754Y0032805D02*
X0106441Y0032805D01*
X0106441Y0036836D01*
X0102273Y0036164D02*
X0101601Y0036836D01*
M02*
