G75*
%MOIN*%
%OFA0B0*%
%FSLAX25Y25*%
%IPPOS*%
%LPD*%
%AMOC8*
5,1,8,0,0,1.08239X$1,22.5*
%
%ADD10R,0.06600X0.06600*%
%ADD11OC8,0.06600*%
%ADD12C,0.00750*%
%ADD13C,0.00945*%
%ADD14C,0.01275*%
%ADD15C,0.01181*%
%ADD16R,0.05400X0.05400*%
%ADD17C,0.05400*%
%ADD18R,0.04800X0.04800*%
%ADD19C,0.04800*%
%ADD20C,0.00827*%
%ADD21C,0.00531*%
%ADD22C,0.01200*%
%ADD23C,0.03150*%
%ADD24C,0.02362*%
D10*
X0091026Y0052240D03*
D11*
X0081026Y0052240D03*
X0071026Y0052240D03*
X0061026Y0052240D03*
X0051026Y0052240D03*
D12*
X0057090Y0067782D02*
X0061340Y0067782D01*
X0061340Y0063132D01*
X0057090Y0063132D01*
X0057090Y0067782D01*
X0057090Y0063881D02*
X0061340Y0063881D01*
X0061340Y0064630D02*
X0057090Y0064630D01*
X0057090Y0065379D02*
X0061340Y0065379D01*
X0061340Y0066128D02*
X0057090Y0066128D01*
X0057090Y0066877D02*
X0061340Y0066877D01*
X0061340Y0067626D02*
X0057090Y0067626D01*
X0057090Y0076782D02*
X0061340Y0076782D01*
X0061340Y0072132D01*
X0057090Y0072132D01*
X0057090Y0076782D01*
X0057090Y0072881D02*
X0061340Y0072881D01*
X0061340Y0073630D02*
X0057090Y0073630D01*
X0057090Y0074379D02*
X0061340Y0074379D01*
X0061340Y0075128D02*
X0057090Y0075128D01*
X0057090Y0075877D02*
X0061340Y0075877D01*
X0061340Y0076626D02*
X0057090Y0076626D01*
X0072788Y0077987D02*
X0072788Y0073737D01*
X0068138Y0073737D01*
X0068138Y0077987D01*
X0072788Y0077987D01*
X0072788Y0074486D02*
X0068138Y0074486D01*
X0068138Y0075235D02*
X0072788Y0075235D01*
X0072788Y0075984D02*
X0068138Y0075984D01*
X0068138Y0076733D02*
X0072788Y0076733D01*
X0072788Y0077482D02*
X0068138Y0077482D01*
X0075551Y0093127D02*
X0079801Y0093127D01*
X0079801Y0085377D01*
X0075551Y0085377D01*
X0075551Y0093127D01*
X0075551Y0086126D02*
X0079801Y0086126D01*
X0079801Y0086875D02*
X0075551Y0086875D01*
X0075551Y0087624D02*
X0079801Y0087624D01*
X0079801Y0088373D02*
X0075551Y0088373D01*
X0075551Y0089122D02*
X0079801Y0089122D01*
X0079801Y0089871D02*
X0075551Y0089871D01*
X0075551Y0090620D02*
X0079801Y0090620D01*
X0079801Y0091369D02*
X0075551Y0091369D01*
X0075551Y0092118D02*
X0079801Y0092118D01*
X0079801Y0092867D02*
X0075551Y0092867D01*
X0068009Y0093422D02*
X0068009Y0097672D01*
X0068009Y0093422D02*
X0063359Y0093422D01*
X0063359Y0097672D01*
X0068009Y0097672D01*
X0068009Y0094171D02*
X0063359Y0094171D01*
X0063359Y0094920D02*
X0068009Y0094920D01*
X0068009Y0095669D02*
X0063359Y0095669D01*
X0063359Y0096418D02*
X0068009Y0096418D01*
X0068009Y0097167D02*
X0063359Y0097167D01*
X0059009Y0097672D02*
X0059009Y0093422D01*
X0054359Y0093422D01*
X0054359Y0097672D01*
X0059009Y0097672D01*
X0059009Y0094171D02*
X0054359Y0094171D01*
X0054359Y0094920D02*
X0059009Y0094920D01*
X0059009Y0095669D02*
X0054359Y0095669D01*
X0054359Y0096418D02*
X0059009Y0096418D01*
X0059009Y0097167D02*
X0054359Y0097167D01*
X0039687Y0122187D02*
X0035437Y0122187D01*
X0035437Y0126837D01*
X0039687Y0126837D01*
X0039687Y0122187D01*
X0039687Y0122936D02*
X0035437Y0122936D01*
X0035437Y0123685D02*
X0039687Y0123685D01*
X0039687Y0124434D02*
X0035437Y0124434D01*
X0035437Y0125183D02*
X0039687Y0125183D01*
X0039687Y0125932D02*
X0035437Y0125932D01*
X0035437Y0126681D02*
X0039687Y0126681D01*
X0039687Y0131187D02*
X0035437Y0131187D01*
X0035437Y0135837D01*
X0039687Y0135837D01*
X0039687Y0131187D01*
X0039687Y0131936D02*
X0035437Y0131936D01*
X0035437Y0132685D02*
X0039687Y0132685D01*
X0039687Y0133434D02*
X0035437Y0133434D01*
X0035437Y0134183D02*
X0039687Y0134183D01*
X0039687Y0134932D02*
X0035437Y0134932D01*
X0035437Y0135681D02*
X0039687Y0135681D01*
X0027876Y0131187D02*
X0023626Y0131187D01*
X0023626Y0135837D01*
X0027876Y0135837D01*
X0027876Y0131187D01*
X0027876Y0131936D02*
X0023626Y0131936D01*
X0023626Y0132685D02*
X0027876Y0132685D01*
X0027876Y0133434D02*
X0023626Y0133434D01*
X0023626Y0134183D02*
X0027876Y0134183D01*
X0027876Y0134932D02*
X0023626Y0134932D01*
X0023626Y0135681D02*
X0027876Y0135681D01*
X0027876Y0122187D02*
X0023626Y0122187D01*
X0023626Y0126837D01*
X0027876Y0126837D01*
X0027876Y0122187D01*
X0027876Y0122936D02*
X0023626Y0122936D01*
X0023626Y0123685D02*
X0027876Y0123685D01*
X0027876Y0124434D02*
X0023626Y0124434D01*
X0023626Y0125183D02*
X0027876Y0125183D01*
X0027876Y0125932D02*
X0023626Y0125932D01*
X0023626Y0126681D02*
X0027876Y0126681D01*
X0081788Y0077987D02*
X0081788Y0073737D01*
X0077138Y0073737D01*
X0077138Y0077987D01*
X0081788Y0077987D01*
X0081788Y0074486D02*
X0077138Y0074486D01*
X0077138Y0075235D02*
X0081788Y0075235D01*
X0081788Y0075984D02*
X0077138Y0075984D01*
X0077138Y0076733D02*
X0081788Y0076733D01*
X0081788Y0077482D02*
X0077138Y0077482D01*
X0084650Y0093127D02*
X0088900Y0093127D01*
X0088900Y0085377D01*
X0084650Y0085377D01*
X0084650Y0093127D01*
X0084650Y0086126D02*
X0088900Y0086126D01*
X0088900Y0086875D02*
X0084650Y0086875D01*
X0084650Y0087624D02*
X0088900Y0087624D01*
X0088900Y0088373D02*
X0084650Y0088373D01*
X0084650Y0089122D02*
X0088900Y0089122D01*
X0088900Y0089871D02*
X0084650Y0089871D01*
X0084650Y0090620D02*
X0088900Y0090620D01*
X0088900Y0091369D02*
X0084650Y0091369D01*
X0084650Y0092118D02*
X0088900Y0092118D01*
X0088900Y0092867D02*
X0084650Y0092867D01*
X0093748Y0093127D02*
X0097998Y0093127D01*
X0097998Y0085377D01*
X0093748Y0085377D01*
X0093748Y0093127D01*
X0093748Y0086126D02*
X0097998Y0086126D01*
X0097998Y0086875D02*
X0093748Y0086875D01*
X0093748Y0087624D02*
X0097998Y0087624D01*
X0097998Y0088373D02*
X0093748Y0088373D01*
X0093748Y0089122D02*
X0097998Y0089122D01*
X0097998Y0089871D02*
X0093748Y0089871D01*
X0093748Y0090620D02*
X0097998Y0090620D01*
X0097998Y0091369D02*
X0093748Y0091369D01*
X0093748Y0092118D02*
X0097998Y0092118D01*
X0097998Y0092867D02*
X0093748Y0092867D01*
X0081788Y0066176D02*
X0081788Y0061926D01*
X0077138Y0061926D01*
X0077138Y0066176D01*
X0081788Y0066176D01*
X0081788Y0062675D02*
X0077138Y0062675D01*
X0077138Y0063424D02*
X0081788Y0063424D01*
X0081788Y0064173D02*
X0077138Y0064173D01*
X0077138Y0064922D02*
X0081788Y0064922D01*
X0081788Y0065671D02*
X0077138Y0065671D01*
X0072788Y0066176D02*
X0072788Y0061926D01*
X0068138Y0061926D01*
X0068138Y0066176D01*
X0072788Y0066176D01*
X0072788Y0062675D02*
X0068138Y0062675D01*
X0068138Y0063424D02*
X0072788Y0063424D01*
X0072788Y0064173D02*
X0068138Y0064173D01*
X0068138Y0064922D02*
X0072788Y0064922D01*
X0072788Y0065671D02*
X0068138Y0065671D01*
X0098429Y0122187D02*
X0102679Y0122187D01*
X0098429Y0122187D02*
X0098429Y0126837D01*
X0102679Y0126837D01*
X0102679Y0122187D01*
X0102679Y0122936D02*
X0098429Y0122936D01*
X0098429Y0123685D02*
X0102679Y0123685D01*
X0102679Y0124434D02*
X0098429Y0124434D01*
X0098429Y0125183D02*
X0102679Y0125183D01*
X0102679Y0125932D02*
X0098429Y0125932D01*
X0098429Y0126681D02*
X0102679Y0126681D01*
X0102679Y0131187D02*
X0098429Y0131187D01*
X0098429Y0135837D01*
X0102679Y0135837D01*
X0102679Y0131187D01*
X0102679Y0131936D02*
X0098429Y0131936D01*
X0098429Y0132685D02*
X0102679Y0132685D01*
X0102679Y0133434D02*
X0098429Y0133434D01*
X0098429Y0134183D02*
X0102679Y0134183D01*
X0102679Y0134932D02*
X0098429Y0134932D01*
X0098429Y0135681D02*
X0102679Y0135681D01*
X0110240Y0131187D02*
X0114490Y0131187D01*
X0110240Y0131187D02*
X0110240Y0135837D01*
X0114490Y0135837D01*
X0114490Y0131187D01*
X0114490Y0131936D02*
X0110240Y0131936D01*
X0110240Y0132685D02*
X0114490Y0132685D01*
X0114490Y0133434D02*
X0110240Y0133434D01*
X0110240Y0134183D02*
X0114490Y0134183D01*
X0114490Y0134932D02*
X0110240Y0134932D01*
X0110240Y0135681D02*
X0114490Y0135681D01*
X0114490Y0122187D02*
X0110240Y0122187D01*
X0110240Y0126837D01*
X0114490Y0126837D01*
X0114490Y0122187D01*
X0114490Y0122936D02*
X0110240Y0122936D01*
X0110240Y0123685D02*
X0114490Y0123685D01*
X0114490Y0124434D02*
X0110240Y0124434D01*
X0110240Y0125183D02*
X0114490Y0125183D01*
X0114490Y0125932D02*
X0110240Y0125932D01*
X0110240Y0126681D02*
X0114490Y0126681D01*
D13*
X0089806Y0078146D02*
X0089806Y0072792D01*
X0089806Y0078146D02*
X0099492Y0078146D01*
X0099492Y0072792D01*
X0089806Y0072792D01*
X0089806Y0073736D02*
X0099492Y0073736D01*
X0099492Y0074680D02*
X0089806Y0074680D01*
X0089806Y0075624D02*
X0099492Y0075624D01*
X0099492Y0076568D02*
X0089806Y0076568D01*
X0089806Y0077512D02*
X0099492Y0077512D01*
X0089806Y0067122D02*
X0089806Y0061768D01*
X0089806Y0067122D02*
X0099492Y0067122D01*
X0099492Y0061768D01*
X0089806Y0061768D01*
X0089806Y0062712D02*
X0099492Y0062712D01*
X0099492Y0063656D02*
X0089806Y0063656D01*
X0089806Y0064600D02*
X0099492Y0064600D01*
X0099492Y0065544D02*
X0089806Y0065544D01*
X0089806Y0066488D02*
X0099492Y0066488D01*
D14*
X0093138Y0117267D02*
X0080412Y0117267D01*
X0093138Y0117267D02*
X0093138Y0110041D01*
X0080412Y0110041D01*
X0080412Y0117267D01*
X0080412Y0111315D02*
X0093138Y0111315D01*
X0093138Y0112589D02*
X0080412Y0112589D01*
X0080412Y0113863D02*
X0093138Y0113863D01*
X0093138Y0115137D02*
X0080412Y0115137D01*
X0080412Y0116411D02*
X0093138Y0116411D01*
D15*
X0100554Y0124512D02*
X0072995Y0124512D01*
X0072995Y0150665D01*
X0074963Y0156571D02*
X0080869Y0150665D01*
X0074963Y0156571D02*
X0061184Y0156571D01*
X0059215Y0154602D01*
X0059215Y0144760D01*
X0061184Y0142791D01*
X0061184Y0121138D01*
X0037562Y0124512D02*
X0025751Y0124512D01*
X0025751Y0111295D01*
X0029688Y0107358D01*
X0037168Y0090312D02*
X0037168Y0083618D01*
X0037168Y0090312D02*
X0045830Y0090312D01*
X0045830Y0083618D01*
X0037168Y0083618D01*
X0037168Y0084798D02*
X0045830Y0084798D01*
X0045830Y0085978D02*
X0037168Y0085978D01*
X0037168Y0087158D02*
X0045830Y0087158D01*
X0045830Y0088338D02*
X0037168Y0088338D01*
X0037168Y0089518D02*
X0045830Y0089518D01*
X0045830Y0068107D02*
X0045830Y0061413D01*
X0037168Y0061413D01*
X0037168Y0068107D01*
X0045830Y0068107D01*
X0045830Y0062593D02*
X0037168Y0062593D01*
X0037168Y0063773D02*
X0045830Y0063773D01*
X0045830Y0064953D02*
X0037168Y0064953D01*
X0037168Y0066133D02*
X0045830Y0066133D01*
X0045830Y0067313D02*
X0037168Y0067313D01*
X0070463Y0052803D02*
X0071026Y0052240D01*
X0094255Y0075862D02*
X0094649Y0075469D01*
X0095873Y0076693D02*
X0096704Y0075862D01*
X0104491Y0075862D01*
X0078900Y0081768D02*
X0077676Y0082992D01*
X0077676Y0089252D01*
X0100554Y0124512D02*
X0112365Y0124512D01*
X0112365Y0133512D02*
X0108428Y0137449D01*
X0108428Y0150665D01*
X0100554Y0150665D02*
X0100554Y0133512D01*
X0037562Y0133512D02*
X0037562Y0150665D01*
X0029688Y0150665D02*
X0029688Y0137449D01*
X0025751Y0133512D01*
D16*
X0029688Y0036492D03*
X0067089Y0036492D03*
D17*
X0067089Y0028618D03*
X0074963Y0028618D03*
X0074963Y0036492D03*
X0082838Y0036492D03*
X0082838Y0028618D03*
X0045436Y0028618D03*
X0045436Y0036492D03*
X0037562Y0036492D03*
X0037562Y0028618D03*
X0029688Y0028618D03*
D18*
X0029688Y0150665D03*
X0065121Y0150665D03*
X0100554Y0150665D03*
D19*
X0108428Y0150665D03*
X0116302Y0150665D03*
X0080869Y0150665D03*
X0072995Y0150665D03*
X0045436Y0150665D03*
X0037562Y0150665D03*
D20*
X0062976Y0088048D02*
X0070810Y0088048D01*
X0070810Y0083362D01*
X0062976Y0083362D01*
X0062976Y0088048D01*
X0062976Y0084188D02*
X0070810Y0084188D01*
X0070810Y0085014D02*
X0062976Y0085014D01*
X0062976Y0085840D02*
X0070810Y0085840D01*
X0070810Y0086666D02*
X0062976Y0086666D01*
X0062976Y0087492D02*
X0070810Y0087492D01*
D21*
X0058359Y0088196D02*
X0055347Y0088196D01*
X0058359Y0088196D02*
X0058359Y0083214D01*
X0055347Y0083214D01*
X0055347Y0088196D01*
X0055347Y0083744D02*
X0058359Y0083744D01*
X0058359Y0084274D02*
X0055347Y0084274D01*
X0055347Y0084804D02*
X0058359Y0084804D01*
X0058359Y0085334D02*
X0055347Y0085334D01*
X0055347Y0085864D02*
X0058359Y0085864D01*
X0058359Y0086394D02*
X0055347Y0086394D01*
X0055347Y0086924D02*
X0058359Y0086924D01*
X0058359Y0087454D02*
X0055347Y0087454D01*
X0055347Y0087984D02*
X0058359Y0087984D01*
D22*
X0019039Y0022827D02*
X0019960Y0021906D01*
X0021163Y0021408D01*
X0021814Y0021344D01*
X0048494Y0021344D01*
X0045720Y0024118D01*
X0044541Y0024118D01*
X0042887Y0024803D01*
X0042053Y0025637D01*
X0040945Y0025637D01*
X0040111Y0024803D01*
X0038457Y0024118D01*
X0036667Y0024118D01*
X0035013Y0024803D01*
X0033747Y0026069D01*
X0033625Y0026364D01*
X0033503Y0026069D01*
X0032237Y0024803D01*
X0030583Y0024118D01*
X0028793Y0024118D01*
X0027139Y0024803D01*
X0025873Y0026069D01*
X0025188Y0027723D01*
X0025188Y0029513D01*
X0025873Y0031167D01*
X0026698Y0031992D01*
X0026242Y0031992D01*
X0025188Y0033047D01*
X0025188Y0039938D01*
X0026242Y0040992D01*
X0033133Y0040992D01*
X0034188Y0039938D01*
X0034188Y0039482D01*
X0034581Y0039875D01*
X0034581Y0043131D01*
X0029968Y0047744D01*
X0029129Y0048583D01*
X0028675Y0049679D01*
X0028675Y0077715D01*
X0029129Y0078811D01*
X0034778Y0084459D01*
X0034778Y0090787D01*
X0035142Y0091665D01*
X0035814Y0092338D01*
X0036693Y0092702D01*
X0046305Y0092702D01*
X0047184Y0092338D01*
X0047856Y0091665D01*
X0048220Y0090787D01*
X0048220Y0088686D01*
X0053282Y0088686D01*
X0053282Y0089051D01*
X0054492Y0090261D01*
X0059215Y0090261D01*
X0060425Y0089051D01*
X0060425Y0082359D01*
X0059215Y0081149D01*
X0054492Y0081149D01*
X0053282Y0082359D01*
X0053282Y0082724D01*
X0048047Y0082724D01*
X0047856Y0082264D01*
X0047184Y0081591D01*
X0046305Y0081228D01*
X0039978Y0081228D01*
X0034637Y0075887D01*
X0034637Y0051506D01*
X0040089Y0046055D01*
X0040543Y0044959D01*
X0040543Y0039875D01*
X0041377Y0039041D01*
X0041499Y0038746D01*
X0041621Y0039041D01*
X0042887Y0040307D01*
X0044541Y0040992D01*
X0046331Y0040992D01*
X0046726Y0040828D01*
X0039810Y0047744D01*
X0038972Y0048583D01*
X0038518Y0049679D01*
X0038518Y0059023D01*
X0036693Y0059023D01*
X0035814Y0059387D01*
X0035142Y0060059D01*
X0034778Y0060938D01*
X0034778Y0068582D01*
X0035142Y0069460D01*
X0035814Y0070133D01*
X0036693Y0070497D01*
X0046305Y0070497D01*
X0047184Y0070133D01*
X0047856Y0069460D01*
X0048220Y0068582D01*
X0048220Y0068438D01*
X0054915Y0068438D01*
X0054915Y0068683D01*
X0056190Y0069957D01*
X0062241Y0069957D01*
X0063515Y0071231D01*
X0063515Y0072881D01*
X0065963Y0072881D01*
X0065963Y0072836D01*
X0067238Y0071562D01*
X0073689Y0071562D01*
X0074963Y0072836D01*
X0074963Y0078888D01*
X0073689Y0080162D01*
X0072039Y0080162D01*
X0072039Y0081461D01*
X0073023Y0082445D01*
X0073023Y0088964D01*
X0071727Y0090261D01*
X0062058Y0090261D01*
X0060762Y0088964D01*
X0060762Y0082445D01*
X0062058Y0081149D01*
X0066077Y0081149D01*
X0066077Y0079001D01*
X0065963Y0078888D01*
X0065963Y0078843D01*
X0062355Y0078843D01*
X0062241Y0078957D01*
X0056190Y0078957D01*
X0054915Y0077683D01*
X0054915Y0071231D01*
X0056190Y0069957D01*
X0062241Y0069957D01*
X0063515Y0068683D01*
X0063515Y0067032D01*
X0065963Y0067032D01*
X0065963Y0067077D01*
X0067238Y0068351D01*
X0073689Y0068351D01*
X0074963Y0067077D01*
X0074963Y0061025D01*
X0073689Y0059751D01*
X0067238Y0059751D01*
X0065963Y0061025D01*
X0065963Y0061070D01*
X0062355Y0061070D01*
X0062241Y0060957D01*
X0056190Y0060957D01*
X0054915Y0062231D01*
X0054915Y0062476D01*
X0048220Y0062476D01*
X0048220Y0060938D01*
X0047856Y0060059D01*
X0047184Y0059387D01*
X0046305Y0059023D01*
X0044480Y0059023D01*
X0044480Y0051506D01*
X0053869Y0042118D01*
X0054323Y0041022D01*
X0054323Y0033931D01*
X0053869Y0032835D01*
X0053030Y0031996D01*
X0049936Y0028902D01*
X0049936Y0028334D01*
X0052576Y0025694D01*
X0063650Y0025694D01*
X0063275Y0026069D01*
X0062589Y0027723D01*
X0062589Y0029513D01*
X0063275Y0031167D01*
X0064100Y0031992D01*
X0063644Y0031992D01*
X0062589Y0033047D01*
X0062589Y0039938D01*
X0063644Y0040992D01*
X0070535Y0040992D01*
X0071589Y0039938D01*
X0071589Y0039482D01*
X0072414Y0040307D01*
X0074068Y0040992D01*
X0075859Y0040992D01*
X0077513Y0040307D01*
X0078778Y0039041D01*
X0078900Y0038746D01*
X0079023Y0039041D01*
X0080288Y0040307D01*
X0081942Y0040992D01*
X0083733Y0040992D01*
X0085387Y0040307D01*
X0086652Y0039041D01*
X0087337Y0037387D01*
X0087337Y0035597D01*
X0086652Y0033943D01*
X0085387Y0032677D01*
X0085092Y0032555D01*
X0085387Y0032433D01*
X0086652Y0031167D01*
X0087337Y0029513D01*
X0087337Y0027723D01*
X0086652Y0026069D01*
X0085387Y0024803D01*
X0083733Y0024118D01*
X0081942Y0024118D01*
X0080288Y0024803D01*
X0079455Y0025637D01*
X0078346Y0025637D01*
X0077513Y0024803D01*
X0077206Y0024676D01*
X0073874Y0021344D01*
X0124176Y0021344D01*
X0124827Y0021408D01*
X0126030Y0021906D01*
X0126951Y0022827D01*
X0127449Y0024030D01*
X0127513Y0024681D01*
X0127513Y0154602D01*
X0127449Y0155253D01*
X0126951Y0156456D01*
X0126030Y0157377D01*
X0124827Y0157875D01*
X0124176Y0157939D01*
X0076976Y0157939D01*
X0080050Y0154865D01*
X0081704Y0154865D01*
X0083248Y0154226D01*
X0084430Y0153044D01*
X0085069Y0151501D01*
X0085069Y0149830D01*
X0084430Y0148286D01*
X0083248Y0147105D01*
X0081704Y0146465D01*
X0080034Y0146465D01*
X0078490Y0147105D01*
X0077308Y0148286D01*
X0076932Y0149195D01*
X0076556Y0148286D01*
X0075386Y0147116D01*
X0075386Y0126902D01*
X0096254Y0126902D01*
X0096254Y0127738D01*
X0097528Y0129012D01*
X0103580Y0129012D01*
X0104854Y0130286D01*
X0104854Y0136738D01*
X0103580Y0138012D01*
X0102945Y0138012D01*
X0102945Y0146465D01*
X0103700Y0146465D01*
X0104754Y0147520D01*
X0104754Y0148560D01*
X0104867Y0148286D01*
X0106037Y0147116D01*
X0106037Y0136973D01*
X0106401Y0136095D01*
X0108065Y0134431D01*
X0108065Y0130286D01*
X0109339Y0129012D01*
X0115391Y0129012D01*
X0116665Y0130286D01*
X0116665Y0136738D01*
X0115391Y0138012D01*
X0111246Y0138012D01*
X0110819Y0138439D01*
X0110819Y0147116D01*
X0111989Y0148286D01*
X0112614Y0149795D01*
X0112660Y0149561D01*
X0112946Y0148871D01*
X0113360Y0148251D01*
X0113888Y0147723D01*
X0114508Y0147309D01*
X0115197Y0147023D01*
X0115929Y0146878D01*
X0116102Y0146878D01*
X0116102Y0150465D01*
X0116502Y0150465D01*
X0116502Y0146878D01*
X0116675Y0146878D01*
X0117407Y0147023D01*
X0118096Y0147309D01*
X0118716Y0147723D01*
X0119244Y0148251D01*
X0119658Y0148871D01*
X0119944Y0149561D01*
X0120089Y0150292D01*
X0120089Y0150465D01*
X0116502Y0150465D01*
X0116502Y0150865D01*
X0120089Y0150865D01*
X0120089Y0151038D01*
X0119944Y0151770D01*
X0119658Y0152459D01*
X0119244Y0153080D01*
X0118716Y0153607D01*
X0118096Y0154022D01*
X0117407Y0154307D01*
X0116675Y0154453D01*
X0116502Y0154453D01*
X0116502Y0150865D01*
X0116102Y0150865D01*
X0116102Y0154453D01*
X0115929Y0154453D01*
X0115197Y0154307D01*
X0114508Y0154022D01*
X0113888Y0153607D01*
X0113360Y0153080D01*
X0112946Y0152459D01*
X0112660Y0151770D01*
X0112614Y0151536D01*
X0111989Y0153044D01*
X0110807Y0154226D01*
X0109263Y0154865D01*
X0107593Y0154865D01*
X0106049Y0154226D01*
X0104867Y0153044D01*
X0104754Y0152771D01*
X0104754Y0153811D01*
X0103700Y0154865D01*
X0097408Y0154865D01*
X0096354Y0153811D01*
X0096354Y0147520D01*
X0097408Y0146465D01*
X0098163Y0146465D01*
X0098163Y0138012D01*
X0097528Y0138012D01*
X0096254Y0136738D01*
X0096254Y0130286D01*
X0097528Y0129012D01*
X0103580Y0129012D01*
X0104854Y0127738D01*
X0104854Y0126902D01*
X0108065Y0126902D01*
X0108065Y0127738D01*
X0109339Y0129012D01*
X0115391Y0129012D01*
X0116665Y0127738D01*
X0116665Y0121286D01*
X0115391Y0120012D01*
X0109339Y0120012D01*
X0108065Y0121286D01*
X0108065Y0122121D01*
X0104854Y0122121D01*
X0104854Y0121286D01*
X0103580Y0120012D01*
X0097528Y0120012D01*
X0096254Y0121286D01*
X0096254Y0122121D01*
X0074820Y0122121D01*
X0068665Y0115966D01*
X0068665Y0099847D01*
X0068910Y0099847D01*
X0070184Y0098573D01*
X0070184Y0098528D01*
X0073588Y0098528D01*
X0074684Y0098074D01*
X0075522Y0097236D01*
X0077456Y0095302D01*
X0080702Y0095302D01*
X0081976Y0094028D01*
X0081976Y0084476D01*
X0081470Y0083970D01*
X0081762Y0083679D01*
X0082275Y0082439D01*
X0082275Y0081096D01*
X0081888Y0080162D01*
X0082689Y0080162D01*
X0083963Y0078888D01*
X0083963Y0078450D01*
X0087534Y0078450D01*
X0087534Y0079087D01*
X0088865Y0080418D01*
X0092892Y0080418D01*
X0092892Y0083202D01*
X0092847Y0083202D01*
X0091573Y0084476D01*
X0091573Y0094028D01*
X0092847Y0095302D01*
X0098899Y0095302D01*
X0100173Y0094028D01*
X0100173Y0084476D01*
X0098899Y0083202D01*
X0098854Y0083202D01*
X0098854Y0080418D01*
X0100432Y0080418D01*
X0101763Y0079087D01*
X0101763Y0078253D01*
X0102109Y0078253D01*
X0102579Y0078723D01*
X0103820Y0079237D01*
X0105162Y0079237D01*
X0106403Y0078723D01*
X0107352Y0077774D01*
X0107866Y0076533D01*
X0107866Y0075191D01*
X0107352Y0073951D01*
X0106403Y0073001D01*
X0105162Y0072487D01*
X0103820Y0072487D01*
X0102579Y0073001D01*
X0102109Y0073472D01*
X0101763Y0073472D01*
X0101763Y0071850D01*
X0100432Y0070519D01*
X0088865Y0070519D01*
X0087534Y0071850D01*
X0087534Y0072487D01*
X0083615Y0072487D01*
X0082689Y0071562D01*
X0076238Y0071562D01*
X0074963Y0072836D01*
X0074963Y0078888D01*
X0076008Y0079932D01*
X0075526Y0081096D01*
X0075526Y0081937D01*
X0075286Y0082517D01*
X0075286Y0083202D01*
X0074650Y0083202D01*
X0073376Y0084476D01*
X0073376Y0090950D01*
X0071760Y0092566D01*
X0070184Y0092566D01*
X0070184Y0092521D01*
X0068910Y0091247D01*
X0062458Y0091247D01*
X0061184Y0092521D01*
X0061184Y0098573D01*
X0062458Y0099847D01*
X0062703Y0099847D01*
X0062703Y0104377D01*
X0031310Y0104377D01*
X0030359Y0103983D01*
X0029017Y0103983D01*
X0027776Y0104497D01*
X0026827Y0105447D01*
X0026313Y0106687D01*
X0026313Y0107352D01*
X0024397Y0109269D01*
X0023724Y0109941D01*
X0023360Y0110820D01*
X0023360Y0120012D01*
X0022725Y0120012D01*
X0021451Y0121286D01*
X0021451Y0127738D01*
X0022725Y0129012D01*
X0028777Y0129012D01*
X0030051Y0130286D01*
X0030051Y0134431D01*
X0031042Y0135422D01*
X0031714Y0136095D01*
X0032078Y0136973D01*
X0032078Y0146465D01*
X0032833Y0146465D01*
X0033888Y0147520D01*
X0033888Y0148560D01*
X0034001Y0148286D01*
X0035171Y0147116D01*
X0035171Y0138012D01*
X0034536Y0138012D01*
X0033262Y0136738D01*
X0033262Y0130286D01*
X0034536Y0129012D01*
X0040588Y0129012D01*
X0041862Y0130286D01*
X0041862Y0136738D01*
X0040588Y0138012D01*
X0039952Y0138012D01*
X0039952Y0147116D01*
X0041122Y0148286D01*
X0041747Y0149795D01*
X0041794Y0149561D01*
X0042080Y0148871D01*
X0042494Y0148251D01*
X0043022Y0147723D01*
X0043642Y0147309D01*
X0044331Y0147023D01*
X0045063Y0146878D01*
X0045236Y0146878D01*
X0045236Y0150465D01*
X0045636Y0150465D01*
X0045636Y0146878D01*
X0045809Y0146878D01*
X0046541Y0147023D01*
X0047230Y0147309D01*
X0047850Y0147723D01*
X0048378Y0148251D01*
X0048792Y0148871D01*
X0049078Y0149561D01*
X0049223Y0150292D01*
X0049223Y0150465D01*
X0045636Y0150465D01*
X0045636Y0150865D01*
X0049223Y0150865D01*
X0049223Y0151038D01*
X0049078Y0151770D01*
X0048792Y0152459D01*
X0048378Y0153080D01*
X0047850Y0153607D01*
X0047230Y0154022D01*
X0046541Y0154307D01*
X0045809Y0154453D01*
X0045636Y0154453D01*
X0045636Y0150865D01*
X0045236Y0150865D01*
X0045236Y0154453D01*
X0045063Y0154453D01*
X0044331Y0154307D01*
X0043642Y0154022D01*
X0043022Y0153607D01*
X0042494Y0153080D01*
X0042080Y0152459D01*
X0041794Y0151770D01*
X0041747Y0151536D01*
X0041122Y0153044D01*
X0039941Y0154226D01*
X0038397Y0154865D01*
X0036726Y0154865D01*
X0035183Y0154226D01*
X0034001Y0153044D01*
X0033888Y0152771D01*
X0033888Y0153811D01*
X0032833Y0154865D01*
X0026542Y0154865D01*
X0025488Y0153811D01*
X0025488Y0147520D01*
X0026542Y0146465D01*
X0027297Y0146465D01*
X0027297Y0138439D01*
X0026870Y0138012D01*
X0022725Y0138012D01*
X0021451Y0136738D01*
X0021451Y0130286D01*
X0022725Y0129012D01*
X0028777Y0129012D01*
X0030051Y0127738D01*
X0030051Y0126902D01*
X0033262Y0126902D01*
X0033262Y0127738D01*
X0034536Y0129012D01*
X0040588Y0129012D01*
X0041862Y0127738D01*
X0041862Y0121286D01*
X0040588Y0120012D01*
X0034536Y0120012D01*
X0033262Y0121286D01*
X0033262Y0122121D01*
X0030051Y0122121D01*
X0030051Y0121286D01*
X0028777Y0120012D01*
X0028141Y0120012D01*
X0028141Y0112285D01*
X0029694Y0110733D01*
X0030359Y0110733D01*
X0031310Y0110339D01*
X0062703Y0110339D01*
X0062703Y0117794D01*
X0062863Y0118180D01*
X0061855Y0117763D01*
X0060513Y0117763D01*
X0059272Y0118277D01*
X0058323Y0119226D01*
X0057809Y0120466D01*
X0057809Y0121809D01*
X0058323Y0123049D01*
X0058793Y0123520D01*
X0058793Y0141801D01*
X0057861Y0142733D01*
X0057189Y0143406D01*
X0056825Y0144284D01*
X0056825Y0155078D01*
X0057189Y0155956D01*
X0057861Y0156629D01*
X0057861Y0156629D01*
X0059157Y0157925D01*
X0059157Y0157925D01*
X0059172Y0157939D01*
X0021814Y0157939D01*
X0021163Y0157875D01*
X0019960Y0157377D01*
X0019039Y0156456D01*
X0018541Y0155253D01*
X0018477Y0154602D01*
X0018477Y0024681D01*
X0018541Y0024030D01*
X0019039Y0022827D01*
X0019495Y0022371D02*
X0047467Y0022371D01*
X0046268Y0023570D02*
X0018732Y0023570D01*
X0018477Y0024768D02*
X0027223Y0024768D01*
X0025975Y0025967D02*
X0018477Y0025967D01*
X0018477Y0027165D02*
X0025419Y0027165D01*
X0025188Y0028364D02*
X0018477Y0028364D01*
X0018477Y0029562D02*
X0025208Y0029562D01*
X0025705Y0030761D02*
X0018477Y0030761D01*
X0018477Y0031959D02*
X0026665Y0031959D01*
X0025188Y0033158D02*
X0018477Y0033158D01*
X0018477Y0034356D02*
X0025188Y0034356D01*
X0025188Y0035555D02*
X0018477Y0035555D01*
X0018477Y0036753D02*
X0025188Y0036753D01*
X0025188Y0037952D02*
X0018477Y0037952D01*
X0018477Y0039150D02*
X0025188Y0039150D01*
X0025599Y0040349D02*
X0018477Y0040349D01*
X0018477Y0041547D02*
X0034581Y0041547D01*
X0034581Y0040349D02*
X0033777Y0040349D01*
X0034581Y0042746D02*
X0018477Y0042746D01*
X0018477Y0043944D02*
X0033768Y0043944D01*
X0032569Y0045143D02*
X0018477Y0045143D01*
X0018477Y0046341D02*
X0031371Y0046341D01*
X0030172Y0047540D02*
X0018477Y0047540D01*
X0018477Y0048738D02*
X0029065Y0048738D01*
X0028675Y0049937D02*
X0018477Y0049937D01*
X0018477Y0051135D02*
X0028675Y0051135D01*
X0028675Y0052334D02*
X0018477Y0052334D01*
X0018477Y0053532D02*
X0028675Y0053532D01*
X0028675Y0054731D02*
X0018477Y0054731D01*
X0018477Y0055929D02*
X0028675Y0055929D01*
X0028675Y0057128D02*
X0018477Y0057128D01*
X0018477Y0058326D02*
X0028675Y0058326D01*
X0028675Y0059525D02*
X0018477Y0059525D01*
X0018477Y0060723D02*
X0028675Y0060723D01*
X0028675Y0061922D02*
X0018477Y0061922D01*
X0018477Y0063121D02*
X0028675Y0063121D01*
X0028675Y0064319D02*
X0018477Y0064319D01*
X0018477Y0065518D02*
X0028675Y0065518D01*
X0028675Y0066716D02*
X0018477Y0066716D01*
X0018477Y0067915D02*
X0028675Y0067915D01*
X0028675Y0069113D02*
X0018477Y0069113D01*
X0018477Y0070312D02*
X0028675Y0070312D01*
X0028675Y0071510D02*
X0018477Y0071510D01*
X0018477Y0072709D02*
X0028675Y0072709D01*
X0028675Y0073907D02*
X0018477Y0073907D01*
X0018477Y0075106D02*
X0028675Y0075106D01*
X0028675Y0076304D02*
X0018477Y0076304D01*
X0018477Y0077503D02*
X0028675Y0077503D01*
X0029084Y0078701D02*
X0018477Y0078701D01*
X0018477Y0079900D02*
X0030218Y0079900D01*
X0031417Y0081098D02*
X0018477Y0081098D01*
X0018477Y0082297D02*
X0032615Y0082297D01*
X0033814Y0083495D02*
X0018477Y0083495D01*
X0018477Y0084694D02*
X0034778Y0084694D01*
X0034778Y0085892D02*
X0018477Y0085892D01*
X0018477Y0087091D02*
X0034778Y0087091D01*
X0034778Y0088289D02*
X0018477Y0088289D01*
X0018477Y0089488D02*
X0034778Y0089488D01*
X0034778Y0090686D02*
X0018477Y0090686D01*
X0018477Y0091885D02*
X0035361Y0091885D01*
X0039848Y0081098D02*
X0066077Y0081098D01*
X0066077Y0079900D02*
X0038650Y0079900D01*
X0037451Y0078701D02*
X0055934Y0078701D01*
X0054915Y0077503D02*
X0036253Y0077503D01*
X0035054Y0076304D02*
X0054915Y0076304D01*
X0054915Y0075106D02*
X0034637Y0075106D01*
X0034637Y0073907D02*
X0054915Y0073907D01*
X0054915Y0072709D02*
X0034637Y0072709D01*
X0034637Y0071510D02*
X0054915Y0071510D01*
X0055835Y0070312D02*
X0046752Y0070312D01*
X0048000Y0069113D02*
X0055346Y0069113D01*
X0055224Y0061922D02*
X0048220Y0061922D01*
X0048131Y0060723D02*
X0066265Y0060723D01*
X0063139Y0057340D02*
X0058914Y0057340D01*
X0056026Y0054453D01*
X0053139Y0057340D01*
X0048914Y0057340D01*
X0045926Y0054353D01*
X0045926Y0050128D01*
X0048914Y0047140D01*
X0053139Y0047140D01*
X0056026Y0050028D01*
X0058914Y0047140D01*
X0063139Y0047140D01*
X0066126Y0050128D01*
X0066126Y0054353D01*
X0063139Y0057340D01*
X0063351Y0057128D02*
X0078702Y0057128D01*
X0078914Y0057340D02*
X0075926Y0054353D01*
X0075926Y0050128D01*
X0078914Y0047140D01*
X0083139Y0047140D01*
X0085926Y0049928D01*
X0085926Y0048195D01*
X0086981Y0047140D01*
X0095072Y0047140D01*
X0096126Y0048195D01*
X0096126Y0056286D01*
X0095072Y0057340D01*
X0086981Y0057340D01*
X0085926Y0056286D01*
X0085926Y0054553D01*
X0083139Y0057340D01*
X0078914Y0057340D01*
X0077503Y0055929D02*
X0073966Y0055929D01*
X0072968Y0056928D02*
X0071312Y0056928D01*
X0071312Y0052526D01*
X0070741Y0052526D01*
X0070741Y0056928D01*
X0069085Y0056928D01*
X0066339Y0054182D01*
X0066339Y0052526D01*
X0070741Y0052526D01*
X0070741Y0051954D01*
X0071312Y0051954D01*
X0071312Y0047553D01*
X0072968Y0047553D01*
X0075714Y0050299D01*
X0075714Y0051954D01*
X0071312Y0051954D01*
X0071312Y0052526D01*
X0075714Y0052526D01*
X0075714Y0054182D01*
X0072968Y0056928D01*
X0071312Y0055929D02*
X0070741Y0055929D01*
X0070741Y0054731D02*
X0071312Y0054731D01*
X0071312Y0053532D02*
X0070741Y0053532D01*
X0070741Y0052334D02*
X0066126Y0052334D01*
X0066339Y0051954D02*
X0066339Y0050299D01*
X0069085Y0047553D01*
X0070741Y0047553D01*
X0070741Y0051954D01*
X0066339Y0051954D01*
X0066339Y0051135D02*
X0066126Y0051135D01*
X0065936Y0049937D02*
X0066701Y0049937D01*
X0067899Y0048738D02*
X0064737Y0048738D01*
X0063539Y0047540D02*
X0078514Y0047540D01*
X0077316Y0048738D02*
X0074154Y0048738D01*
X0075352Y0049937D02*
X0076117Y0049937D01*
X0075926Y0051135D02*
X0075714Y0051135D01*
X0075926Y0052334D02*
X0071312Y0052334D01*
X0071312Y0051135D02*
X0070741Y0051135D01*
X0070741Y0049937D02*
X0071312Y0049937D01*
X0071312Y0048738D02*
X0070741Y0048738D01*
X0066339Y0053532D02*
X0066126Y0053532D01*
X0065748Y0054731D02*
X0066888Y0054731D01*
X0068087Y0055929D02*
X0064550Y0055929D01*
X0058702Y0057128D02*
X0053351Y0057128D01*
X0054550Y0055929D02*
X0057503Y0055929D01*
X0056305Y0054731D02*
X0055748Y0054731D01*
X0055936Y0049937D02*
X0056117Y0049937D01*
X0057316Y0048738D02*
X0054737Y0048738D01*
X0053539Y0047540D02*
X0058514Y0047540D01*
X0054105Y0041547D02*
X0127513Y0041547D01*
X0127513Y0040349D02*
X0085286Y0040349D01*
X0086543Y0039150D02*
X0127513Y0039150D01*
X0127513Y0037952D02*
X0087104Y0037952D01*
X0087337Y0036753D02*
X0127513Y0036753D01*
X0127513Y0035555D02*
X0087320Y0035555D01*
X0086824Y0034356D02*
X0127513Y0034356D01*
X0127513Y0033158D02*
X0085867Y0033158D01*
X0085860Y0031959D02*
X0127513Y0031959D01*
X0127513Y0030761D02*
X0086821Y0030761D01*
X0087317Y0029562D02*
X0127513Y0029562D01*
X0127513Y0028364D02*
X0087337Y0028364D01*
X0087106Y0027165D02*
X0127513Y0027165D01*
X0127513Y0025967D02*
X0086550Y0025967D01*
X0085302Y0024768D02*
X0127513Y0024768D01*
X0127258Y0023570D02*
X0076099Y0023570D01*
X0074901Y0022371D02*
X0126495Y0022371D01*
X0127513Y0042746D02*
X0053241Y0042746D01*
X0052042Y0043944D02*
X0127513Y0043944D01*
X0127513Y0045143D02*
X0050844Y0045143D01*
X0049645Y0046341D02*
X0127513Y0046341D01*
X0127513Y0047540D02*
X0095472Y0047540D01*
X0096126Y0048738D02*
X0127513Y0048738D01*
X0127513Y0049937D02*
X0096126Y0049937D01*
X0096126Y0051135D02*
X0127513Y0051135D01*
X0127513Y0052334D02*
X0096126Y0052334D01*
X0096126Y0053532D02*
X0127513Y0053532D01*
X0127513Y0054731D02*
X0096126Y0054731D01*
X0096126Y0055929D02*
X0127513Y0055929D01*
X0127513Y0057128D02*
X0095284Y0057128D01*
X0095248Y0059908D02*
X0099736Y0059908D01*
X0100209Y0060035D01*
X0100633Y0060279D01*
X0100979Y0060626D01*
X0101224Y0061050D01*
X0101351Y0061523D01*
X0101351Y0063845D01*
X0095249Y0063845D01*
X0095249Y0065045D01*
X0101351Y0065045D01*
X0101351Y0067367D01*
X0101224Y0067840D01*
X0100979Y0068264D01*
X0100633Y0068610D01*
X0100209Y0068855D01*
X0099736Y0068982D01*
X0095248Y0068982D01*
X0095248Y0065045D01*
X0094049Y0065045D01*
X0094049Y0068982D01*
X0089561Y0068982D01*
X0089088Y0068855D01*
X0088664Y0068610D01*
X0088318Y0068264D01*
X0088073Y0067840D01*
X0087946Y0067367D01*
X0087946Y0065045D01*
X0094048Y0065045D01*
X0094048Y0063845D01*
X0087946Y0063845D01*
X0087946Y0061523D01*
X0088073Y0061050D01*
X0088318Y0060626D01*
X0088664Y0060279D01*
X0089088Y0060035D01*
X0089561Y0059908D01*
X0094049Y0059908D01*
X0094049Y0063845D01*
X0095248Y0063845D01*
X0095248Y0059908D01*
X0095248Y0060723D02*
X0094049Y0060723D01*
X0094049Y0061922D02*
X0095248Y0061922D01*
X0095248Y0063121D02*
X0094049Y0063121D01*
X0094048Y0064319D02*
X0080064Y0064319D01*
X0080064Y0064651D02*
X0083551Y0064651D01*
X0083551Y0066408D01*
X0083431Y0066856D01*
X0083199Y0067258D01*
X0082871Y0067586D01*
X0082469Y0067818D01*
X0082021Y0067939D01*
X0080063Y0067939D01*
X0080063Y0064651D01*
X0078863Y0064651D01*
X0078863Y0063451D01*
X0075376Y0063451D01*
X0075376Y0061694D01*
X0075496Y0061246D01*
X0075728Y0060844D01*
X0076056Y0060516D01*
X0076458Y0060284D01*
X0076906Y0060164D01*
X0078863Y0060164D01*
X0078863Y0063451D01*
X0080063Y0063451D01*
X0080063Y0060164D01*
X0082021Y0060164D01*
X0082469Y0060284D01*
X0082871Y0060516D01*
X0083199Y0060844D01*
X0083431Y0061246D01*
X0083551Y0061694D01*
X0083551Y0063451D01*
X0080064Y0063451D01*
X0080064Y0064651D01*
X0080063Y0065518D02*
X0078863Y0065518D01*
X0078863Y0064651D02*
X0078863Y0067939D01*
X0076906Y0067939D01*
X0076458Y0067818D01*
X0076056Y0067586D01*
X0075728Y0067258D01*
X0075496Y0066856D01*
X0075376Y0066408D01*
X0075376Y0064651D01*
X0078863Y0064651D01*
X0078863Y0064319D02*
X0074963Y0064319D01*
X0074963Y0063121D02*
X0075376Y0063121D01*
X0075376Y0061922D02*
X0074963Y0061922D01*
X0074662Y0060723D02*
X0075849Y0060723D01*
X0078863Y0060723D02*
X0080063Y0060723D01*
X0080063Y0061922D02*
X0078863Y0061922D01*
X0078863Y0063121D02*
X0080063Y0063121D01*
X0083551Y0063121D02*
X0087946Y0063121D01*
X0087946Y0061922D02*
X0083551Y0061922D01*
X0083078Y0060723D02*
X0088261Y0060723D01*
X0086769Y0057128D02*
X0083351Y0057128D01*
X0084550Y0055929D02*
X0085926Y0055929D01*
X0085926Y0054731D02*
X0085748Y0054731D01*
X0085926Y0048738D02*
X0084737Y0048738D01*
X0083539Y0047540D02*
X0086581Y0047540D01*
X0080389Y0040349D02*
X0077412Y0040349D01*
X0078669Y0039150D02*
X0079132Y0039150D01*
X0072515Y0040349D02*
X0071178Y0040349D01*
X0063001Y0040349D02*
X0054323Y0040349D01*
X0054323Y0039150D02*
X0062589Y0039150D01*
X0062589Y0037952D02*
X0054323Y0037952D01*
X0054323Y0036753D02*
X0062589Y0036753D01*
X0062589Y0035555D02*
X0054323Y0035555D01*
X0054323Y0034356D02*
X0062589Y0034356D01*
X0062589Y0033158D02*
X0054002Y0033158D01*
X0052993Y0031959D02*
X0064067Y0031959D01*
X0063106Y0030761D02*
X0051794Y0030761D01*
X0050596Y0029562D02*
X0062610Y0029562D01*
X0062589Y0028364D02*
X0049936Y0028364D01*
X0051105Y0027165D02*
X0062821Y0027165D01*
X0063377Y0025967D02*
X0052303Y0025967D01*
X0042971Y0024768D02*
X0040026Y0024768D01*
X0035097Y0024768D02*
X0032152Y0024768D01*
X0033400Y0025967D02*
X0033849Y0025967D01*
X0041268Y0039150D02*
X0041730Y0039150D01*
X0040543Y0040349D02*
X0042988Y0040349D01*
X0044809Y0042746D02*
X0040543Y0042746D01*
X0040543Y0043944D02*
X0043610Y0043944D01*
X0042412Y0045143D02*
X0040467Y0045143D01*
X0039803Y0046341D02*
X0041213Y0046341D01*
X0040015Y0047540D02*
X0038604Y0047540D01*
X0038907Y0048738D02*
X0037406Y0048738D01*
X0038518Y0049937D02*
X0036207Y0049937D01*
X0035009Y0051135D02*
X0038518Y0051135D01*
X0038518Y0052334D02*
X0034637Y0052334D01*
X0034637Y0053532D02*
X0038518Y0053532D01*
X0038518Y0054731D02*
X0034637Y0054731D01*
X0034637Y0055929D02*
X0038518Y0055929D01*
X0038518Y0057128D02*
X0034637Y0057128D01*
X0034637Y0058326D02*
X0038518Y0058326D01*
X0035676Y0059525D02*
X0034637Y0059525D01*
X0034637Y0060723D02*
X0034866Y0060723D01*
X0034778Y0061922D02*
X0034637Y0061922D01*
X0034637Y0063121D02*
X0034778Y0063121D01*
X0034778Y0064319D02*
X0034637Y0064319D01*
X0034637Y0065518D02*
X0034778Y0065518D01*
X0034778Y0066716D02*
X0034637Y0066716D01*
X0034637Y0067915D02*
X0034778Y0067915D01*
X0034637Y0069113D02*
X0034998Y0069113D01*
X0034637Y0070312D02*
X0036245Y0070312D01*
X0044480Y0058326D02*
X0127513Y0058326D01*
X0127513Y0059525D02*
X0047322Y0059525D01*
X0048702Y0057128D02*
X0044480Y0057128D01*
X0044480Y0055929D02*
X0047503Y0055929D01*
X0046305Y0054731D02*
X0044480Y0054731D01*
X0044480Y0053532D02*
X0045926Y0053532D01*
X0045926Y0052334D02*
X0044480Y0052334D01*
X0044851Y0051135D02*
X0045926Y0051135D01*
X0046050Y0049937D02*
X0046117Y0049937D01*
X0047248Y0048738D02*
X0047316Y0048738D01*
X0048447Y0047540D02*
X0048514Y0047540D01*
X0046007Y0041547D02*
X0040543Y0041547D01*
X0063515Y0067915D02*
X0066801Y0067915D01*
X0063085Y0069113D02*
X0127513Y0069113D01*
X0127513Y0067915D02*
X0101181Y0067915D01*
X0101351Y0066716D02*
X0127513Y0066716D01*
X0127513Y0065518D02*
X0101351Y0065518D01*
X0101351Y0063121D02*
X0127513Y0063121D01*
X0127513Y0064319D02*
X0095249Y0064319D01*
X0095248Y0065518D02*
X0094049Y0065518D01*
X0094049Y0066716D02*
X0095248Y0066716D01*
X0095248Y0067915D02*
X0094049Y0067915D01*
X0088116Y0067915D02*
X0082110Y0067915D01*
X0083468Y0066716D02*
X0087946Y0066716D01*
X0087946Y0065518D02*
X0083551Y0065518D01*
X0080063Y0066716D02*
X0078863Y0066716D01*
X0078863Y0067915D02*
X0080063Y0067915D01*
X0076817Y0067915D02*
X0074126Y0067915D01*
X0074963Y0066716D02*
X0075459Y0066716D01*
X0075376Y0065518D02*
X0074963Y0065518D01*
X0074836Y0072709D02*
X0075091Y0072709D01*
X0074963Y0073907D02*
X0074963Y0073907D01*
X0074963Y0075106D02*
X0074963Y0075106D01*
X0074963Y0076304D02*
X0074963Y0076304D01*
X0074963Y0077503D02*
X0074963Y0077503D01*
X0074963Y0078701D02*
X0074963Y0078701D01*
X0073952Y0079900D02*
X0075975Y0079900D01*
X0075526Y0081098D02*
X0072039Y0081098D01*
X0072875Y0082297D02*
X0075377Y0082297D01*
X0074357Y0083495D02*
X0073023Y0083495D01*
X0073023Y0084694D02*
X0073376Y0084694D01*
X0073376Y0085892D02*
X0073023Y0085892D01*
X0073023Y0087091D02*
X0073376Y0087091D01*
X0073376Y0088289D02*
X0073023Y0088289D01*
X0073376Y0089488D02*
X0072500Y0089488D01*
X0073376Y0090686D02*
X0048220Y0090686D01*
X0048220Y0089488D02*
X0053719Y0089488D01*
X0054127Y0091660D02*
X0056084Y0091660D01*
X0056084Y0094947D01*
X0057284Y0094947D01*
X0057284Y0091660D01*
X0059241Y0091660D01*
X0059689Y0091780D01*
X0060091Y0092012D01*
X0060419Y0092340D01*
X0060651Y0092742D01*
X0060771Y0093190D01*
X0060771Y0094947D01*
X0057284Y0094947D01*
X0057284Y0096147D01*
X0060771Y0096147D01*
X0060771Y0097904D01*
X0060651Y0098352D01*
X0060419Y0098754D01*
X0060091Y0099083D01*
X0059689Y0099315D01*
X0059241Y0099435D01*
X0057284Y0099435D01*
X0057284Y0096147D01*
X0056084Y0096147D01*
X0056084Y0094947D01*
X0052597Y0094947D01*
X0052597Y0093190D01*
X0052717Y0092742D01*
X0052949Y0092340D01*
X0053277Y0092012D01*
X0053679Y0091780D01*
X0054127Y0091660D01*
X0053497Y0091885D02*
X0047637Y0091885D01*
X0052625Y0093083D02*
X0018477Y0093083D01*
X0018477Y0094282D02*
X0052597Y0094282D01*
X0052597Y0096147D02*
X0052597Y0097904D01*
X0052717Y0098352D01*
X0052949Y0098754D01*
X0053277Y0099083D01*
X0053679Y0099315D01*
X0054127Y0099435D01*
X0056084Y0099435D01*
X0056084Y0096147D01*
X0052597Y0096147D01*
X0052597Y0096679D02*
X0018477Y0096679D01*
X0018477Y0097877D02*
X0052597Y0097877D01*
X0053270Y0099076D02*
X0018477Y0099076D01*
X0018477Y0100274D02*
X0062703Y0100274D01*
X0062703Y0101473D02*
X0018477Y0101473D01*
X0018477Y0102671D02*
X0062703Y0102671D01*
X0062703Y0103870D02*
X0018477Y0103870D01*
X0018477Y0105068D02*
X0027205Y0105068D01*
X0026487Y0106267D02*
X0018477Y0106267D01*
X0018477Y0107465D02*
X0026200Y0107465D01*
X0025001Y0108664D02*
X0018477Y0108664D01*
X0018477Y0109862D02*
X0023803Y0109862D01*
X0023360Y0111061D02*
X0018477Y0111061D01*
X0018477Y0112259D02*
X0023360Y0112259D01*
X0023360Y0113458D02*
X0018477Y0113458D01*
X0018477Y0114656D02*
X0023360Y0114656D01*
X0023360Y0115855D02*
X0018477Y0115855D01*
X0018477Y0117054D02*
X0023360Y0117054D01*
X0023360Y0118252D02*
X0018477Y0118252D01*
X0018477Y0119451D02*
X0023360Y0119451D01*
X0022088Y0120649D02*
X0018477Y0120649D01*
X0018477Y0121848D02*
X0021451Y0121848D01*
X0021451Y0123046D02*
X0018477Y0123046D01*
X0018477Y0124245D02*
X0021451Y0124245D01*
X0021451Y0125443D02*
X0018477Y0125443D01*
X0018477Y0126642D02*
X0021451Y0126642D01*
X0021553Y0127840D02*
X0018477Y0127840D01*
X0018477Y0129039D02*
X0022698Y0129039D01*
X0021500Y0130237D02*
X0018477Y0130237D01*
X0018477Y0131436D02*
X0021451Y0131436D01*
X0021451Y0132634D02*
X0018477Y0132634D01*
X0018477Y0133833D02*
X0021451Y0133833D01*
X0021451Y0135031D02*
X0018477Y0135031D01*
X0018477Y0136230D02*
X0021451Y0136230D01*
X0022141Y0137428D02*
X0018477Y0137428D01*
X0018477Y0138627D02*
X0027297Y0138627D01*
X0027297Y0139825D02*
X0018477Y0139825D01*
X0018477Y0141024D02*
X0027297Y0141024D01*
X0027297Y0142222D02*
X0018477Y0142222D01*
X0018477Y0143421D02*
X0027297Y0143421D01*
X0027297Y0144619D02*
X0018477Y0144619D01*
X0018477Y0145818D02*
X0027297Y0145818D01*
X0025991Y0147016D02*
X0018477Y0147016D01*
X0018477Y0148215D02*
X0025488Y0148215D01*
X0025488Y0149413D02*
X0018477Y0149413D01*
X0018477Y0150612D02*
X0025488Y0150612D01*
X0025488Y0151810D02*
X0018477Y0151810D01*
X0018477Y0153009D02*
X0025488Y0153009D01*
X0025884Y0154207D02*
X0018477Y0154207D01*
X0018604Y0155406D02*
X0056961Y0155406D01*
X0056825Y0154207D02*
X0046782Y0154207D01*
X0045636Y0154207D02*
X0045236Y0154207D01*
X0044090Y0154207D02*
X0039960Y0154207D01*
X0041137Y0153009D02*
X0042447Y0153009D01*
X0041811Y0151810D02*
X0041634Y0151810D01*
X0041589Y0149413D02*
X0041855Y0149413D01*
X0042530Y0148215D02*
X0041051Y0148215D01*
X0039952Y0147016D02*
X0044367Y0147016D01*
X0045236Y0147016D02*
X0045636Y0147016D01*
X0046504Y0147016D02*
X0056825Y0147016D01*
X0056825Y0145818D02*
X0039952Y0145818D01*
X0039952Y0144619D02*
X0056825Y0144619D01*
X0057183Y0143421D02*
X0039952Y0143421D01*
X0039952Y0142222D02*
X0058372Y0142222D01*
X0058793Y0141024D02*
X0039952Y0141024D01*
X0039952Y0139825D02*
X0058793Y0139825D01*
X0058793Y0138627D02*
X0039952Y0138627D01*
X0041171Y0137428D02*
X0058793Y0137428D01*
X0058793Y0136230D02*
X0041862Y0136230D01*
X0041862Y0135031D02*
X0058793Y0135031D01*
X0058793Y0133833D02*
X0041862Y0133833D01*
X0041862Y0132634D02*
X0058793Y0132634D01*
X0058793Y0131436D02*
X0041862Y0131436D01*
X0041813Y0130237D02*
X0058793Y0130237D01*
X0058793Y0129039D02*
X0040615Y0129039D01*
X0041759Y0127840D02*
X0058793Y0127840D01*
X0058793Y0126642D02*
X0041862Y0126642D01*
X0041862Y0125443D02*
X0058793Y0125443D01*
X0058793Y0124245D02*
X0041862Y0124245D01*
X0041862Y0123046D02*
X0058322Y0123046D01*
X0057825Y0121848D02*
X0041862Y0121848D01*
X0041225Y0120649D02*
X0057809Y0120649D01*
X0058230Y0119451D02*
X0028141Y0119451D01*
X0028141Y0118252D02*
X0059332Y0118252D01*
X0062703Y0117054D02*
X0028141Y0117054D01*
X0028141Y0115855D02*
X0062703Y0115855D01*
X0062703Y0114656D02*
X0028141Y0114656D01*
X0028141Y0113458D02*
X0062703Y0113458D01*
X0062703Y0112259D02*
X0028167Y0112259D01*
X0029366Y0111061D02*
X0062703Y0111061D01*
X0068665Y0111061D02*
X0078387Y0111061D01*
X0078387Y0112259D02*
X0068665Y0112259D01*
X0068665Y0113458D02*
X0086174Y0113458D01*
X0086174Y0113054D02*
X0078387Y0113054D01*
X0078387Y0109774D01*
X0078525Y0109259D01*
X0078792Y0108798D01*
X0079169Y0108421D01*
X0079630Y0108154D01*
X0080145Y0108016D01*
X0086175Y0108016D01*
X0086175Y0113053D01*
X0087374Y0113053D01*
X0087374Y0108016D01*
X0093404Y0108016D01*
X0093919Y0108154D01*
X0094380Y0108421D01*
X0094757Y0108798D01*
X0095024Y0109259D01*
X0095162Y0109774D01*
X0095162Y0113054D01*
X0087375Y0113054D01*
X0087375Y0114254D01*
X0087374Y0114254D02*
X0086175Y0114254D01*
X0086175Y0119291D01*
X0080145Y0119291D01*
X0079630Y0119153D01*
X0079169Y0118886D01*
X0078792Y0118509D01*
X0078525Y0118048D01*
X0078387Y0117533D01*
X0078387Y0114254D01*
X0086174Y0114254D01*
X0086174Y0113054D01*
X0086175Y0112259D02*
X0087374Y0112259D01*
X0087374Y0111061D02*
X0086175Y0111061D01*
X0086175Y0109862D02*
X0087374Y0109862D01*
X0087374Y0108664D02*
X0086175Y0108664D01*
X0087375Y0113458D02*
X0127513Y0113458D01*
X0127513Y0114656D02*
X0095162Y0114656D01*
X0095162Y0114254D02*
X0095162Y0117533D01*
X0095024Y0118048D01*
X0094757Y0118509D01*
X0094380Y0118886D01*
X0093919Y0119153D01*
X0093404Y0119291D01*
X0087374Y0119291D01*
X0087374Y0114254D01*
X0087375Y0114254D02*
X0095162Y0114254D01*
X0095162Y0115855D02*
X0127513Y0115855D01*
X0127513Y0117054D02*
X0095162Y0117054D01*
X0094906Y0118252D02*
X0127513Y0118252D01*
X0127513Y0119451D02*
X0072150Y0119451D01*
X0073348Y0120649D02*
X0096891Y0120649D01*
X0096254Y0121848D02*
X0074547Y0121848D01*
X0070951Y0118252D02*
X0078643Y0118252D01*
X0078387Y0117054D02*
X0069753Y0117054D01*
X0068665Y0115855D02*
X0078387Y0115855D01*
X0078387Y0114656D02*
X0068665Y0114656D01*
X0068665Y0109862D02*
X0078387Y0109862D01*
X0078925Y0108664D02*
X0068665Y0108664D01*
X0068665Y0107465D02*
X0127513Y0107465D01*
X0127513Y0106267D02*
X0068665Y0106267D01*
X0068665Y0105068D02*
X0127513Y0105068D01*
X0127513Y0103870D02*
X0068665Y0103870D01*
X0068665Y0102671D02*
X0127513Y0102671D01*
X0127513Y0101473D02*
X0068665Y0101473D01*
X0068665Y0100274D02*
X0127513Y0100274D01*
X0127513Y0099076D02*
X0069681Y0099076D01*
X0074881Y0097877D02*
X0127513Y0097877D01*
X0127513Y0096679D02*
X0076079Y0096679D01*
X0077278Y0095480D02*
X0127513Y0095480D01*
X0127513Y0094282D02*
X0099919Y0094282D01*
X0100173Y0093083D02*
X0127513Y0093083D01*
X0127513Y0091885D02*
X0100173Y0091885D01*
X0100173Y0090686D02*
X0127513Y0090686D01*
X0127513Y0089488D02*
X0100173Y0089488D01*
X0100173Y0088289D02*
X0127513Y0088289D01*
X0127513Y0087091D02*
X0100173Y0087091D01*
X0100173Y0085892D02*
X0127513Y0085892D01*
X0127513Y0084694D02*
X0100173Y0084694D01*
X0099192Y0083495D02*
X0127513Y0083495D01*
X0127513Y0082297D02*
X0098854Y0082297D01*
X0098854Y0081098D02*
X0127513Y0081098D01*
X0127513Y0079900D02*
X0100951Y0079900D01*
X0101763Y0078701D02*
X0102557Y0078701D01*
X0106425Y0078701D02*
X0127513Y0078701D01*
X0127513Y0077503D02*
X0107464Y0077503D01*
X0107866Y0076304D02*
X0127513Y0076304D01*
X0127513Y0075106D02*
X0107830Y0075106D01*
X0107309Y0073907D02*
X0127513Y0073907D01*
X0127513Y0072709D02*
X0105696Y0072709D01*
X0103286Y0072709D02*
X0101763Y0072709D01*
X0101423Y0071510D02*
X0127513Y0071510D01*
X0127513Y0070312D02*
X0062596Y0070312D01*
X0063515Y0071510D02*
X0087874Y0071510D01*
X0087534Y0078701D02*
X0083963Y0078701D01*
X0082952Y0079900D02*
X0088346Y0079900D01*
X0089132Y0083615D02*
X0087374Y0083615D01*
X0087374Y0088652D01*
X0086175Y0088652D01*
X0086175Y0083615D01*
X0084417Y0083615D01*
X0083969Y0083735D01*
X0083567Y0083967D01*
X0083239Y0084295D01*
X0083007Y0084697D01*
X0082887Y0085145D01*
X0082887Y0088652D01*
X0086174Y0088652D01*
X0086174Y0089852D01*
X0082887Y0089852D01*
X0082887Y0093359D01*
X0083007Y0093807D01*
X0083239Y0094209D01*
X0083567Y0094537D01*
X0083969Y0094769D01*
X0084417Y0094889D01*
X0086175Y0094889D01*
X0086175Y0089852D01*
X0087374Y0089852D01*
X0087374Y0094889D01*
X0089132Y0094889D01*
X0089580Y0094769D01*
X0089982Y0094537D01*
X0090310Y0094209D01*
X0090542Y0093807D01*
X0090662Y0093359D01*
X0090662Y0089852D01*
X0087375Y0089852D01*
X0087375Y0088652D01*
X0090662Y0088652D01*
X0090662Y0085145D01*
X0090542Y0084697D01*
X0090310Y0084295D01*
X0089982Y0083967D01*
X0089580Y0083735D01*
X0089132Y0083615D01*
X0090540Y0084694D02*
X0091573Y0084694D01*
X0091573Y0085892D02*
X0090662Y0085892D01*
X0090662Y0087091D02*
X0091573Y0087091D01*
X0091573Y0088289D02*
X0090662Y0088289D01*
X0091573Y0089488D02*
X0087375Y0089488D01*
X0087374Y0090686D02*
X0086175Y0090686D01*
X0086174Y0089488D02*
X0081976Y0089488D01*
X0081976Y0090686D02*
X0082887Y0090686D01*
X0082887Y0091885D02*
X0081976Y0091885D01*
X0081976Y0093083D02*
X0082887Y0093083D01*
X0083312Y0094282D02*
X0081722Y0094282D01*
X0086175Y0094282D02*
X0087374Y0094282D01*
X0087374Y0093083D02*
X0086175Y0093083D01*
X0086175Y0091885D02*
X0087374Y0091885D01*
X0090662Y0091885D02*
X0091573Y0091885D01*
X0091573Y0093083D02*
X0090662Y0093083D01*
X0090237Y0094282D02*
X0091827Y0094282D01*
X0091573Y0090686D02*
X0090662Y0090686D01*
X0087374Y0088289D02*
X0086175Y0088289D01*
X0086175Y0087091D02*
X0087374Y0087091D01*
X0087374Y0085892D02*
X0086175Y0085892D01*
X0086175Y0084694D02*
X0087374Y0084694D01*
X0083009Y0084694D02*
X0081976Y0084694D01*
X0081976Y0085892D02*
X0082887Y0085892D01*
X0082887Y0087091D02*
X0081976Y0087091D01*
X0081976Y0088289D02*
X0082887Y0088289D01*
X0081838Y0083495D02*
X0092554Y0083495D01*
X0092892Y0082297D02*
X0082275Y0082297D01*
X0082275Y0081098D02*
X0092892Y0081098D01*
X0101351Y0061922D02*
X0127513Y0061922D01*
X0127513Y0060723D02*
X0101036Y0060723D01*
X0076305Y0054731D02*
X0075165Y0054731D01*
X0075714Y0053532D02*
X0075926Y0053532D01*
X0066091Y0072709D02*
X0063515Y0072709D01*
X0060911Y0082297D02*
X0060363Y0082297D01*
X0060425Y0083495D02*
X0060762Y0083495D01*
X0060762Y0084694D02*
X0060425Y0084694D01*
X0060425Y0085892D02*
X0060762Y0085892D01*
X0060762Y0087091D02*
X0060425Y0087091D01*
X0060425Y0088289D02*
X0060762Y0088289D01*
X0061286Y0089488D02*
X0059988Y0089488D01*
X0059871Y0091885D02*
X0061820Y0091885D01*
X0061184Y0093083D02*
X0060743Y0093083D01*
X0060771Y0094282D02*
X0061184Y0094282D01*
X0061184Y0095480D02*
X0057284Y0095480D01*
X0057284Y0094282D02*
X0056084Y0094282D01*
X0056084Y0095480D02*
X0018477Y0095480D01*
X0029414Y0120649D02*
X0033899Y0120649D01*
X0033262Y0121848D02*
X0030051Y0121848D01*
X0029948Y0127840D02*
X0033364Y0127840D01*
X0034509Y0129039D02*
X0028804Y0129039D01*
X0030002Y0130237D02*
X0033311Y0130237D01*
X0033262Y0131436D02*
X0030051Y0131436D01*
X0030051Y0132634D02*
X0033262Y0132634D01*
X0033262Y0133833D02*
X0030051Y0133833D01*
X0030651Y0135031D02*
X0033262Y0135031D01*
X0033262Y0136230D02*
X0031770Y0136230D01*
X0032078Y0137428D02*
X0033952Y0137428D01*
X0035171Y0138627D02*
X0032078Y0138627D01*
X0032078Y0139825D02*
X0035171Y0139825D01*
X0035171Y0141024D02*
X0032078Y0141024D01*
X0032078Y0142222D02*
X0035171Y0142222D01*
X0035171Y0143421D02*
X0032078Y0143421D01*
X0032078Y0144619D02*
X0035171Y0144619D01*
X0035171Y0145818D02*
X0032078Y0145818D01*
X0033384Y0147016D02*
X0035171Y0147016D01*
X0034073Y0148215D02*
X0033888Y0148215D01*
X0033888Y0153009D02*
X0033987Y0153009D01*
X0033491Y0154207D02*
X0035164Y0154207D01*
X0045236Y0153009D02*
X0045636Y0153009D01*
X0045636Y0151810D02*
X0045236Y0151810D01*
X0045636Y0150612D02*
X0056825Y0150612D01*
X0056825Y0151810D02*
X0049061Y0151810D01*
X0048425Y0153009D02*
X0056825Y0153009D01*
X0057837Y0156604D02*
X0019187Y0156604D01*
X0020988Y0157803D02*
X0059035Y0157803D01*
X0064921Y0150465D02*
X0065321Y0150465D01*
X0065321Y0146878D01*
X0067704Y0146878D01*
X0068056Y0146973D01*
X0068373Y0147155D01*
X0068631Y0147413D01*
X0068814Y0147730D01*
X0068908Y0148083D01*
X0068908Y0149556D01*
X0069434Y0148286D01*
X0070604Y0147116D01*
X0070604Y0126337D01*
X0064435Y0120168D01*
X0064559Y0120466D01*
X0064559Y0121809D01*
X0064045Y0123049D01*
X0063574Y0123520D01*
X0063574Y0143267D01*
X0063211Y0144145D01*
X0061606Y0145750D01*
X0061606Y0147422D01*
X0061611Y0147413D01*
X0061869Y0147155D01*
X0062185Y0146973D01*
X0062538Y0146878D01*
X0064921Y0146878D01*
X0064921Y0150465D01*
X0064921Y0149413D02*
X0065321Y0149413D01*
X0065321Y0148215D02*
X0064921Y0148215D01*
X0064921Y0147016D02*
X0065321Y0147016D01*
X0062737Y0144619D02*
X0070604Y0144619D01*
X0070604Y0143421D02*
X0063511Y0143421D01*
X0063574Y0142222D02*
X0070604Y0142222D01*
X0070604Y0141024D02*
X0063574Y0141024D01*
X0063574Y0139825D02*
X0070604Y0139825D01*
X0070604Y0138627D02*
X0063574Y0138627D01*
X0063574Y0137428D02*
X0070604Y0137428D01*
X0070604Y0136230D02*
X0063574Y0136230D01*
X0063574Y0135031D02*
X0070604Y0135031D01*
X0070604Y0133833D02*
X0063574Y0133833D01*
X0063574Y0132634D02*
X0070604Y0132634D01*
X0070604Y0131436D02*
X0063574Y0131436D01*
X0063574Y0130237D02*
X0070604Y0130237D01*
X0070604Y0129039D02*
X0063574Y0129039D01*
X0063574Y0127840D02*
X0070604Y0127840D01*
X0070604Y0126642D02*
X0063574Y0126642D01*
X0063574Y0125443D02*
X0069710Y0125443D01*
X0068512Y0124245D02*
X0063574Y0124245D01*
X0064046Y0123046D02*
X0067313Y0123046D01*
X0066115Y0121848D02*
X0064543Y0121848D01*
X0064559Y0120649D02*
X0064916Y0120649D01*
X0075386Y0127840D02*
X0096356Y0127840D01*
X0097501Y0129039D02*
X0075386Y0129039D01*
X0075386Y0130237D02*
X0096303Y0130237D01*
X0096254Y0131436D02*
X0075386Y0131436D01*
X0075386Y0132634D02*
X0096254Y0132634D01*
X0096254Y0133833D02*
X0075386Y0133833D01*
X0075386Y0135031D02*
X0096254Y0135031D01*
X0096254Y0136230D02*
X0075386Y0136230D01*
X0075386Y0137428D02*
X0096945Y0137428D01*
X0098163Y0138627D02*
X0075386Y0138627D01*
X0075386Y0139825D02*
X0098163Y0139825D01*
X0098163Y0141024D02*
X0075386Y0141024D01*
X0075386Y0142222D02*
X0098163Y0142222D01*
X0098163Y0143421D02*
X0075386Y0143421D01*
X0075386Y0144619D02*
X0098163Y0144619D01*
X0098163Y0145818D02*
X0075386Y0145818D01*
X0075386Y0147016D02*
X0078703Y0147016D01*
X0077380Y0148215D02*
X0076484Y0148215D01*
X0070604Y0147016D02*
X0068132Y0147016D01*
X0068908Y0148215D02*
X0069506Y0148215D01*
X0068968Y0149413D02*
X0068908Y0149413D01*
X0070604Y0145818D02*
X0061606Y0145818D01*
X0061606Y0147016D02*
X0062110Y0147016D01*
X0056825Y0148215D02*
X0048342Y0148215D01*
X0049017Y0149413D02*
X0056825Y0149413D01*
X0045636Y0149413D02*
X0045236Y0149413D01*
X0045236Y0148215D02*
X0045636Y0148215D01*
X0077112Y0157803D02*
X0125002Y0157803D01*
X0126803Y0156604D02*
X0078311Y0156604D01*
X0079509Y0155406D02*
X0127386Y0155406D01*
X0127513Y0154207D02*
X0117648Y0154207D01*
X0116502Y0154207D02*
X0116102Y0154207D01*
X0114956Y0154207D02*
X0110826Y0154207D01*
X0112003Y0153009D02*
X0113313Y0153009D01*
X0112677Y0151810D02*
X0112500Y0151810D01*
X0112455Y0149413D02*
X0112721Y0149413D01*
X0113396Y0148215D02*
X0111917Y0148215D01*
X0110819Y0147016D02*
X0115234Y0147016D01*
X0116102Y0147016D02*
X0116502Y0147016D01*
X0117371Y0147016D02*
X0127513Y0147016D01*
X0127513Y0145818D02*
X0110819Y0145818D01*
X0110819Y0144619D02*
X0127513Y0144619D01*
X0127513Y0143421D02*
X0110819Y0143421D01*
X0110819Y0142222D02*
X0127513Y0142222D01*
X0127513Y0141024D02*
X0110819Y0141024D01*
X0110819Y0139825D02*
X0127513Y0139825D01*
X0127513Y0138627D02*
X0110819Y0138627D01*
X0107465Y0135031D02*
X0104854Y0135031D01*
X0104854Y0133833D02*
X0108065Y0133833D01*
X0108065Y0132634D02*
X0104854Y0132634D01*
X0104854Y0131436D02*
X0108065Y0131436D01*
X0108114Y0130237D02*
X0104805Y0130237D01*
X0103607Y0129039D02*
X0109312Y0129039D01*
X0108167Y0127840D02*
X0104752Y0127840D01*
X0104854Y0121848D02*
X0108065Y0121848D01*
X0108702Y0120649D02*
X0104217Y0120649D01*
X0095162Y0112259D02*
X0127513Y0112259D01*
X0127513Y0111061D02*
X0095162Y0111061D01*
X0095162Y0109862D02*
X0127513Y0109862D01*
X0127513Y0108664D02*
X0094624Y0108664D01*
X0087374Y0114656D02*
X0086175Y0114656D01*
X0086175Y0115855D02*
X0087374Y0115855D01*
X0087374Y0117054D02*
X0086175Y0117054D01*
X0086175Y0118252D02*
X0087374Y0118252D01*
X0104854Y0136230D02*
X0106346Y0136230D01*
X0106037Y0137428D02*
X0104164Y0137428D01*
X0102945Y0138627D02*
X0106037Y0138627D01*
X0106037Y0139825D02*
X0102945Y0139825D01*
X0102945Y0141024D02*
X0106037Y0141024D01*
X0106037Y0142222D02*
X0102945Y0142222D01*
X0102945Y0143421D02*
X0106037Y0143421D01*
X0106037Y0144619D02*
X0102945Y0144619D01*
X0102945Y0145818D02*
X0106037Y0145818D01*
X0106037Y0147016D02*
X0104251Y0147016D01*
X0104754Y0148215D02*
X0104939Y0148215D01*
X0104853Y0153009D02*
X0104754Y0153009D01*
X0104358Y0154207D02*
X0106030Y0154207D01*
X0096750Y0154207D02*
X0083267Y0154207D01*
X0084444Y0153009D02*
X0096354Y0153009D01*
X0096354Y0151810D02*
X0084941Y0151810D01*
X0085069Y0150612D02*
X0096354Y0150612D01*
X0096354Y0149413D02*
X0084896Y0149413D01*
X0084358Y0148215D02*
X0096354Y0148215D01*
X0096857Y0147016D02*
X0083035Y0147016D01*
X0116102Y0148215D02*
X0116502Y0148215D01*
X0116502Y0149413D02*
X0116102Y0149413D01*
X0116502Y0150612D02*
X0127513Y0150612D01*
X0127513Y0151810D02*
X0119927Y0151810D01*
X0119291Y0153009D02*
X0127513Y0153009D01*
X0127513Y0149413D02*
X0119883Y0149413D01*
X0119208Y0148215D02*
X0127513Y0148215D01*
X0127513Y0137428D02*
X0115975Y0137428D01*
X0116665Y0136230D02*
X0127513Y0136230D01*
X0127513Y0135031D02*
X0116665Y0135031D01*
X0116665Y0133833D02*
X0127513Y0133833D01*
X0127513Y0132634D02*
X0116665Y0132634D01*
X0116665Y0131436D02*
X0127513Y0131436D01*
X0127513Y0130237D02*
X0116616Y0130237D01*
X0115418Y0129039D02*
X0127513Y0129039D01*
X0127513Y0127840D02*
X0116563Y0127840D01*
X0116665Y0126642D02*
X0127513Y0126642D01*
X0127513Y0125443D02*
X0116665Y0125443D01*
X0116665Y0124245D02*
X0127513Y0124245D01*
X0127513Y0123046D02*
X0116665Y0123046D01*
X0116665Y0121848D02*
X0127513Y0121848D01*
X0127513Y0120649D02*
X0116028Y0120649D01*
X0116102Y0151810D02*
X0116502Y0151810D01*
X0116502Y0153009D02*
X0116102Y0153009D01*
X0061687Y0099076D02*
X0060098Y0099076D01*
X0060771Y0097877D02*
X0061184Y0097877D01*
X0061184Y0096679D02*
X0060771Y0096679D01*
X0057284Y0096679D02*
X0056084Y0096679D01*
X0056084Y0097877D02*
X0057284Y0097877D01*
X0057284Y0099076D02*
X0056084Y0099076D01*
X0056084Y0093083D02*
X0057284Y0093083D01*
X0057284Y0091885D02*
X0056084Y0091885D01*
X0053344Y0082297D02*
X0047870Y0082297D01*
X0069547Y0091885D02*
X0072442Y0091885D01*
X0077428Y0024768D02*
X0080373Y0024768D01*
D23*
X0096617Y0058146D03*
X0104491Y0075862D03*
X0116302Y0085705D03*
X0096617Y0101453D03*
X0078900Y0081768D03*
X0043467Y0101453D03*
X0043467Y0113264D03*
X0029688Y0107358D03*
X0031656Y0087673D03*
X0027719Y0067988D03*
X0041499Y0040429D03*
X0061184Y0121138D03*
X0122208Y0121138D03*
X0122208Y0042398D03*
D24*
X0094649Y0075469D02*
X0079857Y0075469D01*
X0079463Y0075862D01*
X0070463Y0075862D02*
X0070463Y0076425D01*
X0069058Y0077831D01*
X0069058Y0083539D01*
X0066893Y0085705D01*
X0065684Y0095547D02*
X0072995Y0095547D01*
X0077676Y0090866D01*
X0077676Y0089252D01*
X0065684Y0095547D02*
X0065684Y0107358D01*
X0065684Y0117201D01*
X0072995Y0124512D01*
X0065684Y0107358D02*
X0029688Y0107358D01*
X0041499Y0086965D02*
X0031656Y0077122D01*
X0031656Y0050272D01*
X0037562Y0044366D01*
X0037562Y0036492D01*
X0037562Y0028618D02*
X0045436Y0028618D01*
X0051341Y0034524D01*
X0051341Y0040429D01*
X0041499Y0050272D01*
X0041499Y0064760D01*
X0043467Y0065457D01*
X0059215Y0065457D01*
X0060621Y0064051D01*
X0070463Y0064051D01*
X0070463Y0075862D02*
X0060621Y0075862D01*
X0059215Y0074457D01*
X0056853Y0085705D02*
X0043467Y0085705D01*
X0041499Y0086965D01*
X0094649Y0075469D02*
X0095873Y0076693D01*
X0095873Y0089252D01*
X0082838Y0028618D02*
X0074963Y0028618D01*
X0074963Y0026650D01*
X0071026Y0022713D01*
X0051341Y0022713D01*
X0045436Y0028618D01*
M02*
