G75*
%MOIN*%
%OFA0B0*%
%FSLAX25Y25*%
%IPPOS*%
%LPD*%
%AMOC8*
5,1,8,0,0,1.08239X$1,22.5*
%
%ADD10R,0.07387X0.07387*%
%ADD11OC8,0.07387*%
%ADD12C,0.00868*%
%ADD13C,0.01063*%
%ADD14C,0.01393*%
%ADD15C,0.01299*%
%ADD16R,0.06187X0.06187*%
%ADD17C,0.06187*%
%ADD18R,0.05587X0.05587*%
%ADD19C,0.05587*%
%ADD20C,0.00945*%
%ADD21C,0.00638*%
D10*
X0091026Y0052240D03*
D11*
X0081026Y0052240D03*
X0071026Y0052240D03*
X0061026Y0052240D03*
X0051026Y0052240D03*
D12*
X0056756Y0068116D02*
X0061674Y0068116D01*
X0061674Y0062798D01*
X0056756Y0062798D01*
X0056756Y0068116D01*
X0056756Y0063665D02*
X0061674Y0063665D01*
X0061674Y0064532D02*
X0056756Y0064532D01*
X0056756Y0065399D02*
X0061674Y0065399D01*
X0061674Y0066266D02*
X0056756Y0066266D01*
X0056756Y0067133D02*
X0061674Y0067133D01*
X0061674Y0068000D02*
X0056756Y0068000D01*
X0056756Y0077116D02*
X0061674Y0077116D01*
X0061674Y0071798D01*
X0056756Y0071798D01*
X0056756Y0077116D01*
X0056756Y0072665D02*
X0061674Y0072665D01*
X0061674Y0073532D02*
X0056756Y0073532D01*
X0056756Y0074399D02*
X0061674Y0074399D01*
X0061674Y0075266D02*
X0056756Y0075266D01*
X0056756Y0076133D02*
X0061674Y0076133D01*
X0061674Y0077000D02*
X0056756Y0077000D01*
X0073122Y0078321D02*
X0073122Y0073403D01*
X0067804Y0073403D01*
X0067804Y0078321D01*
X0073122Y0078321D01*
X0073122Y0074270D02*
X0067804Y0074270D01*
X0067804Y0075137D02*
X0073122Y0075137D01*
X0073122Y0076004D02*
X0067804Y0076004D01*
X0067804Y0076871D02*
X0073122Y0076871D01*
X0073122Y0077738D02*
X0067804Y0077738D01*
X0075217Y0093461D02*
X0080135Y0093461D01*
X0080135Y0085043D01*
X0075217Y0085043D01*
X0075217Y0093461D01*
X0075217Y0085910D02*
X0080135Y0085910D01*
X0080135Y0086777D02*
X0075217Y0086777D01*
X0075217Y0087644D02*
X0080135Y0087644D01*
X0080135Y0088511D02*
X0075217Y0088511D01*
X0075217Y0089378D02*
X0080135Y0089378D01*
X0080135Y0090245D02*
X0075217Y0090245D01*
X0075217Y0091112D02*
X0080135Y0091112D01*
X0080135Y0091979D02*
X0075217Y0091979D01*
X0075217Y0092846D02*
X0080135Y0092846D01*
X0084316Y0093461D02*
X0089234Y0093461D01*
X0089234Y0085043D01*
X0084316Y0085043D01*
X0084316Y0093461D01*
X0084316Y0085910D02*
X0089234Y0085910D01*
X0089234Y0086777D02*
X0084316Y0086777D01*
X0084316Y0087644D02*
X0089234Y0087644D01*
X0089234Y0088511D02*
X0084316Y0088511D01*
X0084316Y0089378D02*
X0089234Y0089378D01*
X0089234Y0090245D02*
X0084316Y0090245D01*
X0084316Y0091112D02*
X0089234Y0091112D01*
X0089234Y0091979D02*
X0084316Y0091979D01*
X0084316Y0092846D02*
X0089234Y0092846D01*
X0093414Y0093461D02*
X0098332Y0093461D01*
X0098332Y0085043D01*
X0093414Y0085043D01*
X0093414Y0093461D01*
X0093414Y0085910D02*
X0098332Y0085910D01*
X0098332Y0086777D02*
X0093414Y0086777D01*
X0093414Y0087644D02*
X0098332Y0087644D01*
X0098332Y0088511D02*
X0093414Y0088511D01*
X0093414Y0089378D02*
X0098332Y0089378D01*
X0098332Y0090245D02*
X0093414Y0090245D01*
X0093414Y0091112D02*
X0098332Y0091112D01*
X0098332Y0091979D02*
X0093414Y0091979D01*
X0093414Y0092846D02*
X0098332Y0092846D01*
X0082122Y0078321D02*
X0082122Y0073403D01*
X0076804Y0073403D01*
X0076804Y0078321D01*
X0082122Y0078321D01*
X0082122Y0074270D02*
X0076804Y0074270D01*
X0076804Y0075137D02*
X0082122Y0075137D01*
X0082122Y0076004D02*
X0076804Y0076004D01*
X0076804Y0076871D02*
X0082122Y0076871D01*
X0082122Y0077738D02*
X0076804Y0077738D01*
X0082122Y0066510D02*
X0082122Y0061592D01*
X0076804Y0061592D01*
X0076804Y0066510D01*
X0082122Y0066510D01*
X0082122Y0062459D02*
X0076804Y0062459D01*
X0076804Y0063326D02*
X0082122Y0063326D01*
X0082122Y0064193D02*
X0076804Y0064193D01*
X0076804Y0065060D02*
X0082122Y0065060D01*
X0082122Y0065927D02*
X0076804Y0065927D01*
X0073122Y0066510D02*
X0073122Y0061592D01*
X0067804Y0061592D01*
X0067804Y0066510D01*
X0073122Y0066510D01*
X0073122Y0062459D02*
X0067804Y0062459D01*
X0067804Y0063326D02*
X0073122Y0063326D01*
X0073122Y0064193D02*
X0067804Y0064193D01*
X0067804Y0065060D02*
X0073122Y0065060D01*
X0073122Y0065927D02*
X0067804Y0065927D01*
X0068343Y0093088D02*
X0068343Y0098006D01*
X0068343Y0093088D02*
X0063025Y0093088D01*
X0063025Y0098006D01*
X0068343Y0098006D01*
X0068343Y0093955D02*
X0063025Y0093955D01*
X0063025Y0094822D02*
X0068343Y0094822D01*
X0068343Y0095689D02*
X0063025Y0095689D01*
X0063025Y0096556D02*
X0068343Y0096556D01*
X0068343Y0097423D02*
X0063025Y0097423D01*
X0059343Y0098006D02*
X0059343Y0093088D01*
X0054025Y0093088D01*
X0054025Y0098006D01*
X0059343Y0098006D01*
X0059343Y0093955D02*
X0054025Y0093955D01*
X0054025Y0094822D02*
X0059343Y0094822D01*
X0059343Y0095689D02*
X0054025Y0095689D01*
X0054025Y0096556D02*
X0059343Y0096556D01*
X0059343Y0097423D02*
X0054025Y0097423D01*
X0040021Y0121853D02*
X0035103Y0121853D01*
X0035103Y0127171D01*
X0040021Y0127171D01*
X0040021Y0121853D01*
X0040021Y0122720D02*
X0035103Y0122720D01*
X0035103Y0123587D02*
X0040021Y0123587D01*
X0040021Y0124454D02*
X0035103Y0124454D01*
X0035103Y0125321D02*
X0040021Y0125321D01*
X0040021Y0126188D02*
X0035103Y0126188D01*
X0035103Y0127055D02*
X0040021Y0127055D01*
X0040021Y0130853D02*
X0035103Y0130853D01*
X0035103Y0136171D01*
X0040021Y0136171D01*
X0040021Y0130853D01*
X0040021Y0131720D02*
X0035103Y0131720D01*
X0035103Y0132587D02*
X0040021Y0132587D01*
X0040021Y0133454D02*
X0035103Y0133454D01*
X0035103Y0134321D02*
X0040021Y0134321D01*
X0040021Y0135188D02*
X0035103Y0135188D01*
X0035103Y0136055D02*
X0040021Y0136055D01*
X0028210Y0130853D02*
X0023292Y0130853D01*
X0023292Y0136171D01*
X0028210Y0136171D01*
X0028210Y0130853D01*
X0028210Y0131720D02*
X0023292Y0131720D01*
X0023292Y0132587D02*
X0028210Y0132587D01*
X0028210Y0133454D02*
X0023292Y0133454D01*
X0023292Y0134321D02*
X0028210Y0134321D01*
X0028210Y0135188D02*
X0023292Y0135188D01*
X0023292Y0136055D02*
X0028210Y0136055D01*
X0028210Y0121853D02*
X0023292Y0121853D01*
X0023292Y0127171D01*
X0028210Y0127171D01*
X0028210Y0121853D01*
X0028210Y0122720D02*
X0023292Y0122720D01*
X0023292Y0123587D02*
X0028210Y0123587D01*
X0028210Y0124454D02*
X0023292Y0124454D01*
X0023292Y0125321D02*
X0028210Y0125321D01*
X0028210Y0126188D02*
X0023292Y0126188D01*
X0023292Y0127055D02*
X0028210Y0127055D01*
X0098095Y0121853D02*
X0103013Y0121853D01*
X0098095Y0121853D02*
X0098095Y0127171D01*
X0103013Y0127171D01*
X0103013Y0121853D01*
X0103013Y0122720D02*
X0098095Y0122720D01*
X0098095Y0123587D02*
X0103013Y0123587D01*
X0103013Y0124454D02*
X0098095Y0124454D01*
X0098095Y0125321D02*
X0103013Y0125321D01*
X0103013Y0126188D02*
X0098095Y0126188D01*
X0098095Y0127055D02*
X0103013Y0127055D01*
X0103013Y0130853D02*
X0098095Y0130853D01*
X0098095Y0136171D01*
X0103013Y0136171D01*
X0103013Y0130853D01*
X0103013Y0131720D02*
X0098095Y0131720D01*
X0098095Y0132587D02*
X0103013Y0132587D01*
X0103013Y0133454D02*
X0098095Y0133454D01*
X0098095Y0134321D02*
X0103013Y0134321D01*
X0103013Y0135188D02*
X0098095Y0135188D01*
X0098095Y0136055D02*
X0103013Y0136055D01*
X0109906Y0130853D02*
X0114824Y0130853D01*
X0109906Y0130853D02*
X0109906Y0136171D01*
X0114824Y0136171D01*
X0114824Y0130853D01*
X0114824Y0131720D02*
X0109906Y0131720D01*
X0109906Y0132587D02*
X0114824Y0132587D01*
X0114824Y0133454D02*
X0109906Y0133454D01*
X0109906Y0134321D02*
X0114824Y0134321D01*
X0114824Y0135188D02*
X0109906Y0135188D01*
X0109906Y0136055D02*
X0114824Y0136055D01*
X0114824Y0121853D02*
X0109906Y0121853D01*
X0109906Y0127171D01*
X0114824Y0127171D01*
X0114824Y0121853D01*
X0114824Y0122720D02*
X0109906Y0122720D01*
X0109906Y0123587D02*
X0114824Y0123587D01*
X0114824Y0124454D02*
X0109906Y0124454D01*
X0109906Y0125321D02*
X0114824Y0125321D01*
X0114824Y0126188D02*
X0109906Y0126188D01*
X0109906Y0127055D02*
X0114824Y0127055D01*
D13*
X0089472Y0078481D02*
X0089472Y0072457D01*
X0089472Y0078481D02*
X0099826Y0078481D01*
X0099826Y0072457D01*
X0089472Y0072457D01*
X0089472Y0073519D02*
X0099826Y0073519D01*
X0099826Y0074581D02*
X0089472Y0074581D01*
X0089472Y0075643D02*
X0099826Y0075643D01*
X0099826Y0076705D02*
X0089472Y0076705D01*
X0089472Y0077767D02*
X0099826Y0077767D01*
X0089472Y0067457D02*
X0089472Y0061433D01*
X0089472Y0067457D02*
X0099826Y0067457D01*
X0099826Y0061433D01*
X0089472Y0061433D01*
X0089472Y0062495D02*
X0099826Y0062495D01*
X0099826Y0063557D02*
X0089472Y0063557D01*
X0089472Y0064619D02*
X0099826Y0064619D01*
X0099826Y0065681D02*
X0089472Y0065681D01*
X0089472Y0066743D02*
X0099826Y0066743D01*
D14*
X0093472Y0117601D02*
X0080078Y0117601D01*
X0093472Y0117601D02*
X0093472Y0109707D01*
X0080078Y0109707D01*
X0080078Y0117601D01*
X0080078Y0111099D02*
X0093472Y0111099D01*
X0093472Y0112491D02*
X0080078Y0112491D01*
X0080078Y0113883D02*
X0093472Y0113883D01*
X0093472Y0115275D02*
X0080078Y0115275D01*
X0080078Y0116667D02*
X0093472Y0116667D01*
D15*
X0036833Y0090646D02*
X0036833Y0083284D01*
X0036833Y0090646D02*
X0046165Y0090646D01*
X0046165Y0083284D01*
X0036833Y0083284D01*
X0036833Y0084582D02*
X0046165Y0084582D01*
X0046165Y0085880D02*
X0036833Y0085880D01*
X0036833Y0087178D02*
X0046165Y0087178D01*
X0046165Y0088476D02*
X0036833Y0088476D01*
X0036833Y0089774D02*
X0046165Y0089774D01*
X0046165Y0068441D02*
X0046165Y0061079D01*
X0036833Y0061079D01*
X0036833Y0068441D01*
X0046165Y0068441D01*
X0046165Y0062377D02*
X0036833Y0062377D01*
X0036833Y0063675D02*
X0046165Y0063675D01*
X0046165Y0064973D02*
X0036833Y0064973D01*
X0036833Y0066271D02*
X0046165Y0066271D01*
X0046165Y0067569D02*
X0036833Y0067569D01*
D16*
X0029688Y0036492D03*
X0067089Y0036492D03*
D17*
X0029688Y0028618D03*
X0037562Y0028618D03*
X0037562Y0036492D03*
X0045436Y0036492D03*
X0045436Y0028618D03*
X0067089Y0028618D03*
X0074963Y0028618D03*
X0074963Y0036492D03*
X0082838Y0036492D03*
X0082838Y0028618D03*
D18*
X0100554Y0150665D03*
X0065121Y0150665D03*
X0029688Y0150665D03*
D19*
X0037562Y0150665D03*
X0045436Y0150665D03*
X0072995Y0150665D03*
X0080869Y0150665D03*
X0108428Y0150665D03*
X0116302Y0150665D03*
D20*
X0071145Y0088382D02*
X0062641Y0088382D01*
X0071145Y0088382D02*
X0071145Y0083028D01*
X0062641Y0083028D01*
X0062641Y0088382D01*
X0062641Y0083972D02*
X0071145Y0083972D01*
X0071145Y0084916D02*
X0062641Y0084916D01*
X0062641Y0085860D02*
X0071145Y0085860D01*
X0071145Y0086804D02*
X0062641Y0086804D01*
X0062641Y0087748D02*
X0071145Y0087748D01*
D21*
X0058660Y0088496D02*
X0055046Y0088496D01*
X0058660Y0088496D02*
X0058660Y0082914D01*
X0055046Y0082914D01*
X0055046Y0088496D01*
X0055046Y0083551D02*
X0058660Y0083551D01*
X0058660Y0084188D02*
X0055046Y0084188D01*
X0055046Y0084825D02*
X0058660Y0084825D01*
X0058660Y0085462D02*
X0055046Y0085462D01*
X0055046Y0086099D02*
X0058660Y0086099D01*
X0058660Y0086736D02*
X0055046Y0086736D01*
X0055046Y0087373D02*
X0058660Y0087373D01*
X0058660Y0088010D02*
X0055046Y0088010D01*
M02*
