%
M48
M72
T01C0.01575
T02C0.03200
T03C0.03543
T04C0.03600
%
T01
X41499Y40429
X27719Y67988
X31656Y87673
X43467Y101453
X43467Y113264
X29688Y107358
X61184Y121138
X96617Y101453
X78900Y81768
X96617Y58146
X104491Y75862
X116302Y85705
X122208Y121138
X122208Y42398
T02
X116302Y150665
X108428Y150665
X100554Y150665
X80869Y150665
X72995Y150665
X65121Y150665
X45436Y150665
X37562Y150665
X29688Y150665
T03
X51026Y52240
X61026Y52240
X71026Y52240
X81026Y52240
X91026Y52240
T04
X29688Y28618
X29688Y36492
X37562Y36492
X37562Y28618
X45436Y28618
X45436Y36492
X67089Y36492
X67089Y28618
X74963Y28618
X74963Y36492
X82838Y36492
X82838Y28618
M30
