G75*
%MOIN*%
%OFA0B0*%
%FSLAX25Y25*%
%IPPOS*%
%LPD*%
%AMOC8*
5,1,8,0,0,1.08239X$1,22.5*
%
%ADD10C,0.00000*%
D10*
X0021814Y0018776D02*
X0124176Y0018776D01*
X0124176Y0018775D02*
X0124328Y0018777D01*
X0124480Y0018783D01*
X0124632Y0018793D01*
X0124783Y0018806D01*
X0124934Y0018824D01*
X0125085Y0018845D01*
X0125235Y0018871D01*
X0125384Y0018900D01*
X0125533Y0018933D01*
X0125680Y0018970D01*
X0125827Y0019010D01*
X0125972Y0019055D01*
X0126116Y0019103D01*
X0126259Y0019155D01*
X0126401Y0019210D01*
X0126541Y0019269D01*
X0126680Y0019332D01*
X0126817Y0019398D01*
X0126952Y0019468D01*
X0127085Y0019541D01*
X0127216Y0019618D01*
X0127346Y0019698D01*
X0127473Y0019781D01*
X0127598Y0019867D01*
X0127721Y0019957D01*
X0127841Y0020050D01*
X0127959Y0020146D01*
X0128075Y0020245D01*
X0128188Y0020347D01*
X0128298Y0020451D01*
X0128406Y0020559D01*
X0128510Y0020669D01*
X0128612Y0020782D01*
X0128711Y0020898D01*
X0128807Y0021016D01*
X0128900Y0021136D01*
X0128990Y0021259D01*
X0129076Y0021384D01*
X0129159Y0021511D01*
X0129239Y0021641D01*
X0129316Y0021772D01*
X0129389Y0021905D01*
X0129459Y0022040D01*
X0129525Y0022177D01*
X0129588Y0022316D01*
X0129647Y0022456D01*
X0129702Y0022598D01*
X0129754Y0022741D01*
X0129802Y0022885D01*
X0129847Y0023030D01*
X0129887Y0023177D01*
X0129924Y0023324D01*
X0129957Y0023473D01*
X0129986Y0023622D01*
X0130012Y0023772D01*
X0130033Y0023923D01*
X0130051Y0024074D01*
X0130064Y0024225D01*
X0130074Y0024377D01*
X0130080Y0024529D01*
X0130082Y0024681D01*
X0130082Y0154602D01*
X0130080Y0154754D01*
X0130074Y0154906D01*
X0130064Y0155058D01*
X0130051Y0155209D01*
X0130033Y0155360D01*
X0130012Y0155511D01*
X0129986Y0155661D01*
X0129957Y0155810D01*
X0129924Y0155959D01*
X0129887Y0156106D01*
X0129847Y0156253D01*
X0129802Y0156398D01*
X0129754Y0156542D01*
X0129702Y0156685D01*
X0129647Y0156827D01*
X0129588Y0156967D01*
X0129525Y0157106D01*
X0129459Y0157243D01*
X0129389Y0157378D01*
X0129316Y0157511D01*
X0129239Y0157642D01*
X0129159Y0157772D01*
X0129076Y0157899D01*
X0128990Y0158024D01*
X0128900Y0158147D01*
X0128807Y0158267D01*
X0128711Y0158385D01*
X0128612Y0158501D01*
X0128510Y0158614D01*
X0128406Y0158724D01*
X0128298Y0158832D01*
X0128188Y0158936D01*
X0128075Y0159038D01*
X0127959Y0159137D01*
X0127841Y0159233D01*
X0127721Y0159326D01*
X0127598Y0159416D01*
X0127473Y0159502D01*
X0127346Y0159585D01*
X0127216Y0159665D01*
X0127085Y0159742D01*
X0126952Y0159815D01*
X0126817Y0159885D01*
X0126680Y0159951D01*
X0126541Y0160014D01*
X0126401Y0160073D01*
X0126259Y0160128D01*
X0126116Y0160180D01*
X0125972Y0160228D01*
X0125827Y0160273D01*
X0125680Y0160313D01*
X0125533Y0160350D01*
X0125384Y0160383D01*
X0125235Y0160412D01*
X0125085Y0160438D01*
X0124934Y0160459D01*
X0124783Y0160477D01*
X0124632Y0160490D01*
X0124480Y0160500D01*
X0124328Y0160506D01*
X0124176Y0160508D01*
X0021814Y0160508D01*
X0021662Y0160506D01*
X0021510Y0160500D01*
X0021358Y0160490D01*
X0021207Y0160477D01*
X0021056Y0160459D01*
X0020905Y0160438D01*
X0020755Y0160412D01*
X0020606Y0160383D01*
X0020457Y0160350D01*
X0020310Y0160313D01*
X0020163Y0160273D01*
X0020018Y0160228D01*
X0019874Y0160180D01*
X0019731Y0160128D01*
X0019589Y0160073D01*
X0019449Y0160014D01*
X0019310Y0159951D01*
X0019173Y0159885D01*
X0019038Y0159815D01*
X0018905Y0159742D01*
X0018774Y0159665D01*
X0018644Y0159585D01*
X0018517Y0159502D01*
X0018392Y0159416D01*
X0018269Y0159326D01*
X0018149Y0159233D01*
X0018031Y0159137D01*
X0017915Y0159038D01*
X0017802Y0158936D01*
X0017692Y0158832D01*
X0017584Y0158724D01*
X0017480Y0158614D01*
X0017378Y0158501D01*
X0017279Y0158385D01*
X0017183Y0158267D01*
X0017090Y0158147D01*
X0017000Y0158024D01*
X0016914Y0157899D01*
X0016831Y0157772D01*
X0016751Y0157642D01*
X0016674Y0157511D01*
X0016601Y0157378D01*
X0016531Y0157243D01*
X0016465Y0157106D01*
X0016402Y0156967D01*
X0016343Y0156827D01*
X0016288Y0156685D01*
X0016236Y0156542D01*
X0016188Y0156398D01*
X0016143Y0156253D01*
X0016103Y0156106D01*
X0016066Y0155959D01*
X0016033Y0155810D01*
X0016004Y0155661D01*
X0015978Y0155511D01*
X0015957Y0155360D01*
X0015939Y0155209D01*
X0015926Y0155058D01*
X0015916Y0154906D01*
X0015910Y0154754D01*
X0015908Y0154602D01*
X0015908Y0024681D01*
X0015910Y0024529D01*
X0015916Y0024377D01*
X0015926Y0024225D01*
X0015939Y0024074D01*
X0015957Y0023923D01*
X0015978Y0023772D01*
X0016004Y0023622D01*
X0016033Y0023473D01*
X0016066Y0023324D01*
X0016103Y0023177D01*
X0016143Y0023030D01*
X0016188Y0022885D01*
X0016236Y0022741D01*
X0016288Y0022598D01*
X0016343Y0022456D01*
X0016402Y0022316D01*
X0016465Y0022177D01*
X0016531Y0022040D01*
X0016601Y0021905D01*
X0016674Y0021772D01*
X0016751Y0021641D01*
X0016831Y0021511D01*
X0016914Y0021384D01*
X0017000Y0021259D01*
X0017090Y0021136D01*
X0017183Y0021016D01*
X0017279Y0020898D01*
X0017378Y0020782D01*
X0017480Y0020669D01*
X0017584Y0020559D01*
X0017692Y0020451D01*
X0017802Y0020347D01*
X0017915Y0020245D01*
X0018031Y0020146D01*
X0018149Y0020050D01*
X0018269Y0019957D01*
X0018392Y0019867D01*
X0018517Y0019781D01*
X0018644Y0019698D01*
X0018774Y0019618D01*
X0018905Y0019541D01*
X0019038Y0019468D01*
X0019173Y0019398D01*
X0019310Y0019332D01*
X0019449Y0019269D01*
X0019589Y0019210D01*
X0019731Y0019155D01*
X0019874Y0019103D01*
X0020018Y0019055D01*
X0020163Y0019010D01*
X0020310Y0018970D01*
X0020457Y0018933D01*
X0020606Y0018900D01*
X0020755Y0018871D01*
X0020905Y0018845D01*
X0021056Y0018824D01*
X0021207Y0018806D01*
X0021358Y0018793D01*
X0021510Y0018783D01*
X0021662Y0018777D01*
X0021814Y0018775D01*
M02*
