G75*
%MOIN*%
%OFA0B0*%
%FSLAX25Y25*%
%IPPOS*%
%LPD*%
%AMOC8*
5,1,8,0,0,1.08239X$1,22.5*
%
%ADD10R,0.07387X0.07387*%
%ADD11OC8,0.07387*%
%ADD12C,0.00868*%
%ADD13C,0.00567*%
%ADD14C,0.03780*%
%ADD15R,0.06187X0.06187*%
%ADD16C,0.06187*%
%ADD17R,0.05587X0.05587*%
%ADD18C,0.05587*%
%ADD19C,0.01122*%
D10*
X0091026Y0052240D03*
D11*
X0081026Y0052240D03*
X0071026Y0052240D03*
X0061026Y0052240D03*
X0051026Y0052240D03*
D12*
X0040021Y0109454D02*
X0035103Y0109454D01*
X0040021Y0109454D02*
X0040021Y0104136D01*
X0035103Y0104136D01*
X0035103Y0109454D01*
X0035103Y0105003D02*
X0040021Y0105003D01*
X0040021Y0105870D02*
X0035103Y0105870D01*
X0035103Y0106737D02*
X0040021Y0106737D01*
X0040021Y0107604D02*
X0035103Y0107604D01*
X0035103Y0108471D02*
X0040021Y0108471D01*
X0040021Y0109338D02*
X0035103Y0109338D01*
X0035103Y0118454D02*
X0040021Y0118454D01*
X0040021Y0113136D01*
X0035103Y0113136D01*
X0035103Y0118454D01*
X0035103Y0114003D02*
X0040021Y0114003D01*
X0040021Y0114870D02*
X0035103Y0114870D01*
X0035103Y0115737D02*
X0040021Y0115737D01*
X0040021Y0116604D02*
X0035103Y0116604D01*
X0035103Y0117471D02*
X0040021Y0117471D01*
X0040021Y0118338D02*
X0035103Y0118338D01*
X0104619Y0088164D02*
X0104619Y0083246D01*
X0099301Y0083246D01*
X0099301Y0088164D01*
X0104619Y0088164D01*
X0104619Y0084113D02*
X0099301Y0084113D01*
X0099301Y0084980D02*
X0104619Y0084980D01*
X0104619Y0085847D02*
X0099301Y0085847D01*
X0099301Y0086714D02*
X0104619Y0086714D01*
X0104619Y0087581D02*
X0099301Y0087581D01*
X0113619Y0088164D02*
X0113619Y0083246D01*
X0108301Y0083246D01*
X0108301Y0088164D01*
X0113619Y0088164D01*
X0113619Y0084113D02*
X0108301Y0084113D01*
X0108301Y0084980D02*
X0113619Y0084980D01*
X0113619Y0085847D02*
X0108301Y0085847D01*
X0108301Y0086714D02*
X0113619Y0086714D01*
X0113619Y0087581D02*
X0108301Y0087581D01*
X0114461Y0078321D02*
X0114461Y0073403D01*
X0109143Y0073403D01*
X0109143Y0078321D01*
X0114461Y0078321D01*
X0114461Y0074270D02*
X0109143Y0074270D01*
X0109143Y0075137D02*
X0114461Y0075137D01*
X0114461Y0076004D02*
X0109143Y0076004D01*
X0109143Y0076871D02*
X0114461Y0076871D01*
X0114461Y0077738D02*
X0109143Y0077738D01*
X0123461Y0078321D02*
X0123461Y0073403D01*
X0118143Y0073403D01*
X0118143Y0078321D01*
X0123461Y0078321D01*
X0123461Y0074270D02*
X0118143Y0074270D01*
X0118143Y0075137D02*
X0123461Y0075137D01*
X0123461Y0076004D02*
X0118143Y0076004D01*
X0118143Y0076871D02*
X0123461Y0076871D01*
X0123461Y0077738D02*
X0118143Y0077738D01*
X0119749Y0084451D02*
X0124667Y0084451D01*
X0119749Y0084451D02*
X0119749Y0089769D01*
X0124667Y0089769D01*
X0124667Y0084451D01*
X0124667Y0085318D02*
X0119749Y0085318D01*
X0119749Y0086185D02*
X0124667Y0086185D01*
X0124667Y0087052D02*
X0119749Y0087052D01*
X0119749Y0087919D02*
X0124667Y0087919D01*
X0124667Y0088786D02*
X0119749Y0088786D01*
X0119749Y0089653D02*
X0124667Y0089653D01*
X0124667Y0093451D02*
X0119749Y0093451D01*
X0119749Y0098769D01*
X0124667Y0098769D01*
X0124667Y0093451D01*
X0124667Y0094318D02*
X0119749Y0094318D01*
X0119749Y0095185D02*
X0124667Y0095185D01*
X0124667Y0096052D02*
X0119749Y0096052D01*
X0119749Y0096919D02*
X0124667Y0096919D01*
X0124667Y0097786D02*
X0119749Y0097786D01*
X0119749Y0098653D02*
X0124667Y0098653D01*
X0124667Y0109454D02*
X0119749Y0109454D01*
X0124667Y0109454D02*
X0124667Y0104136D01*
X0119749Y0104136D01*
X0119749Y0109454D01*
X0119749Y0105003D02*
X0124667Y0105003D01*
X0124667Y0105870D02*
X0119749Y0105870D01*
X0119749Y0106737D02*
X0124667Y0106737D01*
X0124667Y0107604D02*
X0119749Y0107604D01*
X0119749Y0108471D02*
X0124667Y0108471D01*
X0124667Y0109338D02*
X0119749Y0109338D01*
X0119749Y0118454D02*
X0124667Y0118454D01*
X0124667Y0113136D01*
X0119749Y0113136D01*
X0119749Y0118454D01*
X0119749Y0114003D02*
X0124667Y0114003D01*
X0124667Y0114870D02*
X0119749Y0114870D01*
X0119749Y0115737D02*
X0124667Y0115737D01*
X0124667Y0116604D02*
X0119749Y0116604D01*
X0119749Y0117471D02*
X0124667Y0117471D01*
X0124667Y0118338D02*
X0119749Y0118338D01*
X0119749Y0054081D02*
X0124667Y0054081D01*
X0119749Y0054081D02*
X0119749Y0059399D01*
X0124667Y0059399D01*
X0124667Y0054081D01*
X0124667Y0054948D02*
X0119749Y0054948D01*
X0119749Y0055815D02*
X0124667Y0055815D01*
X0124667Y0056682D02*
X0119749Y0056682D01*
X0119749Y0057549D02*
X0124667Y0057549D01*
X0124667Y0058416D02*
X0119749Y0058416D01*
X0119749Y0059283D02*
X0124667Y0059283D01*
X0124667Y0045081D02*
X0119749Y0045081D01*
X0119749Y0050399D01*
X0124667Y0050399D01*
X0124667Y0045081D01*
X0124667Y0045948D02*
X0119749Y0045948D01*
X0119749Y0046815D02*
X0124667Y0046815D01*
X0124667Y0047682D02*
X0119749Y0047682D01*
X0119749Y0048549D02*
X0124667Y0048549D01*
X0124667Y0049416D02*
X0119749Y0049416D01*
X0119749Y0050283D02*
X0124667Y0050283D01*
X0114824Y0050399D02*
X0109906Y0050399D01*
X0114824Y0050399D02*
X0114824Y0045081D01*
X0109906Y0045081D01*
X0109906Y0050399D01*
X0109906Y0045948D02*
X0114824Y0045948D01*
X0114824Y0046815D02*
X0109906Y0046815D01*
X0109906Y0047682D02*
X0114824Y0047682D01*
X0114824Y0048549D02*
X0109906Y0048549D01*
X0109906Y0049416D02*
X0114824Y0049416D01*
X0114824Y0050283D02*
X0109906Y0050283D01*
X0109906Y0059399D02*
X0114824Y0059399D01*
X0114824Y0054081D01*
X0109906Y0054081D01*
X0109906Y0059399D01*
X0109906Y0054948D02*
X0114824Y0054948D01*
X0114824Y0055815D02*
X0109906Y0055815D01*
X0109906Y0056682D02*
X0114824Y0056682D01*
X0114824Y0057549D02*
X0109906Y0057549D01*
X0109906Y0058416D02*
X0114824Y0058416D01*
X0114824Y0059283D02*
X0109906Y0059283D01*
X0104982Y0054081D02*
X0100064Y0054081D01*
X0100064Y0059399D01*
X0104982Y0059399D01*
X0104982Y0054081D01*
X0104982Y0054948D02*
X0100064Y0054948D01*
X0100064Y0055815D02*
X0104982Y0055815D01*
X0104982Y0056682D02*
X0100064Y0056682D01*
X0100064Y0057549D02*
X0104982Y0057549D01*
X0104982Y0058416D02*
X0100064Y0058416D01*
X0100064Y0059283D02*
X0104982Y0059283D01*
X0104982Y0045081D02*
X0100064Y0045081D01*
X0100064Y0050399D01*
X0104982Y0050399D01*
X0104982Y0045081D01*
X0104982Y0045948D02*
X0100064Y0045948D01*
X0100064Y0046815D02*
X0104982Y0046815D01*
X0104982Y0047682D02*
X0100064Y0047682D01*
X0100064Y0048549D02*
X0104982Y0048549D01*
X0104982Y0049416D02*
X0100064Y0049416D01*
X0100064Y0050283D02*
X0104982Y0050283D01*
D13*
X0094225Y0068146D02*
X0084713Y0068146D01*
X0094225Y0068146D02*
X0094225Y0064932D01*
X0084713Y0064932D01*
X0084713Y0068146D01*
X0084713Y0065498D02*
X0094225Y0065498D01*
X0094225Y0066064D02*
X0084713Y0066064D01*
X0084713Y0066630D02*
X0094225Y0066630D01*
X0094225Y0067196D02*
X0084713Y0067196D01*
X0084713Y0067762D02*
X0094225Y0067762D01*
X0035581Y0075201D02*
X0035581Y0084713D01*
X0038795Y0084713D01*
X0038795Y0075201D01*
X0035581Y0075201D01*
X0035581Y0075767D02*
X0038795Y0075767D01*
X0038795Y0076333D02*
X0035581Y0076333D01*
X0035581Y0076899D02*
X0038795Y0076899D01*
X0038795Y0077465D02*
X0035581Y0077465D01*
X0035581Y0078031D02*
X0038795Y0078031D01*
X0038795Y0078597D02*
X0035581Y0078597D01*
X0035581Y0079163D02*
X0038795Y0079163D01*
X0038795Y0079729D02*
X0035581Y0079729D01*
X0035581Y0080295D02*
X0038795Y0080295D01*
X0038795Y0080861D02*
X0035581Y0080861D01*
X0035581Y0081427D02*
X0038795Y0081427D01*
X0038795Y0081993D02*
X0035581Y0081993D01*
X0035581Y0082559D02*
X0038795Y0082559D01*
X0038795Y0083125D02*
X0035581Y0083125D01*
X0035581Y0083691D02*
X0038795Y0083691D01*
X0038795Y0084257D02*
X0035581Y0084257D01*
D14*
X0032188Y0083106D02*
X0032188Y0076808D01*
X0027188Y0076808D02*
X0027188Y0083106D01*
X0022188Y0083106D02*
X0022188Y0076808D01*
X0022188Y0063106D02*
X0022188Y0056808D01*
X0027188Y0056808D02*
X0027188Y0063106D01*
X0032188Y0063106D02*
X0032188Y0056808D01*
X0037188Y0056808D02*
X0037188Y0063106D01*
X0048820Y0066539D02*
X0055118Y0066539D01*
X0055118Y0071539D02*
X0048820Y0071539D01*
X0048820Y0076539D02*
X0055118Y0076539D01*
X0055118Y0081539D02*
X0048820Y0081539D01*
X0048820Y0086539D02*
X0055118Y0086539D01*
X0055118Y0091539D02*
X0048820Y0091539D01*
X0048820Y0096539D02*
X0055118Y0096539D01*
X0055118Y0101539D02*
X0048820Y0101539D01*
X0048820Y0106539D02*
X0055118Y0106539D01*
X0055118Y0111539D02*
X0048820Y0111539D01*
X0048820Y0116539D02*
X0055118Y0116539D01*
X0055118Y0121539D02*
X0048820Y0121539D01*
X0048820Y0126539D02*
X0055118Y0126539D01*
X0055118Y0131539D02*
X0048820Y0131539D01*
X0086320Y0131539D02*
X0092618Y0131539D01*
X0092618Y0126539D02*
X0086320Y0126539D01*
X0086320Y0121539D02*
X0092618Y0121539D01*
X0092618Y0116539D02*
X0086320Y0116539D01*
X0086320Y0111539D02*
X0092618Y0111539D01*
X0092618Y0106539D02*
X0086320Y0106539D01*
X0086320Y0101539D02*
X0092618Y0101539D01*
X0092618Y0096539D02*
X0086320Y0096539D01*
X0086320Y0091539D02*
X0092618Y0091539D01*
X0092618Y0086539D02*
X0086320Y0086539D01*
X0086320Y0081539D02*
X0092618Y0081539D01*
X0092618Y0076539D02*
X0086320Y0076539D01*
X0086320Y0071539D02*
X0092618Y0071539D01*
D15*
X0067089Y0036492D03*
X0029688Y0036492D03*
D16*
X0029688Y0028618D03*
X0037562Y0028618D03*
X0037562Y0036492D03*
X0045436Y0036492D03*
X0045436Y0028618D03*
X0067089Y0028618D03*
X0074963Y0028618D03*
X0074963Y0036492D03*
X0082838Y0036492D03*
X0082838Y0028618D03*
D17*
X0100554Y0150665D03*
X0065121Y0150665D03*
X0029688Y0150665D03*
D18*
X0037562Y0150665D03*
X0045436Y0150665D03*
X0072995Y0150665D03*
X0080869Y0150665D03*
X0108428Y0150665D03*
X0116302Y0150665D03*
D19*
X0112985Y0113884D02*
X0103871Y0113884D01*
X0112985Y0113884D02*
X0112985Y0107526D01*
X0103871Y0107526D01*
X0103871Y0113884D01*
X0103871Y0108647D02*
X0112985Y0108647D01*
X0112985Y0109768D02*
X0103871Y0109768D01*
X0103871Y0110889D02*
X0112985Y0110889D01*
X0112985Y0112010D02*
X0103871Y0112010D01*
X0103871Y0113131D02*
X0112985Y0113131D01*
X0112985Y0099317D02*
X0103871Y0099317D01*
X0112985Y0099317D02*
X0112985Y0092959D01*
X0103871Y0092959D01*
X0103871Y0099317D01*
X0103871Y0094080D02*
X0112985Y0094080D01*
X0112985Y0095201D02*
X0103871Y0095201D01*
X0103871Y0096322D02*
X0112985Y0096322D01*
X0112985Y0097443D02*
X0103871Y0097443D01*
X0103871Y0098564D02*
X0112985Y0098564D01*
M02*
